<?xml version="1.0" encoding="utf-8"?>
<!-- Generator: Adobe Illustrator 25.0.1, SVG Export Plug-In . SVG Version: 6.00 Build 0)  -->
<svg version="1.1" id="Layer_1" xmlns="http://www.w3.org/2000/svg" xmlns:xlink="http://www.w3.org/1999/xlink" x="0px" y="0px"
	 viewBox="0 0 40 40" style="enable-background:new 0 0 40 40;" xml:space="preserve">
<style type="text/css">
	.st0{fill:none;stroke:#371778;stroke-width:1.5;stroke-miterlimit:10;}
	.st1{fill:#FE0000;}
	.st2{fill:none;stroke:#FE0000;stroke-width:1.5;stroke-miterlimit:10;}
	.st3{fill:none;stroke:#307A00;stroke-width:1.5;stroke-miterlimit:10;}
	.st4{fill:#307A00;}
	.st5{fill:none;stroke:#00B0EF;stroke-width:1.5;stroke-miterlimit:10;}
	.st6{fill:none;stroke:#22B573;stroke-width:1.5;stroke-miterlimit:10;}
	.st7{fill:none;}
	.st8{fill:none;stroke:#E40592;stroke-width:1.5;stroke-miterlimit:10;}
	.st9{fill:none;stroke:#009577;stroke-width:1.5;stroke-miterlimit:10;}
	.st10{fill:#009577;}
	.st11{fill:none;stroke:#FF00FF;stroke-width:1.5;stroke-miterlimit:10;}
	.st12{fill:none;stroke:#FF00FF;stroke-miterlimit:10;}
	.st13{fill:none;stroke:#C1272D;stroke-width:1.5;stroke-miterlimit:10;}
	.st14{fill:none;stroke:#6E97FF;stroke-width:1.5;stroke-miterlimit:10;}
	.st15{fill:none;stroke:#1D50B7;stroke-width:1.5;stroke-miterlimit:10;}
	.st16{fill:#1D50B7;}
</style>
<g>
	<g>
		<g>
			<path class="st0" d="M7.75,25.14H6.92C4.13,24.7,2,22.29,2,19.38c0-3.22,2.61-5.82,5.82-5.82c0.92,0,1.8,0.22,2.57,0.6
				c-0.01-0.18-0.02-0.35-0.02-0.53c0-0.63,0.07-1.24,0.2-1.83c0.83-3.67,4.11-6.4,8.03-6.4c3.73,0,6.87,2.47,7.89,5.86
				c1.15-0.73,2.52-1.15,3.99-1.15c0.11,0,0.22,0,0.33,0.01c0.81,0.04,1.59,0.2,2.32,0.47c0.77,0.29,1.47,0.7,2.09,1.2
				c1.69,1.38,2.77,3.48,2.77,5.83c0,0.07,0,0.15,0,0.22c-0.04,1.31-0.41,2.53-1.03,3.58c-1.31,2.22-3.72,3.71-6.48,3.71h-6.66"/>
		</g>
		<g>
			<g>
				<path class="st0" d="M23.83,21.51c0,0.04,0,0.07,0,0.11c0,0.03,0,0.05-0.01,0.08c0,0.02-0.01,0.04-0.01,0.07
					c0,0.01-0.01,0.03-0.01,0.04c0,0.02-0.01,0.04-0.01,0.05c0,0.02-0.01,0.04-0.01,0.06c0,0.01,0,0.01-0.01,0.02
					c-0.01,0.03-0.01,0.05-0.02,0.08c-0.02,0.07-0.05,0.14-0.08,0.21c-0.01,0.02-0.02,0.04-0.03,0.06
					c-0.02,0.05-0.05,0.09-0.07,0.14c-0.01,0.03-0.03,0.05-0.04,0.08c-0.01,0.02-0.03,0.04-0.04,0.06c-0.1,0.15-0.22,0.29-0.35,0.42
					c-0.03,0.03-0.06,0.06-0.09,0.09c-0.04,0.03-0.07,0.06-0.11,0.1c-0.01,0.01-0.02,0.01-0.03,0.02c-0.04,0.03-0.08,0.06-0.12,0.09
					c-0.04,0.03-0.08,0.07-0.13,0.1c-0.05,0.04-0.1,0.07-0.15,0.11c-0.05,0.04-0.1,0.07-0.15,0.1c-0.05,0.03-0.1,0.06-0.16,0.1
					c-0.11,0.07-0.23,0.13-0.36,0.2c0,0,0,0,0,0c-0.05,0.03-0.1,0.05-0.15,0.08c-0.06,0.03-0.11,0.05-0.17,0.08
					c-0.08,0.04-0.16,0.07-0.24,0.11c-0.05,0.02-0.11,0.04-0.16,0.06c-0.07,0.03-0.14,0.05-0.2,0.08c-0.05,0.02-0.1,0.04-0.15,0.06
					c-0.04,0.01-0.07,0.03-0.11,0.04c-0.04,0.01-0.08,0.03-0.12,0.04c-0.01,0.01-0.02,0.01-0.04,0.01
					c-0.04,0.01-0.09,0.03-0.13,0.04c-0.02,0.01-0.04,0.01-0.06,0.01c-0.05,0.02-0.1,0.03-0.15,0.05c-0.16,0.05-0.32,0.09-0.49,0.13
					c-0.05,0.01-0.11,0.03-0.17,0.04c-0.11,0.02-0.22,0.05-0.32,0.07c-0.01,0-0.01,0-0.02,0c-0.06,0.01-0.11,0.02-0.17,0.03
					c-0.06,0.01-0.11,0.02-0.17,0.03c-0.07,0.01-0.14,0.02-0.21,0.03c-0.08,0.01-0.15,0.02-0.23,0.04
					c-0.12,0.02-0.23,0.03-0.35,0.04c-0.06,0.01-0.13,0.01-0.19,0.02c-0.06,0.01-0.11,0.01-0.17,0.02c-0.04,0-0.08,0.01-0.12,0.01
					c-0.03,0-0.05,0-0.08,0.01c-0.06,0.01-0.11,0.01-0.17,0.01c-0.36,0.02-0.73,0.04-1.11,0.04c-0.38,0-0.75-0.01-1.11-0.04
					c-0.06,0-0.11-0.01-0.17-0.01c-0.03,0-0.05,0-0.08-0.01C14.78,25,14.74,25,14.7,25c-0.06-0.01-0.12-0.01-0.17-0.02
					c-0.06-0.01-0.13-0.01-0.19-0.02c-0.12-0.01-0.24-0.03-0.35-0.04c-0.08-0.01-0.15-0.02-0.23-0.04
					c-0.07-0.01-0.14-0.02-0.21-0.03c-0.06-0.01-0.11-0.02-0.17-0.03c-0.06-0.01-0.11-0.02-0.17-0.03c-0.01,0-0.01,0-0.02,0
					c-0.11-0.02-0.22-0.04-0.32-0.07c-0.06-0.01-0.11-0.02-0.17-0.04c-0.16-0.04-0.33-0.08-0.48-0.13
					c-0.05-0.01-0.11-0.03-0.16-0.05c-0.02,0-0.04-0.01-0.05-0.01c-0.04-0.01-0.09-0.03-0.13-0.04c-0.01,0-0.03-0.01-0.04-0.01h0
					c-0.04-0.01-0.08-0.03-0.12-0.04l-0.11-0.04c-0.05-0.02-0.1-0.04-0.15-0.06c-0.07-0.02-0.14-0.05-0.2-0.08
					c-0.05-0.02-0.11-0.04-0.16-0.06c-0.08-0.03-0.16-0.07-0.24-0.11c-0.06-0.03-0.11-0.05-0.17-0.08
					c-0.05-0.03-0.11-0.05-0.16-0.08c0,0,0,0,0,0c-0.12-0.06-0.24-0.13-0.36-0.2c-0.06-0.03-0.11-0.06-0.16-0.1
					c-0.05-0.03-0.1-0.07-0.15-0.1c-0.05-0.04-0.1-0.07-0.15-0.11c-0.04-0.03-0.09-0.06-0.13-0.1c-0.04-0.03-0.08-0.06-0.11-0.09
					c-0.01-0.01-0.02-0.02-0.03-0.02c-0.04-0.03-0.07-0.06-0.11-0.1c-0.03-0.03-0.06-0.06-0.09-0.09c-0.14-0.14-0.25-0.28-0.35-0.42
					c-0.01-0.02-0.03-0.04-0.04-0.06c-0.01-0.02-0.03-0.05-0.04-0.08c-0.03-0.05-0.05-0.09-0.07-0.14
					c-0.01-0.02-0.02-0.04-0.03-0.06c-0.03-0.07-0.06-0.14-0.08-0.21c-0.01-0.03-0.02-0.05-0.02-0.08c0-0.01,0-0.01-0.01-0.02
					c-0.01-0.02-0.01-0.04-0.01-0.06c-0.01-0.02-0.01-0.04-0.01-0.05c0-0.01-0.01-0.03-0.01-0.04c0-0.02-0.01-0.04-0.01-0.07
					c0-0.03-0.01-0.05-0.01-0.08c0-0.04,0-0.07,0-0.11c0-1.96,3.43-3.55,7.65-3.55C20.4,17.96,23.83,19.55,23.83,21.51z"/>
			</g>
			<g>
				<path class="st0" d="M23.83,26.28c0,0.04,0,0.07,0,0.11c0,0.03,0,0.05-0.01,0.08c0,0.01,0,0.02,0,0.04c0,0.01,0,0.02,0,0.03
					c0,0.01-0.01,0.03-0.01,0.04v-0.58C23.82,26.08,23.83,26.18,23.83,26.28z"/>
			</g>
			<path class="st0" d="M23.8,21.92v4.65c0,0.02-0.01,0.04-0.01,0.05c0,0.03-0.01,0.06-0.02,0.08c-0.01,0.02-0.01,0.05-0.02,0.08
				c-0.02,0.07-0.05,0.14-0.08,0.21c-0.01,0.02-0.02,0.04-0.03,0.06c-0.02,0.05-0.05,0.1-0.07,0.14c-0.01,0.03-0.03,0.05-0.04,0.07
				c-0.01,0.02-0.03,0.04-0.04,0.06c-0.1,0.15-0.22,0.29-0.35,0.43c-0.03,0.03-0.06,0.06-0.09,0.09c-0.04,0.03-0.07,0.07-0.11,0.1
				c-0.01,0.01-0.02,0.01-0.03,0.02c-0.04,0.03-0.08,0.06-0.12,0.09c-0.04,0.03-0.08,0.07-0.13,0.1c-0.05,0.04-0.1,0.07-0.15,0.11
				c-0.05,0.03-0.1,0.07-0.15,0.1c-0.05,0.03-0.1,0.06-0.16,0.1c-0.11,0.07-0.23,0.13-0.36,0.2c0,0,0,0,0,0
				c-0.05,0.03-0.1,0.05-0.15,0.08c-0.06,0.03-0.11,0.06-0.17,0.08c-0.08,0.04-0.16,0.07-0.24,0.1c-0.05,0.02-0.11,0.04-0.16,0.06
				c-0.07,0.03-0.14,0.05-0.2,0.08c-0.05,0.02-0.1,0.04-0.15,0.05c-0.04,0.01-0.07,0.03-0.11,0.04c-0.04,0.01-0.08,0.03-0.12,0.04
				c-0.01,0-0.02,0.01-0.04,0.01c-0.04,0.01-0.09,0.03-0.13,0.04c-0.02,0.01-0.04,0.01-0.06,0.02c-0.05,0.01-0.1,0.03-0.15,0.04
				c-0.16,0.05-0.32,0.09-0.49,0.13c-0.05,0.01-0.11,0.03-0.17,0.04c-0.11,0.03-0.22,0.05-0.32,0.07c-0.01,0-0.01,0-0.02,0
				c-0.06,0.01-0.11,0.02-0.17,0.03c-0.06,0.01-0.11,0.02-0.17,0.03c-0.07,0.01-0.14,0.02-0.21,0.04c-0.08,0.01-0.15,0.02-0.23,0.03
				c-0.12,0.02-0.23,0.03-0.35,0.05c-0.06,0.01-0.13,0.01-0.19,0.02c-0.06,0.01-0.11,0.01-0.17,0.02c-0.04,0.01-0.08,0.01-0.12,0.01
				l-0.08,0.01c-0.06,0.01-0.11,0.01-0.17,0.01c-0.36,0.02-0.73,0.04-1.11,0.04c-0.38,0-0.75-0.01-1.11-0.04
				c-0.06,0-0.11-0.01-0.17-0.01c-0.03,0-0.05,0-0.08-0.01c-0.04,0-0.08-0.01-0.12-0.01c-0.06,0-0.12-0.01-0.17-0.02
				c-0.06-0.01-0.13-0.01-0.19-0.02c-0.12-0.01-0.24-0.03-0.35-0.05c-0.08-0.01-0.15-0.02-0.23-0.03c-0.07-0.01-0.14-0.02-0.21-0.04
				c-0.06-0.01-0.11-0.02-0.17-0.03c-0.06-0.01-0.11-0.02-0.17-0.03c-0.01,0-0.01,0-0.02,0c-0.11-0.02-0.22-0.05-0.32-0.07
				c-0.06-0.01-0.11-0.02-0.17-0.04c-0.16-0.04-0.33-0.08-0.48-0.13c-0.05-0.01-0.11-0.03-0.16-0.04c-0.02-0.01-0.04-0.01-0.05-0.02
				c-0.04-0.01-0.09-0.03-0.13-0.04c-0.01,0-0.03-0.01-0.04-0.01h0c-0.04-0.01-0.08-0.03-0.12-0.04l-0.11-0.04
				c-0.05-0.02-0.1-0.04-0.15-0.05c-0.07-0.03-0.14-0.05-0.2-0.08c-0.05-0.02-0.11-0.04-0.16-0.06c-0.08-0.03-0.16-0.07-0.24-0.1
				c-0.06-0.03-0.11-0.05-0.17-0.08c-0.05-0.03-0.11-0.05-0.16-0.08c-0.12-0.06-0.24-0.13-0.36-0.2c-0.06-0.03-0.11-0.06-0.16-0.1
				c-0.05-0.03-0.1-0.07-0.15-0.1c-0.05-0.04-0.1-0.07-0.15-0.11c-0.04-0.03-0.09-0.07-0.13-0.1c-0.04-0.03-0.08-0.06-0.11-0.09
				c-0.01-0.01-0.02-0.02-0.03-0.02c-0.04-0.03-0.07-0.06-0.11-0.1c-0.03-0.03-0.06-0.06-0.09-0.09c-0.14-0.14-0.25-0.28-0.35-0.43
				c-0.01-0.02-0.03-0.04-0.04-0.06c-0.01-0.02-0.03-0.05-0.04-0.07c-0.03-0.05-0.05-0.09-0.07-0.14C8.69,27.04,8.69,27.02,8.68,27
				c-0.03-0.07-0.06-0.14-0.08-0.21c-0.01-0.03-0.02-0.05-0.02-0.08c-0.01-0.03-0.01-0.06-0.02-0.08c-0.01-0.02-0.01-0.04-0.01-0.05
				c0-0.01-0.01-0.03-0.01-0.04c0-0.01,0-0.02,0-0.03c0-0.01,0-0.02,0-0.04c0-0.03-0.01-0.05-0.01-0.08c0-0.04,0-0.07,0-0.11v-4.36
				h0.05c0,0.01,0,0.01,0.01,0.02c0.01,0.03,0.01,0.05,0.02,0.08c0.02,0.07,0.05,0.14,0.08,0.21c0.01,0.02,0.02,0.04,0.03,0.06
				c0.02,0.05,0.05,0.09,0.07,0.14c0.01,0.03,0.03,0.05,0.04,0.08c0.01,0.02,0.03,0.04,0.04,0.06c0.1,0.15,0.22,0.29,0.35,0.42
				c0.03,0.03,0.06,0.06,0.09,0.09c0.04,0.03,0.07,0.06,0.11,0.1c0.01,0.01,0.02,0.01,0.03,0.02c0.04,0.03,0.08,0.06,0.11,0.09
				c0.04,0.03,0.08,0.07,0.13,0.1c0.05,0.04,0.1,0.07,0.15,0.11c0.05,0.04,0.1,0.07,0.15,0.1c0.05,0.03,0.1,0.06,0.16,0.1
				c0.11,0.07,0.23,0.13,0.36,0.2c0,0,0,0,0,0c0.05,0.03,0.1,0.05,0.16,0.08c0.06,0.03,0.11,0.05,0.17,0.08
				c0.08,0.04,0.16,0.07,0.24,0.11c0.05,0.02,0.11,0.04,0.16,0.06c0.07,0.03,0.13,0.05,0.2,0.08c0.05,0.02,0.1,0.04,0.15,0.06
				l0.11,0.04c0.04,0.01,0.08,0.03,0.12,0.04h0c0.01,0.01,0.02,0.01,0.04,0.01c0.04,0.01,0.09,0.03,0.13,0.04
				c0.02,0.01,0.04,0.01,0.05,0.01c0.05,0.02,0.1,0.03,0.16,0.05c0.16,0.05,0.32,0.09,0.48,0.13c0.06,0.01,0.11,0.03,0.17,0.04
				c0.11,0.02,0.22,0.05,0.32,0.07c0.01,0,0.01,0,0.02,0c0.06,0.01,0.11,0.02,0.17,0.03c0.06,0.01,0.11,0.02,0.17,0.03
				c0.07,0.01,0.14,0.02,0.21,0.03c0.08,0.01,0.15,0.02,0.23,0.04c0.12,0.02,0.23,0.03,0.35,0.04c0.06,0.01,0.13,0.01,0.19,0.02
				c0.06,0.01,0.11,0.01,0.17,0.02c0.04,0,0.08,0.01,0.12,0.01c0.03,0,0.05,0,0.08,0.01c0.06,0.01,0.11,0.01,0.17,0.01
				c0.36,0.02,0.73,0.04,1.11,0.04c0.38,0,0.75-0.01,1.11-0.04c0.06,0,0.11-0.01,0.17-0.01c0.03,0,0.05,0,0.08-0.01
				c0.04,0,0.08-0.01,0.12-0.01c0.06-0.01,0.11-0.01,0.17-0.02c0.06-0.01,0.13-0.01,0.19-0.02c0.12-0.01,0.24-0.03,0.35-0.04
				c0.08-0.01,0.16-0.02,0.23-0.04c0.07-0.01,0.14-0.02,0.21-0.03c0.06-0.01,0.12-0.02,0.17-0.03c0.06-0.01,0.11-0.02,0.17-0.03
				c0.01,0,0.01,0,0.02,0c0.11-0.02,0.22-0.04,0.32-0.07c0.06-0.01,0.11-0.02,0.17-0.04c0.17-0.04,0.33-0.08,0.49-0.13
				c0.05-0.01,0.1-0.03,0.15-0.05c0.02,0,0.04-0.01,0.06-0.01c0.04-0.01,0.09-0.03,0.13-0.04c0.01,0,0.02-0.01,0.04-0.01
				c0.04-0.01,0.08-0.03,0.12-0.04c0.04-0.01,0.07-0.02,0.11-0.04c0.05-0.02,0.1-0.04,0.15-0.06c0.07-0.02,0.14-0.05,0.2-0.08
				c0.05-0.02,0.11-0.04,0.16-0.06c0.08-0.03,0.16-0.07,0.24-0.11c0.06-0.03,0.12-0.05,0.17-0.08c0.05-0.03,0.11-0.05,0.15-0.08
				c0,0,0,0,0,0c0.12-0.06,0.24-0.13,0.36-0.2c0.05-0.03,0.11-0.06,0.16-0.1c0.05-0.03,0.1-0.07,0.15-0.1
				c0.05-0.04,0.1-0.07,0.15-0.11c0.04-0.03,0.09-0.06,0.13-0.1c0.04-0.03,0.08-0.06,0.12-0.09c0.01-0.01,0.02-0.02,0.03-0.02
				c0.04-0.03,0.07-0.06,0.11-0.1c0.03-0.03,0.06-0.06,0.09-0.09c0.14-0.14,0.25-0.28,0.35-0.42c0.01-0.02,0.03-0.04,0.04-0.06
				c0.01-0.02,0.03-0.05,0.04-0.08c0.03-0.05,0.05-0.09,0.07-0.14c0.01-0.02,0.02-0.04,0.03-0.06c0.03-0.07,0.06-0.14,0.08-0.21
				c0.01-0.03,0.01-0.05,0.02-0.08c0-0.01,0-0.01,0.01-0.02H23.8z"/>
			<path class="st0" d="M23.83,31.05c0,0.04,0,0.07,0,0.11c0,0.03,0,0.05-0.01,0.08c0,0.02-0.01,0.05-0.01,0.07
				c0,0.01-0.01,0.03-0.01,0.04c0,0.02-0.01,0.04-0.01,0.05c0,0.03-0.01,0.06-0.02,0.08c-0.01,0.03-0.01,0.05-0.02,0.08
				c-0.02,0.07-0.05,0.14-0.08,0.21c-0.01,0.02-0.02,0.04-0.03,0.06c-0.02,0.05-0.05,0.1-0.07,0.14c-0.01,0.03-0.03,0.05-0.04,0.07
				c-0.01,0.02-0.03,0.04-0.04,0.06c-0.1,0.15-0.22,0.29-0.35,0.43c-0.03,0.03-0.06,0.06-0.09,0.09c-0.04,0.03-0.07,0.06-0.11,0.1
				c-0.01,0.01-0.02,0.01-0.03,0.02c-0.04,0.03-0.08,0.06-0.12,0.09c-0.04,0.04-0.08,0.07-0.13,0.1c-0.05,0.04-0.1,0.07-0.15,0.11
				c-0.05,0.03-0.1,0.07-0.15,0.1c-0.05,0.03-0.1,0.06-0.16,0.1c-0.11,0.07-0.23,0.13-0.36,0.2c-0.05,0.03-0.1,0.05-0.15,0.08
				c-0.06,0.03-0.11,0.06-0.17,0.08c-0.08,0.04-0.16,0.07-0.24,0.11c-0.05,0.02-0.11,0.04-0.16,0.06c-0.07,0.03-0.14,0.05-0.2,0.08
				c-0.05,0.02-0.1,0.04-0.15,0.06c-0.04,0.01-0.07,0.02-0.11,0.04c-0.04,0.01-0.08,0.03-0.12,0.04c-0.01,0-0.02,0.01-0.04,0.01
				c-0.04,0.01-0.09,0.03-0.13,0.04c-0.02,0.01-0.04,0.01-0.06,0.02c-0.05,0.01-0.1,0.03-0.15,0.05c-0.16,0.04-0.32,0.09-0.49,0.13
				c-0.05,0.01-0.11,0.03-0.17,0.04c-0.11,0.02-0.22,0.05-0.32,0.07c-0.01,0-0.01,0-0.02,0c-0.06,0.01-0.11,0.02-0.17,0.03
				c-0.06,0.01-0.11,0.02-0.17,0.03c-0.07,0.01-0.14,0.02-0.21,0.03c-0.08,0.01-0.15,0.02-0.23,0.03c-0.12,0.02-0.23,0.03-0.35,0.05
				c-0.06,0.01-0.13,0.01-0.19,0.02c-0.06,0.01-0.11,0.01-0.17,0.01c-0.04,0.01-0.08,0.01-0.12,0.01c-0.03,0-0.05,0.01-0.08,0.01
				c-0.06,0.01-0.11,0.01-0.17,0.01c-0.36,0.03-0.73,0.04-1.11,0.04c-0.38,0-0.75-0.01-1.11-0.04c-0.06,0-0.11-0.01-0.17-0.01
				c-0.03,0-0.05,0-0.08-0.01c-0.04,0-0.08-0.01-0.12-0.01c-0.06,0-0.12-0.01-0.17-0.01c-0.06-0.01-0.13-0.01-0.19-0.02
				c-0.12-0.01-0.24-0.03-0.35-0.05c-0.08-0.01-0.15-0.02-0.23-0.03c-0.07-0.01-0.14-0.02-0.21-0.03c-0.06-0.01-0.11-0.02-0.17-0.03
				c-0.06-0.01-0.11-0.02-0.17-0.03c-0.01,0-0.01,0-0.02,0c-0.11-0.02-0.22-0.05-0.32-0.07c-0.06-0.01-0.11-0.03-0.17-0.04
				c-0.16-0.04-0.33-0.08-0.48-0.13c-0.05-0.02-0.11-0.03-0.16-0.05c-0.02,0-0.04-0.01-0.05-0.02c-0.04-0.01-0.09-0.03-0.13-0.04
				c-0.01,0-0.03-0.01-0.04-0.01h0c-0.04-0.01-0.08-0.03-0.12-0.04c-0.04-0.01-0.07-0.02-0.11-0.04c-0.05-0.02-0.1-0.04-0.15-0.06
				c-0.07-0.02-0.14-0.05-0.2-0.08c-0.05-0.02-0.11-0.04-0.16-0.06c-0.08-0.04-0.16-0.07-0.24-0.11c-0.06-0.03-0.11-0.05-0.17-0.08
				c-0.05-0.03-0.11-0.05-0.16-0.08c-0.12-0.06-0.24-0.13-0.36-0.2c-0.06-0.03-0.11-0.06-0.16-0.1c-0.05-0.03-0.1-0.07-0.15-0.1
				c-0.05-0.04-0.1-0.07-0.15-0.11c-0.04-0.03-0.09-0.06-0.13-0.1c-0.04-0.03-0.08-0.06-0.11-0.09c-0.01-0.01-0.02-0.02-0.03-0.02
				c-0.04-0.03-0.07-0.07-0.11-0.1c-0.03-0.03-0.06-0.06-0.09-0.09c-0.14-0.14-0.25-0.28-0.35-0.43c-0.01-0.02-0.03-0.04-0.04-0.06
				C8.81,32.02,8.79,32,8.78,31.97c-0.03-0.05-0.05-0.09-0.07-0.14c-0.01-0.02-0.02-0.04-0.03-0.06c-0.03-0.07-0.06-0.14-0.08-0.21
				c-0.01-0.03-0.02-0.05-0.02-0.08c-0.01-0.03-0.01-0.06-0.02-0.08c-0.01-0.02-0.01-0.04-0.01-0.05c0-0.01-0.01-0.02-0.01-0.04
				c0-0.02-0.01-0.05-0.01-0.07c0-0.02-0.01-0.05-0.01-0.08c0-0.04,0-0.07,0-0.11c0-0.21,0-0.61,0-0.61v-4.17c0,0.04,0,0.07,0,0.11
				c0,0.03,0,0.05,0.01,0.08c0,0.01,0,0.02,0,0.04c0,0.01,0,0.02,0,0.03c0,0.01,0.01,0.03,0.01,0.04c0,0.02,0.01,0.04,0.01,0.05
				c0,0.03,0.01,0.06,0.02,0.08c0.01,0.02,0.01,0.05,0.02,0.08c0.02,0.07,0.05,0.14,0.08,0.21c0.01,0.02,0.02,0.04,0.03,0.06
				c0.02,0.05,0.05,0.1,0.07,0.14c0.01,0.03,0.03,0.05,0.04,0.07c0.01,0.02,0.03,0.04,0.04,0.06c0.1,0.15,0.22,0.29,0.35,0.43
				c0.03,0.03,0.06,0.06,0.09,0.09c0.04,0.03,0.07,0.07,0.11,0.1c0.01,0.01,0.02,0.01,0.03,0.02c0.04,0.03,0.08,0.06,0.11,0.09
				c0.04,0.03,0.08,0.07,0.13,0.1c0.05,0.04,0.1,0.07,0.15,0.11c0.05,0.03,0.1,0.07,0.15,0.1c0.05,0.03,0.1,0.06,0.16,0.1
				c0.11,0.07,0.23,0.13,0.36,0.2c0.05,0.03,0.1,0.05,0.16,0.08c0.06,0.03,0.11,0.06,0.17,0.08c0.08,0.04,0.16,0.07,0.24,0.1
				c0.05,0.02,0.11,0.04,0.16,0.06c0.07,0.03,0.13,0.05,0.2,0.08c0.05,0.02,0.1,0.04,0.15,0.05l0.11,0.04
				c0.04,0.01,0.08,0.03,0.12,0.04h0c0.01,0,0.02,0.01,0.04,0.01c0.04,0.01,0.09,0.03,0.13,0.04c0.02,0.01,0.04,0.01,0.05,0.02
				c0.05,0.01,0.1,0.03,0.16,0.04c0.16,0.05,0.32,0.09,0.48,0.13c0.06,0.01,0.11,0.03,0.17,0.04c0.11,0.02,0.22,0.05,0.32,0.07
				c0.01,0,0.01,0,0.02,0c0.06,0.01,0.11,0.02,0.17,0.03c0.06,0.01,0.11,0.02,0.17,0.03c0.07,0.01,0.14,0.02,0.21,0.04
				c0.08,0.01,0.15,0.02,0.23,0.03c0.12,0.02,0.23,0.03,0.35,0.05c0.06,0.01,0.13,0.01,0.19,0.02c0.06,0.01,0.11,0.01,0.17,0.02
				c0.04,0.01,0.08,0.01,0.12,0.01c0.03,0,0.05,0,0.08,0.01c0.06,0.01,0.11,0.01,0.17,0.01c0.36,0.02,0.73,0.04,1.11,0.04
				c0.38,0,0.75-0.01,1.11-0.04c0.06,0,0.11-0.01,0.17-0.01l0.08-0.01c0.04,0,0.08-0.01,0.12-0.01c0.06,0,0.11-0.01,0.17-0.02
				c0.06-0.01,0.13-0.01,0.19-0.02c0.12-0.01,0.24-0.03,0.35-0.05c0.08-0.01,0.16-0.02,0.23-0.03c0.07-0.01,0.14-0.02,0.21-0.04
				c0.06-0.01,0.12-0.02,0.17-0.03c0.06-0.01,0.11-0.02,0.17-0.03c0.01,0,0.01,0,0.02,0c0.11-0.02,0.22-0.04,0.32-0.07
				c0.06-0.01,0.11-0.02,0.17-0.04c0.17-0.04,0.33-0.08,0.49-0.13c0.05-0.01,0.1-0.03,0.15-0.04c0.02-0.01,0.04-0.01,0.06-0.02
				c0.04-0.01,0.09-0.03,0.13-0.04c0.01,0,0.02-0.01,0.04-0.01c0.04-0.01,0.08-0.03,0.12-0.04c0.04-0.01,0.07-0.02,0.11-0.04
				c0.05-0.02,0.1-0.04,0.15-0.05c0.07-0.03,0.14-0.05,0.2-0.08c0.05-0.02,0.11-0.04,0.16-0.06c0.08-0.03,0.16-0.07,0.24-0.1
				c0.06-0.03,0.12-0.05,0.17-0.08c0.05-0.03,0.11-0.05,0.15-0.08c0,0,0,0,0,0c0.13-0.06,0.24-0.13,0.36-0.2
				c0.05-0.03,0.11-0.06,0.16-0.1c0.05-0.03,0.1-0.07,0.15-0.1c0.05-0.04,0.1-0.07,0.15-0.11c0.04-0.03,0.09-0.07,0.13-0.1
				c0.04-0.03,0.08-0.06,0.12-0.09c0.01-0.01,0.02-0.02,0.03-0.02c0.04-0.03,0.07-0.06,0.11-0.1c0.03-0.03,0.06-0.06,0.09-0.09
				c0.14-0.14,0.25-0.28,0.35-0.43c0.01-0.02,0.03-0.04,0.04-0.06c0.01-0.02,0.03-0.05,0.04-0.07c0.03-0.05,0.05-0.09,0.07-0.14
				c0.01-0.02,0.02-0.04,0.03-0.06c0.03-0.07,0.06-0.14,0.08-0.21c0.01-0.03,0.01-0.05,0.02-0.08c0.01-0.03,0.02-0.06,0.02-0.08
				c0.01-0.02,0.01-0.04,0.01-0.05v3.88C23.8,30.45,23.83,30.85,23.83,31.05z"/>
		</g>
	</g>
</g>
</svg>
