<?xml version="1.0" encoding="utf-8"?>
<!-- Generator: Adobe Illustrator 25.0.1, SVG Export Plug-In . SVG Version: 6.00 Build 0)  -->
<svg version="1.1" id="Layer_1" xmlns="http://www.w3.org/2000/svg" xmlns:xlink="http://www.w3.org/1999/xlink" x="0px" y="0px"
	 viewBox="0 0 40 40" style="enable-background:new 0 0 40 40;" xml:space="preserve">
<style type="text/css">
	.st0{fill:none;stroke:#371778;stroke-width:1.5;stroke-miterlimit:10;}
	.st1{fill:#FE0000;}
	.st2{fill:none;stroke:#FE0000;stroke-width:1.5;stroke-miterlimit:10;}
	.st3{fill:none;stroke:#307A00;stroke-width:1.5;stroke-miterlimit:10;}
	.st4{fill:#307A00;}
	.st5{fill:none;stroke:#00B0EF;stroke-width:1.5;stroke-miterlimit:10;}
	.st6{fill:none;stroke:#22B573;stroke-width:1.5;stroke-miterlimit:10;}
	.st7{fill:none;}
	.st8{fill:none;stroke:#E40592;stroke-width:1.5;stroke-miterlimit:10;}
	.st9{fill:none;stroke:#009577;stroke-width:1.5;stroke-miterlimit:10;}
	.st10{fill:#009577;}
	.st11{fill:none;stroke:#FF00FF;stroke-width:1.5;stroke-miterlimit:10;}
	.st12{fill:none;stroke:#FF00FF;stroke-miterlimit:10;}
	.st13{fill:none;stroke:#C1272D;stroke-width:1.5;stroke-miterlimit:10;}
	.st14{fill:none;stroke:#6E97FF;stroke-width:1.5;stroke-miterlimit:10;}
	.st15{fill:none;stroke:#1D50B7;stroke-width:1.5;stroke-miterlimit:10;}
	.st16{fill:#1D50B7;}
</style>
<g>
	<g>
		<g>
			<g>
				<path class="st3" d="M26.73,21.98c0,1.03-0.66,3.05-1.04,3.73c-0.07,0.13-0.06,0.23,0.02,0.34c0.23,0.32,0.47,0.64,0.68,0.98
					c0.57,0.91,0.43,2.05-0.33,2.8c-0.27,0.27-0.53,0.55-0.83,0.78c-0.76,0.59-1.79,0.61-2.59,0.08c-0.27-0.18-0.53-0.36-0.8-0.55
					c-0.09-0.06-0.16-0.07-0.25-0.01c-0.87,0.55-1.8,0.96-2.79,1.26c-0.12,0.04-0.17,0.1-0.19,0.22c-0.1,0.5-0.12,1.02-0.39,1.47
					c-0.42,0.7-1.03,1.1-1.85,1.14c-0.45,0.02-0.9,0.01-1.35,0c-0.12,0-0.25-0.08-0.37-0.13c-0.88-0.36-1.36-1.03-1.46-1.96
					c-0.04-0.41-0.19-0.6-0.61-0.69c-0.96-0.21-1.85-0.61-2.7-1.11c-0.12-0.07-0.2-0.07-0.32,0.02c-0.36,0.25-0.71,0.54-1.15,0.64
					c-0.78,0.18-1.49,0.05-2.08-0.5c-0.36-0.34-0.74-0.69-1.01-1.1c-0.52-0.8-0.46-1.64,0.05-2.44c0.09-0.14,0.18-0.29,0.29-0.42
					c0.11-0.13,0.1-0.23,0.02-0.37c-0.49-0.82-0.85-1.69-1.11-2.6c-0.04-0.15-0.09-0.3-0.12-0.46c-0.02-0.12-0.09-0.16-0.2-0.18
					c-0.42-0.08-0.85-0.11-1.24-0.33c-0.77-0.43-1.17-1.1-1.19-1.98c-0.01-0.37-0.01-0.76,0.09-1.11c0.27-0.92,0.93-1.44,1.86-1.63
					c0.18-0.04,0.36-0.09,0.54-0.11c0.13-0.01,0.17-0.09,0.2-0.19c0.22-0.89,0.55-1.75,0.98-2.56c0.05-0.1,0.04-0.17-0.02-0.26
					c-0.23-0.32-0.45-0.64-0.67-0.97c-0.6-0.92-0.48-2.07,0.3-2.85c0.29-0.29,0.57-0.59,0.95-0.77c0.99-0.48,1.96-0.44,2.85,0.2
					c0.4,0.29,0.67,0.31,1.09,0.04c0.72-0.47,1.53-0.77,2.36-1.02c0.12-0.04,0.18-0.09,0.19-0.22c0.09-0.67,0.3-1.29,0.79-1.78
					c0.43-0.43,0.91-0.7,1.43-0.8c0,0,0.61-0.12,1.28,0.07c1.72,0.49,2.45,2.99,2.45,2.99"/>
				<path class="st3" d="M23.37,21.76c-0.72,4-4.25,6.76-8.23,6.55c-4.31-0.23-7.59-3.91-7.46-8c0.06-4.53,3.74-7.94,8.02-7.87
					c0.57,0.01,1.11,0.07,1.64,0.19"/>
			</g>
		</g>
	</g>
	<g>
		<path class="st3" d="M25.91,7.58c3.52,0.01,6.37,2.86,6.36,6.39c-0.01,3.51-2.87,6.36-6.37,6.35c-3.54-0.01-6.38-2.87-6.37-6.42
			C19.54,10.41,22.41,7.57,25.91,7.58z"/>
		<path class="st4" d="M30.39,20.23c0.71-0.49,1.3-1.08,1.8-1.8c0.31,0.26,0.62,0.51,0.92,0.76c1.72,1.42,3.45,2.85,5.16,4.28
			c0.7,0.58,0.91,1.48,0.58,2.32c-0.32,0.8-1.11,1.31-1.99,1.26c-0.58-0.03-1.07-0.28-1.44-0.73c-1.54-1.86-3.08-3.72-4.62-5.58
			C30.66,20.57,30.53,20.41,30.39,20.23z"/>
		<path class="st4" d="M29.4,16.99c1.23-2.04,0.78-4.41-0.68-5.86c-1.46-1.46-4.21-1.95-6.28-0.26c1.09-1.19,2.46-1.74,4.06-1.52
			c1.88,0.26,3.18,1.32,3.79,3.11C30.86,14.12,30.51,15.64,29.4,16.99z"/>
	</g>
</g>
</svg>
