<?xml version="1.0" encoding="utf-8"?>
<!-- Generator: Adobe Illustrator 25.0.1, SVG Export Plug-In . SVG Version: 6.00 Build 0)  -->
<svg version="1.1" id="Layer_1" xmlns="http://www.w3.org/2000/svg" xmlns:xlink="http://www.w3.org/1999/xlink" x="0px" y="0px"
	 viewBox="0 0 40 40" style="enable-background:new 0 0 40 40;" xml:space="preserve">
<style type="text/css">
	.st0{fill:none;stroke:#371778;stroke-width:1.5;stroke-miterlimit:10;}
	.st1{fill:#FE0000;}
	.st2{fill:none;stroke:#FE0000;stroke-width:1.5;stroke-miterlimit:10;}
	.st3{fill:none;stroke:#307A00;stroke-width:1.5;stroke-miterlimit:10;}
	.st4{fill:#307A00;}
	.st5{fill:none;stroke:#00B0EF;stroke-width:1.5;stroke-miterlimit:10;}
	.st6{fill:none;stroke:#22B573;stroke-width:1.5;stroke-miterlimit:10;}
	.st7{fill:none;}
	.st8{fill:none;stroke:#E40592;stroke-width:1.5;stroke-miterlimit:10;}
	.st9{fill:none;stroke:#009577;stroke-width:1.5;stroke-miterlimit:10;}
	.st10{fill:#009577;}
	.st11{fill:none;stroke:#FF00FF;stroke-width:1.5;stroke-miterlimit:10;}
	.st12{fill:none;stroke:#FF00FF;stroke-miterlimit:10;}
	.st13{fill:none;stroke:#C1272D;stroke-width:1.5;stroke-miterlimit:10;}
	.st14{fill:none;stroke:#6E97FF;stroke-width:1.5;stroke-miterlimit:10;}
	.st15{fill:none;stroke:#1D50B7;stroke-width:1.5;stroke-miterlimit:10;}
	.st16{fill:#1D50B7;}
</style>
<g>
	<g>
		<g>
			<g>
				<g>
					<path class="st5" d="M16.16,13.67c0-0.21,0.11-0.69,0.21-0.91c0.13-0.3,0.28-0.6,0.44-0.89c0.04-0.08,0.13-0.14,0.2-0.2
						c0.52-0.46,1.13-0.57,1.77-0.33c0.28,0.1,0.46,0.07,0.65-0.18c0.45-0.56,1.01-1.03,1.62-1.43c0.09-0.06,0.11-0.11,0.09-0.22
						c-0.05-0.32-0.13-0.64-0.05-0.97c0.13-0.58,0.45-1,1.01-1.22c0.34-0.13,0.7-0.27,1.06-0.31c0.7-0.08,1.24,0.23,1.6,0.83
						c0.07,0.11,0.13,0.22,0.18,0.33c0.05,0.11,0.12,0.14,0.24,0.13c0.7-0.06,1.4-0.02,2.09,0.11c0.11,0.02,0.23,0.04,0.34,0.07
						c0.09,0.02,0.13,0,0.19-0.07c0.19-0.25,0.35-0.53,0.62-0.71c0.54-0.37,1.11-0.42,1.7-0.15c0.25,0.11,0.5,0.24,0.7,0.42
						c0.53,0.48,0.66,1.08,0.47,1.76c-0.04,0.13-0.05,0.27-0.1,0.39c-0.03,0.09,0,0.14,0.06,0.19c-0.47-0.39,0.31,0,1.37,1.48
						c0.05,0.07,0.1,0.08,0.18,0.07c0.29-0.05,0.57-0.09,0.86-0.13c0.81-0.1,1.53,0.36,1.79,1.13c0.1,0.29,0.2,0.57,0.2,0.88
						c-0.01,0.81-0.34,1.44-1.06,1.82c-0.32,0.17-0.42,0.34-0.38,0.71c0.04,0.36,0.04,0.73,0.01,1.09"/>
				</g>
			</g>
		</g>
	</g>
	<g>
		<g>
			<path class="st5" d="M38.78,25.87c0,3.94-3.19,7.13-7.13,7.13H6.22c-2.76,0-5-2.24-5-5c0-2.42,1.72-4.44,4-4.9
				c0.54-4.35,4.25-7.72,8.74-7.72c1.45,0,2.82,0.35,4.02,0.97c1.21-2.38,3.68-4,6.53-4c3.73,0,6.81,2.79,7.27,6.39
				C35.66,18.81,38.78,21.98,38.78,25.87z"/>
			<path class="st5" d="M9.27,23.8c0.14-0.78,0.46-1.54,0.97-2.22c1.26-1.67,3.35-2.35,5.26-1.91"/>
		</g>
	</g>
</g>
</svg>
