<?xml version="1.0" encoding="utf-8"?>
<!-- Generator: Adobe Illustrator 25.0.1, SVG Export Plug-In . SVG Version: 6.00 Build 0)  -->
<svg version="1.1" id="Layer_1" xmlns="http://www.w3.org/2000/svg" xmlns:xlink="http://www.w3.org/1999/xlink" x="0px" y="0px"
	 viewBox="0 0 40 40" style="enable-background:new 0 0 40 40;" xml:space="preserve">
<style type="text/css">
	.st0{fill:none;stroke:#371778;stroke-width:1.5;stroke-miterlimit:10;}
	.st1{fill:#FE0000;}
	.st2{fill:none;stroke:#FE0000;stroke-width:1.5;stroke-miterlimit:10;}
	.st3{fill:none;stroke:#307A00;stroke-width:1.5;stroke-miterlimit:10;}
	.st4{fill:#307A00;}
	.st5{fill:none;stroke:#00B0EF;stroke-width:1.5;stroke-miterlimit:10;}
	.st6{fill:none;stroke:#22B573;stroke-width:1.5;stroke-miterlimit:10;}
	.st7{fill:none;}
	.st8{fill:none;stroke:#E40592;stroke-width:1.5;stroke-miterlimit:10;}
	.st9{fill:none;stroke:#009577;stroke-width:1.5;stroke-miterlimit:10;}
	.st10{fill:#009577;}
	.st11{fill:none;stroke:#FF00FF;stroke-width:1.5;stroke-miterlimit:10;}
	.st12{fill:none;stroke:#FF00FF;stroke-miterlimit:10;}
	.st13{fill:none;stroke:#C1272D;stroke-width:1.5;stroke-miterlimit:10;}
	.st14{fill:none;stroke:#6E97FF;stroke-width:1.5;stroke-miterlimit:10;}
	.st15{fill:none;stroke:#1D50B7;stroke-width:1.5;stroke-miterlimit:10;}
	.st16{fill:#1D50B7;}
</style>
<g>
	<g>
		<g>
			<path class="st6" d="M6.2,7.83C11.83,8.11,16.51,6.26,20.21,2c1.68,1.95,3.71,3.48,6.11,4.49c2.39,1.01,4.89,1.47,7.52,1.33
				c0,0.08,0,0.16,0,0.23c0,5.37,0,10.75,0,16.12c0,1.42-0.44,2.71-1.15,3.93c-0.93,1.6-2.17,2.93-3.54,4.13
				c-2.66,2.33-5.65,4.17-8.82,5.73c-0.07,0.04-0.19,0.04-0.27,0.01c-2.86-1.34-5.69-2.74-8.31-4.51c-1.04-0.7-2.02-1.48-2.9-2.38
				c-1.52-1.54-2.38-3.4-2.51-5.56c-0.11-1.92-0.16-3.85-0.17-5.78C6.15,16.37,6.19,12.98,6.2,9.6C6.2,9.01,6.2,8.43,6.2,7.83z"/>
		</g>
		<g>
			<path class="st6" d="M29.71,20.44c0,2.5-0.95,4.79-2.5,6.51c-1.78,1.97-4.35,3.2-7.2,3.2c-2.98,0-5.64-1.34-7.42-3.45
				c-1.43-1.69-2.28-3.87-2.28-6.25c0-2.48,0.93-4.74,2.46-6.45c1.78-2,4.37-3.26,7.25-3.26c2.77,0,5.26,1.16,7.03,3.02
				C28.69,15.49,29.71,17.85,29.71,20.44z"/>
			<ellipse class="st6" cx="20" cy="20.44" rx="3.89" ry="9.71"/>
			<path class="st6" d="M27.2,26.95c-1.78,1.97-4.35,3.2-7.2,3.2c-2.98,0-5.64-1.34-7.42-3.45c1.77-1.09,4.31-1.78,7.12-1.78
				C22.72,24.92,25.42,25.71,27.2,26.95z"/>
			<path class="st6" d="M27.03,13.75c-1.78,1.17-4.41,1.91-7.34,1.91c-2.72,0-5.19-0.64-6.95-1.67c1.78-2,4.37-3.26,7.25-3.26
				C22.77,10.73,25.27,11.89,27.03,13.75z"/>
			<path class="st6" d="M29.7,19.55c0,0.49-4.34,0.89-9.7,0.89s-9.7-0.4-9.7-0.89"/>
		</g>
	</g>
</g>
</svg>
