<?xml version="1.0" encoding="utf-8"?>
<!-- Generator: Adobe Illustrator 25.0.1, SVG Export Plug-In . SVG Version: 6.00 Build 0)  -->
<svg version="1.1" id="Layer_1" xmlns="http://www.w3.org/2000/svg" xmlns:xlink="http://www.w3.org/1999/xlink" x="0px" y="0px"
	 viewBox="0 0 40 40" style="enable-background:new 0 0 40 40;" xml:space="preserve">
<style type="text/css">
	.st0{fill:none;stroke:#371778;stroke-width:1.5;stroke-miterlimit:10;}
	.st1{fill:#FE0000;}
	.st2{fill:none;stroke:#FE0000;stroke-width:1.5;stroke-miterlimit:10;}
	.st3{fill:none;stroke:#307A00;stroke-width:1.5;stroke-miterlimit:10;}
	.st4{fill:#307A00;}
	.st5{fill:none;stroke:#00B0EF;stroke-width:1.5;stroke-miterlimit:10;}
	.st6{fill:none;stroke:#22B573;stroke-width:1.5;stroke-miterlimit:10;}
	.st7{fill:none;}
	.st8{fill:none;stroke:#E40592;stroke-width:1.5;stroke-miterlimit:10;}
	.st9{fill:none;stroke:#009577;stroke-width:1.5;stroke-miterlimit:10;}
	.st10{fill:#009577;}
	.st11{fill:none;stroke:#FF00FF;stroke-width:1.5;stroke-miterlimit:10;}
	.st12{fill:none;stroke:#FF00FF;stroke-miterlimit:10;}
	.st13{fill:none;stroke:#C1272D;stroke-width:1.5;stroke-miterlimit:10;}
	.st14{fill:none;stroke:#6E97FF;stroke-width:1.5;stroke-miterlimit:10;}
	.st15{fill:none;stroke:#1D50B7;stroke-width:1.5;stroke-miterlimit:10;}
	.st16{fill:#1D50B7;}
</style>
<g>
	<g>
		<g>
			<g>
				<g>
					<g>
						<path class="st8" d="M38.25,22.02c-0.13,0.4-0.4,0.7-0.83,0.87c-0.3,0.12-0.6,0.12-0.9,0.04c-0.25-0.07-0.41-0.03-0.57,0.2
							c-0.26,0.39-0.61,0.71-0.97,1.01c-0.07,0.06-0.09,0.11-0.07,0.2c0.06,0.23,0.12,0.47,0.17,0.71c0.12,0.64-0.22,1.25-0.83,1.5
							c-0.21,0.09-0.43,0.19-0.65,0.25c-0.57,0.16-1.15-0.06-1.49-0.54c-0.11-0.16-0.22-0.32-0.33-0.49
							c-0.04-0.06-0.07-0.08-0.14-0.06c-0.62,0.11-1.24,0.14-1.87,0.08c-0.08-0.01-0.12,0.02-0.16,0.08
							c-0.17,0.26-0.3,0.55-0.56,0.74c-0.4,0.3-0.84,0.39-1.31,0.22c-0.26-0.09-0.52-0.19-0.77-0.3c-0.07-0.03-0.12-0.1-0.18-0.15
							c-0.42-0.4-0.54-0.89-0.39-1.43c0.07-0.24,0.03-0.38-0.19-0.53c-0.5-0.34-0.91-0.76-1.28-1.23c-0.05-0.07-0.1-0.08-0.19-0.06
							c-0.26,0.06-0.52,0.14-0.8,0.1c-0.49-0.07-0.86-0.31-1.07-0.75c-0.13-0.27-0.27-0.55-0.32-0.85
							c-0.11-0.57,0.11-1.03,0.59-1.36c0.09-0.06,0.17-0.12,0.26-0.17c0.09-0.05,0.11-0.11,0.1-0.2c-0.09-0.57-0.1-1.14-0.04-1.72
							c0.01-0.1,0.02-0.19,0.03-0.28c0.01-0.07-0.01-0.11-0.07-0.15c-0.22-0.14-0.46-0.26-0.63-0.47c-0.34-0.42-0.42-0.88-0.23-1.38
							c0.08-0.21,0.17-0.43,0.31-0.6c0.36-0.46,0.85-0.6,1.43-0.5c0.11,0.02,0.22,0.03,0.33,0.06c0.08,0.02,0.12-0.01,0.15-0.06
							c0.33-0.45,0.71-0.86,1.14-1.22c0.05-0.04,0.06-0.08,0.05-0.15c-0.06-0.23-0.11-0.46-0.16-0.7c-0.13-0.65,0.2-1.27,0.82-1.54
							c0.23-0.1,0.46-0.2,0.72-0.22c0.67-0.05,1.22,0.19,1.58,0.75c0.16,0.25,0.31,0.33,0.61,0.27c0.52-0.1,1.05-0.09,1.57-0.04
							c0.08,0.01,0.12-0.01,0.16-0.08c0.2-0.36,0.46-0.66,0.86-0.83c0.61-0.25,1.19-0.21,1.71,0.2c0.51,0.39,0.72,0.93,0.64,1.56
							c0,0.02,0,0.04-0.01,0.06c-0.11,0.21,0.01,0.32,0.18,0.44c0.5,0.35,0.93,0.78,1.31,1.26c0.05,0.06,0.1,0.07,0.17,0.06
							c0.25-0.04,0.5-0.11,0.74-0.1c0.51,0.02,0.9,0.28,1.13,0.73c0.12,0.23,0.22,0.48,0.3,0.72c0.17,0.53-0.02,1.09-0.46,1.43
							c-0.13,0.1-0.26,0.18-0.39,0.27c-0.06,0.04-0.08,0.08-0.07,0.15c0.11,0.67,0.11,1.35,0.01,2.03
							c-0.01,0.09,0.02,0.13,0.08,0.17c0.15,0.09,0.31,0.18,0.45,0.29c0.46,0.37,0.62,1,0.4,1.54C38.3,21.9,38.28,21.95,38.25,22.02
							z"/>
						<path class="st8" d="M26.83,17.41c0.86-2.05,3.17-2.92,5.12-2.12c2.07,0.86,2.87,3.14,2.15,4.95
							c-0.87,2.19-3.31,3.08-5.32,2.16C26.84,21.51,26.02,19.25,26.83,17.41z"/>
					</g>
				</g>
				<g>
					<g>
						<path class="st8" d="M11.19,16.79H2.8c-0.67,0-1.21-0.54-1.21-1.21v-3.66c0-0.67,0.54-1.21,1.21-1.21h8.39
							c0.67,0,1.21,0.54,1.21,1.21v3.66C12.4,16.25,11.86,16.79,11.19,16.79z"/>
						<path class="st8" d="M11.35,29.29H2.64c-0.58,0-1.05-0.47-1.05-1.05v-3.98c0-0.58,0.47-1.05,1.05-1.05h8.71
							c0.58,0,1.05,0.47,1.05,1.05v3.98C12.4,28.82,11.93,29.29,11.35,29.29z"/>
					</g>
				</g>
			</g>
		</g>
		<path class="st8" d="M12.49,12.95c0.84-0.12,1.98-0.15,2.68,0.53c1.11,1.08-0.08,3.09,1.07,4.25c0.79,0.8,0.79,0.8,4.74,0.8"/>
		<path class="st8" d="M12.56,24.38c0.84,0.12,1.98,0.15,2.68-0.53c1.11-1.08-0.08-3.09,1.07-4.25c0.18-0.18,0.33-0.29,0.52-0.42
			c1.68-1.15,3.17-0.65,4.16-0.65"/>
	</g>
</g>
</svg>
