<?xml version="1.0" encoding="utf-8"?>
<!-- Generator: Adobe Illustrator 25.0.1, SVG Export Plug-In . SVG Version: 6.00 Build 0)  -->
<svg version="1.1" id="Layer_1" xmlns="http://www.w3.org/2000/svg" xmlns:xlink="http://www.w3.org/1999/xlink" x="0px" y="0px"
	 viewBox="0 0 40 40" style="enable-background:new 0 0 40 40;" xml:space="preserve">
<style type="text/css">
	.st0{fill:none;stroke:#371778;stroke-width:1.5;stroke-miterlimit:10;}
	.st1{fill:#FE0000;}
	.st2{fill:none;stroke:#FE0000;stroke-width:1.5;stroke-miterlimit:10;}
	.st3{fill:none;stroke:#307A00;stroke-width:1.5;stroke-miterlimit:10;}
	.st4{fill:#307A00;}
	.st5{fill:none;stroke:#00B0EF;stroke-width:1.5;stroke-miterlimit:10;}
	.st6{fill:none;stroke:#22B573;stroke-width:1.5;stroke-miterlimit:10;}
	.st7{fill:none;}
	.st8{fill:none;stroke:#E40592;stroke-width:1.5;stroke-miterlimit:10;}
	.st9{fill:none;stroke:#009577;stroke-width:1.5;stroke-miterlimit:10;}
	.st10{fill:#009577;}
	.st11{fill:none;stroke:#FF00FF;stroke-width:1.5;stroke-miterlimit:10;}
	.st12{fill:none;stroke:#FF00FF;stroke-miterlimit:10;}
	.st13{fill:none;stroke:#C1272D;stroke-width:1.5;stroke-miterlimit:10;}
	.st14{fill:none;stroke:#6E97FF;stroke-width:1.5;stroke-miterlimit:10;}
	.st15{fill:none;stroke:#1D50B7;stroke-width:1.5;stroke-miterlimit:10;}
	.st16{fill:#1D50B7;}
</style>
<g>
	<g>
		<g>
			<g>
				<line class="st9" x1="6.39" y1="15.52" x2="6.39" y2="15.15"/>
				<path class="st9" d="M21.31,15.52c0-0.12,0-0.24,0-0.37"/>
			</g>
			<g>
				<path class="st9" d="M21.31,11.58v24.28c0,0,0,0.38,0,0.59c0,1.41-3.34,2.55-7.46,2.55c-2.5,0-4.72-0.42-6.07-1.07
					C6.9,37.51,6.38,37,6.38,36.45c0-0.2,0-0.59,0-0.59V11.58"/>
				<path class="st9" d="M21.31,11.58c0,1.79-2.02,3.3-4.86,3.88c-0.81,0.18-1.69,0.26-2.61,0.26c-1.46,0-2.82-0.23-3.97-0.63
					c-2.1-0.73-3.49-2.03-3.49-3.51S7.78,8.8,9.88,8.07c1.15-0.4,2.51-0.63,3.97-0.63c0.91,0,1.79,0.09,2.61,0.26
					C19.29,8.28,21.31,9.8,21.31,11.58z"/>
			</g>
		</g>
	</g>
	<g>
		<g>
			<g>
				<polygon class="st10" points="23.93,9.62 25.19,12.97 27.27,10.13 				"/>
				<polygon class="st10" points="30.09,3.85 33.44,4.35 32.17,1 				"/>
				<path class="st9" d="M33.45,5.42c0.5,1.9-0.12,4-1.75,5.31c-1.93,1.55-4.64,1.48-6.48-0.05"/>
				<path class="st9" d="M23.61,8.3c-0.63-1.96-0.03-4.2,1.67-5.57c1.93-1.55,4.64-1.48,6.48,0.05"/>
			</g>
		</g>
		<circle class="st10" cx="28.49" cy="6.7" r="1.28"/>
	</g>
</g>
</svg>
