<svg xmlns="http://www.w3.org/2000/svg" xmlns:xlink="http://www.w3.org/1999/xlink" viewBox="0 0 800.13 800"><defs><style>.a{fill:none;}.b{fill:url(#a);}.c{fill:url(#b);}.d{fill:url(#c);}.e{fill:url(#d);}.f{fill:url(#e);}.g{fill:url(#f);}.h{fill:url(#g);}.i{fill:url(#h);}.j{fill:url(#i);}.k{fill:url(#j);}</style><linearGradient id="a" x1="313.17" y1="550.39" x2="800.13" y2="550.39" gradientUnits="userSpaceOnUse"><stop offset="0" stop-color="#2bc4f3"/><stop offset="0.5" stop-color="#00aeee"/><stop offset="1" stop-color="#0095da"/></linearGradient><linearGradient id="b" x1="412.46" y1="444.29" x2="587.05" y2="444.29" xlink:href="#a"/><linearGradient id="c" x1="363.22" y1="493.69" x2="537.69" y2="493.69" xlink:href="#a"/><linearGradient id="d" x1="62.63" y1="80.61" x2="111.12" y2="80.61" xlink:href="#a"/><linearGradient id="e" x1="137.78" y1="80.61" x2="461.82" y2="80.61" xlink:href="#a"/><linearGradient id="f" x1="62.62" y1="255.96" x2="111.12" y2="255.96" xlink:href="#a"/><linearGradient id="g" x1="137.77" y1="255.96" x2="461.82" y2="255.96" xlink:href="#a"/><linearGradient id="h" x1="0" y1="255.96" x2="524.45" y2="255.96" xlink:href="#a"/><linearGradient id="i" x1="62.63" y1="431.31" x2="111.12" y2="431.31" xlink:href="#a"/><linearGradient id="j" x1="137.78" y1="431.31" x2="286.47" y2="431.31" xlink:href="#a"/></defs><rect class="a" width="800" height="800"/><path class="b" d="M789.23,731,670.42,612.16a36.76,36.76,0,0,0-42.36-6.93l-30.41-30.41a161.37,161.37,0,0,0,39.52-105.93c0-89.34-72.68-162-162-162s-162,72.68-162,162,72.68,162,162,162A161.37,161.37,0,0,0,581.1,591.37l30.41,30.41a36.76,36.76,0,0,0,6.93,42.36L737.23,783a36.77,36.77,0,1,0,52.26-51.74ZM336.57,468.89c0-76.42,62.17-138.58,138.58-138.58s138.58,62.16,138.58,138.58S551.57,607.47,475.15,607.47,336.57,545.3,336.57,468.89ZM631.09,638.16a13.33,13.33,0,0,1,22.76-9.42l10.32,10.31-18.85,18.86L635,647.59a13.24,13.24,0,0,1-3.91-9.43ZM772.66,766.4a13.35,13.35,0,0,1-18.86,0l-91.91-91.92,18.85-18.85,91.92,91.91A13.35,13.35,0,0,1,772.66,766.4Z" transform="translate(0)"/><path class="c" d="M475.15,357a111.85,111.85,0,0,0-56.78,15.58A11.72,11.72,0,1,0,430,392.93l.29-.17a88.34,88.34,0,0,1,121,121,11.72,11.72,0,0,0,20,12.21c.06-.09.11-.19.17-.29A111.78,111.78,0,0,0,475.15,357Z" transform="translate(0)"/><path class="d" d="M520,545.05A88.35,88.35,0,0,1,399,424a11.72,11.72,0,0,0-20.18-11.91A111.78,111.78,0,0,0,531.93,565.23,11.72,11.72,0,0,0,520,545.05Z" transform="translate(0)"/><path class="e" d="M99.4,68.89H74.35a11.72,11.72,0,1,0,0,23.44H99.4a11.72,11.72,0,0,0,0-23.44Z" transform="translate(0)"/><path class="f" d="M461.82,80.61A11.72,11.72,0,0,0,450.1,68.89H149.5a11.72,11.72,0,0,0,0,23.44H450.1a11.72,11.72,0,0,0,11.72-11.72Z" transform="translate(0)"/><path class="g" d="M74.35,244.24a11.72,11.72,0,0,0,0,23.44H99.4a11.72,11.72,0,0,0,0-23.44H74.35Z" transform="translate(0)"/><path class="h" d="M149.5,244.24a11.72,11.72,0,0,0,0,23.44H450.1a11.72,11.72,0,0,0,0-23.44H149.5Z" transform="translate(0)"/><path class="i" d="M299.8,357H273.94V330.31h69.7a11.72,11.72,0,1,0,0-23.44H36.77a13.35,13.35,0,0,1-13.33-13.33V218.38a13.35,13.35,0,0,1,13.33-13.33H487.68A13.36,13.36,0,0,1,501,218.38v50.1a11.72,11.72,0,0,0,23.44,0v-50.1a36.82,36.82,0,0,0-36.77-36.76H273.94V155H487.68a36.81,36.81,0,0,0,36.77-36.77V43A36.82,36.82,0,0,0,487.68,6.26H36.77A36.82,36.82,0,0,0,0,43v75.15A36.81,36.81,0,0,0,36.77,155H250.5v26.67H36.77A36.81,36.81,0,0,0,0,218.38v75.16a36.82,36.82,0,0,0,36.77,36.77H250.5V357H36.77A36.81,36.81,0,0,0,0,393.74v75.15a36.82,36.82,0,0,0,36.77,36.77h238a11.72,11.72,0,1,0,0-23.44h-238a13.35,13.35,0,0,1-13.33-13.33V393.74a13.35,13.35,0,0,1,13.33-13.33h263a11.72,11.72,0,1,0,0-23.44ZM23.44,118.18V43A13.35,13.35,0,0,1,36.77,29.7H487.68A13.36,13.36,0,0,1,501,43v75.15a13.35,13.35,0,0,1-13.33,13.33H36.77a13.35,13.35,0,0,1-13.33-13.33Z" transform="translate(0)"/><path class="j" d="M74.35,419.59a11.72,11.72,0,1,0,0,23.44H99.4a11.72,11.72,0,0,0,0-23.44H74.35Z" transform="translate(0)"/><path class="k" d="M149.5,419.59a11.72,11.72,0,1,0,0,23.44H274.75a11.72,11.72,0,1,0,0-23.44Z" transform="translate(0)"/></svg>