<svg xmlns="http://www.w3.org/2000/svg" xmlns:xlink="http://www.w3.org/1999/xlink" viewBox="0 0 800.75 800"><defs><style>.a{fill:none;}.b{fill:url(#a);}.c{fill:url(#b);}.d{fill:url(#c);}.e{fill:url(#d);}.f{fill:url(#e);}.g{fill:url(#f);}.h{fill:url(#g);}.i{fill:url(#h);}.j{fill:url(#i);}.k{fill:url(#j);}.l{fill:url(#k);}</style><linearGradient id="a" x1="0.75" y1="337.37" x2="800.75" y2="337.37" gradientUnits="userSpaceOnUse"><stop offset="0" stop-color="#f37e5f"/><stop offset="0.5" stop-color="#ec1c24"/><stop offset="1" stop-color="#cf232a"/></linearGradient><linearGradient id="b" y1="513.92" y2="513.92" xlink:href="#a"/><linearGradient id="c" x1="79.83" y1="445.33" x2="173.68" y2="445.33" xlink:href="#a"/><linearGradient id="d" x1="323.68" y1="445.43" x2="417.35" y2="445.43" xlink:href="#a"/><linearGradient id="e" x1="195.26" y1="445.21" x2="302.12" y2="445.21" xlink:href="#a"/><linearGradient id="f" x1="52.32" y1="181.02" x2="122.64" y2="181.02" xlink:href="#a"/><linearGradient id="g" x1="143.2" y1="181.02" x2="213.52" y2="181.02" xlink:href="#a"/><linearGradient id="h" x1="234.07" y1="181.02" x2="304.39" y2="181.02" xlink:href="#a"/><linearGradient id="i" x1="489.22" y1="344.29" x2="632.98" y2="344.29" xlink:href="#a"/><linearGradient id="j" x1="489.22" y1="438.05" x2="754.5" y2="438.05" xlink:href="#a"/><linearGradient id="k" x1="489.22" y1="531.8" x2="696.91" y2="531.8" xlink:href="#a"/></defs><rect class="a" width="800" height="800"/><path class="b" d="M742.16,112.47h-41a11.72,11.72,0,1,0,0,23.44h41a35.19,35.19,0,0,1,35.15,35.15V225H24.19V171.06a35.19,35.19,0,0,1,35.15-35.15H649.67a11.72,11.72,0,1,0,0-23.44H59.34A58.65,58.65,0,0,0,.75,171.06V300.25a11.72,11.72,0,0,0,23.44,0V248.41H777.31V550.54a11.72,11.72,0,0,0,23.44,0V171.06A58.65,58.65,0,0,0,742.16,112.47Z"/><path class="c" d="M789,588.24A11.72,11.72,0,0,0,777.31,600v30.48a35.19,35.19,0,0,1-35.15,35.15H59.34a35.19,35.19,0,0,1-35.15-35.15V350.54a11.72,11.72,0,0,0-23.44,0h0v279.9A58.65,58.65,0,0,0,59.34,689H742.16a58.65,58.65,0,0,0,58.59-58.59V600A11.72,11.72,0,0,0,789,588.24Z"/><path class="d" d="M170.25,367.09a11.71,11.71,0,0,0-16.56,0h0L83.26,437.51a11.72,11.72,0,0,0,0,16.58l69.49,69.49A11.72,11.72,0,0,0,169.32,507l-61.2-61.2,62.13-62.14a11.71,11.71,0,0,0,0-16.56Z"/><path class="e" d="M327.85,523.58a11.73,11.73,0,0,0,16.57,0l69.49-69.5a11.69,11.69,0,0,0,0-16.55l0,0-70.42-70.42a11.72,11.72,0,0,0-16.57,16.57l62.14,62.14L327.85,507a11.72,11.72,0,0,0,0,16.57Z"/><path class="f" d="M207,566.75a11.71,11.71,0,0,0,11-7.56l83.27-219.38A11.72,11.72,0,1,0,279.54,331c-.07.18-.14.36-.2.54L196,550.86A11.72,11.72,0,0,0,207,566.75Z"/><path class="g" d="M52.32,181a35.16,35.16,0,1,0,35.16-35.16A35.16,35.16,0,0,0,52.32,181Zm46.88,0A11.72,11.72,0,1,1,87.48,169.3,11.72,11.72,0,0,1,99.2,181Z"/><path class="h" d="M143.2,181a35.16,35.16,0,1,0,35.16-35.16h0A35.19,35.19,0,0,0,143.2,181Zm46.87,0a11.72,11.72,0,1,1-11.72-11.72A11.72,11.72,0,0,1,190.07,181Z"/><path class="i" d="M234.07,181a35.16,35.16,0,1,0,35.16-35.16A35.16,35.16,0,0,0,234.07,181ZM281,181a11.72,11.72,0,1,1-11.72-11.72A11.72,11.72,0,0,1,281,181Z"/><path class="j" d="M525,379.45h73.44a35.16,35.16,0,0,0,0-70.31H525a35.16,35.16,0,0,0-1.19,70.31Zm0-46.88h73.44a11.72,11.72,0,1,1,0,23.44H525a11.72,11.72,0,0,1,0-23.44Z"/><path class="k" d="M525,473.2H718.75a35.16,35.16,0,1,0,1.19-70.31H525a35.16,35.16,0,0,0-1.19,70.31Zm0-46.87H718.75a11.72,11.72,0,0,1,1,23.42H525a11.72,11.72,0,1,1-.68-23.43H525Z"/><path class="l" d="M525,567H661.16a35.16,35.16,0,1,0,1.19-70.31H525A35.16,35.16,0,0,0,523.78,567Zm0-46.87H661.16a11.72,11.72,0,1,1,.68,23.43H525a11.72,11.72,0,1,1-.68-23.43Z"/></svg>