<?xml version="1.0" encoding="utf-8"?>
<!-- Generator: Adobe Illustrator 25.0.1, SVG Export Plug-In . SVG Version: 6.00 Build 0)  -->
<svg version="1.1" id="Layer_1" xmlns="http://www.w3.org/2000/svg" xmlns:xlink="http://www.w3.org/1999/xlink" x="0px" y="0px"
	 viewBox="0 0 752.4 800" style="enable-background:new 0 0 752.4 800;" xml:space="preserve">
<style type="text/css">
	.st0{fill:url(#SVGID_1_);}
</style>
<linearGradient id="SVGID_1_" gradientUnits="userSpaceOnUse" x1="-4.836688e-02" y1="400.05" x2="752.4788" y2="400.05">
	<stop  offset="0" style="stop-color:#FFE127"/>
	<stop  offset="0.2486" style="stop-color:#FFCA05"/>
	<stop  offset="0.8045" style="stop-color:#FAAC18"/>
</linearGradient>
<path class="st0" d="M750.7,551.5l-56,97c-3.3,5.8-10.4,8.2-16.6,5.7L595.5,621c-6.8-3-9.9-10.8-6.9-17.6c2.8-6.5,10.3-9.7,16.9-7.2
	l71.7,28.9l44.4-76.9l-60.8-47.6c-4.4-3.4-6.2-9.2-4.5-14.5c17.2-56.1,17.2-116.1,0-172.3c-1.6-5.3,0.2-11.1,4.5-14.5l60.8-47.6
	l-44.5-76.9l-71.7,29c-5.1,2.1-11,0.8-14.8-3.3c-39.9-43.1-91.8-73.1-149.1-86.2c-5.4-1.2-9.5-5.7-10.3-11.2l-10.7-76.5h-88.8
	L321,103.2c-0.8,5.5-4.9,9.9-10.3,11.2c-57.2,13.1-109.2,43.1-149.1,86.2c-3.8,4.1-9.7,5.4-14.8,3.3L75.2,175l-44.5,76.9l60.8,47.6
	c4.4,3.4,6.2,9.2,4.6,14.5C79,370,79,430,96.2,486.1c1.6,5.3-0.2,11.1-4.6,14.5l-60.8,47.6l44.5,76.9l71.7-28.9
	c5.1-2.1,11-0.8,14.8,3.3c39.9,43.1,91.9,73.1,149.1,86.2c5.4,1.2,9.5,5.7,10.3,11.2l10.8,76.5h88.8l10.8-76.5
	c0.8-5.5,4.9-9.9,10.3-11.2c31.3-7.2,61.2-19.5,88.5-36.4c6.2-4,14.5-2.2,18.5,4s2.3,14.4-3.8,18.4c-0.2,0.1-0.4,0.3-0.6,0.4
	c-27.2,16.9-56.7,29.5-87.7,37.5l-11.1,79c-0.9,6.6-6.6,11.5-13.2,11.5h-112c-6.7,0-12.3-4.9-13.2-11.5l-11.1-79
	c-56.3-14.6-107.2-44-147.7-85.3l-74.1,29.9c-6.2,2.5-13.3,0.1-16.6-5.7l-56-97c-3.3-5.8-1.9-13.1,3.3-17.2L68,485.1
	c-15.3-55.7-15.3-114.5,0-170.2L5.1,265.8c-5.3-4.1-6.7-11.5-3.3-17.2l56-97.1c3.3-5.8,10.4-8.2,16.6-5.7l74.1,29.9
	c40.5-41.2,91.4-70.7,147.4-85.1l11.1-79C307.9,4.9,313.5,0,320.2,0h112c6.7,0,12.3,4.9,13.3,11.5l11.1,79
	c55.9,14.5,106.9,43.9,147.3,85.1l74.1-29.9c6.2-2.5,13.3-0.1,16.6,5.7l56,97.1c3.3,5.8,1.9,13.1-3.3,17.2l-62.8,49.1
	c15.3,55.7,15.3,114.5,0,170.2l62.9,49.1C752.6,538.4,754,545.7,750.7,551.5L750.7,551.5z M354.3,463.6l66.9-113.7
	c3.6-6.5,1.2-14.6-5.2-18.2c-6.2-3.5-14.1-1.4-17.8,4.6L331.3,450c-3.6,6.4-1.4,14.6,5,18.2C342.5,471.9,350.5,469.8,354.3,463.6
	L354.3,463.6z M302.1,348.7c-5.2-5.2-13.7-5.2-18.9,0l0,0l0,0l-41.8,41.8c-5.2,5.2-5.2,13.7,0,18.9l41.8,41.8
	c5.2,5.2,13.7,5.2,18.9,0s5.2-13.7,0-18.9L269.7,400l32.4-32.4C307.3,362.4,307.3,354,302.1,348.7L302.1,348.7L302.1,348.7z
	 M458.1,455.2c3.6,0,7-1.4,9.5-3.9l41.8-41.8c5.2-5.2,5.2-13.7,0-18.9l-41.8-41.8c-5.2-5.2-13.7-5.2-18.9,0s-5.2,13.7,0,18.9
	l32.4,32.4l-32.4,32.4C440.2,440.8,446.3,455.2,458.1,455.2L458.1,455.2z M297.9,613.5c25.1,9.2,51.7,14,78.4,14
	c165.2,0,276-172.5,206.2-323.1c-52.7-113.8-188.2-163.4-302-110.7c-144.6,67-177.4,259.8-61.8,370.5c5.2,5.3,13.6,5.4,18.9,0.2
	c5.3-5.2,5.4-13.6,0.2-18.9c-0.1-0.1-0.2-0.2-0.3-0.3l-0.3-0.3c-102-97.7-73.2-267.8,54.5-327c100.4-46.5,219.9-2.7,266.4,97.7
	S561,535.5,460.6,582c-48.3,22.5-103.5,24.8-153.4,6.3c-6.9-2.7-14.6,0.7-17.4,7.5c-2.7,6.9,0.7,14.6,7.5,17.4L297.9,613.5
	L297.9,613.5z"/>
</svg>
