<svg xmlns="http://www.w3.org/2000/svg" xmlns:xlink="http://www.w3.org/1999/xlink" viewBox="0 0 1651.79 1678"><defs><style>.cls-1{isolation:isolate;}.cls-10,.cls-11,.cls-12,.cls-13,.cls-14,.cls-15,.cls-16,.cls-17,.cls-18,.cls-19,.cls-2,.cls-20,.cls-21,.cls-22,.cls-23,.cls-24,.cls-25,.cls-26,.cls-27,.cls-28,.cls-29,.cls-3,.cls-30,.cls-31,.cls-32,.cls-33,.cls-34,.cls-35,.cls-36,.cls-37,.cls-38,.cls-39,.cls-4,.cls-40,.cls-41,.cls-42,.cls-43,.cls-44,.cls-45,.cls-46,.cls-47,.cls-48,.cls-49,.cls-5,.cls-50,.cls-51,.cls-52,.cls-53,.cls-54,.cls-55,.cls-56,.cls-57,.cls-58,.cls-59,.cls-6,.cls-60,.cls-61,.cls-62,.cls-63,.cls-64,.cls-65,.cls-66,.cls-67,.cls-68,.cls-69,.cls-7,.cls-70,.cls-71,.cls-72,.cls-73,.cls-8,.cls-9{fill-rule:evenodd;}.cls-2{fill:url(#linear-gradient);}.cls-3{fill:url(#linear-gradient-2);}.cls-4{fill:url(#linear-gradient-3);}.cls-5{fill:url(#linear-gradient-4);}.cls-6{fill:url(#linear-gradient-5);}.cls-7{fill:url(#linear-gradient-6);}.cls-8{fill:url(#linear-gradient-7);}.cls-9{fill:url(#linear-gradient-8);}.cls-10{fill:url(#linear-gradient-9);}.cls-11{fill:url(#linear-gradient-10);}.cls-12{fill:url(#linear-gradient-11);}.cls-13{fill:url(#linear-gradient-12);}.cls-14{fill:url(#linear-gradient-13);}.cls-15{fill:url(#linear-gradient-14);}.cls-16{fill:url(#linear-gradient-15);}.cls-17{fill:url(#linear-gradient-16);}.cls-18{fill:url(#linear-gradient-17);}.cls-19{fill:url(#linear-gradient-18);}.cls-20{fill:url(#linear-gradient-19);}.cls-21{fill:url(#linear-gradient-20);}.cls-22{fill:url(#linear-gradient-21);}.cls-23{fill:url(#linear-gradient-22);}.cls-24{fill:url(#linear-gradient-23);}.cls-25{fill:url(#linear-gradient-24);}.cls-26{fill:url(#linear-gradient-25);}.cls-27{fill:url(#linear-gradient-26);}.cls-28{fill:url(#linear-gradient-27);}.cls-29{fill:url(#linear-gradient-28);}.cls-30{fill:url(#linear-gradient-29);}.cls-31{fill:url(#linear-gradient-30);}.cls-32{fill:url(#linear-gradient-31);}.cls-33{fill:url(#linear-gradient-32);}.cls-34{fill:url(#linear-gradient-33);}.cls-35{fill:url(#linear-gradient-34);}.cls-36{fill:url(#linear-gradient-35);}.cls-37{fill:url(#linear-gradient-36);}.cls-38{fill:url(#linear-gradient-37);}.cls-39{fill:url(#linear-gradient-38);}.cls-40{fill:url(#linear-gradient-39);}.cls-41{fill:url(#linear-gradient-40);}.cls-42{fill:url(#linear-gradient-41);}.cls-43{fill:url(#linear-gradient-42);}.cls-44{fill:url(#linear-gradient-43);}.cls-45{fill:url(#linear-gradient-44);}.cls-46{fill:url(#linear-gradient-45);}.cls-47{fill:url(#linear-gradient-46);}.cls-48{fill:url(#linear-gradient-47);}.cls-49{fill:url(#linear-gradient-48);}.cls-50{fill:url(#linear-gradient-49);}.cls-51{fill:url(#linear-gradient-50);}.cls-52{fill:url(#linear-gradient-51);}.cls-53{fill:url(#linear-gradient-52);}.cls-54{fill:url(#linear-gradient-53);}.cls-55{fill:url(#linear-gradient-54);}.cls-56{fill:url(#linear-gradient-55);}.cls-57{fill:url(#linear-gradient-56);}.cls-58{fill:url(#linear-gradient-57);}.cls-59{fill:url(#linear-gradient-58);}.cls-60{fill:url(#linear-gradient-59);}.cls-61{fill:url(#linear-gradient-60);}.cls-62{fill:url(#linear-gradient-61);}.cls-63{fill:url(#linear-gradient-62);}.cls-64{fill:url(#linear-gradient-63);}.cls-65{fill:url(#linear-gradient-64);}.cls-66{fill:url(#linear-gradient-65);}.cls-67{fill:url(#linear-gradient-66);}.cls-68{fill:url(#linear-gradient-67);}.cls-69{fill:url(#linear-gradient-68);}.cls-70{fill:url(#linear-gradient-69);}.cls-71{fill:url(#linear-gradient-70);}.cls-72{fill:url(#linear-gradient-71);}.cls-73{fill:url(#linear-gradient-72);}.cls-74{opacity:0.35;mix-blend-mode:multiply;fill:url(#radial-gradient);}.cls-75{font-size:400px;fill:#333;font-family:Poppins-Bold, Poppins;font-weight:700;}</style><linearGradient id="linear-gradient" x1="3485.69" y1="1768.61" x2="3467.06" y2="1974.45" gradientTransform="matrix(-1.95, 0, 0, 1, 8113.95, 0)" gradientUnits="userSpaceOnUse"><stop offset="0" stop-color="#cd7b1d"/><stop offset="0.13" stop-color="#f0a231"/><stop offset="0.27" stop-color="#ffc658"/><stop offset="0.4" stop-color="#ffe16a"/><stop offset="0.55" stop-color="#cd7b1d"/><stop offset="0.71" stop-color="#f0a231"/><stop offset="0.86" stop-color="#ffc658"/><stop offset="1" stop-color="#ffe16a"/></linearGradient><linearGradient id="linear-gradient-2" x1="3488.02" y1="1782.26" x2="3471.42" y2="1965.76" xlink:href="#linear-gradient"/><linearGradient id="linear-gradient-3" x1="3365.16" y1="1955.41" x2="3424.5" y2="1805.01" xlink:href="#linear-gradient"/><linearGradient id="linear-gradient-4" x1="3398.13" y1="1927.81" x2="3435.91" y2="1832.06" xlink:href="#linear-gradient"/><linearGradient id="linear-gradient-5" x1="3309.99" y1="1878.34" x2="3383.19" y2="1745.79" xlink:href="#linear-gradient"/><linearGradient id="linear-gradient-6" x1="3336.2" y1="1851.44" x2="3377.57" y2="1776.53" xlink:href="#linear-gradient"/><linearGradient id="linear-gradient-7" x1="3238.38" y1="1826.4" x2="3345.3" y2="1665.08" xlink:href="#linear-gradient"/><linearGradient id="linear-gradient-8" x1="3270.49" y1="1789.28" x2="3330.58" y2="1698.62" xlink:href="#linear-gradient"/><linearGradient id="linear-gradient-9" x1="3201.23" y1="1716.87" x2="3297.25" y2="1611.34" xlink:href="#linear-gradient"/><linearGradient id="linear-gradient-10" x1="3233.57" y1="1688.68" x2="3282.62" y2="1634.78" xlink:href="#linear-gradient"/><linearGradient id="linear-gradient-11" x1="3139.47" y1="1626.21" x2="3291.83" y2="1511.72" xlink:href="#linear-gradient"/><linearGradient id="linear-gradient-12" x1="3183" y1="1596.24" x2="3263.06" y2="1536.08" xlink:href="#linear-gradient"/><linearGradient id="linear-gradient-13" x1="3146.67" y1="1482.96" x2="3258.68" y2="1430.29" xlink:href="#linear-gradient"/><linearGradient id="linear-gradient-14" x1="3170.05" y1="1464.96" x2="3232.86" y2="1435.43" xlink:href="#linear-gradient"/><linearGradient id="linear-gradient-15" x1="3113.37" y1="1350.4" x2="3243.04" y2="1329.77" xlink:href="#linear-gradient"/><linearGradient id="linear-gradient-16" x1="3138.01" y1="1338.37" x2="3220.11" y2="1325.31" xlink:href="#linear-gradient"/><linearGradient id="linear-gradient-17" x1="3132.36" y1="1196.52" x2="3228.23" y2="1211.4" xlink:href="#linear-gradient"/><linearGradient id="linear-gradient-18" x1="3116.59" y1="1180.19" x2="3249.28" y2="1200.77" xlink:href="#linear-gradient"/><linearGradient id="linear-gradient-19" x1="3153.58" y1="1054.71" x2="3232.02" y2="1076.46" xlink:href="#linear-gradient"/><linearGradient id="linear-gradient-20" x1="3131.24" y1="1025.27" x2="3271.24" y2="1064.08" xlink:href="#linear-gradient"/><linearGradient id="linear-gradient-21" x1="3174.97" y1="912.85" x2="3254.62" y2="946.43" xlink:href="#linear-gradient"/><linearGradient id="linear-gradient-22" x1="3145.64" y1="870.06" x2="3315.53" y2="941.68" xlink:href="#linear-gradient"/><linearGradient id="linear-gradient-23" x1="3218.57" y1="794.78" x2="3280.07" y2="830.62" xlink:href="#linear-gradient"/><linearGradient id="linear-gradient-24" x1="3192.91" y1="744.26" x2="3342.25" y2="831.3" xlink:href="#linear-gradient"/><linearGradient id="linear-gradient-25" x1="3241.36" y1="632.84" x2="3352.86" y2="764.29" xlink:href="#linear-gradient"/><linearGradient id="linear-gradient-26" x1="3233.62" y1="593.35" x2="3398.36" y2="787.55" xlink:href="#linear-gradient"/><linearGradient id="linear-gradient-27" x1="3328.95" y1="570.05" x2="3380.04" y2="677.19" xlink:href="#linear-gradient"/><linearGradient id="linear-gradient-28" x1="3329.34" y1="534.07" x2="3412.21" y2="707.87" xlink:href="#linear-gradient"/><linearGradient id="linear-gradient-29" x1="3381.67" y1="534.53" x2="3421.09" y2="608.12" xlink:href="#linear-gradient"/><linearGradient id="linear-gradient-30" x1="3378.67" y1="500.22" x2="3449.38" y2="632.21" xlink:href="#linear-gradient"/><linearGradient id="linear-gradient-31" x1="3433.12" y1="485.63" x2="3460.58" y2="603.56" xlink:href="#linear-gradient"/><linearGradient id="linear-gradient-32" x1="3435.22" y1="468.87" x2="3470.75" y2="621.42" xlink:href="#linear-gradient"/><linearGradient id="linear-gradient-33" x1="3484.85" y1="470.08" x2="3484.85" y2="572.04" xlink:href="#linear-gradient"/><linearGradient id="linear-gradient-34" x1="3486.19" y1="470.08" x2="3486.19" y2="572.04" xlink:href="#linear-gradient"/><linearGradient id="linear-gradient-35" x1="1162.55" y1="1770.96" x2="1144.66" y2="1968.62" gradientTransform="matrix(1, 0, 0, 1, 0, 0)" xlink:href="#linear-gradient"/><linearGradient id="linear-gradient-36" x1="1158.16" y1="1770.56" x2="1140.27" y2="1968.23" gradientTransform="matrix(1, 0, 0, 1, 0, 0)" xlink:href="#linear-gradient"/><linearGradient id="linear-gradient-37" x1="996.46" y1="1937.81" x2="1048.33" y2="1806.33" gradientTransform="matrix(1, 0, 0, 1, 0, 0)" xlink:href="#linear-gradient"/><linearGradient id="linear-gradient-38" x1="998.58" y1="1938.64" x2="1050.45" y2="1807.16" gradientTransform="matrix(1, 0, 0, 1, 0, 0)" xlink:href="#linear-gradient"/><linearGradient id="linear-gradient-39" x1="891.17" y1="1869" x2="957.36" y2="1749.15" gradientTransform="matrix(1, 0, 0, 1, 0, 0)" xlink:href="#linear-gradient"/><linearGradient id="linear-gradient-40" x1="873.39" y1="1859.19" x2="939.58" y2="1739.34" gradientTransform="matrix(1, 0, 0, 1, 0, 0)" xlink:href="#linear-gradient"/><linearGradient id="linear-gradient-41" x1="772.23" y1="1822.14" x2="874.19" y2="1668.3" gradientTransform="matrix(1, 0, 0, 1, 0, 0)" xlink:href="#linear-gradient"/><linearGradient id="linear-gradient-42" x1="748.13" y1="1806.17" x2="850.1" y2="1652.33" gradientTransform="matrix(1, 0, 0, 1, 0, 0)" xlink:href="#linear-gradient"/><linearGradient id="linear-gradient-43" x1="692.42" y1="1713.56" x2="782.75" y2="1614.29" gradientTransform="matrix(1, 0, 0, 1, 0, 0)" xlink:href="#linear-gradient"/><linearGradient id="linear-gradient-44" x1="674.94" y1="1697.66" x2="765.28" y2="1598.38" gradientTransform="matrix(1, 0, 0, 1, 0, 0)" xlink:href="#linear-gradient"/><linearGradient id="linear-gradient-45" x1="591.29" y1="1629.24" x2="746.03" y2="1512.97" gradientTransform="matrix(1, 0, 0, 1, 0, 0)" xlink:href="#linear-gradient"/><linearGradient id="linear-gradient-46" x1="578.09" y1="1611.66" x2="732.82" y2="1495.39" gradientTransform="matrix(1, 0, 0, 1, 0, 0)" xlink:href="#linear-gradient"/><linearGradient id="linear-gradient-47" x1="560.51" y1="1491.48" x2="695.56" y2="1427.98" gradientTransform="matrix(1, 0, 0, 1, 0, 0)" xlink:href="#linear-gradient"/><linearGradient id="linear-gradient-48" x1="550.75" y1="1470.72" x2="685.8" y2="1407.21" gradientTransform="matrix(1, 0, 0, 1, 0, 0)" xlink:href="#linear-gradient"/><linearGradient id="linear-gradient-49" x1="477.29" y1="1357.99" x2="674.06" y2="1326.69" gradientTransform="matrix(1, 0, 0, 1, 0, 0)" xlink:href="#linear-gradient"/><linearGradient id="linear-gradient-50" x1="475.18" y1="1344.73" x2="671.95" y2="1313.42" gradientTransform="matrix(1, 0, 0, 1, 0, 0)" xlink:href="#linear-gradient"/><linearGradient id="linear-gradient-51" x1="465.63" y1="1185.19" x2="673.14" y2="1217.39" gradientTransform="matrix(1, 0, 0, 1, 0, 0)" xlink:href="#linear-gradient"/><linearGradient id="linear-gradient-52" x1="466.96" y1="1176.66" x2="674.46" y2="1208.86" gradientTransform="matrix(1, 0, 0, 1, 0, 0)" xlink:href="#linear-gradient"/><linearGradient id="linear-gradient-53" x1="503.5" y1="1036.36" x2="684.17" y2="1086.44" gradientTransform="matrix(1, 0, 0, 1, 0, 0)" xlink:href="#linear-gradient"/><linearGradient id="linear-gradient-54" x1="507.29" y1="1022.69" x2="687.96" y2="1072.78" gradientTransform="matrix(1, 0, 0, 1, 0, 0)" xlink:href="#linear-gradient"/><linearGradient id="linear-gradient-55" x1="546.82" y1="885.77" x2="729.28" y2="962.69" gradientTransform="matrix(1, 0, 0, 1, 0, 0)" xlink:href="#linear-gradient"/><linearGradient id="linear-gradient-56" x1="553.53" y1="869.84" x2="735.99" y2="946.76" gradientTransform="matrix(1, 0, 0, 1, 0, 0)" xlink:href="#linear-gradient"/><linearGradient id="linear-gradient-57" x1="639.7" y1="767.34" x2="774.76" y2="846.05" gradientTransform="matrix(1, 0, 0, 1, 0, 0)" xlink:href="#linear-gradient"/><linearGradient id="linear-gradient-58" x1="650.76" y1="748.36" x2="785.82" y2="827.07" gradientTransform="matrix(1, 0, 0, 1, 0, 0)" xlink:href="#linear-gradient"/><linearGradient id="linear-gradient-59" x1="737.91" y1="613.51" x2="872.97" y2="772.71" gradientTransform="matrix(1, 0, 0, 1, 0, 0)" xlink:href="#linear-gradient"/><linearGradient id="linear-gradient-60" x1="744.14" y1="608.22" x2="879.2" y2="767.43" gradientTransform="matrix(1, 0, 0, 1, 0, 0)" xlink:href="#linear-gradient"/><linearGradient id="linear-gradient-61" x1="882.73" y1="552.83" x2="947.13" y2="687.89" gradientTransform="matrix(1, 0, 0, 1, 0, 0)" xlink:href="#linear-gradient"/><linearGradient id="linear-gradient-62" x1="892.8" y1="548.03" x2="957.2" y2="683.09" gradientTransform="matrix(1, 0, 0, 1, 0, 0)" xlink:href="#linear-gradient"/><linearGradient id="linear-gradient-63" x1="979.44" y1="517.69" x2="1033.11" y2="617.87" gradientTransform="matrix(1, 0, 0, 1, 0, 0)" xlink:href="#linear-gradient"/><linearGradient id="linear-gradient-64" x1="988.35" y1="512.92" x2="1042.01" y2="613.1" gradientTransform="matrix(1, 0, 0, 1, 0, 0)" xlink:href="#linear-gradient"/><linearGradient id="linear-gradient-65" x1="1077" y1="478.48" x2="1107.41" y2="609.07" gradientTransform="matrix(1, 0, 0, 1, 0, 0)" xlink:href="#linear-gradient"/><linearGradient id="linear-gradient-66" x1="1081.99" y1="477.32" x2="1112.4" y2="607.91" gradientTransform="matrix(1, 0, 0, 1, 0, 0)" xlink:href="#linear-gradient"/><linearGradient id="linear-gradient-67" x1="1165.02" y1="470.08" x2="1165.02" y2="572.04" gradientTransform="matrix(1, 0, 0, 1, 0, 0)" xlink:href="#linear-gradient"/><linearGradient id="linear-gradient-68" x1="1167.61" y1="470.08" x2="1167.61" y2="572.04" gradientTransform="matrix(1, 0, 0, 1, 0, 0)" xlink:href="#linear-gradient"/><linearGradient id="linear-gradient-69" x1="1253.99" y1="1719.51" x2="1243.26" y2="2020.03" gradientTransform="matrix(1, 0, 0, 1, 0, 0)" xlink:href="#linear-gradient"/><linearGradient id="linear-gradient-70" x1="1257.34" y1="1719.63" x2="1246.61" y2="2020.16" gradientTransform="matrix(1, 0, 0, 1, 0, 0)" xlink:href="#linear-gradient"/><linearGradient id="linear-gradient-71" x1="1253.44" y1="1828.66" x2="1248.37" y2="1941.95" gradientUnits="userSpaceOnUse"><stop offset="0" stop-color="#cd7b1d"/><stop offset="0.06" stop-color="#cf7d1e"/><stop offset="0.09" stop-color="#d58422"/><stop offset="0.11" stop-color="#e19128"/><stop offset="0.13" stop-color="#f0a231"/><stop offset="0.27" stop-color="#ffc658"/><stop offset="0.4" stop-color="#ffe16a"/><stop offset="0.55" stop-color="#cd7b1d"/><stop offset="0.71" stop-color="#f0a231"/><stop offset="0.86" stop-color="#ffc658"/><stop offset="1" stop-color="#ffe16a"/></linearGradient><linearGradient id="linear-gradient-72" x1="952.38" y1="667.86" x2="1297.89" y2="667.86" gradientTransform="matrix(1, 0, 0, 1, 0, 0)" xlink:href="#linear-gradient"/><radialGradient id="radial-gradient" cx="1083.29" cy="188.48" r="594.83" gradientTransform="translate(-678.36 1598.34) scale(1.39 0.1)" gradientUnits="userSpaceOnUse"><stop offset="0" stop-color="#42210b"/><stop offset="0.15" stop-color="#6e5443"/><stop offset="0.31" stop-color="#99887c"/><stop offset="0.48" stop-color="#beb2ab"/><stop offset="0.63" stop-color="#dad4cf"/><stop offset="0.77" stop-color="#eeecea"/><stop offset="0.9" stop-color="#fbfaf9"/><stop offset="1" stop-color="#fff"/></radialGradient></defs><g class="cls-1"><g id="Layer_1" data-name="Layer 1"><path class="cls-2" d="M1314.2,1807c-43.23,40.4-54.91,78.23-42.13,87.47s56.34-12.07,92.39-51.14c30-32.51,49.77-87.67,51.36-100.73.29-2.4-58.39,24-101.62,64.4Z" transform="translate(-424.11 -493)"/><path class="cls-3" d="M1336.42,1966.07c-56.17-18.6-82.6-48.06-74.86-61.81s56.22-12.62,105.3,7.77c40.85,17,81.89,58.79,88.79,70,1.26,2-63.07,2.65-119.23-16Z" transform="translate(-424.11 -493)"/><path class="cls-4" d="M1421.11,1797.25c-35.88,48.76-41.1,89.43-26.95,96.66s53.53-22.08,82.56-68.23c24.16-38.41,34.46-98.2,33.84-111.81-.11-2.5-53.57,34.62-89.45,83.38Z" transform="translate(-424.11 -493)"/><path class="cls-5" d="M1471.54,1930.87c-58.47-9-89.45-33.6-84.11-48.45s53.32-21.83,105.12-9.92c43.11,9.92,90.55,44.31,99.22,54.2,1.59,1.81-61.75,13.13-120.23,4.17Z" transform="translate(-424.11 -493)"/><path class="cls-6" d="M1521.91,1766.74c-21.37,48-15.59,81.35-.17,83.19s45.31-31.86,60.82-76c12.92-36.7,6.93-86.43,2.74-97-.77-1.93-42,41.71-63.39,89.72Z" transform="translate(-424.11 -493)"/><path class="cls-7" d="M1606.42,1872.19c-59.1,2.68-94.31-15.4-92-31s48-31.86,101.14-30.34c44.21,1.26,97.46,25.68,107.91,33.68,1.91,1.46-58,25-117.07,27.66Z" transform="translate(-424.11 -493)"/><path class="cls-8" d="M1616.08,1704.58c-12.13,51.22.42,82.47,16.49,81s39.7-40.5,46.65-86.69c5.79-38.44-10.25-85.6-16.63-95-1.16-1.72-34.38,49.41-46.51,100.63Z" transform="translate(-424.11 -493)"/><path class="cls-9" d="M1718.78,1797.68c-58.08,11.25-95.54-1.51-95.51-17.29s42.87-38.51,95.66-44.74c43.92-5.18,100.16,11.23,111.65,17.62,2.11,1.17-53.72,33.16-111.8,44.41Z" transform="translate(-424.11 -493)"/><path class="cls-10" d="M1705.79,1638.16c-11.11,46,0,74.1,14.47,72.87s35.84-36.22,42.29-77.68c5.36-34.51-8.86-76.95-14.55-85.39-1-1.55-31.09,44.24-42.21,90.2Z" transform="translate(-424.11 -493)"/><path class="cls-11" d="M1805.26,1706.81c-51.3,20.36-87.86,15.13-90.55.66s32.65-42.72,80-57.56c39.38-12.35,93.78-7,105.42-3.15,2.13.7-43.52,39.69-94.83,60Z" transform="translate(-424.11 -493)"/><path class="cls-12" d="M1773.81,1558.15c-4.35,47.09,10.76,73.31,24.86,70s30.22-41,30.59-83c.31-34.92-19.9-74.85-26.75-82.38-1.25-1.38-24.36,48.28-28.7,95.37Z" transform="translate(-424.11 -493)"/><path class="cls-13" d="M1881.85,1606.45c-45.06,31.89-81.81,35.44-87.84,22s21.64-49.23,64.13-74.81c35.35-21.3,89.47-29,101.69-28,2.25.18-32.93,48.84-78,80.74Z" transform="translate(-424.11 -493)"/><path class="cls-14" d="M1826.87,1465.51c6.33,46.87,26.93,69,39.93,62.64s20.25-46.77,11.2-87.74c-7.53-34.1-36.18-68.48-44.54-74.28-1.53-1.06-12.92,52.52-6.59,99.38Z" transform="translate(-424.11 -493)"/><path class="cls-15" d="M1934.84,1485.49c-36.75,41.19-71.78,52.9-80.66,41.17s10-52.83,45.71-87.3c29.68-28.68,80.69-48.3,92.84-50.06,2.22-.32-21.14,55-57.89,96.19Z" transform="translate(-424.11 -493)"/><path class="cls-16" d="M1867.79,1354.84c7.45,46.7,28.58,68.35,41.42,61.66s19.12-47.24,9.09-88c-8.36-33.91-37.83-67.58-46.32-73.18-1.56-1-11.65,52.82-4.19,99.51Z" transform="translate(-424.11 -493)"/><path class="cls-17" d="M1972.06,1357.68c-28,47.6-60,65.94-71,56.18s-.48-53.78,27.74-94.56c23.49-34,69.68-63.18,81.24-67.28,2.12-.76-10,58.06-37.94,105.66Z" transform="translate(-424.11 -493)"/><path class="cls-18" d="M1883.87,1228.85c18.48,43.53,44.2,59.45,55.05,49.86s7.19-50.45-12.36-87.58c-16.27-30.9-53-56.49-62.58-59.87-1.76-.62,1.41,54.06,19.89,97.59Z" transform="translate(-424.11 -493)"/><path class="cls-19" d="M1985.76,1206.48c-15.7,52.94-42.39,78.46-55.43,71.64s-13.41-52.07,4.16-98.46c14.63-38.6,52.42-78.11,62.66-84.87,1.87-1.24,4.31,58.76-11.39,111.69Z" transform="translate(-424.11 -493)"/><path class="cls-20" d="M1868.94,1094c26.58,39.1,54.9,49.72,63.69,38.2s-2.76-50.89-29.15-83.51c-22-27.14-63-45.1-73-46.55-1.85-.27,11.89,52.75,38.48,91.86Z" transform="translate(-424.11 -493)"/><path class="cls-21" d="M1964.53,1052.19c-5.11,55-26.33,85.21-40.44,81s-23.28-48.47-15-97.39c6.84-40.71,36.23-86.81,45-95.43,1.6-1.58,15.64,56.79,10.53,111.77Z" transform="translate(-424.11 -493)"/><path class="cls-22" d="M1832.85,960.5c32.93,33.93,62.66,39.5,69.33,26.64s-11.5-49.65-43.12-77.22c-26.32-22.95-69.79-33.56-80-33.26-1.86.06,20.82,49.92,53.75,83.84Z" transform="translate(-424.11 -493)"/><path class="cls-23" d="M1919.81,902.87c4.45,55-11.23,88.48-25.86,86.82s-31.28-43.73-31.62-93.33c-.29-41.28,20.71-91.76,27.82-101.77,1.3-1.83,25.21,53.25,29.66,108.28Z" transform="translate(-424.11 -493)"/><path class="cls-24" d="M1771.39,845.31c37.95,28.2,68.19,28.94,72.71,15.17s-19.31-47.16-54.95-69.31c-29.65-18.43-74.26-21.93-84.25-20-1.83.35,28.55,45.92,66.49,74.13Z" transform="translate(-424.11 -493)"/><path class="cls-25" d="M1835.59,775.13c21.06,51,16.35,87.66,1.92,90.56s-43.16-32.06-58.65-79.18c-12.89-39.22-8.33-93.7-4.62-105.4.68-2.15,40.28,43,61.35,94Z" transform="translate(-424.11 -493)"/><path class="cls-26" d="M1680.51,738.12c40.38,24.58,70.56,22.51,73.79,8.38s-23.59-45.17-61.11-63.93c-31.23-15.61-76-15-85.74-12.12-1.79.52,32.67,43.09,73.06,67.67Z" transform="translate(-424.11 -493)"/><path class="cls-27" d="M1737.94,662.3c25.69,48.87,24.38,85.78,10.28,90s-45.94-27.93-65.71-73.42c-16.46-37.86-17-92.53-14.34-104.52.47-2.2,44.08,39.07,69.77,87.94Z" transform="translate(-424.11 -493)"/><path class="cls-28" d="M1587.29,655.48c39.38,8,62.92-2.32,61.43-14.54s-31.86-29.34-67.27-33.53c-29.47-3.49-65.07,9.9-72.06,15-1.28.93,38.53,25.05,77.9,33.07Z" transform="translate(-424.11 -493)"/><path class="cls-29" d="M1611.4,578.31c34.61,31.68,44.19,61.58,34.13,69s-44.78-9.11-73.69-39.79c-24-25.54-40.18-69.12-41.54-79.46-.25-1.9,46.49,18.55,81.1,50.24Z" transform="translate(-424.11 -493)"/><path class="cls-30" d="M1493.06,597.61c29.7,6,47.45-1.75,46.33-11s-24-22.13-50.74-25.29c-22.22-2.63-49.07,7.47-54.34,11.31-1,.7,29.06,18.9,58.75,25Z" transform="translate(-424.11 -493)"/><path class="cls-31" d="M1511.25,539.4c26.1,23.9,33.32,46.45,25.73,52.05s-33.77-6.87-55.57-30c-18.14-19.26-30.31-52.13-31.33-59.93-.2-1.43,35.06,14,61.17,37.89Z" transform="translate(-424.11 -493)"/><path class="cls-32" d="M1413.57,562.07c23.79.88,36.55-7.45,34.5-14.45s-21.46-14.07-42.57-13.09c-17.56.81-37.07,12.09-40.67,15.74-.66.67,25,10.92,48.74,11.8Z" transform="translate(-424.11 -493)"/><path class="cls-33" d="M1420.2,514.62c23.29,15.17,31.78,31.72,26.62,37s-27.06-1-46.92-16.13c-16.53-12.6-30.18-36.51-32-42.43-.32-1.08,29,6.35,52.28,21.52Z" transform="translate(-424.11 -493)"/><path class="cls-34" d="M1342.74,545.67c20.13-2.43,29.76-11.13,27.1-16.75s-19.93-9-37.55-5.33c-14.67,3-29.58,15.11-32.12,18.66-.46.65,22.44,5.86,42.57,3.42Z" transform="translate(-424.11 -493)"/><path class="cls-35" d="M1342,504.88c21.62,9.65,31,22.44,27.33,27.6s-22.89,2.78-41.62-7.31c-15.58-8.39-30.24-26.69-32.54-31.42-.43-.87,25.21,1.47,46.83,11.13Z" transform="translate(-424.11 -493)"/><path class="cls-36" d="M1186,1807c43.24,40.4,54.93,78.23,42.14,87.47s-56.36-12.07-92.42-51.14c-30-32.51-49.79-87.67-51.37-100.73-.29-2.4,58.41,24,101.65,64.4Z" transform="translate(-424.11 -493)"/><path class="cls-37" d="M1163.82,1966.07c56.18-18.6,82.63-48.06,74.88-61.81s-56.24-12.62-105.34,7.77c-40.86,17-81.91,58.79-88.82,70-1.26,2,63.1,2.65,119.28-16Z" transform="translate(-424.11 -493)"/><path class="cls-38" d="M1079.09,1797.25c35.9,48.76,41.12,89.43,27,96.66s-53.55-22.08-82.59-68.23c-24.17-38.41-34.46-98.2-33.85-111.81.12-2.5,53.59,34.62,89.48,83.38Z" transform="translate(-424.11 -493)"/><path class="cls-39" d="M1028.64,1930.87c58.5-9,89.49-33.6,84.15-48.45s-53.35-21.83-105.16-9.92c-43.12,9.92-90.58,44.31-99.25,54.2-1.59,1.81,61.76,13.13,120.26,4.17Z" transform="translate(-424.11 -493)"/><path class="cls-40" d="M978.26,1766.74c21.38,48,15.6,81.35.16,83.19s-45.31-31.86-60.84-76c-12.91-36.7-6.92-86.43-2.73-97,.77-1.93,42,41.71,63.41,89.72Z" transform="translate(-424.11 -493)"/><path class="cls-41" d="M893.72,1872.19c59.12,2.68,94.34-15.4,92-31s-48-31.86-101.17-30.34c-44.23,1.26-97.5,25.68-107.95,33.68-1.91,1.46,58,25,117.11,27.66Z" transform="translate(-424.11 -493)"/><path class="cls-42" d="M884.06,1704.58c12.13,51.22-.43,82.47-16.49,81s-39.72-40.5-46.68-86.69c-5.79-38.44,10.26-85.6,16.64-95,1.17-1.72,34.39,49.41,46.53,100.63Z" transform="translate(-424.11 -493)"/><path class="cls-43" d="M781.32,1797.68c58.1,11.25,95.58-1.51,95.54-17.29s-42.88-38.51-95.68-44.74c-43.94-5.18-100.2,11.23-111.7,17.62-2.11,1.17,53.74,33.16,111.84,44.41Z" transform="translate(-424.11 -493)"/><path class="cls-44" d="M794.31,1638.16c11.12,46,0,74.1-14.47,72.87s-35.86-36.22-42.3-77.68c-5.36-34.51,8.86-76.95,14.55-85.39,1-1.55,31.1,44.24,42.22,90.2Z" transform="translate(-424.11 -493)"/><path class="cls-45" d="M694.81,1706.81c51.32,20.36,87.89,15.13,90.58.66s-32.65-42.72-80-57.56c-39.39-12.35-93.81-7-105.45-3.15-2.14.7,43.54,39.69,94.86,60Z" transform="translate(-424.11 -493)"/><path class="cls-46" d="M726.28,1558.15c4.34,47.09-10.77,73.31-24.88,70s-30.23-41-30.6-83c-.31-34.92,19.91-74.85,26.76-82.38,1.25-1.38,24.37,48.28,28.72,95.37Z" transform="translate(-424.11 -493)"/><path class="cls-47" d="M618.2,1606.45c45.07,31.89,81.83,35.44,87.86,22s-21.65-49.23-64.14-74.81c-35.37-21.3-89.51-29-101.74-28-2.24.18,32.94,48.84,78,80.74Z" transform="translate(-424.11 -493)"/><path class="cls-48" d="M673.19,1465.51c-6.33,46.87-26.94,69-40,62.64S613,1481.38,622,1440.41c7.53-34.1,36.2-68.48,44.56-74.28,1.53-1.06,12.92,52.52,6.59,99.38Z" transform="translate(-424.11 -493)"/><path class="cls-49" d="M565.19,1485.49c36.76,41.19,71.8,52.9,80.69,41.17s-10.06-52.83-45.73-87.3c-29.69-28.68-80.72-48.3-92.87-50.06-2.23-.32,21.14,55,57.91,96.19Z" transform="translate(-424.11 -493)"/><path class="cls-50" d="M632.26,1354.84c-7.46,46.7-28.59,68.35-41.44,61.66s-19.12-47.24-9.08-88c8.35-33.91,37.83-67.58,46.33-73.18,1.56-1,11.65,52.82,4.19,99.51Z" transform="translate(-424.11 -493)"/><path class="cls-51" d="M528,1357.68c28,47.6,60,65.94,71.07,56.18s.48-53.78-27.75-94.56c-23.5-34-69.7-63.18-81.27-67.28-2.12-.76,10,58.06,38,105.66Z" transform="translate(-424.11 -493)"/><path class="cls-52" d="M616.17,1228.85c-18.49,43.53-44.21,59.45-55.07,49.86s-7.18-50.45,12.37-87.58c16.27-30.9,53-56.49,62.6-59.87,1.76-.62-1.41,54.06-19.9,97.59Z" transform="translate(-424.11 -493)"/><path class="cls-53" d="M514.25,1206.48c15.7,52.94,42.4,78.46,55.44,71.64s13.42-52.07-4.16-98.46c-14.63-38.6-52.43-78.11-62.67-84.87-1.88-1.24-4.31,58.76,11.39,111.69Z" transform="translate(-424.11 -493)"/><path class="cls-54" d="M631.11,1094c-26.59,39.1-54.92,49.72-63.71,38.2s2.76-50.89,29.16-83.51c22-27.14,63-45.1,73-46.55,1.85-.27-11.89,52.75-38.49,91.86Z" transform="translate(-424.11 -493)"/><path class="cls-55" d="M535.48,1052.19c5.11,55,26.34,85.21,40.46,81s23.29-48.47,15.06-97.39c-6.84-40.71-36.25-86.81-45-95.43-1.6-1.58-15.65,56.79-10.54,111.77Z" transform="translate(-424.11 -493)"/><path class="cls-56" d="M667.21,960.5c-32.94,33.93-62.68,39.5-69.35,26.64s11.5-49.65,43.14-77.22c26.32-22.95,69.8-33.56,80-33.26,1.86.06-20.83,49.92-53.77,83.84Z" transform="translate(-424.11 -493)"/><path class="cls-57" d="M580.22,902.87c-4.45,55,11.24,88.48,25.87,86.82s31.29-43.73,31.63-93.33C638,855.08,617,804.6,609.89,794.59c-1.3-1.83-25.22,53.25-29.67,108.28Z" transform="translate(-424.11 -493)"/><path class="cls-58" d="M728.69,845.31c-38,28.2-68.21,28.94-72.73,15.17s19.32-47.16,55-69.31c29.67-18.43,74.29-21.93,84.28-20,1.83.35-28.55,45.92-66.51,74.13Z" transform="translate(-424.11 -493)"/><path class="cls-59" d="M664.47,775.13c-21.07,51-16.35,87.66-1.92,90.56s43.17-32.06,58.67-79.18c12.89-39.22,8.33-93.7,4.62-105.4-.68-2.15-40.29,43-61.37,94Z" transform="translate(-424.11 -493)"/><path class="cls-60" d="M819.61,738.12c-40.4,24.58-70.59,22.51-73.82,8.38s23.59-45.17,61.13-63.93c31.24-15.61,76-15,85.77-12.12,1.79.52-32.68,43.09-73.08,67.67Z" transform="translate(-424.11 -493)"/><path class="cls-61" d="M762.16,662.3c-25.7,48.87-24.39,85.78-10.29,90s46-27.93,65.74-73.42C834.07,641,834.56,586.35,832,574.36c-.48-2.2-44.09,39.07-69.79,87.94Z" transform="translate(-424.11 -493)"/><path class="cls-62" d="M912.85,655.48c-39.38,8-62.93-2.32-61.44-14.54s31.87-29.34,67.29-33.53c29.48-3.49,65.09,9.9,72.08,15,1.29.93-38.54,25.05-77.93,33.07Z" transform="translate(-424.11 -493)"/><path class="cls-63" d="M888.74,578.31c-34.63,31.68-44.21,61.58-34.14,69s44.79-9.11,73.71-39.79c24.06-25.54,40.2-69.12,41.56-79.46.25-1.9-46.51,18.55-81.13,50.24Z" transform="translate(-424.11 -493)"/><path class="cls-64" d="M1007.12,597.61c-29.71,6-47.47-1.75-46.35-11s24-22.13,50.76-25.29c22.23-2.63,49.09,7.47,54.36,11.31,1,.7-29.07,18.9-58.77,25Z" transform="translate(-424.11 -493)"/><path class="cls-65" d="M988.93,539.4c-26.12,23.9-33.34,46.45-25.75,52.05s33.78-6.87,55.59-30c18.15-19.26,30.32-52.13,31.35-59.93.19-1.43-35.08,14-61.19,37.89Z" transform="translate(-424.11 -493)"/><path class="cls-66" d="M1086.64,562.07c-23.8.88-36.57-7.45-34.51-14.45s21.47-14.07,42.58-13.09c17.57.81,37.09,12.09,40.68,15.74.66.67-25,10.92-48.75,11.8Z" transform="translate(-424.11 -493)"/><path class="cls-67" d="M1080,514.62c-23.31,15.17-31.8,31.72-26.63,37s27.06-1,46.93-16.13c16.54-12.6,30.19-36.51,32-42.43.33-1.08-29,6.35-52.29,21.52Z" transform="translate(-424.11 -493)"/><path class="cls-68" d="M1157.49,545.67c-20.14-2.43-29.76-11.13-27.1-16.75s19.93-9,37.56-5.33c14.67,3,29.59,15.11,32.12,18.66.47.65-22.44,5.86-42.58,3.42Z" transform="translate(-424.11 -493)"/><path class="cls-69" d="M1158.24,504.88c-21.63,9.65-31,22.44-27.34,27.6s22.9,2.78,41.63-7.31c15.59-8.39,30.26-26.69,32.56-31.42.43-.87-25.23,1.47-46.85,11.13Z" transform="translate(-424.11 -493)"/><path class="cls-70" d="M1280.46,1832.58c2.09,50.14-16.35,79.85-31.93,77.74s-31.38-41-29.32-86c1.71-37.49,26.67-82.45,34.77-91.24,1.48-1.61,24.4,49.38,26.48,99.54Z" transform="translate(-424.11 -493)"/><path class="cls-71" d="M1279.51,1955.76c3.67-26.47-13.79-43.33-29.41-43.14s-32.62,19.87-32,43.89c.52,20,24,45.32,31.82,50.47,1.43.94,25.92-24.74,29.59-51.22Z" transform="translate(-424.11 -493)"/><path class="cls-72" d="M1250.2,1876.29c18.36,0,33.25,11.11,33.25,24.82s-14.89,24.83-33.25,24.83-33.25-11.11-33.25-24.83,14.89-24.82,33.25-24.82Z" transform="translate(-424.11 -493)"/><polygon class="cls-73" points="1125.13 503.55 1074.28 615.2 952.38 629.07 1042.84 711.94 1018.37 832.17 1125.13 771.73 1231.9 832.17 1207.42 711.94 1297.89 629.07 1175.99 615.2 1125.13 503.55 1125.13 503.55"/><ellipse class="cls-74" cx="825.89" cy="1617.5" rx="825.89" ry="60.5"/><text class="cls-75" transform="translate(305.85 831.68)">4.8</text></g></g></svg>