<svg xmlns="http://www.w3.org/2000/svg" xmlns:xlink="http://www.w3.org/1999/xlink" viewBox="0 0 771.74 800"><defs><style>.a{fill:url(#a);}.b{fill:url(#b);}.c{fill:url(#c);}.d{fill:url(#d);}.e{fill:url(#e);}.f{fill:url(#f);}</style><linearGradient id="a" x1="0.02" y1="374.96" x2="474.8" y2="374.96" gradientUnits="userSpaceOnUse"><stop offset="0" stop-color="#64c08a"/><stop offset="0.5" stop-color="#00a550"/><stop offset="1" stop-color="#00914c"/></linearGradient><linearGradient id="b" x1="297.69" y1="425.04" x2="771.76" y2="425.04" xlink:href="#a"/><linearGradient id="c" x1="111.52" y1="400.03" x2="660.26" y2="400.03" xlink:href="#a"/><linearGradient id="d" x1="261.34" y1="400" x2="510.44" y2="400" xlink:href="#a"/><linearGradient id="e" x1="509.6" y1="43.46" x2="539.76" y2="43.46" xlink:href="#a"/><linearGradient id="f" x1="232.66" y1="756.81" x2="262.84" y2="756.81" xlink:href="#a"/></defs><path class="a" d="M135.74,618.67a61.2,61.2,0,0,0-30.41,8.05C56.79,562.21,30.15,482.09,30.15,400c0-203.33,159.58-368.75,355.74-368.75a347,347,0,0,1,70.85,7.31,15.11,15.11,0,0,0,17.71-11.94c0-.09,0-.19.05-.28,1.64-8.46-3.63-16.7-11.79-18.41A375.57,375.57,0,0,0,385.89,0C282.82,0,185.89,41.61,113,117.16S0,293.16,0,400c0,89.87,29.44,177.58,83,247.89A67.49,67.49,0,0,0,91,730.69,61.73,61.73,0,0,0,178.22,733c.77-.73,1.53-1.49,2.27-2.27a67.33,67.33,0,0,0,0-92.8A61.81,61.81,0,0,0,135.74,618.67Zm23.45,89.93a32.34,32.34,0,0,1-45.72,1.18c-.4-.38-.8-.78-1.18-1.18a35.27,35.27,0,0,1,0-48.61A32.34,32.34,0,0,1,158,658.81c.4.38.8.78,1.18,1.18A35.27,35.27,0,0,1,159.19,708.6Z" transform="translate(-0.02 0)"/><path class="b" d="M688.73,152.09c16.38-25.48,13.75-60.32-7.92-82.79a61.75,61.75,0,0,0-87.3-2.24c-.76.73-1.51,1.47-2.24,2.24a67.35,67.35,0,0,0,0,92.81,61.64,61.64,0,0,0,75.18,11.17C715,237.79,741.63,317.91,741.63,400c0,203.33-159.58,368.75-355.74,368.75a346,346,0,0,1-70.17-7.17,15.11,15.11,0,0,0-17.69,12c0,.09,0,.18,0,.27-1.63,8.47,3.66,16.7,11.82,18.39A375.48,375.48,0,0,0,385.89,800c103.07,0,200-41.61,272.87-117.16s113-176,113-282.84C771.78,310.12,742.33,222.41,688.73,152.09ZM612.59,140a35.27,35.27,0,0,1,0-48.61,32.34,32.34,0,0,1,45.72-1.18c.4.38.8.78,1.18,1.18a35.31,35.31,0,0,1,0,48.61,32.34,32.34,0,0,1-45.72,1.18C613.37,140.8,613,140.4,612.59,140Z" transform="translate(-0.02 0)"/><path class="c" d="M323.69,668.75c0,8.63,6.75,15.63,15.07,15.63H433c8.33,0,15.08-7,15.08-15.63V638.46a230.94,230.94,0,0,0,56.57-24.31l20.63,21.39a14.7,14.7,0,0,0,20.78.55c.19-.18.37-.36.55-.55l66.61-69.1a16,16,0,0,0,0-22.09L592.63,523a249.92,249.92,0,0,0,23.44-58.64h29.11a15.35,15.35,0,0,0,15.08-15.62h0V351c0-8.63-6.75-15.63-15.08-15.63H616.07a250.1,250.1,0,0,0-23.44-58.63l20.49-21.25a16,16,0,0,0,0-22.11l-66.68-69a14.7,14.7,0,0,0-20.78-.53c-.18.17-.36.35-.53.53l-20.47,21.23a230.94,230.94,0,0,0-56.57-24.31v-30A15.35,15.35,0,0,0,433,115.68H338.76c-8.32,0-15.07,7-15.07,15.62v30a230.91,230.91,0,0,0-56.57,24.3l-20.47-21.23a14.71,14.71,0,0,0-20.81-.51l-.51.51-66.67,69a16,16,0,0,0,0,22.1l20.49,21.25a249.67,249.67,0,0,0-23.44,58.63H126.65A15.36,15.36,0,0,0,111.57,351l0,97.7a16,16,0,0,0,4.37,11.05,14.84,14.84,0,0,0,10.67,4.58h29.11A249.65,249.65,0,0,0,179.15,523l-20.6,21.37a16,16,0,0,0,0,22.09l66.61,69.1a14.85,14.85,0,0,0,10.66,4.59h0a14.8,14.8,0,0,0,10.66-4.58l20.62-21.39a231.4,231.4,0,0,0,56.58,24.31ZM273,581.29a14.67,14.67,0,0,0-18.84,2.08l-18.35,19-45.31-47,18.33-19a16.07,16.07,0,0,0,2-19.53,218,218,0,0,1-28.56-71.43,15.2,15.2,0,0,0-14.73-12.34H141.68V366.62h25.86a15.19,15.19,0,0,0,14.73-12.34,218.39,218.39,0,0,1,28.62-71.41,16.07,16.07,0,0,0-2-19.53l-18.21-18.89,45.34-47,18.2,18.87a14.69,14.69,0,0,0,18.84,2.07,202.56,202.56,0,0,1,68.83-29.55,15.51,15.51,0,0,0,11.9-15.28V146.88H417.9v26.67a15.49,15.49,0,0,0,12,15.28,202.45,202.45,0,0,1,68.9,29.6,14.7,14.7,0,0,0,18.84-2.08l18.2-18.86,45.35,47-18.29,18.85a16,16,0,0,0-2,19.53,218.38,218.38,0,0,1,28.55,71.42,15.2,15.2,0,0,0,14.74,12.34h25.9v66.45h-25.9a15.22,15.22,0,0,0-14.74,12.34,218.44,218.44,0,0,1-28.55,71.43,16.07,16.07,0,0,0,2,19.53l18.34,19-45.31,47-18.36-19a14.67,14.67,0,0,0-18.84-2.08,202.45,202.45,0,0,1-68.9,29.6,15.51,15.51,0,0,0-11.91,15.28v27H353.83v-27a15.51,15.51,0,0,0-11.94-15.29A202.3,202.3,0,0,1,273,581.29Z" transform="translate(-0.02 0)"/><path class="d" d="M510.44,400c0-71.19-55.87-129.11-124.55-129.11S261.34,328.81,261.34,400s55.87,129.11,124.55,129.11S510.44,471.19,510.44,400Zm-219,0c0-54,42.35-97.86,94.41-97.86S480.3,346,480.3,400,438,497.86,385.89,497.86,291.48,454,291.48,400Z" transform="translate(-0.02 0)"/><path class="e" d="M524.69,59.09a15,15,0,0,0,10.66-4.57,16.07,16.07,0,0,0,0-22.12,14.72,14.72,0,0,0-20.8-.51l-.51.51a16,16,0,0,0,0,22.12A14.88,14.88,0,0,0,524.69,59.09Z" transform="translate(-0.02 0)"/><path class="f" d="M247.75,741.19a15,15,0,0,0-10.66,4.57,16,16,0,0,0,0,22.1,14.7,14.7,0,0,0,20.78.54l.54-.54a16,16,0,0,0,0-22.1A15,15,0,0,0,247.75,741.19Z" transform="translate(-0.02 0)"/></svg>