<svg xmlns="http://www.w3.org/2000/svg" xmlns:xlink="http://www.w3.org/1999/xlink" viewBox="0 0 800 800"><defs><style>.a{fill:url(#a);}.b{fill:url(#b);}.c{fill:url(#c);}.d{fill:url(#d);}.e{fill:url(#e);}.f{fill:url(#f);}.g{fill:url(#g);}.h{fill:url(#h);}.i{fill:url(#i);}.j{fill:url(#j);}</style><linearGradient id="a" x1="166.67" y1="483.33" x2="633.33" y2="483.33" gradientUnits="userSpaceOnUse"><stop offset="0" stop-color="#f69453"/><stop offset="0.5" stop-color="#f37521"/><stop offset="1" stop-color="#d4622a"/></linearGradient><linearGradient id="b" x1="300" y1="683.34" x2="500" y2="683.34" xlink:href="#a"/><linearGradient id="c" x1="383.33" y1="50" x2="416.67" y2="50" xlink:href="#a"/><linearGradient id="d" x1="605" y1="154.13" x2="685.06" y2="154.13" xlink:href="#a"/><linearGradient id="e" x1="700" y1="400" x2="800" y2="400" xlink:href="#a"/><linearGradient id="f" x1="605.16" y1="647.58" x2="685" y2="647.58" xlink:href="#a"/><linearGradient id="g" x1="111.67" y1="647.58" x2="191.5" y2="647.58" xlink:href="#a"/><linearGradient id="h" x1="0" y1="400" x2="100" y2="400" xlink:href="#a"/><linearGradient id="i" x1="112.06" y1="152.7" x2="191.67" y2="152.7" xlink:href="#a"/><linearGradient id="j" x1="383.33" y1="333.33" x2="550" y2="333.33" xlink:href="#a"/></defs><path class="a" d="M450,800H350c-23.33,0-50-20-50-60V670c0-33.33-16.67-63.33-43.33-86.67-60-46.66-90-113.33-90-186.66C170,270,273.33,170,396.67,166.67,460,166.67,520,190,563.33,233.33s70,103.34,70,166.67c0,70-30,136.67-86.66,180-30,23.33-46.67,60-46.67,93.33V750c0,26.67-23.33,50-50,50ZM400,200c-106.67,0-196.67,90-200,196.67,0,63.33,26.67,123.33,76.67,160,36.66,30,56.66,70,56.66,113.33v70c0,6.67,0,26.67,16.67,26.67H450c10,0,16.67-6.67,16.67-16.67V673.33c0-43.33,23.33-90,60-120C573.33,516.67,600,460,600,400c0-53.33-20-103.33-60-143.33C503.33,220,453.33,200,400,200Z"/><path class="b" d="M483.33,700H316.67c-10,0-16.67-6.67-16.67-16.67s6.67-16.66,16.67-16.66H483.33c10,0,16.67,6.66,16.67,16.66S493.33,700,483.33,700Z"/><path class="c" d="M400,100c-10,0-16.67-6.67-16.67-16.67V16.67C383.33,6.67,390,0,400,0s16.67,6.67,16.67,16.67V83.33C416.67,93.33,410,100,400,100Z"/><path class="d" d="M623.33,193.33c-3.33,0-10,0-13.33-3.33a16.1,16.1,0,0,1-.57-22.76q.29-.3.57-.57L656.67,120a16.5,16.5,0,0,1,23.79,22.87l-.46.46L633.33,190S626.67,193.33,623.33,193.33Z"/><path class="e" d="M783.33,416.67H716.67c-10,0-16.67-6.67-16.67-16.67s6.67-16.67,16.67-16.67h66.66c10,0,16.67,6.67,16.67,16.67S793.33,416.67,783.33,416.67Z"/><path class="f" d="M670,686.67c-3.33,0-10,0-13.33-3.34L610,636.67a16.5,16.5,0,1,1,23.33-23.34L680,660a16.1,16.1,0,0,1,.57,22.76l-.57.57c0,3.34-3.33,3.34-10,3.34Z"/><path class="g" d="M130,686.67c-3.33,0-10,0-13.33-3.34a16.1,16.1,0,0,1-.57-22.76q.29-.3.57-.57l46.66-46.67a16.5,16.5,0,0,1,23.34,23.34h0L140,683.33C136.67,686.67,133.33,686.67,130,686.67Z"/><path class="h" d="M83.33,416.67H16.67C6.67,416.67,0,410,0,400s6.67-16.67,16.67-16.67H83.33c10,0,16.67,6.67,16.67,16.67S93.33,416.67,83.33,416.67Z"/><path class="i" d="M176.67,193.33c-3.34,0-10,0-13.34-3.33l-46.66-50A16.5,16.5,0,0,1,140,116.67l46.67,46.66a16.13,16.13,0,0,1,.54,22.8q-.27.28-.54.54C183.33,190,180,193.33,176.67,193.33Z"/><path class="j" d="M533.33,416.67c-10,0-16.66-6.67-16.66-16.67,0-63.33-53.34-116.67-116.67-116.67-10,0-16.67-6.66-16.67-16.66S390,250,400,250A149.38,149.38,0,0,1,550,398.76V400C550,410,543.33,416.67,533.33,416.67Z"/></svg>