<svg xmlns="http://www.w3.org/2000/svg" viewBox="0 0 702.22 361.62"><defs><style>.a,.f,.h,.j,.m,.s{fill:none;}.a,.c,.d,.j,.k{stroke:#fff;}.a,.c,.d,.e,.f,.h,.i,.j,.l,.m,.n,.o{stroke-linecap:round;stroke-linejoin:round;}.a{stroke-width:5px;}.b{fill:#6d6e70;}.c{fill:#231f20;}.d,.e,.i,.n,.p{fill:#fff;}.e,.f,.h,.i,.l{stroke:#263238;}.g,.k,.l,.o{fill:#263238;}.h,.i{stroke-width:2px;}.k{stroke-miterlimit:10;}.m{stroke:#f0ae00;}.n,.o{stroke:#231f20;}.q{fill:#e91d2c;}.r{fill:#404041;}</style></defs><line class="a" x1="240.54" y1="355.19" x2="688.56" y2="355.19"/><path class="b" d="M641.84,297.23c1.73.76,5.95.66,5.95.66s-.9-2.76-1-2.93c-.93-1.94-3.86-5.14-6.24-4.82a2.85,2.85,0,0,0-2.29,3.57C638.68,295.36,640.37,296.59,641.84,297.23Z"/><path class="b" d="M643.3,309.46c1.79.27,5.56-.83,5.86-.92a49.61,49.61,0,0,0,2.28,6.33c.52,1.2,1.08,2.39,1.66,3.58-.35-.5-.66-.95-.71-1-1.4-1.62-5.07-3.94-7.29-3a2.86,2.86,0,0,0-1.26,4.05c.82,1.49,2.78,2.22,4.36,2.45s4.85-.63,5.7-.87l.67,1.36c1.09,2.18,2.19,4.34,3.21,6.5.35.75.68,1.52,1,2.28-.3-.45-.56-.82-.61-.88-1.41-1.62-5.08-3.94-7.29-3a2.84,2.84,0,0,0-1.26,4c.82,1.49,2.77,2.22,4.36,2.46s4.53-.55,5.54-.84c.31.79.63,1.58.89,2.36.17.54.37,1,.51,1.59l.45,1.6c.25,1,.51,2.09.72,3.09.16.7.29,1.37.43,2.05-.35-.76-1.06-2.23-1.13-2.35-1.14-1.82-4.42-4.66-6.75-4.07a2.85,2.85,0,0,0-1.86,3.81c.58,1.59,2.41,2.62,3.94,3.09,1.69.51,5.43,0,5.9,0,.22,1.12.43,2.21.61,3.24.4,2.27.7,4.31.93,6h1.58c-.28-1.79-.63-3.91-1.11-6.3-.22-1.14-.48-2.35-.76-3.59a30.74,30.74,0,0,0,3.29-1.54,20.92,20.92,0,0,0,4.79,3.09c-.43,1.05-.86,2.08-1.28,3-.87,2-1.7,3.78-2.43,5.3H670c.63-1.4,1.32-3,2-4.75.44-1.07.89-2.22,1.34-3.41.45.09,4.15.85,5.88.46,1.56-.36,3.46-1.24,4.16-2.79A2.84,2.84,0,0,0,681.8,338c-2.28-.77-5.76,1.82-7,3.55-.07.1-.77,1.3-1.19,2.06.18-.49.36-1,.54-1.46.37-1,.7-2,1.06-3.07q.24-.78.48-1.59c.17-.53.28-1.11.43-1.67.31-1.3.56-2.63.78-4,.87.31,4,1.39,5.58,1.28s3.61-.7,4.54-2.12a2.85,2.85,0,0,0-1-4.13c-2.13-1.1-6,.93-7.49,2.44-.1.1-1.07,1.31-1.59,2,.13-.81.26-1.62.36-2.45.3-2.38.53-4.81.76-7.22.07-.74.15-1.48.23-2.22.31.12,4,1.48,5.77,1.36,1.6-.12,3.61-.71,4.54-2.13a2.85,2.85,0,0,0-1-4.13c-2.14-1.1-6,.93-7.49,2.45-.12.11-1.51,1.86-1.84,2.32.17-1.63.35-3.25.6-4.83a51.18,51.18,0,0,1,1.39-6.36c.14.06,4,1.5,5.8,1.37,1.6-.11,3.61-.7,4.54-2.13a2.84,2.84,0,0,0-1-4.12c-2.14-1.11-6,.93-7.49,2.44-.12.12-1.62,2-1.87,2.36,0-.12.06-.25.1-.37a37.1,37.1,0,0,1,2.51-6c.55-1.08,1.13-2.07,1.72-3,.69.34,3.83,1.86,5.5,1.93s3.66-.3,4.74-1.61a2.85,2.85,0,0,0-.5-4.21c-2-1.33-6,.27-7.72,1.61-.09.07-.93.91-1.54,1.54.27-.43.54-.87.81-1.28,1-1.51,2-2.84,2.93-4,.52-.65,1-1.24,1.47-1.78.84,0,4.25-.12,5.74-.82s3.11-2,3.46-3.62a2.85,2.85,0,0,0-2.38-3.5c-2.39-.26-5.23,3-6.11,5-.07.17-.95,3-.91,3h.06c-.46.51-.94,1.07-1.45,1.69-.93,1.15-2,2.45-3,3.95a49,49,0,0,0-3.14,5,37.28,37.28,0,0,0-2.68,6s0,.06,0,.08c0-.7,0-2.68,0-2.83-.28-2.13-2.06-6.08-4.43-6.52a2.85,2.85,0,0,0-3.28,2.68c-.14,1.69,1.09,3.38,2.28,4.45,1.35,1.21,5.1,2.38,5.4,2.47a50.21,50.21,0,0,0-1.59,6.53c-.23,1.29-.42,2.6-.59,3.9,0-.6,0-1.15,0-1.23-.28-2.13-2.07-6.08-4.43-6.52a2.86,2.86,0,0,0-3.29,2.68c-.13,1.69,1.09,3.39,2.29,4.46s4.39,2.14,5.23,2.41c-.06.5-.13,1-.19,1.51-.29,2.41-.56,4.82-.91,7.18-.12.83-.27,1.64-.42,2.46,0-.55,0-1,0-1.07-.28-2.13-2.07-6.09-4.43-6.52a2.85,2.85,0,0,0-3.29,2.68c-.14,1.69,1.09,3.38,2.29,4.45s4.08,2,5.08,2.36c-.18.83-.35,1.67-.56,2.46-.15.54-.26,1.07-.45,1.61l-.51,1.58c-.36,1-.73,2-1.1,3-.26.67-.52,1.3-.77,1.94.13-.82.35-2.45.35-2.58a11.06,11.06,0,0,0-1.48-5.38,4.44,4.44,0,0,0,0-.63,2.86,2.86,0,0,0-3.48-2.42c-2.33.62-3.8,4.7-3.91,6.85,0,.13.07,1.51.14,2.38-.12-.51-.23-1-.35-1.52-.25-1-.52-2.05-.81-3.14l-.48-1.6c-.15-.53-.38-1.07-.56-1.62-.46-1.26-1-2.51-1.55-3.76.9-.22,4.09-1,5.36-2s2.63-2.57,2.62-4.27a2.87,2.87,0,0,0-3.08-2.92c-2.39.26-4.47,4.07-4.9,6.18,0,.13-.17,1.67-.23,2.52-.34-.74-.68-1.49-1.05-2.24-1.07-2.15-2.22-4.3-3.36-6.44-.34-.66-.68-1.32-1-2,.32-.07,4.13-.95,5.56-2.05,1.28-1,2.63-2.58,2.61-4.28a2.84,2.84,0,0,0-3.07-2.91c-2.39.26-4.47,4.07-4.9,6.17,0,.16-.24,2.38-.26,2.95-.75-1.45-1.49-2.9-2.16-4.36a51.58,51.58,0,0,1-2.35-6.07c.15,0,4.13-.93,5.6-2.06,1.27-1,2.62-2.57,2.61-4.27a2.85,2.85,0,0,0-3.08-2.92c-2.39.26-4.47,4.07-4.9,6.18,0,.16-.25,2.55-.26,3,0-.12-.08-.24-.12-.36a37.19,37.19,0,0,1-1.22-6.41c-.13-1.19-.19-2.34-.23-3.46.76-.09,4.22-.55,5.65-1.42s2.89-2.27,3.07-4a2.85,2.85,0,0,0-2.74-3.23c-2.41,0-4.89,3.55-5.55,5.59,0,.11-.28,1.29-.44,2.14,0-.51,0-1,0-1.51,0-1.82.11-3.49.23-5,.07-.84.15-1.6.23-2.3.7-.48,3.48-2.45,4.34-3.85s1.52-3.35.89-4.93a2.86,2.86,0,0,0-3.92-1.61c-2.13,1.11-2.69,5.41-2.34,7.53,0,.18.84,3,.87,3l.05,0c-.1.68-.19,1.41-.28,2.2-.14,1.48-.3,3.15-.34,5a49.65,49.65,0,0,0,.14,5.9,36.92,36.92,0,0,0,1.1,6.51.24.24,0,0,0,0,.08c-.38-.6-1.49-2.22-1.59-2.34-1.41-1.62-5.08-3.94-7.29-3a2.85,2.85,0,0,0-1.27,4.05C639.75,308.5,641.71,309.23,643.3,309.46Z"/><path class="b" d="M684.56,298.16s.76-2.81.79-3c.3-2.13-.38-6.41-2.55-7.46a2.84,2.84,0,0,0-3.87,1.72c-.58,1.59.15,3.55,1,4.9C681,295.91,684.55,298.16,684.56,298.16Z"/><path class="c" d="M422.66,297.94a290,290,0,0,1,34.21-2.8c17.7-.29,23.5.87,27.85,2.32s8.24,13.65,2.52,25.24-25.72,21.16-53,18.84-46.69-7.83-57.13-15.66S376,313.7,387.56,307.32,414.85,297.54,422.66,297.94Z"/><path class="d" d="M400,324.72s40.6-22.33,54.81-26.39,30.46-4.93,38,0,5.8,20.88,2.32,27-31.61,18.85-47.28,23.49-76.85,4.35-93.67,5.8-57.43.58-63.23-2.61-2.32-6.67,6.09-8.7,36.25-2,49.31-5.8S390.46,329.65,400,324.72Z"/><path class="c" d="M495.16,325.3c1.69-3,3-8.28,3-13.51-10.51,8.33-26.88,18.19-49.52,26.28-21.47,7.66-82.25,14.53-107.39,17.12,5-.1,9.51-.3,13-.6,16.82-1.45,78-1.16,93.67-5.8S491.68,331.39,495.16,325.3Z"/><path class="c" d="M466.46,341.94c4.31-1.83,8.61-3.81,12.54-5.78.86-4.27,1.89-16.8-7.29-41a89.61,89.61,0,0,0-16.87,3.13S472,318,466.46,341.94Z"/><path class="d" d="M360.34,334.31c-5.46,1.09-10.39,2.14-14,3.17-13.06,3.77-40.9,3.77-49.31,5.8s-11.89,5.51-6.09,8.7,46.41,4.06,63.23,2.61c2-.17,4.59-.31,7.66-.45C355.16,346.85,358.22,338.33,360.34,334.31Z"/><path class="d" d="M333.9,288.18s-26.39,3.19-39.73,4.35-37.41,11.89-42.34,22.33,9.86,22.91,18.27,25.52,33.64,8.41,47.56,7.54,55.11-13.05,62.36-15.37,20-7.83,20-7.83-12.18,0-32.77-10.44S343.48,293.11,333.9,288.18Z"/><path class="c" d="M277.24,296.46s20.82-2.16,30.35,4.77,15.61,28.18,15.61,28.18l44.06-15.13s-3.3-3.51-11.54-13.48-32.52-15.61-46.83-12.57S277.24,296.46,277.24,296.46Z"/><path class="d" d="M377.93,333.2l2.09-.65c7.25-2.32,20-7.83,20-7.83s-9.35,0-25.53-7C376.81,321.58,379.11,327.23,377.93,333.2Z"/><path class="c" d="M393.63,327.4a363,363,0,0,0-52.44,10.67c-25.08,7.09-55.31,4.56-70,2.65,9.34,2.74,33.08,8,46.43,7.2,13.92-.87,55.11-13.05,62.36-15.37C383.91,331.31,389.39,329.14,393.63,327.4Z"/><path class="e" d="M421.1,203.89l-6,58.62s2.82,14.11,4.7,19.75,3.77,14.74,2.82,15.68-1.56.31-8.15,2.19-14.42,13.17-24.45,17.55-18.18,2.2-27.58-1.56-27-26.65-30.72-27.27-15.05-2.51-19.75-4.08-10.35-8.15-10.35-8.15-.94,0-.94-3.45.32-3.76.32-3.76a10.87,10.87,0,0,1-3.14-5c-.63-2.82,6-17.86,6-27.27s4.7-44.83,4.7-49.21,6.58-5.33,13.48-8.15,43.26-16.31,43.89-20.07,3.13-30.09,3.13-30.09,19.51,20.86,21.94,22.57a20.79,20.79,0,0,1,4.71,4.39l-2.2,10.34s9.41,6.9,15.68,10.66,14.73,7.21,15,9.72"/><path class="f" d="M322.56,272.84a21.19,21.19,0,0,1,4.18,4.41"/><path class="f" d="M300.72,273.17s9-6.25,18-2.56"/><path class="e" d="M399.16,170.93c-3.22-2.24-5.65-4-5.65-4l2.2-10.34a20.79,20.79,0,0,0-4.71-4.39c-2.43-1.71-21.94-22.57-21.94-22.57s-2.51,26.33-3.13,30.09c-.21,1.22-4.18,3.47-9.68,6,1,6.05,4.4,16.14,16.57,20S394.39,178.42,399.16,170.93Z"/><path class="g" d="M393.6,167l-.09-.07,2.2-10.34a20.79,20.79,0,0,0-4.71-4.39c-1.38-1-8.27-8.11-14-14.11l-1.45,6.86S375.61,164.64,393.6,167Z"/><path class="c" d="M373.9,64.92s-.9-7.48-6.89-9-19.76-.6-24.55,8.39-1.19,15.86.6,17.06a20.1,20.1,0,0,0,3.3,1.8l1.49-7.49s.6,6.59,4.79,8.09,12.88,0,12.88,0S373,78.4,373.9,64.92Z"/><path class="c" d="M429.25,91.67s10.66,6.89,10.66,13.79-13.17,9.41-13.17,9.41Z"/><path class="e" d="M431.68,93.07s-1.2,14.37-2.4,22.45-6.28,14.67-6.58,20.06-12.28,18.56-18.27,23-15,3-19.46-.6a58,58,0,0,1-15.56-21.55c-3.6-9.29-.9-22.76,0-26.95s23.35-20.66,40.41-20.66S431.68,93.07,431.68,93.07Z"/><path class="f" d="M412.82,126.6S414,137.37,414,138.27s-2.69,3.59-7.18.9"/><path class="f" d="M394.85,139.17s4.79,6,12.58,5.69"/><path class="h" d="M411,117a37.09,37.09,0,0,0-22.45-4.2s-3.6,0-1.5,2.7c0,0-.9,9,1.2,11.67s6.88,4.79,11.67,4.79S409.52,126.3,411,117Z"/><line class="i" x1="386.77" y1="113.12" x2="367.31" y2="111.93"/><path class="h" d="M411,117l5.09,1.49s-2.1,11.08-.9,14.07h0a6.6,6.6,0,0,0,4.47,3.93,23.4,23.4,0,0,0,4.81.86c2.4,0,7.49-4.79,8.68-13.17,0,0,1.5-.6.9-1.5s-7.83-5.08-17.71-4.18"/><path class="h" d="M410.72,119.71s3.82.25,4.95,1.69"/><path class="g" d="M400.38,123.13c-.34,2-1.31,3.43-2.16,3.28s-1.27-1.86-.92-3.82,1.31-3.43,2.17-3.28S400.73,121.17,400.38,123.13Z"/><ellipse class="g" cx="420.85" cy="128.01" rx="3.24" ry="1.41" transform="translate(184.9 499.26) rotate(-74.48)"/><path class="h" d="M394.14,116.12s7.52-2.51,11,1.57"/><path class="h" d="M418.9,121.76s3.45-3.13,6.27,1.26"/><path class="c" d="M379.89,110.13s16.16-8.68,29.93-11.38,24.25-1.49,26.65-9.58S422.7,67.62,405.93,62.83s-36.82.3-44.91,12.27-5.38,26.35-3,31.74,4.19,9.58,8.68,10.18S379.89,110.13,379.89,110.13Z"/><path class="j" d="M368.18,100.63a17.86,17.86,0,0,0-4.36,3.61"/><path class="j" d="M424.49,80.24s4.37,2.62-8.29,7.85c-9.19,3.81-27.81,4.85-40.83,9.31"/><path class="j" d="M407.68,77.17a12.07,12.07,0,0,0,2.41-3.92"/><path class="j" d="M360.76,99s-3.92-5.68,9.61-9.61c9.76-2.83,23.83-3.85,32.56-8.61"/><path class="e" d="M371.5,121.51s-2.37-11.68-7.47-11.68-5.77,5.39-3.73,12,5.43,8.68,8.49,6.58"/><path class="f" d="M331.76,288.85s1.25-1.57,1.25-6.59-3.45-21.63-5-33.23-3.13-33.85-3.13-43.26"/><path class="f" d="M363.34,252.61a31.69,31.69,0,0,0,2.59,3.63"/><path class="f" d="M345.86,194.8s5.62,34.65,15.24,53.78"/><path class="f" d="M365.54,224.29c1.27,2.4,2.55,4.62,3.83,6.56"/><path class="f" d="M349.62,185.08s6.29,19.46,13.74,34.88"/><path class="e" d="M282.23,275.37s3.45,2.82,10.34,2.82,12.85-3.45,21.63-1.26,8.78,11,7.84,13.48-9.41,4.08-17.24,3.14S281,291,281,291,283.48,282,282.23,275.37Z"/><path class="e" d="M275.83,267.4a9.2,9.2,0,0,0,4.72,5.44c4,2.18,5.44,8,5.44,11.24a14.79,14.79,0,0,1-.73,5.08s-1.08,4.35-4.71,5.08-5.8,2.9-10.16-1.45-10.51-18.14-10.51-18.14l.72-2.17a16.79,16.79,0,0,0,6.53-1.45C270,269.58,275.83,267.4,275.83,267.4Z"/><path class="k" d="M280.55,295.72a1.49,1.49,0,0,1-1.27-.72l-25-41.71a1.48,1.48,0,1,1,2.53-1.52l25,41.71a1.48,1.48,0,0,1-.51,2A1.5,1.5,0,0,1,280.55,295.72Z"/><path class="e" d="M263.14,293.88a11.85,11.85,0,0,0,8,2.9c5.08,0,10.15-3.27,7.62-4.35s-4.36-2.18-6.17-1.46S263.14,293.88,263.14,293.88Z"/><path class="e" d="M259.51,288.44s2.18,6.16,4,6.89,9.43-1.09,11.61-2.54-1.45-4-4.72-4S259.51,288.44,259.51,288.44Z"/><path class="e" d="M258.06,279s-1.45,7.61,1.45,9.43,14.15,2.53,15.24.36-2.91-3.27-6.9-5.08S258.06,279,258.06,279Z"/><path class="e" d="M269.31,268.49s.36,14.14,1.81,15.59,4.71,1.82,5.44.73,1.45-13.42-.73-17.41S269.31,268.49,269.31,268.49Z"/><path class="e" d="M260.6,272.48s-4.71-1.09-4.71,3.62,6.52,7.62,9.43,8,6.16-.72,3.62-2.9S262.78,274.29,260.6,272.48Z"/><path class="l" d="M296.2,295.43l20.3-2.9s-2.61-3.77-9.28-3.77-10.73,3.19-11.6,4.35S296.2,295.43,296.2,295.43Z"/><path class="e" d="M337.1,319.5l32.48-11.31s-7.83-16.53-22.62-22.33-36.74-4.31-46-.83l3.38,3.73s6.67.29,13.92,8.7,14.5,21.75,14.5,21.75Z"/><path class="m" d="M316.83,286.6s12.9-1.84,26.41,27"/><path class="m" d="M323.19,285.33s12.89-1.84,26.41,27"/><path class="m" d="M328.53,284.31s12.89-1.84,26.4,27"/><path class="e" d="M250.67,315.73s14.5-21.46,41.47-19.72l4.06-.58s2.61-6.09,10.15-4.64,27,31.32,27,31.32l3.78-2.61s-10.27-17.38-18.1-27.24-18.06-9.53-21.34-5.92a50.28,50.28,0,0,0-4.75,7.21S289.9,289,281,291c-11,2.51-17,7.39-20.12,10.75-4.53,4.9-13.67,11.56-12.79,11Z"/><polygon class="e" points="333.32 322.11 367.84 310.22 369.58 308.19 337.1 319.5 333.32 322.11"/><path class="e" d="M418.45,182.73s12.45,4.3,14.33,10.88,11.2,42.57,13.71,47.9,8.15,8.46,8.15,12.54.31,7.21.31,7.21,6.59.31,7.21,5.64S464,279.13,464,279.13l25.09,38.8s15,1.21,18.41.89,13.7.35,17.44,2.32c1.45.76,4.34,3.25,6.6,11.23,1.13,4,3.62,11.65,2.06,11.33s-3.5-4.67-4.13-5.61a63.79,63.79,0,0,1-2.46-6.3s1.26,9.09,1.57,11a7,7,0,0,1-.63,3.76l-.13.06a7.61,7.61,0,0,1-4.85.29l-1.29-.35h0a5.13,5.13,0,0,1-3.93.42l-1.4-.42s-2-6.43-3.91-8.94-7.79-5.23-7.79-5.23,6.38,7.28,6.06,12c-.13,1.9.32,3.45-1.25,2.51s-3.45-5.64-6.9-7.21S491,335.87,487.87,334s-8.15-8.78-8.15-8.78l-41.07-37s-4.07-4.08-4.7-6.27l-.63-2.2s-5.64-3.44-7.21-5.32-2.19-6-2.19-6l-8.47-9.72,5.65-53.6"/><path class="e" d="M417.9,217.56l-2.45,41.19,8.47,9.72s.63,4.07,2.19,6,7.21,5.32,7.21,5.32L434,282c.63,2.19,4.7,6.27,4.7,6.27l6.15,5.53c2.5-4.87,8.43-13.65,19.17-15.06-.28-1.58-1.27-7.24-1.81-11.79-.62-5.33-7.21-5.64-7.21-5.64s-.31-3.14-.31-7.21-5.64-7.21-8.15-12.54-11.83-41.31-13.71-47.9-14.33-10.88-14.33-10.88"/><polygon class="g" points="417.41 230.02 421.54 265.25 415.45 258.75 417.41 230.02"/><path class="f" d="M446.52,266.79a32.54,32.54,0,0,1,2.79-1.77"/><path class="f" d="M436.46,278.19a29.17,29.17,0,0,1,6.94-8.92"/><path class="f" d="M443.29,261.22a21.62,21.62,0,0,1,4.14-.27"/><path class="f" d="M428,268.78a32.67,32.67,0,0,1,10.41-6.28"/><path class="f" d="M506.36,334.61s-3.45-4.7-8.15-5"/><path class="f" d="M507.93,324.27s3.76.94,8.46,6.89,6,14.74,6,14.74"/><path class="f" d="M516.91,323s7,5.65,8.26,11S528,346.52,528,346.52"/><path class="f" d="M527.05,331.79a31.38,31.38,0,0,0-4.39-10"/><polygon class="n" points="622.04 344.32 535.52 344.32 559.34 265.32 645.86 265.32 622.04 344.32"/><path class="o" d="M622,344.32l20.18-66.94c-25.55,3.16-40.58,24.21-64.21,47.29-14.87,14.52-25.2,18.7-31.25,19.65Z"/><ellipse class="e" cx="594.14" cy="301.06" rx="6.85" ry="6.58"/><rect class="e" x="461.22" y="344" width="161.75" height="5.02"/><rect class="l" x="540.22" y="344" width="82.76" height="5.02"/><rect class="j" x="480.3" y="10.63" width="14.51" height="14.51" transform="translate(130.15 349.99) rotate(-45)"/><rect class="j" x="126.43" y="292.51" width="14.51" height="14.51" transform="translate(-172.81 182.33) rotate(-45)"/><rect class="j" x="81.72" y="272.52" width="14.51" height="14.51" transform="translate(-171.77 144.86) rotate(-45)"/><rect class="j" x="464.52" y="28.08" width="7.92" height="7.92" transform="translate(114.56 340.65) rotate(-45)"/><circle class="j" cx="652.02" cy="104.24" r="4.15"/><circle class="j" cx="126.32" cy="222.69" r="4.15"/><circle class="j" cx="309.26" cy="26.18" r="4.15"/><rect class="j" x="532.88" y="128.18" width="122.31" height="109.93"/><rect class="j" x="532.88" y="128.18" width="122.31" height="10.29"/><rect class="j" x="538.25" y="148.44" width="74.58" height="42.85"/><rect class="p" x="541.59" y="187.23" width="67.88" height="0.78"/><circle class="q" cx="574.24" cy="172.07" r="10.98" transform="translate(127.38 571.67) rotate(-58.49)"/><polygon class="p" points="580.6 172.31 571.05 166.79 571.05 177.83 580.6 172.31"/><rect class="j" x="619.52" y="153.83" width="29.45" height="18.85"/><rect class="e" x="619.52" y="170.58" width="29.45" height="2.1"/><rect class="e" x="619.52" y="171.32" width="29.45" height="0.61"/><circle class="q" cx="633.73" cy="163.16" r="4.34"/><polygon class="p" points="636.25 163.26 632.47 161.08 632.47 165.44 636.25 163.26"/><rect class="j" x="619.52" y="174.54" width="29.45" height="18.85"/><rect class="e" x="619.52" y="191.29" width="29.45" height="2.1"/><rect class="e" x="619.52" y="192.03" width="29.45" height="0.61"/><path class="q" d="M638.07,183.87a4.34,4.34,0,1,0-4.34,4.34A4.33,4.33,0,0,0,638.07,183.87Z"/><polygon class="p" points="636.25 183.97 632.47 181.79 632.47 186.15 636.25 183.97"/><rect class="j" x="619.52" y="195.25" width="29.45" height="18.85"/><rect class="e" x="619.52" y="212" width="29.45" height="2.1"/><rect class="e" x="619.52" y="212.74" width="29.45" height="0.61"/><path class="q" d="M638.07,204.58a4.34,4.34,0,1,0-4.34,4.34A4.33,4.33,0,0,0,638.07,204.58Z"/><polygon class="p" points="636.25 204.68 632.47 202.5 632.47 206.86 636.25 204.68"/><rect class="j" x="619.52" y="215.96" width="29.45" height="18.85"/><rect class="e" x="619.52" y="232.71" width="29.45" height="2.1"/><rect class="e" x="619.52" y="233.45" width="29.45" height="0.61"/><path class="q" d="M638.07,225.29a4.34,4.34,0,1,0-4.34,4.34A4.33,4.33,0,0,0,638.07,225.29Z"/><polygon class="p" points="636.25 225.39 632.47 223.21 632.47 227.57 636.25 225.39"/><line class="j" x1="538.83" y1="206.6" x2="595.94" y2="206.6"/><line class="j" x1="619.52" y1="148.65" x2="642.37" y2="148.65"/><line class="j" x1="538.83" y1="220.09" x2="572.76" y2="220.09"/><line class="j" x1="538.83" y1="225.43" x2="572.76" y2="225.43"/><line class="j" x1="538.83" y1="230.76" x2="572.76" y2="230.76"/><line class="j" x1="579.27" y1="220.09" x2="613.2" y2="220.09"/><line class="j" x1="579.27" y1="225.43" x2="613.2" y2="225.43"/><line class="j" x1="579.27" y1="230.76" x2="613.2" y2="230.76"/><line class="j" x1="538.83" y1="210.99" x2="611" y2="210.99"/><rect class="r" x="652.02" y="139.15" width="1.79" height="98.41"/><rect class="p" x="652.02" y="173.7" width="1.79" height="10.44"/><line class="j" x1="623.6" y1="238.26" x2="623.6" y2="265.16"/><path class="l" d="M540.22,344l.32.32h.74A5.35,5.35,0,0,1,540.22,344Z"/><rect class="s" width="702.22" height="361.62"/></svg>