<svg id="Layer_1" data-name="Layer 1" xmlns="http://www.w3.org/2000/svg" viewBox="0 0 522.06 523.04"><defs><style>.cls-1{fill:#bbb;}</style></defs><path class="cls-1" d="M217.7,82.75h-5.9V67.13a17.37,17.37,0,0,1,17.35-17.35H335V71.31H229.15A11.46,11.46,0,0,0,217.7,82.75Zm11.45-27.06A11.46,11.46,0,0,0,217.7,67.13v2.59a17.34,17.34,0,0,1,11.45-4.32h99.94V55.69Z" transform="translate(-36.62 -44.79)"/><path class="cls-1" d="M354.28,340.68l-34.93-17.75,34.93-17.74,34.93,17.74Zm-21.89-17.75,21.89,11.12,21.89-11.12-21.89-11.11Z" transform="translate(-36.62 -44.79)"/><path class="cls-1" d="M357.23,380.93l-34.32-17.44V318.12l34.32,17.43Zm-28.41-21.06,22.5,11.43V339.18l-22.5-11.43Z" transform="translate(-36.62 -44.79)"/><path class="cls-1" d="M354.28,379.42l-31.36-15.93V321.12l31.36-15.93,31.36,15.93v42.37Zm-25.46-19.55,25.46,12.93,25.46-12.93V324.75l-25.46-12.93-25.46,12.93Z" transform="translate(-36.62 -44.79)"/><rect class="cls-1" x="359.29" y="405.68" width="5.91" height="35.13" transform="translate(-229.8 335.32) rotate(-45)"/><path class="cls-1" d="M481.93,554.21V506.27l47.94,24Zm5.91-38.38v28.83l28.83-14.42Z" transform="translate(-36.62 -44.79)"/><path class="cls-1" d="M555.84,567.83H452.31V492.65H555.84Zm-97.62-5.9h91.72V498.56H458.22Z" transform="translate(-36.62 -44.79)"/><path class="cls-1" d="M555.84,498.56H452.31V470.27H555.84Zm-97.62-5.91h91.72V476.17H458.22Z" transform="translate(-36.62 -44.79)"/><rect class="cls-1" x="481.89" y="468.58" width="5.91" height="31.66" transform="translate(-237.15 439.92) rotate(-45)"/><rect class="cls-1" x="520.36" y="468.59" width="5.91" height="31.65" transform="translate(-225.88 467.12) rotate(-45)"/><path class="cls-1" d="M516.17,151.08H477.49v-4.21A47.26,47.26,0,0,0,467,117.3a38.24,38.24,0,1,1,68-24A37.8,37.8,0,0,1,526.88,117a48.65,48.65,0,0,0-10.71,29.88Zm-32.8-5.91H510.3a54.77,54.77,0,0,1,11.94-31.83,32,32,0,0,0,6.92-20A32.45,32.45,0,0,0,518.88,69.7a32.11,32.11,0,0,0-24.37-8.61,32.34,32.34,0,0,0-22.88,52.51A53.3,53.3,0,0,1,483.37,145.17Z" transform="translate(-36.62 -44.79)"/><path class="cls-1" d="M507.09,167.47H486.57a9.09,9.09,0,0,1-9.08-9.08V145.17h38.68v13.22A9.09,9.09,0,0,1,507.09,167.47Zm-23.7-16.39v7.31a3.18,3.18,0,0,0,3.18,3.17h20.52a3.18,3.18,0,0,0,3.18-3.17v-7.31Z" transform="translate(-36.62 -44.79)"/><path class="cls-1" d="M496.83,178.25a13.75,13.75,0,0,1-13.73-13.73v-3h27.46v3A13.75,13.75,0,0,1,496.83,178.25Zm-7.25-10.78a7.83,7.83,0,0,0,14.5,0Z" transform="translate(-36.62 -44.79)"/><path class="cls-1" d="M521.67,93.35h-5.91a19,19,0,0,0-18.93-18.94v-5.9A24.86,24.86,0,0,1,521.67,93.35Z" transform="translate(-36.62 -44.79)"/><path class="cls-1" d="M513.61,111.66l-4-4.35a18.79,18.79,0,0,0,3.88-5l5.2,2.81A24.64,24.64,0,0,1,513.61,111.66Z" transform="translate(-36.62 -44.79)"/><path class="cls-1" d="M54.72,273.32a18.1,18.1,0,1,1,18.11-18.1A18.12,18.12,0,0,1,54.72,273.32Zm0-30.3a12.2,12.2,0,1,0,12.2,12.2A12.21,12.21,0,0,0,54.72,243Z" transform="translate(-36.62 -44.79)"/><path class="cls-1" d="M124.94,343.54a18.1,18.1,0,1,1,18.11-18.1A18.12,18.12,0,0,1,124.94,343.54Zm0-30.3a12.2,12.2,0,1,0,12.2,12.2A12.21,12.21,0,0,0,124.94,313.24Z" transform="translate(-36.62 -44.79)"/><path class="cls-1" d="M169.85,298.64A18.11,18.11,0,1,1,188,280.53,18.13,18.13,0,0,1,169.85,298.64Zm0-30.3A12.2,12.2,0,1,0,182,280.53,12.21,12.21,0,0,0,169.85,268.34Z" transform="translate(-36.62 -44.79)"/><path class="cls-1" d="M241.27,370.06a18.11,18.11,0,1,1,18.1-18.1A18.12,18.12,0,0,1,241.27,370.06Zm0-30.3a12.2,12.2,0,1,0,12.2,12.2A12.22,12.22,0,0,0,241.27,339.76Z" transform="translate(-36.62 -44.79)"/><rect class="cls-1" x="86.61" y="255.16" width="5.91" height="69.79" transform="translate(-215.49 103.49) rotate(-45)"/><rect class="cls-1" x="130.33" y="300.21" width="33.77" height="5.91" transform="translate(-207.87 148.1) rotate(-45)"/><rect class="cls-1" x="202.66" y="280.87" width="5.91" height="70.87" transform="translate(-200.06 193.24) rotate(-45)"/><polygon class="cls-1" points="317.66 295.88 287.91 280.77 290.59 275.51 317.66 289.26 344.73 275.51 347.41 280.77 317.66 295.88"/><rect class="cls-1" x="314.71" y="292.57" width="5.91" height="38.75"/><path class="cls-1" d="M404.71,268.17H300v-75H404.71Zm-98.77-5.9h92.87V199.08H305.94Z" transform="translate(-36.62 -44.79)"/><path class="cls-1" d="M392.11,256.34H312.63V214.53h79.48Zm-73.57-5.91H386.2v-30H318.54Z" transform="translate(-36.62 -44.79)"/><rect class="cls-1" x="302.7" y="158.71" width="10.7" height="5.91"/><rect class="cls-1" x="322.27" y="158.71" width="10.7" height="5.91"/><rect class="cls-1" x="341.83" y="158.71" width="10.7" height="5.91"/><path class="cls-1" d="M540.56,415.26H512.21V379.6h28.35Zm-22.44-5.91h16.53V385.51H518.12Z" transform="translate(-36.62 -44.79)"/><path class="cls-1" d="M518.12,415.26H441.63V379.6h76.49Zm-70.58-5.91h64.67V385.51H447.54Z" transform="translate(-36.62 -44.79)"/><path class="cls-1" d="M484.45,384.46H459.76V348.81h24.69Zm-18.79-5.9h12.89V354.72H465.66Z" transform="translate(-36.62 -44.79)"/><path class="cls-1" d="M558.68,384.46H478.55V348.81h80.13Zm-74.23-5.9h68.32V354.72H484.45Z" transform="translate(-36.62 -44.79)"/><rect class="cls-1" x="419.33" y="346.33" width="5.91" height="12.62"/><rect class="cls-1" x="433.51" y="346.33" width="5.91" height="12.62"/><rect class="cls-1" x="498.03" y="315.08" width="5.91" height="13.52"/><rect class="cls-1" x="483.41" y="315.08" width="5.91" height="13.52"/><rect class="cls-1" x="475.59" y="336.72" width="5.91" height="1.05"/><path class="cls-1" d="M120.7,121.82l-17.64-8.88a52.91,52.91,0,0,1-14.25,1.93c-24,0-43.48-15.72-43.48-35s19.5-35,43.48-35,43.48,15.72,43.48,35c0,8.93-4.1,17.34-11.59,23.83Zm-17.07-15.21,11.16,5.62V100.87l1.1-.88c6.77-5.47,10.49-12.63,10.49-20.16,0-16.06-16.85-29.13-37.57-29.13S51.23,63.77,51.23,79.83,68.09,109,88.81,109a47,47,0,0,0,13.68-2Z" transform="translate(-36.62 -44.79)"/><rect class="cls-1" x="36.58" y="23.97" width="31.2" height="5.91"/><rect class="cls-1" x="36.58" y="39.48" width="31.2" height="5.91"/><path class="cls-1" d="M376.87,106.27H329.09V58.49h47.78ZM335,100.37h36v-36H335Z" transform="translate(-36.62 -44.79)"/><path class="cls-1" d="M335,115H229.15A17.36,17.36,0,0,1,211.8,97.64V67.13a17.37,17.37,0,0,1,17.35-17.35H335ZM229.15,55.69A11.46,11.46,0,0,0,217.7,67.13V97.64a11.46,11.46,0,0,0,11.45,11.44h99.94V55.69Z" transform="translate(-36.62 -44.79)"/><rect class="cls-1" x="317.66" y="44.24" width="9.63" height="5.91"/><rect class="cls-1" x="317.66" y="25.03" width="9.63" height="5.91"/><rect class="cls-1" x="295.42" y="44.24" width="9.28" height="5.91"/><rect class="cls-1" x="295.42" y="25.03" width="9.28" height="5.91"/><rect class="cls-1" x="197.62" y="50.26" width="13.31" height="5.91"/><rect class="cls-1" x="222.29" y="50.26" width="57.13" height="5.91"/><rect class="cls-1" x="181.13" y="101.32" width="30.67" height="5.91"/><rect class="cls-1" x="193.51" y="88.94" width="5.91" height="30.67"/><rect class="cls-1" x="429.54" y="244.72" width="30.67" height="5.91"/><rect class="cls-1" x="441.92" y="232.34" width="5.91" height="30.67"/><rect class="cls-1" x="21.25" y="106.12" width="30.67" height="5.91"/><rect class="cls-1" x="33.63" y="93.74" width="5.91" height="30.67"/><rect class="cls-1" x="208.63" y="242.31" width="30.67" height="5.91"/><rect class="cls-1" x="221.01" y="229.93" width="5.91" height="30.67"/><path class="cls-1" d="M172,132.8A15.78,15.78,0,1,1,187.82,117,15.8,15.8,0,0,1,172,132.8Zm0-25.65a9.87,9.87,0,1,0,9.87,9.87A9.88,9.88,0,0,0,172,107.15Z" transform="translate(-36.62 -44.79)"/><path class="cls-1" d="M442.42,164.93a15.78,15.78,0,1,1,15.77-15.77A15.79,15.79,0,0,1,442.42,164.93Zm0-25.64a9.87,9.87,0,1,0,9.87,9.87A9.88,9.88,0,0,0,442.42,139.29Z" transform="translate(-36.62 -44.79)"/><path class="cls-1" d="M432.37,346.59a15.78,15.78,0,1,1,15.78-15.78A15.8,15.8,0,0,1,432.37,346.59Zm0-25.65a9.87,9.87,0,1,0,9.87,9.87A9.88,9.88,0,0,0,432.37,320.94Z" transform="translate(-36.62 -44.79)"/><path class="cls-1" d="M362.24,508.26A15.78,15.78,0,1,1,378,492.48,15.8,15.8,0,0,1,362.24,508.26Zm0-25.65a9.87,9.87,0,1,0,9.87,9.87A9.88,9.88,0,0,0,362.24,482.61Z" transform="translate(-36.62 -44.79)"/></svg>