<svg xmlns="http://www.w3.org/2000/svg" xmlns:xlink="http://www.w3.org/1999/xlink" viewBox="0 0 504 288"><defs><style>.cls-1{isolation:isolate;}.cls-2{fill:url(#linear-gradient);}.cls-3{mix-blend-mode:overlay;}.cls-4{fill:#fff;}</style><linearGradient id="linear-gradient" x1="545.85" y1="81.73" x2="203.43" y2="154.29" gradientUnits="userSpaceOnUse"><stop offset="0" stop-color="#4a4a4a"/><stop offset="0.63" stop-color="#181818"/><stop offset="1"/></linearGradient></defs><g class="cls-1"><g id="Layer_1" data-name="Layer 1"><rect class="cls-2" width="504" height="288"/><g class="cls-3"><path class="cls-4" d="M47.91,222.26,29.74,204.09l18.17-18.16,18.16,18.16ZM30.8,204.09,47.91,221.2,65,204.09,47.91,187Z" transform="translate(0)"/></g><g class="cls-3"><path class="cls-4" d="M64.91,48.51,51.56,35.15,64.91,21.79,78.27,35.15ZM52.62,35.15l12.29,12.3,12.3-12.3-12.3-12.3Z" transform="translate(0)"/></g><g class="cls-3"><rect class="cls-4" x="145.42" y="144.76" width="27.21" height="0.75"/></g><g class="cls-3"><path class="cls-4" d="M254,236.06a.88.88,0,1,0-.88-.88A.88.88,0,0,0,254,236.06Z" transform="translate(0)"/><path class="cls-4" d="M260,236.06a.88.88,0,1,0-.88-.88A.88.88,0,0,0,260,236.06Z" transform="translate(0)"/><path class="cls-4" d="M266,236.06a.88.88,0,1,0-.88-.88A.88.88,0,0,0,266,236.06Z" transform="translate(0)"/><path class="cls-4" d="M272,236.06a.88.88,0,1,0-.88-.88A.88.88,0,0,0,272,236.06Z" transform="translate(0)"/><path class="cls-4" d="M278,236.06a.88.88,0,1,0-.88-.88A.88.88,0,0,0,278,236.06Z" transform="translate(0)"/><path class="cls-4" d="M284,236.06a.88.88,0,1,0-.88-.88A.88.88,0,0,0,284,236.06Z" transform="translate(0)"/><path class="cls-4" d="M290,236.06a.88.88,0,1,0-.88-.88A.88.88,0,0,0,290,236.06Z" transform="translate(0)"/><path class="cls-4" d="M296,236.06a.88.88,0,1,0-.88-.88A.88.88,0,0,0,296,236.06Z" transform="translate(0)"/><path class="cls-4" d="M302,236.06a.88.88,0,1,0-.88-.88A.88.88,0,0,0,302,236.06Z" transform="translate(0)"/><path class="cls-4" d="M308,236.06a.88.88,0,1,0-.88-.88A.88.88,0,0,0,308,236.06Z" transform="translate(0)"/><path class="cls-4" d="M314,236.06a.88.88,0,1,0-.88-.88A.88.88,0,0,0,314,236.06Z" transform="translate(0)"/><path class="cls-4" d="M320,236.06a.88.88,0,1,0-.88-.88A.88.88,0,0,0,320,236.06Z" transform="translate(0)"/><path class="cls-4" d="M326,236.06a.88.88,0,1,0-.88-.88A.88.88,0,0,0,326,236.06Z" transform="translate(0)"/><path class="cls-4" d="M332,236.06a.88.88,0,1,0-.88-.88A.88.88,0,0,0,332,236.06Z" transform="translate(0)"/><path class="cls-4" d="M338,236.06a.88.88,0,1,0-.88-.88A.88.88,0,0,0,338,236.06Z" transform="translate(0)"/><path class="cls-4" d="M344,236.06a.88.88,0,1,0-.88-.88A.88.88,0,0,0,344,236.06Z" transform="translate(0)"/><path class="cls-4" d="M350,236.06a.88.88,0,1,0-.88-.88A.88.88,0,0,0,350,236.06Z" transform="translate(0)"/><path class="cls-4" d="M356,236.06a.88.88,0,1,0-.88-.88A.88.88,0,0,0,356,236.06Z" transform="translate(0)"/><path class="cls-4" d="M362,236.06a.88.88,0,1,0-.88-.88A.88.88,0,0,0,362,236.06Z" transform="translate(0)"/><path class="cls-4" d="M368,236.06a.88.88,0,1,0-.88-.88A.88.88,0,0,0,368,236.06Z" transform="translate(0)"/><path class="cls-4" d="M374,236.06a.88.88,0,1,0-.88-.88A.88.88,0,0,0,374,236.06Z" transform="translate(0)"/><path class="cls-4" d="M380,236.06a.88.88,0,1,0-.88-.88A.88.88,0,0,0,380,236.06Z" transform="translate(0)"/><path class="cls-4" d="M386,236.06a.88.88,0,1,0-.88-.88A.88.88,0,0,0,386,236.06Z" transform="translate(0)"/><path class="cls-4" d="M392,236.06a.88.88,0,1,0-.88-.88A.88.88,0,0,0,392,236.06Z" transform="translate(0)"/><path class="cls-4" d="M398,236.06a.88.88,0,1,0-.88-.88A.88.88,0,0,0,398,236.06Z" transform="translate(0)"/><path class="cls-4" d="M404,236.06a.88.88,0,1,0-.88-.88A.88.88,0,0,0,404,236.06Z" transform="translate(0)"/><path class="cls-4" d="M410,236.06a.88.88,0,1,0-.88-.88A.88.88,0,0,0,410,236.06Z" transform="translate(0)"/><path class="cls-4" d="M416,236.06a.88.88,0,1,0-.88-.88A.88.88,0,0,0,416,236.06Z" transform="translate(0)"/><path class="cls-4" d="M422,236.06a.88.88,0,1,0-.88-.88A.88.88,0,0,0,422,236.06Z" transform="translate(0)"/><path class="cls-4" d="M428,236.06a.88.88,0,1,0-.88-.88A.88.88,0,0,0,428,236.06Z" transform="translate(0)"/><path class="cls-4" d="M434,236.06a.88.88,0,1,0-.88-.88A.88.88,0,0,0,434,236.06Z" transform="translate(0)"/><path class="cls-4" d="M440,236.06a.88.88,0,1,0-.88-.88A.88.88,0,0,0,440,236.06Z" transform="translate(0)"/><path class="cls-4" d="M446,236.06a.88.88,0,1,0-.88-.88A.88.88,0,0,0,446,236.06Z" transform="translate(0)"/><path class="cls-4" d="M452,236.06a.88.88,0,1,0-.88-.88A.88.88,0,0,0,452,236.06Z" transform="translate(0)"/><path class="cls-4" d="M458,236.06a.88.88,0,1,0-.88-.88A.88.88,0,0,0,458,236.06Z" transform="translate(0)"/><path class="cls-4" d="M464,236.06a.88.88,0,1,0-.88-.88A.88.88,0,0,0,464,236.06Z" transform="translate(0)"/><path class="cls-4" d="M470,236.06a.88.88,0,1,0-.88-.88A.88.88,0,0,0,470,236.06Z" transform="translate(0)"/><path class="cls-4" d="M254,242.06a.88.88,0,1,0-.88-.88A.88.88,0,0,0,254,242.06Z" transform="translate(0)"/><path class="cls-4" d="M260,242.06a.88.88,0,1,0-.88-.88A.88.88,0,0,0,260,242.06Z" transform="translate(0)"/><path class="cls-4" d="M266,242.06a.88.88,0,1,0-.88-.88A.88.88,0,0,0,266,242.06Z" transform="translate(0)"/><path class="cls-4" d="M272,242.06a.88.88,0,1,0-.88-.88A.88.88,0,0,0,272,242.06Z" transform="translate(0)"/><path class="cls-4" d="M278,242.06a.88.88,0,1,0-.88-.88A.88.88,0,0,0,278,242.06Z" transform="translate(0)"/><path class="cls-4" d="M284,242.06a.88.88,0,1,0-.88-.88A.88.88,0,0,0,284,242.06Z" transform="translate(0)"/><path class="cls-4" d="M290,242.06a.88.88,0,1,0-.88-.88A.88.88,0,0,0,290,242.06Z" transform="translate(0)"/><path class="cls-4" d="M296,242.06a.88.88,0,1,0-.88-.88A.88.88,0,0,0,296,242.06Z" transform="translate(0)"/><path class="cls-4" d="M302,242.06a.88.88,0,1,0-.88-.88A.88.88,0,0,0,302,242.06Z" transform="translate(0)"/><path class="cls-4" d="M308,242.06a.88.88,0,1,0-.88-.88A.88.88,0,0,0,308,242.06Z" transform="translate(0)"/><path class="cls-4" d="M314,242.06a.88.88,0,1,0-.88-.88A.88.88,0,0,0,314,242.06Z" transform="translate(0)"/><path class="cls-4" d="M320,242.06a.88.88,0,1,0-.88-.88A.88.88,0,0,0,320,242.06Z" transform="translate(0)"/><path class="cls-4" d="M326,242.06a.88.88,0,1,0-.88-.88A.88.88,0,0,0,326,242.06Z" transform="translate(0)"/><path class="cls-4" d="M332,242.06a.88.88,0,1,0-.88-.88A.88.88,0,0,0,332,242.06Z" transform="translate(0)"/><path class="cls-4" d="M338,242.06a.88.88,0,1,0-.88-.88A.88.88,0,0,0,338,242.06Z" transform="translate(0)"/><path class="cls-4" d="M344,242.06a.88.88,0,1,0-.88-.88A.88.88,0,0,0,344,242.06Z" transform="translate(0)"/><path class="cls-4" d="M350,242.06a.88.88,0,1,0-.88-.88A.88.88,0,0,0,350,242.06Z" transform="translate(0)"/><path class="cls-4" d="M356,242.06a.88.88,0,1,0-.88-.88A.88.88,0,0,0,356,242.06Z" transform="translate(0)"/><path class="cls-4" d="M362,242.06a.88.88,0,1,0-.88-.88A.88.88,0,0,0,362,242.06Z" transform="translate(0)"/><path class="cls-4" d="M368,242.06a.88.88,0,1,0-.88-.88A.88.88,0,0,0,368,242.06Z" transform="translate(0)"/><path class="cls-4" d="M374,242.06a.88.88,0,1,0-.88-.88A.88.88,0,0,0,374,242.06Z" transform="translate(0)"/><path class="cls-4" d="M380,242.06a.88.88,0,1,0-.88-.88A.88.88,0,0,0,380,242.06Z" transform="translate(0)"/><path class="cls-4" d="M386,242.06a.88.88,0,1,0-.88-.88A.88.88,0,0,0,386,242.06Z" transform="translate(0)"/><path class="cls-4" d="M392,242.06a.88.88,0,1,0-.88-.88A.88.88,0,0,0,392,242.06Z" transform="translate(0)"/><path class="cls-4" d="M398,242.06a.88.88,0,1,0-.88-.88A.88.88,0,0,0,398,242.06Z" transform="translate(0)"/><path class="cls-4" d="M404,242.06a.88.88,0,1,0-.88-.88A.88.88,0,0,0,404,242.06Z" transform="translate(0)"/><path class="cls-4" d="M410,242.06a.88.88,0,1,0-.88-.88A.88.88,0,0,0,410,242.06Z" transform="translate(0)"/><path class="cls-4" d="M416,242.06a.88.88,0,1,0-.88-.88A.88.88,0,0,0,416,242.06Z" transform="translate(0)"/><path class="cls-4" d="M422,242.06a.88.88,0,1,0-.88-.88A.88.88,0,0,0,422,242.06Z" transform="translate(0)"/><path class="cls-4" d="M428,242.06a.88.88,0,1,0-.88-.88A.88.88,0,0,0,428,242.06Z" transform="translate(0)"/><path class="cls-4" d="M434,242.06a.88.88,0,1,0-.88-.88A.88.88,0,0,0,434,242.06Z" transform="translate(0)"/><path class="cls-4" d="M440,242.06a.88.88,0,1,0-.88-.88A.88.88,0,0,0,440,242.06Z" transform="translate(0)"/><path class="cls-4" d="M446,242.06a.88.88,0,1,0-.88-.88A.88.88,0,0,0,446,242.06Z" transform="translate(0)"/><path class="cls-4" d="M452,242.06a.88.88,0,1,0-.88-.88A.88.88,0,0,0,452,242.06Z" transform="translate(0)"/><path class="cls-4" d="M458,242.06a.88.88,0,1,0-.88-.88A.88.88,0,0,0,458,242.06Z" transform="translate(0)"/><path class="cls-4" d="M464,242.06a.88.88,0,1,0-.88-.88A.88.88,0,0,0,464,242.06Z" transform="translate(0)"/><path class="cls-4" d="M470,242.06a.88.88,0,1,0-.88-.88A.88.88,0,0,0,470,242.06Z" transform="translate(0)"/><path class="cls-4" d="M254,248.06a.88.88,0,1,0-.88-.88A.88.88,0,0,0,254,248.06Z" transform="translate(0)"/><path class="cls-4" d="M260,248.06a.88.88,0,1,0-.88-.88A.88.88,0,0,0,260,248.06Z" transform="translate(0)"/><path class="cls-4" d="M266,248.06a.88.88,0,1,0-.88-.88A.88.88,0,0,0,266,248.06Z" transform="translate(0)"/><path class="cls-4" d="M272,248.06a.88.88,0,1,0-.88-.88A.88.88,0,0,0,272,248.06Z" transform="translate(0)"/><path class="cls-4" d="M278,248.06a.88.88,0,1,0-.88-.88A.88.88,0,0,0,278,248.06Z" transform="translate(0)"/><path class="cls-4" d="M284,248.06a.88.88,0,1,0-.88-.88A.88.88,0,0,0,284,248.06Z" transform="translate(0)"/><path class="cls-4" d="M290,248.06a.88.88,0,1,0-.88-.88A.88.88,0,0,0,290,248.06Z" transform="translate(0)"/><path class="cls-4" d="M296,248.06a.88.88,0,1,0-.88-.88A.88.88,0,0,0,296,248.06Z" transform="translate(0)"/><path class="cls-4" d="M302,248.06a.88.88,0,1,0-.88-.88A.88.88,0,0,0,302,248.06Z" transform="translate(0)"/><path class="cls-4" d="M308,248.06a.88.88,0,1,0-.88-.88A.88.88,0,0,0,308,248.06Z" transform="translate(0)"/><path class="cls-4" d="M314,248.06a.88.88,0,1,0-.88-.88A.88.88,0,0,0,314,248.06Z" transform="translate(0)"/><path class="cls-4" d="M320,248.06a.88.88,0,1,0-.88-.88A.88.88,0,0,0,320,248.06Z" transform="translate(0)"/><path class="cls-4" d="M326,248.06a.88.88,0,1,0-.88-.88A.88.88,0,0,0,326,248.06Z" transform="translate(0)"/><path class="cls-4" d="M332,248.06a.88.88,0,1,0-.88-.88A.88.88,0,0,0,332,248.06Z" transform="translate(0)"/><path class="cls-4" d="M338,248.06a.88.88,0,1,0-.88-.88A.88.88,0,0,0,338,248.06Z" transform="translate(0)"/><path class="cls-4" d="M344,248.06a.88.88,0,1,0-.88-.88A.88.88,0,0,0,344,248.06Z" transform="translate(0)"/><path class="cls-4" d="M350,248.06a.88.88,0,1,0-.88-.88A.88.88,0,0,0,350,248.06Z" transform="translate(0)"/><path class="cls-4" d="M356,248.06a.88.88,0,1,0-.88-.88A.88.88,0,0,0,356,248.06Z" transform="translate(0)"/><path class="cls-4" d="M362,248.06a.88.88,0,1,0-.88-.88A.88.88,0,0,0,362,248.06Z" transform="translate(0)"/><path class="cls-4" d="M368,248.06a.88.88,0,1,0-.88-.88A.88.88,0,0,0,368,248.06Z" transform="translate(0)"/><path class="cls-4" d="M374,248.06a.88.88,0,1,0-.88-.88A.88.88,0,0,0,374,248.06Z" transform="translate(0)"/><path class="cls-4" d="M380,248.06a.88.88,0,1,0-.88-.88A.88.88,0,0,0,380,248.06Z" transform="translate(0)"/><path class="cls-4" d="M386,248.06a.88.88,0,1,0-.88-.88A.88.88,0,0,0,386,248.06Z" transform="translate(0)"/><path class="cls-4" d="M392,248.06a.88.88,0,1,0-.88-.88A.88.88,0,0,0,392,248.06Z" transform="translate(0)"/><path class="cls-4" d="M398,248.06a.88.88,0,1,0-.88-.88A.88.88,0,0,0,398,248.06Z" transform="translate(0)"/><path class="cls-4" d="M404,248.06a.88.88,0,1,0-.88-.88A.88.88,0,0,0,404,248.06Z" transform="translate(0)"/><path class="cls-4" d="M410,248.06a.88.88,0,1,0-.88-.88A.88.88,0,0,0,410,248.06Z" transform="translate(0)"/><path class="cls-4" d="M416,248.06a.88.88,0,1,0-.88-.88A.88.88,0,0,0,416,248.06Z" transform="translate(0)"/><path class="cls-4" d="M422,248.06a.88.88,0,1,0-.88-.88A.88.88,0,0,0,422,248.06Z" transform="translate(0)"/><path class="cls-4" d="M428,248.06a.88.88,0,1,0-.88-.88A.88.88,0,0,0,428,248.06Z" transform="translate(0)"/><path class="cls-4" d="M434,248.06a.88.88,0,1,0-.88-.88A.88.88,0,0,0,434,248.06Z" transform="translate(0)"/><path class="cls-4" d="M440,248.06a.88.88,0,1,0-.88-.88A.88.88,0,0,0,440,248.06Z" transform="translate(0)"/><path class="cls-4" d="M446,248.06a.88.88,0,1,0-.88-.88A.88.88,0,0,0,446,248.06Z" transform="translate(0)"/><path class="cls-4" d="M452,248.06a.88.88,0,1,0-.88-.88A.88.88,0,0,0,452,248.06Z" transform="translate(0)"/><path class="cls-4" d="M458,248.06a.88.88,0,1,0-.88-.88A.88.88,0,0,0,458,248.06Z" transform="translate(0)"/><path class="cls-4" d="M464,248.06a.88.88,0,1,0-.88-.88A.88.88,0,0,0,464,248.06Z" transform="translate(0)"/><path class="cls-4" d="M470,248.06a.88.88,0,1,0-.88-.88A.88.88,0,0,0,470,248.06Z" transform="translate(0)"/><path class="cls-4" d="M254,254.06a.88.88,0,1,0-.88-.88A.88.88,0,0,0,254,254.06Z" transform="translate(0)"/><path class="cls-4" d="M260,254.06a.88.88,0,1,0-.88-.88A.88.88,0,0,0,260,254.06Z" transform="translate(0)"/><path class="cls-4" d="M266,254.06a.88.88,0,1,0-.88-.88A.88.88,0,0,0,266,254.06Z" transform="translate(0)"/><path class="cls-4" d="M272,254.06a.88.88,0,1,0-.88-.88A.88.88,0,0,0,272,254.06Z" transform="translate(0)"/><path class="cls-4" d="M278,254.06a.88.88,0,1,0-.88-.88A.88.88,0,0,0,278,254.06Z" transform="translate(0)"/><path class="cls-4" d="M284,254.06a.88.88,0,1,0-.88-.88A.88.88,0,0,0,284,254.06Z" transform="translate(0)"/><path class="cls-4" d="M290,254.06a.88.88,0,1,0-.88-.88A.88.88,0,0,0,290,254.06Z" transform="translate(0)"/><path class="cls-4" d="M296,254.06a.88.88,0,1,0-.88-.88A.88.88,0,0,0,296,254.06Z" transform="translate(0)"/><path class="cls-4" d="M302,254.06a.88.88,0,1,0-.88-.88A.88.88,0,0,0,302,254.06Z" transform="translate(0)"/><path class="cls-4" d="M308,254.06a.88.88,0,1,0-.88-.88A.88.88,0,0,0,308,254.06Z" transform="translate(0)"/><path class="cls-4" d="M314,254.06a.88.88,0,1,0-.88-.88A.88.88,0,0,0,314,254.06Z" transform="translate(0)"/><path class="cls-4" d="M320,254.06a.88.88,0,1,0-.88-.88A.88.88,0,0,0,320,254.06Z" transform="translate(0)"/><path class="cls-4" d="M326,254.06a.88.88,0,1,0-.88-.88A.88.88,0,0,0,326,254.06Z" transform="translate(0)"/><path class="cls-4" d="M332,254.06a.88.88,0,1,0-.88-.88A.88.88,0,0,0,332,254.06Z" transform="translate(0)"/><path class="cls-4" d="M338,254.06a.88.88,0,1,0-.88-.88A.88.88,0,0,0,338,254.06Z" transform="translate(0)"/><path class="cls-4" d="M344,254.06a.88.88,0,1,0-.88-.88A.88.88,0,0,0,344,254.06Z" transform="translate(0)"/><path class="cls-4" d="M350,254.06a.88.88,0,1,0-.88-.88A.88.88,0,0,0,350,254.06Z" transform="translate(0)"/><path class="cls-4" d="M356,254.06a.88.88,0,1,0-.88-.88A.88.88,0,0,0,356,254.06Z" transform="translate(0)"/><path class="cls-4" d="M362,254.06a.88.88,0,1,0-.88-.88A.88.88,0,0,0,362,254.06Z" transform="translate(0)"/><path class="cls-4" d="M368,254.06a.88.88,0,1,0-.88-.88A.88.88,0,0,0,368,254.06Z" transform="translate(0)"/><path class="cls-4" d="M374,254.06a.88.88,0,1,0-.88-.88A.88.88,0,0,0,374,254.06Z" transform="translate(0)"/><path class="cls-4" d="M380,254.06a.88.88,0,1,0-.88-.88A.88.88,0,0,0,380,254.06Z" transform="translate(0)"/><path class="cls-4" d="M386,254.06a.88.88,0,1,0-.88-.88A.88.88,0,0,0,386,254.06Z" transform="translate(0)"/><path class="cls-4" d="M392,254.06a.88.88,0,1,0-.88-.88A.88.88,0,0,0,392,254.06Z" transform="translate(0)"/><path class="cls-4" d="M398,254.06a.88.88,0,1,0-.88-.88A.88.88,0,0,0,398,254.06Z" transform="translate(0)"/><path class="cls-4" d="M404,254.06a.88.88,0,1,0-.88-.88A.88.88,0,0,0,404,254.06Z" transform="translate(0)"/><path class="cls-4" d="M410,254.06a.88.88,0,1,0-.88-.88A.88.88,0,0,0,410,254.06Z" transform="translate(0)"/><path class="cls-4" d="M416,254.06a.88.88,0,1,0-.88-.88A.88.88,0,0,0,416,254.06Z" transform="translate(0)"/><path class="cls-4" d="M422,254.06a.88.88,0,1,0-.88-.88A.88.88,0,0,0,422,254.06Z" transform="translate(0)"/><path class="cls-4" d="M428,254.06a.88.88,0,1,0-.88-.88A.88.88,0,0,0,428,254.06Z" transform="translate(0)"/><path class="cls-4" d="M434,254.06a.88.88,0,1,0-.88-.88A.88.88,0,0,0,434,254.06Z" transform="translate(0)"/><path class="cls-4" d="M440,254.06a.88.88,0,1,0-.88-.88A.88.88,0,0,0,440,254.06Z" transform="translate(0)"/><path class="cls-4" d="M446,254.06a.88.88,0,1,0-.88-.88A.88.88,0,0,0,446,254.06Z" transform="translate(0)"/><path class="cls-4" d="M452,254.06a.88.88,0,1,0-.88-.88A.88.88,0,0,0,452,254.06Z" transform="translate(0)"/><path class="cls-4" d="M458,254.06a.88.88,0,1,0-.88-.88A.88.88,0,0,0,458,254.06Z" transform="translate(0)"/><path class="cls-4" d="M464,254.06a.88.88,0,1,0-.88-.88A.88.88,0,0,0,464,254.06Z" transform="translate(0)"/><path class="cls-4" d="M470,254.06a.88.88,0,1,0-.88-.88A.88.88,0,0,0,470,254.06Z" transform="translate(0)"/><path class="cls-4" d="M254,260.06a.88.88,0,1,0-.88-.88A.88.88,0,0,0,254,260.06Z" transform="translate(0)"/><path class="cls-4" d="M260,260.06a.88.88,0,1,0-.88-.88A.88.88,0,0,0,260,260.06Z" transform="translate(0)"/><path class="cls-4" d="M266,260.06a.88.88,0,1,0-.88-.88A.88.88,0,0,0,266,260.06Z" transform="translate(0)"/><path class="cls-4" d="M272,260.06a.88.88,0,1,0-.88-.88A.88.88,0,0,0,272,260.06Z" transform="translate(0)"/><path class="cls-4" d="M278,260.06a.88.88,0,1,0-.88-.88A.88.88,0,0,0,278,260.06Z" transform="translate(0)"/><path class="cls-4" d="M284,260.06a.88.88,0,1,0-.88-.88A.88.88,0,0,0,284,260.06Z" transform="translate(0)"/><path class="cls-4" d="M290,260.06a.88.88,0,1,0-.88-.88A.88.88,0,0,0,290,260.06Z" transform="translate(0)"/><path class="cls-4" d="M296,260.06a.88.88,0,1,0-.88-.88A.88.88,0,0,0,296,260.06Z" transform="translate(0)"/><path class="cls-4" d="M302,260.06a.88.88,0,1,0-.88-.88A.88.88,0,0,0,302,260.06Z" transform="translate(0)"/><path class="cls-4" d="M308,260.06a.88.88,0,1,0-.88-.88A.88.88,0,0,0,308,260.06Z" transform="translate(0)"/><path class="cls-4" d="M314,260.06a.88.88,0,1,0-.88-.88A.88.88,0,0,0,314,260.06Z" transform="translate(0)"/><path class="cls-4" d="M320,260.06a.88.88,0,1,0-.88-.88A.88.88,0,0,0,320,260.06Z" transform="translate(0)"/><path class="cls-4" d="M326,260.06a.88.88,0,1,0-.88-.88A.88.88,0,0,0,326,260.06Z" transform="translate(0)"/><path class="cls-4" d="M332,260.06a.88.88,0,1,0-.88-.88A.88.88,0,0,0,332,260.06Z" transform="translate(0)"/><path class="cls-4" d="M338,260.06a.88.88,0,1,0-.88-.88A.88.88,0,0,0,338,260.06Z" transform="translate(0)"/><path class="cls-4" d="M344,260.06a.88.88,0,1,0-.88-.88A.88.88,0,0,0,344,260.06Z" transform="translate(0)"/><path class="cls-4" d="M350,260.06a.88.88,0,1,0-.88-.88A.88.88,0,0,0,350,260.06Z" transform="translate(0)"/><path class="cls-4" d="M356,260.06a.88.88,0,1,0-.88-.88A.88.88,0,0,0,356,260.06Z" transform="translate(0)"/><path class="cls-4" d="M362,260.06a.88.88,0,1,0-.88-.88A.88.88,0,0,0,362,260.06Z" transform="translate(0)"/><path class="cls-4" d="M368,260.06a.88.88,0,1,0-.88-.88A.88.88,0,0,0,368,260.06Z" transform="translate(0)"/><path class="cls-4" d="M374,260.06a.88.88,0,1,0-.88-.88A.88.88,0,0,0,374,260.06Z" transform="translate(0)"/><path class="cls-4" d="M380,260.06a.88.88,0,1,0-.88-.88A.88.88,0,0,0,380,260.06Z" transform="translate(0)"/><path class="cls-4" d="M386,260.06a.88.88,0,1,0-.88-.88A.88.88,0,0,0,386,260.06Z" transform="translate(0)"/><path class="cls-4" d="M392,260.06a.88.88,0,1,0-.88-.88A.88.88,0,0,0,392,260.06Z" transform="translate(0)"/><path class="cls-4" d="M398,260.06a.88.88,0,1,0-.88-.88A.88.88,0,0,0,398,260.06Z" transform="translate(0)"/><path class="cls-4" d="M404,260.06a.88.88,0,1,0-.88-.88A.88.88,0,0,0,404,260.06Z" transform="translate(0)"/><path class="cls-4" d="M410,260.06a.88.88,0,1,0-.88-.88A.88.88,0,0,0,410,260.06Z" transform="translate(0)"/><path class="cls-4" d="M416,260.06a.88.88,0,1,0-.88-.88A.88.88,0,0,0,416,260.06Z" transform="translate(0)"/><path class="cls-4" d="M422,260.06a.88.88,0,1,0-.88-.88A.88.88,0,0,0,422,260.06Z" transform="translate(0)"/><path class="cls-4" d="M428,260.06a.88.88,0,1,0-.88-.88A.88.88,0,0,0,428,260.06Z" transform="translate(0)"/><path class="cls-4" d="M434,260.06a.88.88,0,1,0-.88-.88A.88.88,0,0,0,434,260.06Z" transform="translate(0)"/><path class="cls-4" d="M440,260.06a.88.88,0,1,0-.88-.88A.88.88,0,0,0,440,260.06Z" transform="translate(0)"/><path class="cls-4" d="M446,260.06a.88.88,0,1,0-.88-.88A.88.88,0,0,0,446,260.06Z" transform="translate(0)"/><path class="cls-4" d="M452,260.06a.88.88,0,1,0-.88-.88A.88.88,0,0,0,452,260.06Z" transform="translate(0)"/><path class="cls-4" d="M458,260.06a.88.88,0,1,0-.88-.88A.88.88,0,0,0,458,260.06Z" transform="translate(0)"/><path class="cls-4" d="M464,260.06a.88.88,0,1,0-.88-.88A.88.88,0,0,0,464,260.06Z" transform="translate(0)"/><path class="cls-4" d="M470,260.06a.88.88,0,1,0-.88-.88A.88.88,0,0,0,470,260.06Z" transform="translate(0)"/></g></g></g></svg>