<svg id="Layer_1" data-name="Layer 1" xmlns="http://www.w3.org/2000/svg" viewBox="0 0 121.36 161.68"><defs><style>.cls-1{fill:none;stroke:#d1d3d4;stroke-miterlimit:10;}</style></defs><circle class="cls-1" cx="6.08" cy="6.08" r="5.58"/><circle class="cls-1" cx="27.92" cy="6.08" r="5.58"/><circle class="cls-1" cx="49.76" cy="6.08" r="5.58"/><circle class="cls-1" cx="71.6" cy="6.08" r="5.58"/><circle class="cls-1" cx="93.44" cy="6.08" r="5.58"/><circle class="cls-1" cx="6.08" cy="27.44" r="5.58"/><circle class="cls-1" cx="27.92" cy="27.44" r="5.58"/><circle class="cls-1" cx="49.76" cy="27.44" r="5.58"/><circle class="cls-1" cx="71.6" cy="27.44" r="5.58"/><circle class="cls-1" cx="93.44" cy="27.44" r="5.58"/><circle class="cls-1" cx="6.08" cy="48.8" r="5.58"/><circle class="cls-1" cx="27.92" cy="48.8" r="5.58"/><circle class="cls-1" cx="49.76" cy="48.8" r="5.58"/><circle class="cls-1" cx="71.6" cy="48.8" r="5.58"/><circle class="cls-1" cx="93.44" cy="48.8" r="5.58"/><circle class="cls-1" cx="6.08" cy="70.16" r="5.58"/><circle class="cls-1" cx="27.92" cy="70.16" r="5.58"/><circle class="cls-1" cx="49.76" cy="70.16" r="5.58"/><circle class="cls-1" cx="71.6" cy="70.16" r="5.58"/><circle class="cls-1" cx="93.44" cy="70.16" r="5.58"/><circle class="cls-1" cx="6.08" cy="91.52" r="5.58"/><circle class="cls-1" cx="27.92" cy="91.52" r="5.58"/><circle class="cls-1" cx="49.76" cy="91.52" r="5.58"/><circle class="cls-1" cx="71.6" cy="91.52" r="5.58"/><circle class="cls-1" cx="93.44" cy="91.52" r="5.58"/><circle class="cls-1" cx="6.08" cy="112.88" r="5.58"/><circle class="cls-1" cx="27.92" cy="112.88" r="5.58"/><circle class="cls-1" cx="49.76" cy="112.88" r="5.58"/><circle class="cls-1" cx="71.6" cy="112.88" r="5.58"/><circle class="cls-1" cx="93.44" cy="112.88" r="5.58"/><circle class="cls-1" cx="6.08" cy="134.24" r="5.58"/><circle class="cls-1" cx="27.92" cy="134.24" r="5.58"/><circle class="cls-1" cx="49.76" cy="134.24" r="5.58"/><circle class="cls-1" cx="71.6" cy="134.24" r="5.58"/><circle class="cls-1" cx="93.44" cy="134.24" r="5.58"/><circle class="cls-1" cx="6.08" cy="155.6" r="5.58"/><circle class="cls-1" cx="27.92" cy="155.6" r="5.58"/><circle class="cls-1" cx="49.76" cy="155.6" r="5.58"/><circle class="cls-1" cx="71.6" cy="155.6" r="5.58"/><circle class="cls-1" cx="93.44" cy="155.6" r="5.58"/><circle class="cls-1" cx="115.28" cy="6.08" r="5.58"/><circle class="cls-1" cx="115.28" cy="27.44" r="5.58"/><circle class="cls-1" cx="115.28" cy="48.8" r="5.58"/><circle class="cls-1" cx="115.28" cy="70.16" r="5.58"/><circle class="cls-1" cx="115.28" cy="91.52" r="5.58"/><circle class="cls-1" cx="115.28" cy="112.88" r="5.58"/><circle class="cls-1" cx="115.28" cy="134.24" r="5.58"/><circle class="cls-1" cx="115.28" cy="155.6" r="5.58"/></svg>