<svg id="Layer_1" data-name="Layer 1" xmlns="http://www.w3.org/2000/svg" viewBox="0 0 486.2 487.46"><defs><style>.cls-1{fill:#d1d3d4;}</style></defs><rect class="cls-1" x="265.64" y="224.15" width="86.63" height="1.79" transform="translate(1.15 347.93) rotate(-45)"/><rect class="cls-1" x="166.31" y="319.48" width="94.62" height="1.79" transform="translate(-94.18 308.44) rotate(-45)"/><rect class="cls-1" x="114.66" y="398.38" width="40.13" height="1.79" transform="translate(-173.08 275.76) rotate(-45)"/><rect class="cls-1" x="152.04" y="368.56" width="24.99" height="1.79" transform="translate(-143.26 288.11) rotate(-45)"/><rect class="cls-1" x="340.49" y="172.54" width="40.13" height="1.79" transform="translate(807.95 104.68) rotate(135)"/><rect class="cls-1" x="250.2" y="270.4" width="24.99" height="1.79" transform="translate(710.09 340.94) rotate(135)"/><rect class="cls-1" x="168.85" y="304.44" width="86.63" height="1.79" transform="translate(647.89 434.78) rotate(135)"/><rect class="cls-1" x="140.49" y="356.05" width="40.13" height="1.79" transform="translate(596.29 559.37) rotate(135)"/><rect class="cls-1" x="341.86" y="154.68" width="40.13" height="1.79" transform="translate(797.66 73.21) rotate(135)"/><rect class="cls-1" x="118.25" y="385.86" width="24.99" height="1.79" transform="translate(566.47 631.35) rotate(135)"/><rect class="cls-1" x="235.73" y="233.57" width="94.62" height="1.79" transform="translate(718.76 263.68) rotate(135)"/><rect class="cls-1" x="319.62" y="184.49" width="24.99" height="1.79" transform="translate(767.84 145.2) rotate(135)"/><rect class="cls-1" x="275.36" y="164.95" width="86.63" height="1.79" transform="translate(731.07 121.33) rotate(135)"/><rect class="cls-1" x="247" y="216.55" width="40.13" height="1.79" transform="translate(-5.74 316.09) rotate(-45)"/><rect class="cls-1" x="352.43" y="118.69" width="24.99" height="1.79" transform="translate(92.12 356.63) rotate(-45)"/><rect class="cls-1" x="73.99" y="366.32" width="86.63" height="1.79" transform="translate(529.7 607.48) rotate(135)"/><rect class="cls-1" x="165.33" y="270.98" width="94.62" height="1.79" transform="translate(625.04 377.33) rotate(135)"/><rect class="cls-1" x="151.06" y="320.06" width="24.99" height="1.79" transform="translate(-109.25 273.21) rotate(-45)"/><rect class="cls-1" x="208.5" y="248.3" width="86.63" height="1.79" transform="translate(-32.66 314.6) rotate(-45)"/><rect class="cls-1" x="335.01" y="117.8" width="94.62" height="1.79" transform="translate(97.84 368.66) rotate(-45)"/><rect class="cls-1" x="283.35" y="196.69" width="40.13" height="1.79" transform="translate(18.95 335.98) rotate(-45)"/><rect class="cls-1" x="81.98" y="398.06" width="40.13" height="1.79" transform="translate(-182.42 252.57) rotate(-45)"/><rect class="cls-1" x="320.74" y="166.88" width="24.99" height="1.79" transform="translate(48.77 348.33) rotate(-45)"/><rect class="cls-1" x="133.64" y="319.17" width="94.62" height="1.79" transform="translate(-103.53 285.25) rotate(-45)"/><rect class="cls-1" x="119.37" y="368.25" width="24.99" height="1.79" transform="translate(-152.61 264.92) rotate(-45)"/><rect class="cls-1" x="193.9" y="229.91" width="86.63" height="1.79" transform="translate(637.96 289.82) rotate(135)"/><rect class="cls-1" x="285.24" y="134.57" width="94.62" height="1.79" transform="translate(733.29 59.67) rotate(135)"/><rect class="cls-1" x="165.54" y="281.51" width="40.13" height="1.79" transform="translate(-75.54 277.52) rotate(-45)"/><rect class="cls-1" x="270.97" y="183.65" width="24.99" height="1.79" transform="translate(22.33 318.05) rotate(-45)"/><rect class="cls-1" x="83.87" y="335.95" width="94.62" height="1.79" transform="translate(531.92 545.82) rotate(135)"/><rect class="cls-1" x="222.59" y="184.73" width="86.63" height="1.79" transform="translate(16.42 305.95) rotate(-45)"/><rect class="cls-1" x="14.4" y="388.93" width="94.62" height="1.79" transform="translate(-187.78 221.36) rotate(-45)"/><rect class="cls-1" x="297.44" y="133.12" width="40.13" height="1.79" transform="translate(68.03 327.32) rotate(-45)"/><rect class="cls-1" x="96.07" y="334.49" width="40.13" height="1.79" transform="translate(-133.35 243.91) rotate(-45)"/><rect class="cls-1" x="334.83" y="103.31" width="24.99" height="1.79" transform="translate(97.84 339.67) rotate(-45)"/><rect class="cls-1" x="147.72" y="255.6" width="94.62" height="1.79" transform="translate(-54.45 276.59) rotate(-45)"/><rect class="cls-1" x="133.46" y="304.68" width="24.99" height="1.79" transform="translate(-103.53 256.26) rotate(-45)"/><rect class="cls-1" x="83.09" y="291.24" width="86.63" height="1.79" transform="translate(-99.75 238.5) rotate(-45)"/><rect class="cls-1" x="157.95" y="239.63" width="40.13" height="1.79" transform="translate(543.76 348.29) rotate(135)"/><rect class="cls-1" x="67.66" y="337.49" width="24.99" height="1.79" transform="translate(445.9 584.54) rotate(135)"/><rect class="cls-1" x="284.46" y="89.87" width="86.63" height="1.79" transform="translate(101.62 321.91) rotate(-45)"/><rect class="cls-1" x="185.14" y="185.2" width="94.62" height="1.79" transform="translate(6.29 282.42) rotate(-45)"/><rect class="cls-1" x="269.03" y="136.12" width="24.99" height="1.79" transform="translate(647.27 98.39) rotate(135)"/><rect class="cls-1" x="166.45" y="224.38" width="86.63" height="1.79" transform="translate(587.17 299.8) rotate(135)"/><rect class="cls-1" x="31.95" y="354.88" width="94.62" height="1.79" transform="translate(456.67 614.86) rotate(135)"/><rect class="cls-1" x="138.09" y="275.98" width="40.13" height="1.79" transform="translate(535.56 424.39) rotate(135)"/><rect class="cls-1" x="115.84" y="305.8" width="24.99" height="1.79" transform="translate(505.75 496.37) rotate(135)"/><rect class="cls-1" x="233.32" y="153.51" width="94.62" height="1.79" transform="translate(658.04 128.71) rotate(135)"/><rect class="cls-1" x="317.21" y="104.43" width="24.99" height="1.79" transform="translate(707.12 10.22) rotate(135)"/><rect class="cls-1" x="199.66" y="158.17" width="86.63" height="1.79" transform="translate(28.48 281.96) rotate(-45)"/><rect class="cls-1" x="100.33" y="253.51" width="94.62" height="1.79" transform="translate(-66.85 242.47) rotate(-45)"/><rect class="cls-1" x="48.68" y="332.4" width="40.13" height="1.79" transform="translate(-145.75 209.79) rotate(-45)"/><rect class="cls-1" x="86.07" y="302.59" width="24.99" height="1.79" transform="translate(-115.93 222.14) rotate(-45)"/><rect class="cls-1" x="274.51" y="106.57" width="40.13" height="1.79" transform="translate(648.67 38.71) rotate(135)"/><rect class="cls-1" x="184.22" y="204.43" width="24.99" height="1.79" transform="translate(550.81 274.97) rotate(135)"/><rect class="cls-1" x="301.7" y="52.14" width="94.62" height="1.79" transform="translate(134.52 325.88) rotate(-45)"/><rect class="cls-1" x="102.88" y="238.47" width="86.63" height="1.79" transform="translate(488.61 368.8) rotate(135)"/><rect class="cls-1" x="74.52" y="290.07" width="40.13" height="1.79" transform="translate(437.01 493.39) rotate(135)"/><rect class="cls-1" x="275.89" y="88.7" width="40.13" height="1.79" transform="translate(638.38 7.24) rotate(135)"/><rect class="cls-1" x="52.27" y="319.89" width="24.99" height="1.79" transform="translate(407.19 565.37) rotate(135)"/><rect class="cls-1" x="169.75" y="167.6" width="94.62" height="1.79" transform="translate(559.48 197.71) rotate(135)"/><rect class="cls-1" x="253.64" y="118.52" width="24.99" height="1.79" transform="translate(608.56 79.22) rotate(135)"/><rect class="cls-1" x="209.38" y="98.97" width="86.63" height="1.79" transform="translate(571.79 55.35) rotate(135)"/><rect class="cls-1" x="181.02" y="150.58" width="40.13" height="1.79" transform="translate(21.59 250.11) rotate(-45)"/><rect class="cls-1" x="286.45" y="52.72" width="24.99" height="1.79" transform="translate(119.45 290.65) rotate(-45)"/><rect class="cls-1" x="8.01" y="300.34" width="86.63" height="1.79" transform="translate(370.42 541.51) rotate(135)"/><rect class="cls-1" x="99.35" y="205.01" width="94.62" height="1.79" transform="translate(465.76 311.35) rotate(135)"/><rect class="cls-1" x="85.08" y="254.09" width="24.99" height="1.79" transform="translate(-81.93 207.24) rotate(-45)"/><rect class="cls-1" x="142.53" y="182.32" width="86.63" height="1.79" transform="translate(-5.33 248.63) rotate(-45)"/><rect class="cls-1" x="269.03" y="51.82" width="94.62" height="1.79" transform="translate(125.17 302.68) rotate(-45)"/><rect class="cls-1" x="217.38" y="130.72" width="40.13" height="1.79" transform="translate(46.28 270) rotate(-45)"/><rect class="cls-1" x="16.01" y="332.09" width="40.13" height="1.79" transform="translate(-155.09 186.59) rotate(-45)"/><rect class="cls-1" x="254.76" y="100.9" width="24.99" height="1.79" transform="translate(76.09 282.35) rotate(-45)"/><rect class="cls-1" x="67.66" y="253.19" width="94.62" height="1.79" transform="translate(-76.2 219.27) rotate(-45)"/><rect class="cls-1" x="53.39" y="302.27" width="24.99" height="1.79" transform="translate(-125.28 198.94) rotate(-45)"/><rect class="cls-1" x="127.93" y="163.93" width="86.63" height="1.79" transform="translate(478.67 223.85) rotate(135)"/><rect class="cls-1" x="219.27" y="68.6" width="94.62" height="1.79" transform="translate(574.01 -6.31) rotate(135)"/><rect class="cls-1" x="99.57" y="215.54" width="40.13" height="1.79" transform="translate(-48.21 211.54) rotate(-45)"/><rect class="cls-1" x="205" y="117.68" width="24.99" height="1.79" transform="translate(49.65 252.08) rotate(-45)"/><rect class="cls-1" x="17.89" y="269.97" width="94.62" height="1.79" transform="translate(372.64 479.85) rotate(135)"/><rect class="cls-1" x="156.61" y="118.75" width="86.63" height="1.79" transform="translate(43.75 239.97) rotate(-45)"/><rect class="cls-1" x="-51.58" y="322.95" width="94.62" height="1.79" transform="translate(-160.45 155.39) rotate(-45)"/><rect class="cls-1" x="231.47" y="67.15" width="40.13" height="1.79" transform="translate(95.35 261.35) rotate(-45)"/><rect class="cls-1" x="30.09" y="268.52" width="40.13" height="1.79" transform="translate(-106.02 177.93) rotate(-45)"/><rect class="cls-1" x="268.85" y="37.33" width="24.99" height="1.79" transform="translate(125.17 273.7) rotate(-45)"/><rect class="cls-1" x="81.75" y="189.62" width="94.62" height="1.79" transform="translate(-27.12 210.61) rotate(-45)"/><rect class="cls-1" x="67.48" y="238.7" width="24.99" height="1.79" transform="translate(-76.2 190.28) rotate(-45)"/><rect class="cls-1" x="17.12" y="225.26" width="86.63" height="1.79" transform="translate(-72.42 172.53) rotate(-45)"/><rect class="cls-1" x="91.97" y="173.65" width="40.13" height="1.79" transform="translate(384.48 282.31) rotate(135)"/><rect class="cls-1" x="1.68" y="271.51" width="24.99" height="1.79" transform="translate(286.62 518.57) rotate(135)"/><rect class="cls-1" x="218.49" y="23.89" width="86.63" height="1.79" transform="translate(128.95 255.94) rotate(-45)"/><rect class="cls-1" x="119.16" y="119.22" width="94.62" height="1.79" transform="translate(33.62 216.45) rotate(-45)"/><rect class="cls-1" x="203.05" y="70.14" width="24.99" height="1.79" transform="translate(487.99 32.41) rotate(135)"/><rect class="cls-1" x="100.47" y="158.4" width="86.63" height="1.79" transform="translate(427.89 233.83) rotate(135)"/><rect class="cls-1" x="-34.03" y="288.9" width="94.62" height="1.79" transform="translate(297.39 548.89) rotate(135)"/><rect class="cls-1" x="72.11" y="210.01" width="40.13" height="1.79" transform="translate(376.28 358.42) rotate(135)"/><rect class="cls-1" x="49.86" y="239.82" width="24.99" height="1.79" transform="translate(346.47 430.4) rotate(135)"/><rect class="cls-1" x="167.34" y="87.53" width="94.62" height="1.79" transform="translate(498.76 62.73) rotate(135)"/><rect class="cls-1" x="251.23" y="38.45" width="24.99" height="1.79" transform="translate(547.84 -55.75) rotate(135)"/><rect class="cls-1" x="94.94" y="130.94" width="86.63" height="1.79" transform="translate(399.03 190.86) rotate(135)"/><rect class="cls-1" x="186.28" y="35.61" width="94.62" height="1.79" transform="translate(494.37 -39.29) rotate(135)"/><rect class="cls-1" x="66.58" y="182.55" width="40.13" height="1.79" transform="translate(-34.54 178.55) rotate(-45)"/><rect class="cls-1" x="172.01" y="84.69" width="24.99" height="1.79" transform="translate(63.32 219.09) rotate(-45)"/><rect class="cls-1" x="-15.09" y="236.98" width="94.62" height="1.79" transform="translate(293 446.86) rotate(135)"/><rect class="cls-1" x="36.57" y="172.82" width="86.63" height="1.79" transform="translate(-29.65 170.92) rotate(-45)"/><rect class="cls-1" x="163.07" y="42.32" width="94.62" height="1.79" transform="translate(100.85 224.98) rotate(-45)"/><rect class="cls-1" x="111.42" y="121.22" width="40.13" height="1.79" transform="translate(21.96 192.3) rotate(-45)"/><rect class="cls-1" x="148.81" y="91.4" width="24.99" height="1.79" transform="translate(51.78 204.65) rotate(-45)"/><rect class="cls-1" x="-38.3" y="243.69" width="94.62" height="1.79" transform="translate(-100.52 141.57) rotate(-45)"/><rect class="cls-1" x="-15.87" y="192.27" width="86.63" height="1.79" transform="translate(-58.76 139.54) rotate(-45)"/><rect class="cls-1" x="58.98" y="140.67" width="40.13" height="1.79" transform="translate(304.84 249.32) rotate(135)"/><rect class="cls-1" x="-31.31" y="238.53" width="24.99" height="1.79" transform="translate(206.98 485.58) rotate(135)"/><rect class="cls-1" x="185.5" y="-9.1" width="86.63" height="1.79" transform="translate(142.61 222.95) rotate(-45)"/><rect class="cls-1" x="86.17" y="86.23" width="94.62" height="1.79" transform="translate(47.28 183.46) rotate(-45)"/><rect class="cls-1" x="170.06" y="37.16" width="24.99" height="1.79" transform="translate(408.35 -0.57) rotate(135)"/><rect class="cls-1" x="67.48" y="125.41" width="86.63" height="1.79" transform="translate(348.25 200.84) rotate(135)"/><rect class="cls-1" x="-67.02" y="255.92" width="94.62" height="1.79" transform="translate(217.75 515.9) rotate(135)"/><rect class="cls-1" x="39.12" y="177.02" width="40.13" height="1.79" transform="translate(296.64 325.43) rotate(135)"/><rect class="cls-1" x="16.87" y="206.84" width="24.99" height="1.79" transform="translate(266.83 397.41) rotate(135)"/><rect class="cls-1" x="134.36" y="54.54" width="94.62" height="1.79" transform="translate(419.12 29.74) rotate(135)"/><rect class="cls-1" x="218.25" y="5.47" width="24.99" height="1.79" transform="translate(468.2 -88.74) rotate(135)"/><rect class="cls-1" x="135.11" y="24.79" width="86.63" height="1.79" transform="translate(103.89 197.25) rotate(-45)"/><rect class="cls-1" x="35.79" y="120.13" width="94.62" height="1.79" transform="translate(8.56 157.76) rotate(-45)"/><rect class="cls-1" x="-15.87" y="199.02" width="40.13" height="1.79" transform="translate(-70.34 125.08) rotate(-45)"/><rect class="cls-1" x="21.52" y="169.21" width="24.99" height="1.79" transform="translate(-40.52 137.43) rotate(-45)"/><rect class="cls-1" x="209.97" y="-26.81" width="40.13" height="1.79" transform="translate(444.16 -143.34) rotate(135)"/><rect class="cls-1" x="119.68" y="71.05" width="24.99" height="1.79" transform="translate(346.3 92.91) rotate(135)"/><rect class="cls-1" x="38.33" y="105.08" width="86.63" height="1.79" transform="translate(284.11 186.75) rotate(135)"/><rect class="cls-1" x="9.97" y="156.69" width="40.13" height="1.79" transform="translate(232.5 311.34) rotate(135)"/><rect class="cls-1" x="-12.28" y="186.51" width="24.99" height="1.79" transform="translate(202.69 383.32) rotate(135)"/><rect class="cls-1" x="105.2" y="34.22" width="94.62" height="1.79" transform="translate(354.98 15.65) rotate(135)"/><rect class="cls-1" x="189.09" y="-14.86" width="24.99" height="1.79" transform="translate(404.06 -102.83) rotate(135)"/><rect class="cls-1" x="110.42" y="0.01" width="86.63" height="1.79" transform="translate(332.87 -43.61) rotate(135)"/><rect class="cls-1" x="82.06" y="51.61" width="40.13" height="1.79" transform="translate(62.58 151.15) rotate(-45)"/><rect class="cls-1" x="0.39" y="106.04" width="94.62" height="1.79" transform="translate(226.84 212.39) rotate(135)"/><rect class="cls-1" x="-13.88" y="155.12" width="24.99" height="1.79" transform="translate(-40.93 108.27) rotate(-45)"/><rect class="cls-1" x="77.98" y="48.94" width="86.63" height="1.79" transform="translate(70.08 163.92) rotate(-45)"/><rect class="cls-1" x="152.83" y="-2.66" width="40.13" height="1.79" transform="translate(121.69 185.29) rotate(-45)"/><rect class="cls-1" x="3.11" y="119.81" width="94.62" height="1.79" transform="translate(-0.79 134.56) rotate(-45)"/><rect class="cls-1" x="-11.15" y="168.89" width="24.99" height="1.79" transform="translate(-49.87 114.23) rotate(-45)"/><rect class="cls-1" x="28.96" y="64.97" width="86.63" height="1.79" transform="translate(239.75 124.88) rotate(135)"/><rect class="cls-1" x="120.3" y="-30.37" width="94.62" height="1.79" transform="translate(335.09 -105.27) rotate(135)"/><rect class="cls-1" x="0.6" y="116.57" width="40.13" height="1.79" transform="translate(-7.21 112.58) rotate(-45)"/><rect class="cls-1" x="106.03" y="18.71" width="24.99" height="1.79" transform="translate(90.65 153.11) rotate(-45)"/><rect class="cls-1" x="-81.07" y="171.01" width="94.62" height="1.79" transform="translate(133.72 380.88) rotate(135)"/><rect class="cls-1" x="57.65" y="19.79" width="86.63" height="1.79" transform="translate(84.74 141.01) rotate(-45)"/><rect class="cls-1" x="132.5" y="-31.82" width="40.13" height="1.79" transform="translate(136.35 162.38) rotate(-45)"/><rect class="cls-1" x="-17.22" y="90.66" width="94.62" height="1.79" transform="translate(13.87 111.65) rotate(-45)"/><rect class="cls-1" x="-31.48" y="139.74" width="24.99" height="1.79" transform="translate(-35.21 91.32) rotate(-45)"/><rect class="cls-1" x="-81.85" y="126.3" width="86.63" height="1.79" transform="translate(-31.43 73.56) rotate(-45)"/><rect class="cls-1" x="-6.99" y="74.69" width="40.13" height="1.79" transform="translate(145.56 183.35) rotate(135)"/><rect class="cls-1" x="20.2" y="20.26" width="94.62" height="1.79" transform="translate(74.61 117.48) rotate(-45)"/><rect class="cls-1" x="1.51" y="59.44" width="86.63" height="1.79" transform="translate(188.97 134.86) rotate(135)"/><rect class="cls-1" x="-26.85" y="111.04" width="40.13" height="1.79" transform="translate(137.36 259.45) rotate(135)"/><rect class="cls-1" x="68.38" y="-11.43" width="94.62" height="1.79" transform="translate(259.84 -36.23) rotate(135)"/></svg>