<svg xmlns="http://www.w3.org/2000/svg" xmlns:xlink="http://www.w3.org/1999/xlink" viewBox="0 0 800 800"><defs><style>.a{mask:url(#a);}.b,.d,.f,.g,.h,.j,.k,.m,.o,.p,.r,.t{mix-blend-mode:multiply;}.b{fill:url(#c);}.c{mask:url(#d);}.d{fill:url(#f);}.e{mask:url(#g);}.f{fill:url(#i);}.g{fill:url(#l);}.h{fill:url(#o);}.i{mask:url(#p);}.j{fill:url(#r);}.k{fill:url(#u);}.l{mask:url(#v);}.m{fill:url(#x);}.n{mask:url(#y);}.o{fill:url(#aa);}.p{fill:url(#ad);}.q{mask:url(#ae);}.r{fill:url(#ag);}.s{mask:url(#ah);}.t{fill:url(#aj);}.u{fill:#d0d2d3;}.v{opacity:0.18;}.w,.x{fill:#231f20;}.w{opacity:0.21;}.x{opacity:0.15;}.y{opacity:0.3;fill:url(#ak);}.z{fill:url(#al);}.aa{fill:url(#am);}.ab{fill:url(#an);}.ac{fill:#a05708;}.ad{fill:#f2dad4;}.ae{fill:url(#ao);}.af{fill:#1c2b6b;}.ag{fill:#4ee2ff;}.ah{fill:#6ceeff;}.ai{fill:url(#ap);}.aj{fill:url(#aq);}.ak{fill:#c6b3af;}.al{fill:#ffac00;}.am{fill:#1c80ff;}.an{fill:#f0f2f5;}.ao{fill:#d3d6db;}.ap{fill:#fff;}.aq{fill:#40cd8a;}.ar{mask:url(#ar);}.as{fill:url(#at);}.at{mask:url(#au);}.au{fill:url(#aw);}.av{mask:url(#ax);}.aw{fill:url(#az);}.ax{mask:url(#ba);}.ay{fill:url(#bc);}.az{mask:url(#bd);}.ba{fill:url(#bf);}.bb{mask:url(#bg);}.bc{fill:url(#bi);}.bd{mask:url(#bj);}.be{fill:url(#bl);}.bf{mask:url(#bm);}.bg{fill:url(#bo);}.bh{mask:url(#bp);}.bi{fill:url(#br);}.bj{mask:url(#bs);}.bk{fill:url(#bu);}.bl{mask:url(#bv);}.bm{fill:url(#bx);}.bn{mask:url(#by);}.bo{fill:url(#ca);}.bp{fill:url(#cb);}.bq{fill:#1e3286;}.br{filter:url(#bz);}.bs{filter:url(#bw);}.bt{filter:url(#bt);}.bu{filter:url(#bq);}.bv{filter:url(#bn);}.bw{filter:url(#bk);}.bx{filter:url(#bh);}.by{filter:url(#be);}.bz{filter:url(#bb);}.ca{filter:url(#ay);}.cb{filter:url(#av);}.cc{filter:url(#as);}.cd{filter:url(#ai);}.ce{filter:url(#af);}.cf{filter:url(#z);}.cg{filter:url(#w);}.ch{filter:url(#q);}.ci{filter:url(#h);}.cj{filter:url(#e);}.ck{filter:url(#b);}</style><filter id="b" x="695.04" y="-8592" width="1.34" height="32766" filterUnits="userSpaceOnUse" color-interpolation-filters="sRGB"><feFlood flood-color="#fff" result="bg"/><feBlend in="SourceGraphic" in2="bg"/></filter><mask id="a" x="695.04" y="-8592" width="1.34" height="32766" maskUnits="userSpaceOnUse"><g class="ck"/></mask><linearGradient id="c" x1="-625.29" y1="477.66" x2="-625.29" y2="387.02" gradientTransform="translate(1321 14)" gradientUnits="userSpaceOnUse"><stop offset="0"/><stop offset="1" stop-color="#fff"/></linearGradient><filter id="e" x="719.4" y="-8592" width="2.68" height="32766" filterUnits="userSpaceOnUse" color-interpolation-filters="sRGB"><feFlood flood-color="#fff" result="bg"/><feBlend in="SourceGraphic" in2="bg"/></filter><mask id="d" x="719.4" y="-8592" width="2.68" height="32766" maskUnits="userSpaceOnUse"><g class="cj"/></mask><linearGradient id="f" x1="-428.14" y1="125.3" x2="-393.45" y2="125.3" gradientTransform="translate(299 581) rotate(180)" xlink:href="#c"/><filter id="h" x="427.37" y="-8592" width="1.34" height="32766" filterUnits="userSpaceOnUse" color-interpolation-filters="sRGB"><feFlood flood-color="#fff" result="bg"/><feBlend in="SourceGraphic" in2="bg"/></filter><mask id="g" x="427.37" y="-8592" width="1.34" height="32766" maskUnits="userSpaceOnUse"><g class="ci"/></mask><linearGradient id="i" x1="428.04" y1="553.33" x2="428.04" y2="462.69" gradientTransform="matrix(1, 0, 0, 1, 0, 0)" xlink:href="#c"/><linearGradient id="l" x1="428.04" y1="553.33" x2="428.04" y2="462.69" gradientTransform="matrix(1, 0, 0, 1, 0, 0)" xlink:href="#c"/><linearGradient id="o" x1="428.04" y1="553.33" x2="428.04" y2="462.69" gradientTransform="matrix(1, 0, 0, 1, 0, 0)" xlink:href="#c"/><filter id="q" x="534.39" y="-8592" width="2.68" height="32766" filterUnits="userSpaceOnUse" color-interpolation-filters="sRGB"><feFlood flood-color="#fff" result="bg"/><feBlend in="SourceGraphic" in2="bg"/></filter><mask id="p" x="534.39" y="-8592" width="2.68" height="32766" maskUnits="userSpaceOnUse"><g class="ch"/></mask><linearGradient id="r" x1="396.61" y1="437.82" x2="431.3" y2="437.82" gradientTransform="matrix(1, 0, 0, 1, 0, 0)" xlink:href="#c"/><linearGradient id="u" x1="-625.29" y1="477.66" x2="-625.29" y2="387.02" xlink:href="#c"/><filter id="w" x="409.56" y="-8592" width="119.63" height="32766" filterUnits="userSpaceOnUse" color-interpolation-filters="sRGB"><feFlood flood-color="#fff" result="bg"/><feBlend in="SourceGraphic" in2="bg"/></filter><mask id="v" x="409.56" y="-8592" width="119.63" height="32766" maskUnits="userSpaceOnUse"><g class="cg"/></mask><linearGradient id="x" x1="396.61" y1="437.82" x2="431.3" y2="437.82" gradientTransform="matrix(1, 0, 0, 1, 0, 0)" xlink:href="#c"/><filter id="z" x="401.67" y="-8592" width="2.68" height="32766" filterUnits="userSpaceOnUse" color-interpolation-filters="sRGB"><feFlood flood-color="#fff" result="bg"/><feBlend in="SourceGraphic" in2="bg"/></filter><mask id="y" x="401.67" y="-8592" width="2.68" height="32766" maskUnits="userSpaceOnUse"><g class="cf"/></mask><linearGradient id="aa" x1="396.61" y1="437.82" x2="431.3" y2="437.82" gradientTransform="matrix(1, 0, 0, 1, 0, 0)" xlink:href="#c"/><linearGradient id="ad" x1="-625.29" y1="477.66" x2="-625.29" y2="387.02" xlink:href="#c"/><filter id="af" x="586.68" y="-8592" width="2.68" height="32766" filterUnits="userSpaceOnUse" color-interpolation-filters="sRGB"><feFlood flood-color="#fff" result="bg"/><feBlend in="SourceGraphic" in2="bg"/></filter><mask id="ae" x="586.68" y="-8592" width="2.68" height="32766" maskUnits="userSpaceOnUse"><g class="ce"/></mask><linearGradient id="ag" x1="-428.14" y1="125.3" x2="-393.45" y2="125.3" gradientTransform="translate(299 581) rotate(180)" xlink:href="#c"/><filter id="ai" x="594.56" y="-8592" width="119.63" height="32766" filterUnits="userSpaceOnUse" color-interpolation-filters="sRGB"><feFlood flood-color="#fff" result="bg"/><feBlend in="SourceGraphic" in2="bg"/></filter><mask id="ah" x="594.56" y="-8592" width="119.63" height="32766" maskUnits="userSpaceOnUse"><g class="cd"/></mask><linearGradient id="aj" x1="-428.14" y1="125.3" x2="-393.45" y2="125.3" gradientTransform="translate(299 581) rotate(180)" xlink:href="#c"/><linearGradient id="ak" x1="754.7" y1="662.7" x2="466.06" y2="662.7" gradientUnits="userSpaceOnUse"><stop offset="0" stop-color="#d3d6db"/><stop offset="1" stop-color="#7a869b"/></linearGradient><linearGradient id="al" x1="504.54" y1="552.59" x2="529.76" y2="585.99" xlink:href="#ak"/><linearGradient id="am" x1="378.81" y1="642.26" x2="435.2" y2="642.26" gradientUnits="userSpaceOnUse"><stop offset="0" stop-color="#ffac00"/><stop offset="1" stop-color="#ff5e00"/></linearGradient><linearGradient id="an" x1="421.22" y1="636.97" x2="404.74" y2="648.27" xlink:href="#ak"/><linearGradient id="ao" x1="427.81" y1="621.18" x2="660.2" y2="621.18" gradientUnits="userSpaceOnUse"><stop offset="0" stop-color="#929497"/><stop offset="1" stop-color="#404041"/></linearGradient><linearGradient id="ap" x1="588.12" y1="573.25" x2="674.65" y2="612.1" xlink:href="#am"/><linearGradient id="aq" x1="527.59" y1="582.59" x2="565.31" y2="592" gradientUnits="userSpaceOnUse"><stop offset="0" stop-color="#4ee2ff"/><stop offset="1" stop-color="#1c80ff"/></linearGradient><filter id="as" x="695.04" y="364.31" width="1.34" height="2.68" filterUnits="userSpaceOnUse" color-interpolation-filters="sRGB"><feFlood flood-color="#fff" result="bg"/><feBlend in="SourceGraphic" in2="bg"/></filter><mask id="ar" x="695.04" y="364.31" width="1.34" height="2.68" maskUnits="userSpaceOnUse"><g class="cc"><g transform="translate(0)"><g class="a"><rect class="b" x="695.04" y="364.31" width="1.34" height="2.68"/></g></g></g></mask><linearGradient id="at" x1="-625.29" y1="477.66" x2="-625.29" y2="387.02" gradientTransform="translate(1321 14)" gradientUnits="userSpaceOnUse"><stop offset="0" stop-color="#4e9cff"/><stop offset="1" stop-color="#176ad4"/></linearGradient><filter id="av" x="695.04" y="372.59" width="1.34" height="106.33" filterUnits="userSpaceOnUse" color-interpolation-filters="sRGB"><feFlood flood-color="#fff" result="bg"/><feBlend in="SourceGraphic" in2="bg"/></filter><mask id="au" x="695.04" y="372.59" width="1.34" height="106.33" maskUnits="userSpaceOnUse"><g class="cb"><g transform="translate(0)"><g class="a"><path class="k" d="M696.38,478.92H695v-5.59h1.34Zm0-11.19H695v-5.6h1.34Zm0-11.19H695v-5.6h1.34Zm0-11.2H695v-5.59h1.34Zm0-11.19H695v-5.59h1.34Zm0-11.19H695v-5.6h1.34Zm0-11.19H695v-5.6h1.34Zm0-11.2H695V395h1.34Zm0-11.19H695v-5.6h1.34Zm0-11.19H695v-5.6h1.34Z"/></g></g></g></mask><linearGradient id="aw" x1="-625.29" y1="477.66" x2="-625.29" y2="387.02" xlink:href="#at"/><filter id="ay" x="695.04" y="484.52" width="1.34" height="2.68" filterUnits="userSpaceOnUse" color-interpolation-filters="sRGB"><feFlood flood-color="#fff" result="bg"/><feBlend in="SourceGraphic" in2="bg"/></filter><mask id="ax" x="695.04" y="484.52" width="1.34" height="2.68" maskUnits="userSpaceOnUse"><g class="ca"><g transform="translate(0)"><g class="a"><rect class="p" x="695.04" y="484.52" width="1.34" height="2.68"/></g></g></g></mask><linearGradient id="az" x1="-625.29" y1="477.66" x2="-625.29" y2="387.02" xlink:href="#at"/><filter id="bb" x="586.68" y="455.03" width="2.68" height="1.34" filterUnits="userSpaceOnUse" color-interpolation-filters="sRGB"><feFlood flood-color="#fff" result="bg"/><feBlend in="SourceGraphic" in2="bg"/></filter><mask id="ba" x="586.68" y="455.03" width="2.68" height="1.34" maskUnits="userSpaceOnUse"><g class="bz"><g transform="translate(0)"><g class="q"><rect class="r" x="586.68" y="455.03" width="2.68" height="1.34"/></g></g></g></mask><linearGradient id="bc" x1="-428.14" y1="125.3" x2="-393.45" y2="125.3" gradientTransform="translate(299 581) rotate(180)" xlink:href="#at"/><filter id="be" x="594.56" y="455.03" width="119.63" height="1.34" filterUnits="userSpaceOnUse" color-interpolation-filters="sRGB"><feFlood flood-color="#fff" result="bg"/><feBlend in="SourceGraphic" in2="bg"/></filter><mask id="bd" x="594.56" y="455.03" width="119.63" height="1.34" maskUnits="userSpaceOnUse"><g class="by"><g transform="translate(0)"><g class="s"><path class="t" d="M594.56,455h5.2v1.34h-5.2Zm10.4,0h5.2v1.34H605Zm10.4,0h5.21v1.34h-5.21Zm10.41,0H631v1.34h-5.2Zm10.4,0h5.2v1.34h-5.2Zm10.4,0h5.21v1.34h-5.21ZM657,455h5.2v1.34H657Zm10.4,0h5.2v1.34h-5.2Zm10.4,0H683v1.34h-5.2Zm10.41,0h5.2v1.34h-5.2Zm10.4,0h5.2v1.34h-5.2Zm10.4,0h5.2v1.34H709Z"/></g></g></g></mask><linearGradient id="bf" x1="-428.14" y1="125.3" x2="-393.45" y2="125.3" gradientTransform="translate(299 581) rotate(180)" xlink:href="#at"/><filter id="bh" x="719.4" y="455.03" width="2.68" height="1.34" filterUnits="userSpaceOnUse" color-interpolation-filters="sRGB"><feFlood flood-color="#fff" result="bg"/><feBlend in="SourceGraphic" in2="bg"/></filter><mask id="bg" x="719.4" y="455.03" width="2.68" height="1.34" maskUnits="userSpaceOnUse"><g class="bx"><g transform="translate(0)"><g class="c"><rect class="d" x="719.4" y="455.03" width="2.68" height="1.34"/></g></g></g></mask><linearGradient id="bi" x1="-428.14" y1="125.3" x2="-393.45" y2="125.3" gradientTransform="translate(299 581) rotate(180)" xlink:href="#at"/><filter id="bk" x="427.37" y="425.98" width="1.34" height="2.68" filterUnits="userSpaceOnUse" color-interpolation-filters="sRGB"><feFlood flood-color="#fff" result="bg"/><feBlend in="SourceGraphic" in2="bg"/></filter><mask id="bj" x="427.37" y="425.98" width="1.34" height="2.68" maskUnits="userSpaceOnUse"><g class="bw"><g transform="translate(0)"><g class="e"><rect class="f" x="427.37" y="425.98" width="1.34" height="2.68"/></g></g></g></mask><linearGradient id="bl" x1="428.04" y1="553.33" x2="428.04" y2="462.69" gradientTransform="matrix(1, 0, 0, 1, 0, 0)" xlink:href="#at"/><filter id="bn" x="427.37" y="434.26" width="1.34" height="106.33" filterUnits="userSpaceOnUse" color-interpolation-filters="sRGB"><feFlood flood-color="#fff" result="bg"/><feBlend in="SourceGraphic" in2="bg"/></filter><mask id="bm" x="427.37" y="434.26" width="1.34" height="106.33" maskUnits="userSpaceOnUse"><g class="bv"><g transform="translate(0)"><g class="e"><path class="g" d="M428.71,540.59h-1.34V535h1.34Zm0-11.19h-1.34v-5.6h1.34Zm0-11.2h-1.34v-5.59h1.34Zm0-11.19h-1.34v-5.59h1.34Zm0-11.19h-1.34v-5.6h1.34Zm0-11.19h-1.34V479h1.34Zm0-11.2h-1.34v-5.59h1.34Zm0-11.19h-1.34v-5.6h1.34Zm0-11.19h-1.34v-5.6h1.34Zm0-11.2h-1.34v-5.59h1.34Z"/></g></g></g></mask><linearGradient id="bo" x1="428.04" y1="553.33" x2="428.04" y2="462.69" gradientTransform="matrix(1, 0, 0, 1, 0, 0)" xlink:href="#at"/><filter id="bq" x="427.37" y="546.19" width="1.34" height="2.68" filterUnits="userSpaceOnUse" color-interpolation-filters="sRGB"><feFlood flood-color="#fff" result="bg"/><feBlend in="SourceGraphic" in2="bg"/></filter><mask id="bp" x="427.37" y="546.19" width="1.34" height="2.68" maskUnits="userSpaceOnUse"><g class="bu"><g transform="translate(0)"><g class="e"><rect class="h" x="427.37" y="546.19" width="1.34" height="2.68"/></g></g></g></mask><linearGradient id="br" x1="428.04" y1="553.33" x2="428.04" y2="462.69" gradientTransform="matrix(1, 0, 0, 1, 0, 0)" xlink:href="#at"/><filter id="bt" x="534.39" y="437.15" width="2.68" height="1.34" filterUnits="userSpaceOnUse" color-interpolation-filters="sRGB"><feFlood flood-color="#fff" result="bg"/><feBlend in="SourceGraphic" in2="bg"/></filter><mask id="bs" x="534.39" y="437.15" width="2.68" height="1.34" maskUnits="userSpaceOnUse"><g class="bt"><g transform="translate(0)"><g class="i"><rect class="j" x="534.39" y="437.15" width="2.68" height="1.34"/></g></g></g></mask><linearGradient id="bu" x1="396.61" y1="437.82" x2="431.3" y2="437.82" gradientTransform="matrix(1, 0, 0, 1, 0, 0)" xlink:href="#at"/><filter id="bw" x="409.56" y="437.15" width="119.63" height="1.34" filterUnits="userSpaceOnUse" color-interpolation-filters="sRGB"><feFlood flood-color="#fff" result="bg"/><feBlend in="SourceGraphic" in2="bg"/></filter><mask id="bv" x="409.56" y="437.15" width="119.63" height="1.34" maskUnits="userSpaceOnUse"><g class="bs"><g transform="translate(0)"><g class="l"><path class="m" d="M529.19,438.49H524v-1.34h5.2Zm-10.4,0h-5.2v-1.34h5.2Zm-10.4,0h-5.21v-1.34h5.21Zm-10.41,0h-5.2v-1.34H498Zm-10.4,0h-5.2v-1.34h5.2Zm-10.4,0H472v-1.34h5.2Zm-10.41,0h-5.2v-1.34h5.2Zm-10.4,0h-5.2v-1.34h5.2Zm-10.4,0h-5.2v-1.34H446Zm-10.41,0h-5.2v-1.34h5.2Zm-10.4,0H420v-1.34h5.2Zm-10.4,0h-5.2v-1.34h5.2Z"/></g></g></g></mask><linearGradient id="bx" x1="396.61" y1="437.82" x2="431.3" y2="437.82" gradientTransform="matrix(1, 0, 0, 1, 0, 0)" xlink:href="#at"/><filter id="bz" x="401.67" y="437.15" width="2.68" height="1.34" filterUnits="userSpaceOnUse" color-interpolation-filters="sRGB"><feFlood flood-color="#fff" result="bg"/><feBlend in="SourceGraphic" in2="bg"/></filter><mask id="by" x="401.67" y="437.15" width="2.68" height="1.34" maskUnits="userSpaceOnUse"><g class="br"><g transform="translate(0)"><g class="n"><rect class="o" x="401.67" y="437.15" width="2.68" height="1.34"/></g></g></g></mask><linearGradient id="ca" x1="396.61" y1="437.82" x2="431.3" y2="437.82" gradientTransform="matrix(1, 0, 0, 1, 0, 0)" xlink:href="#at"/><linearGradient id="cb" x1="707.04" y1="638.44" x2="627.79" y2="638.31" xlink:href="#ak"/></defs><rect class="u" width="800" height="800"/><g class="v"><path class="w" d="M684.08,0s-89.58-1.6-84,128.8-93,72-145.58,112.8S438.84,356,418.68,400,332.45,420,319,494.4s-32.47,107.2-99.11,116-95.75,40-108.06,84.8S87.53,800,25.77,800H800V0Z" transform="translate(0)"/><path class="x" d="M674.16,0S576.92-1.6,583,128.8s-100.9,72-158,112.8-17,114.4-38.9,158.4-75.86,20-90.45,94.4-53,107.2-125.33,116-63.48,40-76.85,84.8S67,800,0,800H800V0Z" transform="translate(0)"/></g><path class="y" d="M435.11,659.79c-6.25.85-16.39,2.42-16.45,4.68-.06,2,8.11,3.72,11,4.3,32.7,6.69,71.91-5.62,115.17-.78,22.69,2.54,19.27,6.75,39.39,7.81,27.53,1.45,37.37-6.25,71.79-5.86,14.68.17,14.92,1.6,34.9,2.74,7.85.45,62.84,3.51,63.81-1.17.18-.85-1.14-3.21-24.92-9C729.76,662.52,616.23,635,435.11,659.79Z" transform="translate(0)"/><path class="z" d="M491.73,585.51s16.82-11.65,28-5.84,60.14,23.19,61.8,25-8.62,9.41-8.62,9.41l-66.58-17.87Z" transform="translate(0)"/><path class="aa" d="M417.24,628.2s-2.53-4.29-5.66-3.84-3.12,2.23-4.91,2.23-9.39,0-12.07-.89-9.38-4-12.51-4-4,4-2.68,7.59,5.36,11.62,12.51,15.64,19.66,13.41,21.45,14.75,6.26,3.57,10.28,3.13,4.47-2.24,4.47-3.13a5.1,5.1,0,0,1,1.34-2.68,17,17,0,0,0,3.13-5.81,4.6,4.6,0,0,1,1.78-3.13,1.91,1.91,0,0,0,.45-2.68c-.89-1.34-1.46-.42-2.07-.88s-9.55-10.74-9.55-10.74Z" transform="translate(0)"/><path class="ab" d="M420.62,629a23.39,23.39,0,0,0-6.36-1.07c-3.12,0-5.8.9-6.25,4.47s3.57,10.73,8.49,13.41,7.15,3.57,9.83,2.68,5.81-2.68,5.81-4.92S420.62,629,420.62,629Z" transform="translate(0)"/><path class="ac" d="M410.5,628.63a8.62,8.62,0,0,1,3.76-.7c.46,0,.91,0,1.35.06l.37-.06s-1.72-2.68-3.5-2.68-2.24.45-2.24.89a9.72,9.72,0,0,0,.26,2.49Z" transform="translate(0)"/><path class="ad" d="M427.22,627.49a18,18,0,0,1-4.46,1.34c-1.35,0-3.13,0-3.58,1.34s-1.34,9.38,1.79,12.06,6.25,3.58,8.49,3.13,8-3.13,8-3.13Z" transform="translate(0)"/><path class="ae" d="M426.33,626.14c-.25,2.27,6.08,16.58,11.62,17.88,7.6,1.79,26.36-7.15,32.17-10.73,5.66-3.48,35.75-14.74,36.65-15.19s1.78-1.79,2.23-.89,0,5.36,3.13,8,24.13,16.09,26.81,18.77,14.75,12.51,18.77,14.75,23.68,4.91,34.85,3.57,18.77-11.62,18.77-11.62L588.54,610.5s-7.82-6.31-10.84-7.62-7.48.47-7.93,1.82-1.34,3.12-3.12,1.78S525.53,583.25,513,580.12s-29,10.72-32.62,13-39.77,27.7-42.45,28.15S426.78,622.12,426.33,626.14Z" transform="translate(0)"/><path class="ad" d="M567.09,498.34s.9,9.39,1.79,10.28,2.23.45,2.23,3.57.45,10.28,1.34,10.73,4-1.34,4.47-1.34,4.92,3.57,5.81,5.36,4,6.7,6.71,7.15,6.25-4.91,8-3.57a7.71,7.71,0,0,1,2.68,5.36c0,1.34,21.45-4.92,21.45-13,0-2.28-5.81-14.3-7.15-17s-3.13-14.3-3.57-17.43-5.81-12.06-14.75-15.19S566.2,488.06,567.09,498.34Z" transform="translate(0)"/><path class="af" d="M594.35,470.19c5.9,1.47,14.75,10.72,16.09,15.19s4.67,16.05,4.47,18.32c-.45,4.92-8.94,11.62-10.28,9.39s-5.54-9.81-5.81-12.51c-.45-4.47-2.68-8.94-5.81-8.94-.89,0-3.57,4-4,6.25-.53,2.67,2.23,8.05,4,9.39s6.41,4,7.15,6.7c1.34,4.92-1.34,15.2-2.68,16.54s-5.52,4.2-8,3.57c-3.58-.89-5.81-6.26-8-8.8-.91-1.07-2.74-1.92-3.66-3.2s9.64-6.29,9.41-9c-.89-10.73-4-23.58-10.72-22.79-7.6.89-8.49,8-13.41,8.94-2.67.48-13.85,2.23-16.09-11.62-.71-4.41,11.18.44,21.45-6.26C571.13,479.6,581.84,467.06,594.35,470.19Z" transform="translate(0)"/><path class="ag" d="M575.07,515.77c-.66.59-2.79-.73-4.75-2.94s-3-4.48-2.36-5.07,2.79.73,4.75,2.95S575.73,515.19,575.07,515.77Z" transform="translate(0)"/><path class="ah" d="M568.71,510.69a15.48,15.48,0,0,0,1.14,1.59l.5-3.75a6.32,6.32,0,0,0-1.25-.73Z" transform="translate(0)"/><path class="ah" d="M571.17,509.18l-.54,4c.27.28.53.55.8.8l.54-4.05C571.7,509.65,571.43,509.4,571.17,509.18Z" transform="translate(0)"/><path class="ai" d="M597.93,539c0-2.28,3.57-4.92,5.81-7.15s17.42-12.52,17.87-14.3,15.19,4.91,20.56,18.32,11.61,56.3-4,84.9S610,657,609.54,654.3s0-4.92-4.91-7.6-14.3-13.85-16.53-17.87-12.52-23.24-11.62-25.48,9.83-32.62,14.3-41.55,8.49-15.2,8.49-17.88S597.93,540.79,597.93,539Z" transform="translate(0)"/><polygon class="aj" points="525.98 586.37 532.68 579.67 578.26 591.29 586.31 600.67 525.98 586.37"/><path class="ak" d="M549.66,575.65s-4.46,4-5.36,7.6l3.13-.9,5.81-2.68,4-2.23-1.79-1.79Z" transform="translate(0)"/><path class="ad" d="M574,574.68a31.9,31.9,0,0,1-6.86-1.27,11.71,11.71,0,0,0-6.7-.89c-2.23.45-6.7-1.79-8.94-1.34s-9.83,0-10.28.45a2.63,2.63,0,0,0-.89,2.23c0,1.34,1.79,1.79,2.23,1.79s8.94.45,11.18,1.34c0,0-4,.45-6.26,2.68s-5.81,5.36-5.81,5.81,0,2.23.45,2.23H543s.45.9.9.9a14.76,14.76,0,0,1,2.68-1.34c.44,0-1.34.89-.9,1.79a2.47,2.47,0,0,0,2.24,1.34c.89,0,6.25-2.69,8-2.24s4.92.9,6.26,1.79,5.81,1.79,6.7,1.34S574,574.68,574,574.68Z" transform="translate(0)"/><path class="al" d="M623,533.2c-9,1.13-11.62,17-10.72,23.23,0,0,8.49,30.84,5.36,30.84s-22.35-7.6-25.47-8.49S578.26,573,576.48,573s-5.81,5.36-7.15,8.94S566.2,594,568.43,594s10.73,0,12.52,1.34,13.85,11.17,20.55,13.85,30.83,9.39,34.86,8.05,9.38-8.05,9.38-10.73-.45-35.75-3.13-44.24S640.83,531,623,533.2Z" transform="translate(0)"/><path class="ag" d="M527.77,586.37l-34-53.17h9.34a.88.88,0,0,1,.75.4l29.74,45.48a.89.89,0,0,1-.09,1.1Z" transform="translate(0)"/><path class="am" d="M526,586.36,493,534.7a1,1,0,0,1,.83-1.5h0l34,53.17h0A1,1,0,0,1,526,586.36Z" transform="translate(0)"/><polygon class="ah" points="509.58 557.89 511.76 561.3 508.63 540.84 506.47 537.53 509.58 557.89"/><polygon class="ah" points="513.28 563.69 516.79 569.18 513.63 548.48 510.15 543.15 513.28 563.69"/><path class="am" d="M584.9,602.81l-58.19-13.17a.9.9,0,0,1-.73-.88v-2.39l59.81,14a.9.9,0,0,1,.48,1.45l-.52.72A.89.89,0,0,1,584.9,602.81Z" transform="translate(0)"/><rect class="an" x="438.76" y="449.19" width="90.71" height="71.05" rx="8"/><rect class="ao" x="445.02" y="454.11" width="27.26" height="4.02"/><rect class="ap" x="445.02" y="463.04" width="79.54" height="40.22" rx="6"/><rect class="ao" x="449.49" y="476.45" width="40.22" height="1.79"/><rect class="ao" x="449.49" y="482.26" width="40.22" height="1.79"/><rect class="ao" x="449.49" y="488.07" width="26.81" height="1.79"/><rect class="ao" x="504.45" y="484.49" width="14.3" height="14.3" rx="7.15"/><rect class="aq" x="449.49" y="465.72" width="22.34" height="5.81" rx="2.9"/><rect class="an" x="590.25" y="370.99" width="90.71" height="71.05" rx="8"/><rect class="ao" x="596.51" y="375.9" width="27.26" height="4.02"/><rect class="ap" x="596.51" y="384.84" width="79.54" height="40.22" rx="6"/><rect class="ao" x="600.98" y="398.25" width="40.22" height="1.79"/><rect class="ao" x="600.98" y="404.06" width="40.22" height="1.79"/><rect class="ao" x="600.98" y="409.87" width="26.81" height="1.79"/><rect class="al" x="600.98" y="387.52" width="22.34" height="5.81" rx="2.9"/><rect class="am" x="625.55" y="387.52" width="22.34" height="5.81" rx="2.9"/><g class="ar"><rect class="as" x="695.04" y="364.31" width="1.34" height="2.68"/></g><g class="at"><path class="au" d="M696.38,478.92H695v-5.59h1.34Zm0-11.19H695v-5.6h1.34Zm0-11.19H695v-5.6h1.34Zm0-11.2H695v-5.59h1.34Zm0-11.19H695v-5.59h1.34Zm0-11.19H695v-5.6h1.34Zm0-11.19H695v-5.6h1.34Zm0-11.2H695V395h1.34Zm0-11.19H695v-5.6h1.34Zm0-11.19H695v-5.6h1.34Z" transform="translate(0)"/></g><g class="av"><rect class="aw" x="695.04" y="484.52" width="1.34" height="2.68"/></g><g class="ax"><rect class="ay" x="586.68" y="455.03" width="2.68" height="1.34"/></g><g class="az"><path class="ba" d="M594.56,455h5.2v1.34h-5.2Zm10.4,0h5.2v1.34H605Zm10.4,0h5.21v1.34h-5.21Zm10.41,0H631v1.34h-5.2Zm10.4,0h5.2v1.34h-5.2Zm10.4,0h5.21v1.34h-5.21ZM657,455h5.2v1.34H657Zm10.4,0h5.2v1.34h-5.2Zm10.4,0H683v1.34h-5.2Zm10.41,0h5.2v1.34h-5.2Zm10.4,0h5.2v1.34h-5.2Zm10.4,0h5.2v1.34H709Z" transform="translate(0)"/></g><g class="bb"><rect class="bc" x="719.4" y="455.03" width="2.68" height="1.34"/></g><g class="bd"><rect class="be" x="427.37" y="425.98" width="1.34" height="2.68"/></g><g class="bf"><path class="bg" d="M428.71,540.59h-1.34V535h1.34Zm0-11.19h-1.34v-5.6h1.34Zm0-11.2h-1.34v-5.59h1.34Zm0-11.19h-1.34v-5.59h1.34Zm0-11.19h-1.34v-5.6h1.34Zm0-11.19h-1.34V479h1.34Zm0-11.2h-1.34v-5.59h1.34Zm0-11.19h-1.34v-5.6h1.34Zm0-11.19h-1.34v-5.6h1.34Zm0-11.2h-1.34v-5.59h1.34Z" transform="translate(0)"/></g><g class="bh"><rect class="bi" x="427.37" y="546.19" width="1.34" height="2.68"/></g><g class="bj"><rect class="bk" x="534.39" y="437.15" width="2.68" height="1.34"/></g><g class="bl"><path class="bm" d="M529.19,438.49H524v-1.34h5.2Zm-10.4,0h-5.2v-1.34h5.2Zm-10.4,0h-5.21v-1.34h5.21Zm-10.41,0h-5.2v-1.34H498Zm-10.4,0h-5.2v-1.34h5.2Zm-10.4,0H472v-1.34h5.2Zm-10.41,0h-5.2v-1.34h5.2Zm-10.4,0h-5.2v-1.34h5.2Zm-10.4,0h-5.2v-1.34H446Zm-10.41,0h-5.2v-1.34h5.2Zm-10.4,0H420v-1.34h5.2Zm-10.4,0h-5.2v-1.34h5.2Z" transform="translate(0)"/></g><g class="bn"><rect class="bo" x="401.67" y="437.15" width="2.68" height="1.34"/></g><path class="bp" d="M707.63,662.85H673.85a2.23,2.23,0,0,1-2.21-2L666.31,614h48.86l-5.33,46.89A2.23,2.23,0,0,1,707.63,662.85Z" transform="translate(0)"/><ellipse class="af" cx="690.74" cy="614.55" rx="24.43" ry="2.78"/><path class="bq" d="M688.52,524.05c-13.33,1.11-8.88,41.08-8.88,41.08,3.33,34.43,7.77,50,11.1,51.08s10-48.85,10-61.07C700.73,555.14,701.84,522.94,688.52,524.05Z" transform="translate(0)"/><path class="ap" d="M690.19,610.66h-.07a.57.57,0,0,1-.49-.62c4.39-36.16-1-81.58-1.11-82a.55.55,0,0,1,.49-.61.56.56,0,0,1,.62.48c0,.46,5.5,46,1.11,82.3A.57.57,0,0,1,690.19,610.66Z" transform="translate(0)"/><path class="al" d="M648.55,505.17c-1.11,5.56,5.55,6.67,6.66,14.44S653,529.6,654.1,534s7.77,5.56,8.88,16.66-3.33,10-2.22,16.66,7.77,6.66,8.88,12.21,1.11,13.32,3.33,20,8.89,16.65,12.22,16.65,12.21-18.88,10-24.43-5.55-6.66-5.55-11.1,4.44-15.55,3.33-23.32-11.1-11.1-12.21-16.65,2.22-20-5.56-26.65S649.66,499.62,648.55,505.17Z" transform="translate(0)"/><path class="aq" d="M754,517.39c3.93,3.92-8.88,5.55-10,13.32s-1.11,11.11-5.55,15.55-11.11,5.55-10,12.21,3.33,13.33,0,16.66-11.1,3.33-13.32,8.88-1.11,12.21-5.55,17.77S698.51,618.43,693,616.21s-2.22-27.76,0-32.2,4.44-7.77,4.44-11.1-1.11-8.89,1.11-14.44,14.44-7.77,15.55-11.1,2.22-21.1,8.88-25.54S747.37,510.73,754,517.39Z" transform="translate(0)"/><path class="ap" d="M694.68,614.31a.6.6,0,0,1-.28-.08.55.55,0,0,1-.19-.76c0-.08,4.49-7.51,5.43-11.27.24-1,.53-2.44.87-4.14,1.23-6.16,3.08-15.47,5.94-18.33,4.14-4.14,10.76-16.83,15.4-33.07,5.72-20,24.61-25.86,24.8-25.92a.56.56,0,0,1,.32,1.07c-.18.05-18.51,5.75-24.05,25.16-4.69,16.42-11.44,29.3-15.69,33.55-2.61,2.61-4.5,12.1-5.63,17.76-.34,1.71-.63,3.19-.88,4.19-1,3.92-5.37,11.26-5.56,11.57A.56.56,0,0,1,694.68,614.31Z" transform="translate(0)"/><path class="ap" d="M685.13,611.88a.56.56,0,0,1-.56-.56c0-.14-.1-14.57-4.32-18.8s-6.74-17.42-7.94-42.56c-1.09-22.85-17.46-41.66-17.63-41.85a.56.56,0,0,1,.84-.74c.16.19,16.79,19.29,17.9,42.54,1.17,24.51,3.59,37.8,7.61,41.83,4.55,4.55,4.65,19,4.65,19.58a.56.56,0,0,1-.55.56Z" transform="translate(0)"/></svg>