<svg xmlns="http://www.w3.org/2000/svg" xmlns:xlink="http://www.w3.org/1999/xlink" viewBox="0 0 800 800"><defs><style>.cls-1{isolation:isolate;}.cls-2{mix-blend-mode:multiply;fill:url(#linear-gradient);}.cls-3{mix-blend-mode:overlay;}.cls-4{fill:#fed2a6;}</style><linearGradient id="linear-gradient" x1="554.76" y1="79.42" x2="206.88" y2="800.03" gradientUnits="userSpaceOnUse"><stop offset="0" stop-color="#ee204b"/><stop offset="0.82" stop-color="#d61f42"/><stop offset="1" stop-color="#d01f40"/></linearGradient></defs><g class="cls-1"><g id="Layer_1" data-name="Layer 1"><circle class="cls-2" cx="400" cy="400" r="400"/><g class="cls-3"><path class="cls-4" d="M492.71,699.19a1.73,1.73,0,0,1-1.22-3l6.51-6.5a1.71,1.71,0,0,1,2.44,0,1.73,1.73,0,0,1,0,2.44l-6.51,6.5A1.7,1.7,0,0,1,492.71,699.19Z"/><path class="cls-4" d="M479.7,712.2a1.69,1.69,0,0,1-1.22-.5,1.73,1.73,0,0,1,0-2.44l6.5-6.51a1.73,1.73,0,1,1,2.45,2.44l-6.51,6.51A1.71,1.71,0,0,1,479.7,712.2Z"/><path class="cls-4" d="M453.66,738.24a1.73,1.73,0,0,1-1.22-2.94L472,715.77a1.73,1.73,0,1,1,2.44,2.44l-19.53,19.52A1.7,1.7,0,0,1,453.66,738.24Z"/><path class="cls-4" d="M369,783.88a1.69,1.69,0,0,1-1.22-.5,1.73,1.73,0,0,1,0-2.44L543.72,605a1.71,1.71,0,0,1,2.44,0,1.73,1.73,0,0,1,0,2.44L370.22,783.38A1.71,1.71,0,0,1,369,783.88Z"/><path class="cls-4" d="M323.37,790.5a1.73,1.73,0,0,1-1.23-3L550.69,559a1.73,1.73,0,0,1,2.45,2.43L324.59,790A1.72,1.72,0,0,1,323.37,790.5Z"/><path class="cls-4" d="M313.86,800a1.72,1.72,0,0,1-1.21-2.94l1.68-1.68a1.72,1.72,0,1,1,2.43,2.43l-1.68,1.68A1.72,1.72,0,0,1,313.86,800Z"/><path class="cls-4" d="M274.85,800a1.73,1.73,0,0,1-1.23-2.94L554.34,516.34a1.73,1.73,0,0,1,2.44,2.44L276.07,799.49A1.72,1.72,0,0,1,274.85,800Z"/><path class="cls-4" d="M237.5,798.33a1.73,1.73,0,0,1-1.22-3L554.07,477.6a1.71,1.71,0,0,1,2.44,0,1.73,1.73,0,0,1,0,2.44L238.72,797.82A1.7,1.7,0,0,1,237.5,798.33Z"/><path class="cls-4" d="M206.31,790.51a1.7,1.7,0,0,1-1.22-.51,1.73,1.73,0,0,1,0-2.44L550.71,441.94a1.73,1.73,0,1,1,2.44,2.44L207.53,790A1.72,1.72,0,0,1,206.31,790.51Z"/><path class="cls-4" d="M180.45,777.34a1.75,1.75,0,0,1-1.22-.5,1.73,1.73,0,0,1,0-2.44L537.14,416.49a1.73,1.73,0,0,1,2.44,2.44L181.67,776.84A1.73,1.73,0,0,1,180.45,777.34Z"/><path class="cls-4" d="M154.48,764.3a1.7,1.7,0,0,1-1.22-.51,1.73,1.73,0,0,1,0-2.44L524.07,390.54a1.73,1.73,0,0,1,2.44,2.44L155.7,763.79A1.72,1.72,0,0,1,154.48,764.3Z"/><path class="cls-4" d="M128.49,751.27a1.73,1.73,0,0,1-1.23-.5,1.75,1.75,0,0,1,0-2.44L511,364.56a1.72,1.72,0,0,1,2.44,2.43L129.71,750.77A1.71,1.71,0,0,1,128.49,751.27Z"/><path class="cls-4" d="M102.48,738.26a1.73,1.73,0,0,1-1.22-3L498,338.56a1.73,1.73,0,1,1,2.44,2.44L103.7,737.75A1.7,1.7,0,0,1,102.48,738.26Z"/><path class="cls-4" d="M83,718.74a1.73,1.73,0,0,1-1.22-2.94L478.5,319.06a1.73,1.73,0,1,1,2.44,2.44L84.21,718.23A1.74,1.74,0,0,1,83,718.74Z"/><path class="cls-4" d="M63.46,699.24a1.73,1.73,0,0,1-1.22-2.94L459,299.54a1.73,1.73,0,1,1,2.44,2.44L64.69,698.73A1.74,1.74,0,0,1,63.46,699.24Z"/><path class="cls-4" d="M50.45,673.24a1.73,1.73,0,0,1-1.22-2.94L433,286.52a1.73,1.73,0,0,1,2.45,2.44L51.67,672.73A1.72,1.72,0,0,1,50.45,673.24Z"/><path class="cls-4" d="M30.91,653.76a1.72,1.72,0,0,1-1.22-2.94L407,273.49a1.73,1.73,0,0,1,2.44,2.44L32.13,653.26A1.75,1.75,0,0,1,30.91,653.76Z"/><path class="cls-4" d="M17.83,627.82a1.75,1.75,0,0,1-1.22-.5,1.73,1.73,0,0,1,0-2.44l371.05-371a1.71,1.71,0,0,1,2.44,0,1.73,1.73,0,0,1,0,2.44l-371,371.05A1.73,1.73,0,0,1,17.83,627.82Z"/><path class="cls-4" d="M11.22,595.42A1.73,1.73,0,0,1,10,592.48L355.62,246.85a1.73,1.73,0,1,1,2.44,2.44L12.44,594.91A1.72,1.72,0,0,1,11.22,595.42Z"/><path class="cls-4" d="M1.72,565.89a1.75,1.75,0,0,1-1.22-.5A1.73,1.73,0,0,1,.5,563L320.23,243.22a1.71,1.71,0,0,1,2.44,0,1.73,1.73,0,0,1,0,2.44L2.94,565.39A1.73,1.73,0,0,1,1.72,565.89Z"/><path class="cls-4" d="M1.72,526.88a1.73,1.73,0,0,1-1.22-3L281.21,243.22a1.73,1.73,0,0,1,2.45,2.44L2.94,526.37A1.7,1.7,0,0,1,1.72,526.88Z"/><path class="cls-4" d="M1.72,487.86A1.73,1.73,0,0,1,.5,484.91L242.2,243.22a1.71,1.71,0,0,1,2.44,0,1.73,1.73,0,0,1,0,2.44L2.94,487.35A1.7,1.7,0,0,1,1.72,487.86Z"/><path class="cls-4" d="M11.23,439.34A1.73,1.73,0,0,1,10,436.39L199.53,246.87A1.72,1.72,0,0,1,202,249.3L12.45,438.83A1.72,1.72,0,0,1,11.23,439.34Z"/><path class="cls-4" d="M37.44,374.11a1.7,1.7,0,0,1-1.22-.51,1.73,1.73,0,0,1,0-2.44l97.65-97.66a1.73,1.73,0,0,1,2.45,2.44L38.66,373.6A1.72,1.72,0,0,1,37.44,374.11Z"/></g></g></g></svg>