<?xml version="1.0" encoding="utf-8"?>
<!-- Generator: Adobe Illustrator 25.0.1, SVG Export Plug-In . SVG Version: 6.00 Build 0)  -->
<svg version="1.1" id="Layer_1" xmlns="http://www.w3.org/2000/svg" xmlns:xlink="http://www.w3.org/1999/xlink" x="0px" y="0px"
	 viewBox="0 0 250 60" style="enable-background:new 0 0 250 60;" xml:space="preserve">
<style type="text/css">
	.st0{fill:url(#SVGID_1_);}
	.st1{fill:#FFFFFF;}
</style>
<radialGradient id="SVGID_1_" cx="454.4931" cy="1070.7273" r="324.29" gradientTransform="matrix(-0.8333 0 0 0.594 274.6758 -578.304)" gradientUnits="userSpaceOnUse">
	<stop  offset="0" style="stop-color:#FFB56F"/>
	<stop  offset="1" style="stop-color:#FF5D55"/>
</radialGradient>
<rect class="st0" width="250" height="60"/>
<g>
	<path class="st1" d="M153.5,13.2h0.1l3.5,3.6c0.1,0.1,0.1,0.2,0,0.3l-3.5,3.5c-0.1,0.1-0.1,0.1-0.2,0l0,0l-3.5-3.5
		c-0.1-0.1-0.1-0.2,0-0.3l0,0L153.5,13.2C153.4,13.2,153.5,13.2,153.5,13.2z M156.8,16.9l-3.3-3.3l-3.3,3.3l3.3,3.3L156.8,16.9z"/>
	<path class="st1" d="M168.9,20.1h0.1l3.5,3.6c0.1,0.1,0.1,0.2,0,0.3l-3.5,3.5c-0.1,0.1-0.1,0.1-0.2,0l0,0l-3.5-3.5v-0.1v-0.1
		l3.5-3.5C168.8,20.2,168.9,20.1,168.9,20.1z M172.2,23.8l-3.3-3.3l-3.3,3.3l3.3,3.3L172.2,23.8z"/>
	<path class="st1" d="M156.4,25.4c0.9,0,1.6,0.7,1.6,1.6s-0.7,1.6-1.6,1.6c-0.9,0-1.6-0.7-1.6-1.6l0,0
		C154.8,26.1,155.5,25.4,156.4,25.4z M156.4,28.2c0.7,0,1.3-0.6,1.3-1.2s-0.6-1.3-1.2-1.3c-0.7,0-1.3,0.6-1.3,1.2l0,0
		C155.1,27.7,155.7,28.3,156.4,28.2C156.4,28.3,156.4,28.3,156.4,28.2L156.4,28.2z"/>
</g>
<g>
	<path class="st1" d="M229.3,17.4h-1.8c-0.3,0-0.5,0.2-0.5,0.5s0.2,0.5,0.5,0.5l0,0h1.8c0.8,0,1.5,0.7,1.5,1.5l0,0v2.4h-32.9V20
		c0-0.8,0.7-1.6,1.5-1.6l0,0h25.8c0.3,0,0.5-0.2,0.5-0.5s-0.2-0.5-0.5-0.5l0,0h-25.8c-1.4,0-2.6,1.1-2.6,2.5l0,0v5.7
		c0,0.3,0.2,0.5,0.5,0.5s0.5-0.2,0.5-0.5v-2.3h32.9v13.2c0,0.3,0.2,0.5,0.5,0.5s0.5-0.2,0.5-0.5l0,0V20
		C231.8,18.5,230.7,17.4,229.3,17.4z"/>
	<path class="st1" d="M231.3,38.2c-0.3,0-0.5,0.2-0.5,0.5l0,0v1.4c0,0.8-0.7,1.5-1.5,1.5l0,0h-29.9c-0.8,0-1.5-0.7-1.5-1.5l0,0V27.8
		c0-0.3-0.2-0.5-0.5-0.5s-0.5,0.2-0.5,0.5l0,0v12.3c0,1.4,1.2,2.5,2.6,2.5h29.9c1.4,0,2.5-1.1,2.5-2.5v-1.4
		C231.8,38.4,231.6,38.2,231.3,38.2L231.3,38.2z"/>
	<path class="st1" d="M204.2,28.5c-0.2-0.2-0.5-0.2-0.7,0l-3.1,3.1c-0.1,0.1-0.2,0.2-0.2,0.4c0,0.1,0.1,0.3,0.2,0.4l3,3
		c0.2,0.2,0.5,0.2,0.7,0s0.2-0.5,0-0.7l-2.7-2.7l2.7-2.7C204.4,29,204.4,28.7,204.2,28.5L204.2,28.5z"/>
	<path class="st1" d="M211.1,35.4c0.1,0.1,0.2,0.1,0.4,0.1c0.1,0,0.3-0.1,0.4-0.1l3-3c0.1-0.1,0.1-0.2,0.2-0.4
		c0-0.1-0.1-0.3-0.2-0.4l-3.1-3.1c-0.2-0.2-0.5-0.2-0.7,0s-0.2,0.5,0,0.7l0,0l2.7,2.7l-2.7,2.7C210.9,34.8,210.9,35.2,211.1,35.4
		L211.1,35.4z"/>
	<path class="st1" d="M205.8,37.2c0.2,0,0.4-0.1,0.5-0.3l3.6-9.6c0.1-0.3,0-0.6-0.3-0.7s-0.6,0-0.7,0.3l0,0l-3.6,9.6
		c-0.1,0.3,0,0.6,0.3,0.7C205.7,37.2,205.8,37.2,205.8,37.2L205.8,37.2z"/>
	<path class="st1" d="M199.1,20.4c0,0.8,0.7,1.5,1.5,1.5s1.5-0.7,1.5-1.5s-0.7-1.5-1.5-1.5C199.8,18.8,199.1,19.5,199.1,20.4
		L199.1,20.4z M201.1,20.4c0,0.3-0.2,0.5-0.5,0.5s-0.5-0.2-0.5-0.5s0.2-0.5,0.5-0.5l0,0C200.9,19.9,201.1,20.1,201.1,20.4z"/>
	<path class="st1" d="M203.1,20.4c0,0.8,0.7,1.5,1.5,1.5s1.5-0.7,1.5-1.5s-0.7-1.5-1.5-1.5S203.1,19.5,203.1,20.4L203.1,20.4z
		 M205.1,20.4c0,0.3-0.2,0.5-0.5,0.5s-0.5-0.2-0.5-0.5s0.2-0.5,0.5-0.5l0,0C204.9,19.9,205.1,20.1,205.1,20.4L205.1,20.4z"/>
	<path class="st1" d="M207,20.4c0,0.8,0.7,1.5,1.5,1.5s1.5-0.7,1.5-1.5s-0.7-1.5-1.5-1.5S207,19.5,207,20.4z M209.1,20.4
		c0,0.3-0.2,0.5-0.5,0.5s-0.5-0.2-0.5-0.5s0.2-0.5,0.5-0.5l0,0C208.9,19.9,209.1,20.1,209.1,20.4z"/>
	<path class="st1" d="M219.8,29.1h3.2c0.8,0,1.5-0.7,1.5-1.5s-0.7-1.5-1.5-1.5h-3.2c-0.8,0-1.5,0.7-1.5,1.5
		C218.2,28.4,218.9,29.1,219.8,29.1L219.8,29.1z M219.8,27h3.2c0.3,0,0.5,0.2,0.5,0.5S223.3,28,223,28l0,0h-3.2
		c-0.3,0-0.5-0.2-0.5-0.5C219.3,27.3,219.5,27,219.8,27z"/>
	<path class="st1" d="M219.8,33.2h8.5c0.8,0,1.5-0.7,1.5-1.5s-0.7-1.5-1.5-1.5h-8.5c-0.8,0-1.5,0.7-1.5,1.5S218.9,33.2,219.8,33.2z
		 M219.8,31.1h8.5c0.3,0,0.5,0.2,0.5,0.5s-0.2,0.5-0.5,0.5l0,0h-8.5c-0.3,0-0.5-0.2-0.5-0.5C219.2,31.3,219.5,31.1,219.8,31.1
		L219.8,31.1z"/>
	<path class="st1" d="M219.8,37.2h6c0.8,0,1.5-0.7,1.5-1.5s-0.7-1.5-1.5-1.5h-6c-0.8,0-1.5,0.7-1.5,1.5S218.9,37.2,219.8,37.2z
		 M219.8,35.2h6c0.3,0,0.5,0.2,0.5,0.5s-0.2,0.5-0.5,0.5l0,0h-6c-0.3,0-0.5-0.2-0.5-0.5S219.5,35.2,219.8,35.2L219.8,35.2z"/>
</g>
<g>
	<text transform="matrix(1 0 0 1 400 388.3333)" style="font-family:'ArialMT'; font-size:12px;">&lt;img</text>
	<text transform="matrix(1 0 0 1 400 402.7333)" style="font-family:'ArialMT'; font-size:12px;">                          className={styles.quote_icon}</text>
	<text transform="matrix(1 0 0 1 400 417.1333)" style="font-family:'ArialMT'; font-size:12px;">                          src=&quot;/images/quote.svg&quot;</text>
	<text transform="matrix(1 0 0 1 400 431.5333)" style="font-family:'ArialMT'; font-size:12px;">                        &gt;&lt;/img&gt;</text>
</g>
</svg>
