<?xml version="1.0" encoding="utf-8"?>
<!-- Generator: Adobe Illustrator 25.0.1, SVG Export Plug-In . SVG Version: 6.00 Build 0)  -->
<svg version="1.1" id="Layer_1" xmlns="http://www.w3.org/2000/svg" xmlns:xlink="http://www.w3.org/1999/xlink" x="0px" y="0px"
	 viewBox="0 0 250 60" style="enable-background:new 0 0 250 60;" xml:space="preserve">
<style type="text/css">
	.st0{fill:url(#SVGID_1_);}
	.st1{fill:#FFFFFF;}
</style>
<radialGradient id="SVGID_1_" cx="454.8431" cy="1070.7273" r="324.29" gradientTransform="matrix(-0.8333 0 0 0.594 274.9675 -578.304)" gradientUnits="userSpaceOnUse">
	<stop  offset="0" style="stop-color:#FFFF6F"/>
	<stop  offset="1" style="stop-color:#FF9722"/>
</radialGradient>
<rect class="st0" width="250" height="60"/>
<path class="st1" d="M231.5,37.1l-2.6,4.5c-0.2,0.3-0.5,0.4-0.8,0.3l-3.8-1.6c-0.3-0.1-0.5-0.5-0.3-0.8l0,0c0.1-0.3,0.5-0.5,0.8-0.4
	l3.3,1.3l2.1-3.6l-2.8-2.2c-0.2-0.2-0.3-0.4-0.2-0.7c0.8-2.6,0.8-5.4,0-8c-0.1-0.2,0-0.5,0.2-0.7l2.8-2.2l-2.1-3.6l-3.3,1.3
	c-0.2,0.1-0.5,0-0.7-0.1c-1.9-2-4.3-3.4-6.9-4c-0.2-0.1-0.4-0.3-0.5-0.5l-0.5-3.6H212l-0.5,3.6c0,0.3-0.2,0.5-0.5,0.5
	c-2.7,0.6-5.1,2-6.9,4c-0.2,0.2-0.4,0.2-0.7,0.1l-3.3-1.3L198,23l2.8,2.2c0.2,0.2,0.3,0.4,0.2,0.7c-0.8,2.6-0.8,5.4,0,8
	c0.1,0.2,0,0.5-0.2,0.7l-2.8,2.2l2.1,3.6l3.3-1.3c0.2-0.1,0.5,0,0.7,0.2c1.9,2,4.3,3.4,6.9,4c0.3,0.1,0.4,0.3,0.5,0.5l0.5,3.6h4.1
	l0.5-3.6c0-0.3,0.2-0.5,0.5-0.5c1.5-0.3,2.9-0.9,4.1-1.7c0.3-0.2,0.7-0.1,0.9,0.2s0.1,0.7-0.2,0.9c-1.3,0.8-2.6,1.4-4.1,1.7
	l-0.5,3.7c0,0.3-0.3,0.5-0.6,0.5h-5.2c-0.3,0-0.6-0.2-0.6-0.5l-0.5-3.7c-2.6-0.7-5-2-6.8-4l-3.4,1.4c-0.3,0.1-0.6,0-0.8-0.3
	l-2.6-4.5c-0.2-0.3-0.1-0.6,0.1-0.8l2.9-2.3c-0.7-2.6-0.7-5.3,0-7.9l-3-2.3c-0.2-0.2-0.3-0.5-0.1-0.8l2.6-4.5
	c0.2-0.3,0.5-0.4,0.8-0.3l3.4,1.4c1.9-1.9,4.2-3.3,6.8-4l0.5-3.7c0-0.3,0.3-0.5,0.6-0.5h5.2c0.3,0,0.6,0.2,0.6,0.5l0.5,3.7
	c2.6,0.7,5,2,6.9,4l3.4-1.4c0.3-0.1,0.6,0,0.8,0.3l2.6,4.5c0.2,0.3,0.1,0.6-0.1,0.8l-2.9,2.3c0.7,2.6,0.7,5.3,0,7.9l2.9,2.3
	C231.6,36.4,231.7,36.8,231.5,37.1L231.5,37.1z M213.1,33l3.1-5.3c0.2-0.3,0.1-0.7-0.2-0.9c-0.3-0.2-0.7-0.1-0.9,0.2l-3.1,5.3
	c-0.2,0.3-0.1,0.7,0.2,0.9C212.5,33.4,212.9,33.3,213.1,33z M210.6,27.6c-0.2-0.2-0.6-0.2-0.9,0l0,0l-1.9,1.9
	c-0.2,0.2-0.2,0.6,0,0.9l1.9,1.9c0.2,0.2,0.6,0.2,0.9,0c0.2-0.2,0.2-0.6,0-0.9l-1.5-1.5l1.5-1.5C210.9,28.3,210.9,27.9,210.6,27.6
	L210.6,27.6z M217.9,32.6c0.2,0,0.3-0.1,0.4-0.2l1.9-1.9c0.2-0.2,0.2-0.6,0-0.9l-1.9-1.9c-0.2-0.2-0.6-0.3-0.9,0
	c-0.2,0.2-0.3,0.6,0,0.9l0,0L219,30l-1.5,1.5c-0.2,0.3-0.2,0.7,0,0.9C217.6,32.5,217.7,32.6,217.9,32.6z M210.4,39.9
	c5.5,2,11.6-0.8,13.5-6.3c2-5.5-0.8-11.6-6.3-13.5c-5.5-2-11.6,0.8-13.5,6.3c-1.4,4-0.4,8.4,2.7,11.3c0.2,0.2,0.6,0.2,0.9,0
	c0.2-0.2,0.2-0.6,0-0.9c-3.8-3.5-4-9.4-0.6-13.2s9.4-4,13.2-0.6s4,9.4,0.6,13.2c-2.5,2.7-6.4,3.7-9.9,2.5c-0.3-0.1-0.7,0-0.8,0.4
	l0,0C210,39.4,210.1,39.8,210.4,39.9L210.4,39.9L210.4,39.9z"/>
<g>
	<path class="st1" d="M153.5,11.7h0.1l3.5,3.6c0.1,0.1,0.1,0.2,0,0.3l-3.5,3.5c-0.1,0.1-0.1,0.1-0.2,0l0,0l-3.5-3.5
		c-0.1-0.1-0.1-0.2,0-0.3l0,0L153.5,11.7C153.4,11.8,153.5,11.7,153.5,11.7z M156.8,15.5l-3.3-3.3l-3.3,3.3l3.3,3.3L156.8,15.5z"/>
	<path class="st1" d="M168.9,18.6h0.1l3.5,3.6c0.1,0.1,0.1,0.2,0,0.3L169,26c-0.1,0.1-0.1,0.1-0.2,0l0,0l-3.5-3.5v-0.1v-0.1l3.5-3.5
		C168.8,18.7,168.9,18.6,168.9,18.6z M172.2,22.3l-3.3-3.3l-3.3,3.3l3.3,3.3L172.2,22.3z"/>
	<path class="st1" d="M156.4,23.9c0.9,0,1.6,0.7,1.6,1.6s-0.7,1.6-1.6,1.6c-0.9,0-1.6-0.7-1.6-1.6l0,0
		C154.8,24.6,155.5,23.9,156.4,23.9z M156.4,26.7c0.7,0,1.3-0.6,1.3-1.2c0-0.7-0.6-1.3-1.2-1.3c-0.7,0-1.3,0.6-1.3,1.2l0,0
		C155.1,26.2,155.7,26.8,156.4,26.7C156.4,26.8,156.4,26.8,156.4,26.7L156.4,26.7z"/>
</g>
</svg>
