<?xml version="1.0" encoding="utf-8"?>
<!-- Generator: Adobe Illustrator 25.0.1, SVG Export Plug-In . SVG Version: 6.00 Build 0)  -->
<svg version="1.1" id="Layer_1" xmlns="http://www.w3.org/2000/svg" xmlns:xlink="http://www.w3.org/1999/xlink" x="0px" y="0px"
	 viewBox="0 0 250 60" style="enable-background:new 0 0 250 60;" xml:space="preserve">
<style type="text/css">
	.st0{fill:url(#SVGID_1_);}
	.st1{fill:#FFFFFF;}
</style>
<linearGradient id="SVGID_1_" gradientUnits="userSpaceOnUse" x1="0" y1="768" x2="250" y2="768" gradientTransform="matrix(-1 0 0 1 250 -738)">
	<stop  offset="0" style="stop-color:#E90489"/>
	<stop  offset="0.99" style="stop-color:#F07794"/>
</linearGradient>
<rect class="st0" width="250" height="60"/>
<g>
	<path class="st1" d="M153.7,12.8h0.1l3.5,3.6c0.1,0.1,0.1,0.2,0,0.3l-3.5,3.5c-0.1,0.1-0.1,0.1-0.2,0l0,0l-3.5-3.5
		c-0.1-0.1-0.1-0.2,0-0.3l0,0L153.7,12.8C153.6,12.8,153.7,12.8,153.7,12.8z M157,16.5l-3.3-3.3l-3.3,3.3l3.3,3.3L157,16.5z"/>
	<path class="st1" d="M169.1,19.7h0.1l3.5,3.6c0.1,0.1,0.1,0.2,0,0.3l-3.5,3.5c-0.1,0.1-0.1,0.1-0.2,0l0,0l-3.5-3.5v-0.1v-0.1
		l3.5-3.5C169,19.7,169.1,19.7,169.1,19.7z M172.4,23.4l-3.3-3.3l-3.3,3.3l3.3,3.3L172.4,23.4z"/>
	<path class="st1" d="M156.6,24.9c0.9,0,1.6,0.7,1.6,1.6s-0.7,1.6-1.6,1.6c-0.9,0-1.6-0.7-1.6-1.6l0,0
		C155,25.6,155.8,24.9,156.6,24.9z M156.6,27.8c0.7,0,1.3-0.6,1.3-1.2c0-0.7-0.6-1.3-1.2-1.3c-0.7,0-1.3,0.6-1.3,1.2l0,0
		C155.3,27.2,155.9,27.8,156.6,27.8C156.6,27.9,156.6,27.9,156.6,27.8L156.6,27.8z"/>
</g>
<g>
	<path class="st1" d="M232,44.5l-5.2-5.2c-0.3-0.3-0.7-0.5-1.1-0.5c-0.2,0-0.5,0.1-0.7,0.2l-1.3-1.3c2.6-3,2.2-7.5-0.7-10
		c-3-2.6-7.5-2.2-10,0.7c-2.6,3-2.2,7.5,0.7,10c2.7,2.3,6.6,2.3,9.3,0l1.3,1.3c-0.3,0.6-0.2,1.4,0.3,1.9l5.2,5.2
		c0.6,0.6,1.6,0.6,2.2,0c0.3-0.3,0.5-0.7,0.5-1.1C232.4,45.3,232.2,44.9,232,44.5L232,44.5z M212.1,33c0-3.4,2.7-6.1,6.1-6.1
		c3.4,0,6.1,2.7,6.1,6.1s-2.7,6.1-6.1,6.1l0,0C214.9,39.1,212.2,36.4,212.1,33z M225,40.4c0-0.3,0.2-0.6,0.6-0.6l0,0
		c0.2,0,0.3,0.1,0.4,0.2l0.4,0.5l-0.8,0.8l-0.5-0.4C225.1,40.7,225,40.6,225,40.4z M231.2,46.1c-0.1,0.1-0.3,0.2-0.4,0.2
		c-0.2,0-0.3-0.1-0.4-0.2l-4-4l0.8-0.8l4,4c0.1,0.1,0.2,0.3,0.2,0.4C231.4,45.8,231.4,45.9,231.2,46.1z"/>
	<path class="st1" d="M218.2,28.1c-0.9,0-1.7,0.2-2.5,0.7c-0.3,0.1-0.4,0.4-0.3,0.7c0.1,0.3,0.4,0.4,0.7,0.3c0,0,0.1,0,0.1-0.1
		c0.6-0.4,1.3-0.5,2-0.5c2.1,0,3.9,1.7,3.9,3.9c0,0.7-0.2,1.4-0.5,2c-0.1,0.2-0.1,0.6,0.2,0.7c0.1,0.1,0.2,0.1,0.3,0.1
		c0.2,0,0.4-0.1,0.4-0.3c0.4-0.7,0.7-1.6,0.7-2.5C223.1,30.3,220.9,28.2,218.2,28.1z"/>
	<path class="st1" d="M220.2,36.4c-1.8,1.1-4.2,0.5-5.3-1.4c-0.7-1.2-0.7-2.7,0-3.9c0.1-0.2,0.1-0.6-0.2-0.7
		c-0.2-0.1-0.6-0.1-0.7,0.2l0,0c-1.4,2.3-0.6,5.3,1.7,6.7c0.7,0.4,1.6,0.7,2.5,0.7s1.7-0.2,2.5-0.7c0.2-0.1,0.3-0.4,0.2-0.7
		C220.8,36.3,220.5,36.2,220.2,36.4L220.2,36.4z"/>
	<path class="st1" d="M201.8,15.5h-1.1c-0.3,0-0.5,0.2-0.5,0.5c0,0.3,0.2,0.5,0.5,0.5l0,0h1.1c0.3,0,0.5-0.2,0.5-0.5l0,0
		C202.3,15.8,202.1,15.5,201.8,15.5z"/>
	<path class="st1" d="M217.6,16.1c0-0.3-0.2-0.5-0.5-0.5H204c-0.3,0-0.5,0.2-0.5,0.5c0,0.3,0.2,0.5,0.5,0.5l0,0h13.2
		C217.4,16.6,217.6,16.3,217.6,16.1L217.6,16.1z"/>
	<path class="st1" d="M200.7,23.2c-0.3,0-0.5,0.2-0.5,0.5l0,0c0,0.3,0.2,0.5,0.5,0.5h1.1c0.3,0,0.5-0.2,0.5-0.5s-0.2-0.5-0.5-0.5
		l0,0H200.7z"/>
	<path class="st1" d="M204,23.2c-0.3,0-0.5,0.2-0.5,0.5l0,0c0,0.3,0.2,0.5,0.5,0.5h13.2c0.3,0,0.5-0.2,0.5-0.5s-0.2-0.5-0.5-0.5l0,0
		H204z"/>
	<path class="st1" d="M210.5,28.1h-1.1V27h3c0.3,0,0.5-0.2,0.5-0.5l0,0c0-0.3-0.2-0.5-0.5-0.5H199c-0.3,0-0.6-0.3-0.6-0.6V22
		c0-0.3,0.3-0.6,0.6-0.6l0,0h19.7c0.3,0,0.6,0.2,0.6,0.6l0,0v2.2c0,0.3,0.2,0.5,0.5,0.5s0.5-0.2,0.5-0.5l0,0V22
		c0-0.9-0.7-1.6-1.6-1.6h-9.4v-1.2h9.4c0.9,0,1.6-0.7,1.6-1.6v-3.3c0-0.9-0.7-1.6-1.6-1.6H199c-0.9,0-1.6,0.7-1.6,1.6v3.3
		c0,0.9,0.7,1.6,1.6,1.6h9.4v1.2H199c-0.9,0-1.6,0.7-1.6,1.6v3.3c0,0.9,0.7,1.6,1.6,1.6h9.4v1.2H199c-0.9,0-1.6,0.7-1.6,1.6V33
		c0,0.9,0.7,1.6,1.6,1.6h10.4c0.3,0,0.5-0.2,0.5-0.5l0,0c0-0.3-0.2-0.5-0.5-0.5l0,0H199c-0.3,0-0.6-0.3-0.6-0.6v-3.3
		c0-0.3,0.3-0.6,0.6-0.6h11.5c0.3,0,0.5-0.2,0.5-0.5C211.1,28.4,210.8,28.2,210.5,28.1L210.5,28.1z M198.4,17.7v-3.3
		c0-0.3,0.3-0.6,0.6-0.6h19.7c0.3,0,0.6,0.3,0.6,0.6v3.3c0,0.3-0.3,0.6-0.6,0.6l0,0H199C198.7,18.3,198.4,18,198.4,17.7L198.4,17.7
		L198.4,17.7z"/>
	<path class="st1" d="M200.7,30.9c-0.3,0-0.5,0.2-0.6,0.4c0,0.3,0.2,0.5,0.4,0.6c0.1,0,0.1,0,0.2,0h1.1c0.3,0,0.5-0.3,0.4-0.6
		c0-0.2-0.2-0.4-0.4-0.4H200.7z"/>
	<path class="st1" d="M204,30.9c-0.3,0-0.5,0.3-0.4,0.6c0,0.2,0.2,0.4,0.4,0.4h5.5c0.3,0,0.5-0.3,0.4-0.6c0-0.2-0.2-0.4-0.4-0.4H204
		z"/>
</g>
</svg>
