<svg id="Icons" height="512" viewBox="0 0 74 74" width="512" xmlns="http://www.w3.org/2000/svg"><path d="m30 60.617h-27a1 1 0 0 1 -1-1v-42a1 1 0 0 1 1-1h6a1 1 0 0 1 0 2h-5v40h26a1 1 0 0 1 0 2z"/><path d="m71 35.47a1 1 0 0 1 -1-1v-2.91a1 1 0 0 1 2 0v2.91a1 1 0 0 1 -1 1z"/><path d="m71 60.62h-27a1 1 0 0 1 0-2h26v-7.18a1 1 0 0 1 2 0v8.18a1 1 0 0 1 -1 1z"/><path d="m71 45.44a1 1 0 0 1 -1-1v-2.97a1 1 0 0 1 2 0v2.97a1 1 0 0 1 -1 1z"/><path d="m71 25.56a1 1 0 0 1 -1-1v-5.94h-5a1 1 0 0 1 0-2h6a1 1 0 0 1 1 1v6.94a1 1 0 0 1 -1 1z"/><path d="m65 54.617a1 1 0 0 1 -.394-.081 33.349 33.349 0 0 0 -27.212 0 1 1 0 0 1 -1.394-.919v-43a1 1 0 0 1 .553-.894c9.507-4.751 19.225-4.752 28.888 0a1 1 0 0 1 .559.9v43a1 1 0 0 1 -1 1zm-14-4.989a35.863 35.863 0 0 1 13 2.5v-40.882a29.03 29.03 0 0 0 -26-.005v40.889a35.863 35.863 0 0 1 13-2.502z"/><path d="m37 54.617a1 1 0 0 1 -.394-.081 33.349 33.349 0 0 0 -27.212 0 1 1 0 0 1 -1.394-.919v-43a1 1 0 0 1 .559-.9c9.661-4.749 19.379-4.749 28.888 0a1 1 0 0 1 .553.894v43a1 1 0 0 1 -1 1zm-14-4.989a35.863 35.863 0 0 1 13 2.5v-40.887a29.03 29.03 0 0 0 -26 .005v40.884a35.863 35.863 0 0 1 13-2.502z"/><path d="m37 67.852a8.009 8.009 0 0 1 -8-8v-.235a1 1 0 1 1 2 0v.235a6 6 0 1 0 12 0v-.235a1 1 0 1 1 2 0v.235a8.009 8.009 0 0 1 -8 8z"/><path d="m59 19.487a1.013 1.013 0 0 1 -.368-.07 20.129 20.129 0 0 0 -15.264 0 1 1 0 1 1 -.736-1.86 22.063 22.063 0 0 1 16.736 0 1 1 0 0 1 -.368 1.93z"/><path d="m59 27.279a.994.994 0 0 1 -.368-.071 20.129 20.129 0 0 0 -15.264 0 1 1 0 1 1 -.736-1.859 22.063 22.063 0 0 1 16.736 0 1 1 0 0 1 -.368 1.93z"/><path d="m59 35.071a.994.994 0 0 1 -.368-.071 20.119 20.119 0 0 0 -15.264 0 1 1 0 1 1 -.736-1.859 22.053 22.053 0 0 1 16.736 0 1 1 0 0 1 -.368 1.93z"/><path d="m59 42.862a1.013 1.013 0 0 1 -.368-.07 20.129 20.129 0 0 0 -15.264 0 1 1 0 0 1 -.736-1.86 22.063 22.063 0 0 1 16.736 0 1 1 0 0 1 -.368 1.93z"/><path d="m31 19.487a1.013 1.013 0 0 1 -.368-.07 20.129 20.129 0 0 0 -15.264 0 1 1 0 0 1 -.736-1.86 22.063 22.063 0 0 1 16.736 0 1 1 0 0 1 -.368 1.93z"/><path d="m31 27.279a.994.994 0 0 1 -.368-.071 20.129 20.129 0 0 0 -15.264 0 1 1 0 1 1 -.736-1.859 22.063 22.063 0 0 1 16.736 0 1 1 0 0 1 -.368 1.93z"/><path d="m31 35.071a.994.994 0 0 1 -.368-.071 20.119 20.119 0 0 0 -15.264 0 1 1 0 1 1 -.736-1.859 22.053 22.053 0 0 1 16.736 0 1 1 0 0 1 -.368 1.93z"/><path d="m31 42.862a1.013 1.013 0 0 1 -.368-.07 20.129 20.129 0 0 0 -15.264 0 1 1 0 1 1 -.736-1.86 22.063 22.063 0 0 1 16.736 0 1 1 0 0 1 -.368 1.93z"/></svg>