<?xml version="1.0" encoding="utf-8"?>
<!-- Generator: Adobe Illustrator 25.0.1, SVG Export Plug-In . SVG Version: 6.00 Build 0)  -->
<svg version="1.1" id="Layer_1" xmlns="http://www.w3.org/2000/svg" xmlns:xlink="http://www.w3.org/1999/xlink" x="0px" y="0px"
	 viewBox="0 0 250 60" style="enable-background:new 0 0 250 60;" xml:space="preserve">
<style type="text/css">
	.st0{fill:url(#SVGID_1_);}
	.st1{fill:#FFFFFF;}
</style>
<linearGradient id="SVGID_1_" gradientUnits="userSpaceOnUse" x1="0" y1="768" x2="250" y2="768" gradientTransform="matrix(-1 0 0 1 250 -738)">
	<stop  offset="5.000000e-02" style="stop-color:#B6DB69"/>
	<stop  offset="0.28" style="stop-color:#C2DF67"/>
	<stop  offset="0.7" style="stop-color:#E3E862"/>
	<stop  offset="1" style="stop-color:#FFF05E"/>
</linearGradient>
<rect class="st0" width="250" height="60"/>
<g>
	<path class="st1" d="M217.5,47.5h-4.4c-1.3-0.1-2.3-1.2-2.2-2.5v-0.1v-3.1c0-1.5-0.7-2.9-1.9-3.8c-2.5-2-4-5-3.9-8.2
		c0.2-5.5,4.6-9.9,10.1-10.1c2.7,0,5.4,1,7.3,2.9c1.9,1.9,3,4.5,3.1,7.3c0,3.1-1.4,6-3.8,7.9c-1.3,1-2,2.5-2,4.1v3.4
		C219.7,46.5,218.7,47.4,217.5,47.5L217.5,47.5z M215.4,21.2c-4.7,0.1-8.6,3.9-8.7,8.6c-0.1,2.7,1.2,5.3,3.3,7
		c1.5,1.2,2.4,3,2.5,4.9v3.1c0,0.3,0,1.2,0.7,1.2h4.4c0.4,0,0.7-0.3,0.7-0.6v-0.1V42c0.1-2,1-4,2.6-5.2c2-1.6,3.2-4.1,3.2-6.7
		c0-2.4-0.9-4.6-2.6-6.3C219.8,22.1,217.6,21.2,215.4,21.2L215.4,21.2z"/>
	<path class="st1" d="M219,43.1h-7.3c-0.4,0-0.7-0.3-0.7-0.7s0.3-0.7,0.7-0.7l0,0h7.3c0.4,0,0.7,0.3,0.7,0.7
		C219.8,42.8,219.4,43.1,219,43.1L219,43.1L219,43.1z"/>
	<path class="st1" d="M215.4,16.9c-0.4,0-0.7-0.3-0.7-0.7v-0.1v-2.9c0-0.4,0.3-0.7,0.7-0.7s0.7,0.3,0.7,0.7v2.9
		C216.1,16.5,215.8,16.8,215.4,16.9L215.4,16.9z"/>
	<path class="st1" d="M225.1,21c-0.2,0-0.4,0-0.6-0.1c-0.3-0.3-0.3-0.7,0-1l2-2c0.3-0.3,0.7-0.3,1,0l0,0c0.3,0.3,0.3,0.7,0,1l-2,2
		C225.4,20.9,225.2,20.9,225.1,21L225.1,21z"/>
	<path class="st1" d="M232.1,30.7h-2.9c-0.4,0-0.7-0.3-0.7-0.7c0-0.4,0.3-0.7,0.7-0.7h2.9c0.4,0,0.7,0.3,0.7,0.7
		C232.9,30.4,232.5,30.7,232.1,30.7z"/>
	<path class="st1" d="M227.2,42.5c-0.2,0-0.4,0-0.6-0.1l-2-2c-0.3-0.3-0.2-0.8,0.1-1s0.7-0.2,0.9,0l2,2c0.3,0.3,0.3,0.7,0,1l0,0
		C227.6,42.5,227.5,42.5,227.2,42.5z"/>
	<path class="st1" d="M203.5,42.5c-0.2,0-0.4,0-0.6-0.1c-0.3-0.3-0.3-0.7,0-1l0,0l2-2c0.3-0.3,0.7-0.3,1,0s0.3,0.7,0,1l0,0l-2,2
		C203.9,42.5,203.7,42.6,203.5,42.5z"/>
	<path class="st1" d="M201.5,30.7h-2.9c-0.4,0-0.7-0.3-0.7-0.7c0-0.4,0.3-0.7,0.7-0.7h2.9c0.4,0,0.7,0.3,0.7,0.7
		C202.2,30.4,201.9,30.7,201.5,30.7z"/>
	<path class="st1" d="M205.6,21c-0.2,0-0.4,0-0.6-0.1l-2-2.1c-0.3-0.3-0.2-0.8,0.1-1s0.7-0.2,0.9,0l2,2c0.3,0.3,0.3,0.7,0,1l0,0
		C205.9,20.9,205.7,21,205.6,21L205.6,21z"/>
	<path class="st1" d="M221.2,30.7c-0.4,0-0.7-0.3-0.7-0.6V30c0-2.8-2.3-5.1-5.1-5.1c-0.4,0-0.7-0.3-0.7-0.7s0.3-0.7,0.7-0.7
		c3.6,0,6.5,2.9,6.6,6.5c0,0,0,0,0,0.1c0,0.4-0.2,0.7-0.6,0.8C221.3,30.7,221.2,30.7,221.2,30.7z"/>
</g>
<g>
	<path class="st1" d="M153.5,12h0.1l3.5,3.6c0.1,0.1,0.1,0.2,0,0.3l-3.5,3.5c-0.1,0.1-0.1,0.1-0.2,0l0,0l-3.5-3.5
		c-0.1-0.1-0.1-0.2,0-0.3l0,0l3.5-3.5C153.4,12.1,153.5,12,153.5,12z M156.8,15.8l-3.3-3.3l-3.3,3.3l3.3,3.3L156.8,15.8z"/>
	<path class="st1" d="M168.9,18.9h0.1l3.5,3.6c0.1,0.1,0.1,0.2,0,0.3l-3.5,3.5c-0.1,0.1-0.1,0.1-0.2,0l0,0l-3.5-3.5v-0.1v-0.1
		l3.5-3.5C168.8,19,168.9,18.9,168.9,18.9z M172.2,22.7l-3.3-3.3l-3.3,3.3l3.3,3.3L172.2,22.7z"/>
	<path class="st1" d="M156.4,24.2c0.9,0,1.6,0.7,1.6,1.6s-0.7,1.6-1.6,1.6c-0.9,0-1.6-0.7-1.6-1.6l0,0
		C154.8,24.9,155.5,24.2,156.4,24.2z M156.4,27.1c0.7,0,1.3-0.6,1.3-1.2c0-0.7-0.6-1.3-1.2-1.3c-0.7,0-1.3,0.6-1.3,1.2l0,0
		C155.1,26.5,155.7,27.1,156.4,27.1L156.4,27.1L156.4,27.1z"/>
</g>
</svg>
