<?xml version="1.0" encoding="utf-8"?>
<!-- Generator: Adobe Illustrator 25.0.1, SVG Export Plug-In . SVG Version: 6.00 Build 0)  -->
<svg version="1.1" id="Layer_1" xmlns="http://www.w3.org/2000/svg" xmlns:xlink="http://www.w3.org/1999/xlink" x="0px" y="0px"
	 viewBox="0 0 250 60" style="enable-background:new 0 0 250 60;" xml:space="preserve">
<style type="text/css">
	.st0{fill:url(#SVGID_1_);}
	.st1{fill:#FFFFFF;}
</style>
<g>
	
		<linearGradient id="SVGID_1_" gradientUnits="userSpaceOnUse" x1="0" y1="768" x2="250" y2="768" gradientTransform="matrix(-1 0 0 1 250 -738)">
		<stop  offset="0" style="stop-color:#166AB6"/>
		<stop  offset="0.25" style="stop-color:#1276C0"/>
		<stop  offset="0.7" style="stop-color:#0894D9"/>
		<stop  offset="1" style="stop-color:#00ADEE"/>
	</linearGradient>
	<rect class="st0" width="250" height="60"/>
</g>
<g>
	<path class="st1" d="M203.8,38.3c-0.5,0-1,0.1-1.4,0.4c-2.2-3-3.4-6.6-3.4-10.3c0-9.2,7.2-16.7,16.1-16.7c1.1,0,2.2,0.1,3.2,0.3
		c0.4,0.1,0.7-0.1,0.8-0.5l0,0c0.1-0.4-0.2-0.8-0.5-0.8c-1.1-0.2-2.3-0.4-3.5-0.4c-4.7,0-9.2,1.9-12.4,5.3
		c-3.3,3.5-5.2,8.1-5.1,12.8c0,4.1,1.3,8,3.8,11.2c-0.8,1.2-0.6,2.7,0.4,3.8c0.5,0.6,1.3,0.9,2,0.9c0.8,0,1.5-0.3,2-0.9
		c1.1-1.2,1.1-3,0-4.2C205.4,38.6,204.6,38.3,203.8,38.3z M204.9,42.4c-0.6,0.6-1.5,0.6-2.1,0l0,0c-0.6-0.6-0.6-1.6,0-2.2
		c0.6-0.6,1.5-0.6,2.1,0l0,0C205.5,40.8,205.5,41.8,204.9,42.4z"/>
	<path class="st1" d="M228.9,17.1c0.8-1.2,0.6-2.7-0.4-3.8c-1.1-1.1-2.8-1.2-4-0.1l-0.1,0.1c-1.1,1.2-1.1,3,0,4.2
		c0.5,0.6,1.3,0.9,2,0.9c0.5,0,1-0.1,1.4-0.4c2.2,3,3.4,6.6,3.4,10.3c0,9.2-7.2,16.7-16.1,16.7c-1.1,0-2.1-0.1-3.2-0.3
		c-0.4-0.1-0.7,0.2-0.8,0.6c-0.1,0.4,0.2,0.8,0.5,0.8c1.1,0.2,2.3,0.3,3.5,0.4c4.7,0,9.2-1.9,12.4-5.3c3.3-3.4,5.2-8.1,5.1-12.8
		C232.7,24.3,231.4,20.3,228.9,17.1z M225.5,16.6c-0.3-0.3-0.4-0.7-0.4-1.1c0-0.4,0.2-0.8,0.4-1.1c0.6-0.6,1.5-0.6,2.1-0.1
		c0,0,0,0,0.1,0.1c0.6,0.6,0.6,1.6,0,2.2C227.1,17.1,226.1,17.2,225.5,16.6L225.5,16.6z"/>
	<path class="st1" d="M212.4,40.6c0,0.4,0.3,0.7,0.7,0.7l0,0h4.3c0.4,0,0.7-0.3,0.7-0.7l0,0v-1.4c0.9-0.3,1.8-0.6,2.6-1.1l0.9,1
		c0.3,0.3,0.7,0.3,1,0l0,0l3-3.1c0.3-0.3,0.3-0.7,0-1l-0.9-1c0.5-0.8,0.8-1.7,1.1-2.7h1.3c0.4,0,0.7-0.3,0.7-0.7v-4.4
		c0-0.4-0.3-0.7-0.7-0.7h-1.3c-0.2-0.9-0.6-1.8-1.1-2.7l0.9-1c0.1-0.1,0.2-0.3,0.2-0.5s-0.1-0.4-0.2-0.5l-3-3.1
		c-0.2-0.3-0.6-0.3-0.9-0.1c0,0,0,0-0.1,0.1l-0.9,1c-0.8-0.5-1.7-0.8-2.6-1.1v-1.4c0-0.4-0.3-0.7-0.7-0.7l0,0H213
		c-0.4,0-0.7,0.3-0.7,0.7l0,0v1.4c-0.9,0.3-1.8,0.6-2.6,1.1l-0.9-1c-0.2-0.3-0.6-0.3-0.9-0.1c0,0,0,0-0.1,0.1l-3,3.1
		c-0.1,0.1-0.2,0.3-0.2,0.5s0.1,0.4,0.2,0.5l0.9,1c-0.5,0.8-0.8,1.7-1.1,2.7h-1.3c-0.4,0-0.7,0.3-0.7,0.7v4.4c0,0.2,0.1,0.4,0.2,0.5
		c0.1,0.1,0.3,0.2,0.5,0.2h1.3c0.2,0.9,0.6,1.8,1.1,2.7l-0.9,1c-0.3,0.3-0.3,0.7,0,1l3,3.1c0.1,0.1,0.3,0.2,0.5,0.2l0,0
		c0.2,0,0.4-0.1,0.5-0.2l0.9-1c0.8,0.5,1.7,0.8,2.6,1.1L212.4,40.6z M210.1,36.6c-0.3-0.2-0.6-0.1-0.9,0.1l-0.8,0.9l-2.1-2.2
		l0.8-0.9c0.2-0.2,0.3-0.6,0.1-0.9c-0.6-1-1.1-2.1-1.3-3.3c-0.1-0.3-0.3-0.6-0.7-0.6H204v-2.9h1.2c0.3,0,0.6-0.2,0.7-0.6
		c0.2-1.1,0.6-2.2,1.2-3.2c0.2-0.3,0.1-0.6-0.1-0.9l-0.8-0.9l2.1-2.1l0.8,0.9c0.2,0.2,0.6,0.3,0.9,0.1c0.9-0.6,2-1.1,3.1-1.3
		c0.3-0.1,0.5-0.4,0.5-0.7v-1.2h2.9v1.2c0,0.3,0.2,0.6,0.5,0.7c1.1,0.2,2.2,0.7,3.2,1.3c0.3,0.2,0.6,0.1,0.9-0.1l0.8-0.9l2,2.1
		l-0.8,0.9c-0.2,0.2-0.3,0.6-0.1,0.9c0.6,1,1.1,2.1,1.3,3.2c0.1,0.3,0.3,0.6,0.7,0.6h1.2v3H225c-0.3,0-0.6,0.2-0.7,0.6
		c-0.2,1.2-0.7,2.3-1.3,3.3c-0.2,0.3-0.1,0.6,0.1,0.9l0.8,0.9l-2.1,2.2l-0.8-0.9c-0.2-0.2-0.6-0.3-0.9-0.1c-0.9,0.6-2,1.1-3.1,1.3
		c-0.3,0.1-0.5,0.4-0.5,0.7V40h-2.9v-1.3c0-0.3-0.2-0.6-0.5-0.7C212.1,37.7,211,37.2,210.1,36.6L210.1,36.6z"/>
	<path class="st1" d="M220.8,28.4c-0.1-3.1-2.7-5.6-5.8-5.5s-5.6,2.7-5.5,5.8c0.1,3,2.6,5.5,5.6,5.5
		C218.4,34.2,220.9,31.5,220.8,28.4z M210.9,28.4c0.1-2.4,2.1-4.2,4.4-4.1c2.4,0.1,4.2,2.1,4.1,4.4c-0.1,2.3-2,4.1-4.3,4.1
		C212.8,32.7,210.9,30.8,210.9,28.4z"/>
	<path class="st1" d="M221.4,12.9c0.2,0,0.4-0.1,0.5-0.2c0.3-0.3,0.3-0.7,0-1c-0.1-0.1-0.3-0.2-0.5-0.2s-0.4,0.1-0.5,0.2
		c-0.3,0.3-0.3,0.7,0,1l0,0C221.1,12.8,221.3,12.9,221.4,12.9z"/>
	<path class="st1" d="M208.9,43.8c-0.2,0-0.4,0.1-0.5,0.2c-0.3,0.3-0.3,0.7,0,1c0.2,0.3,0.7,0.3,0.9,0l0,0c0.3-0.3,0.3-0.7,0-1
		C209.3,43.9,209.1,43.8,208.9,43.8z"/>
</g>
<g>
	<path class="st1" d="M153.9,12.5h0.1l3.5,3.6c0.1,0.1,0.1,0.2,0,0.3l-3.5,3.5c-0.1,0.1-0.1,0.1-0.2,0l0,0l-3.5-3.5
		c-0.1-0.1-0.1-0.2,0-0.3l0,0l3.5-3.5C153.8,12.5,153.9,12.5,153.9,12.5z M157.2,16.2l-3.3-3.3l-3.3,3.3l3.3,3.3L157.2,16.2z"/>
	<path class="st1" d="M169.4,19.4h0.1L173,23c0.1,0.1,0.1,0.2,0,0.3l-3.5,3.5c-0.1,0.1-0.1,0.1-0.2,0l0,0l-3.5-3.5v-0.1v-0.1
		l3.5-3.5C169.2,19.4,169.3,19.4,169.4,19.4z M172.6,23.1l-3.3-3.3l-3.3,3.3l3.3,3.3L172.6,23.1z"/>
	<path class="st1" d="M156.9,24.6c0.9,0,1.6,0.7,1.6,1.6s-0.7,1.6-1.6,1.6c-0.9,0-1.6-0.7-1.6-1.6l0,0
		C155.3,25.4,156,24.6,156.9,24.6z M156.9,27.5c0.7,0,1.3-0.6,1.3-1.2c0-0.7-0.6-1.3-1.2-1.3c-0.7,0-1.3,0.6-1.3,1.2l0,0
		C155.6,26.9,156.1,27.5,156.9,27.5C156.8,27.6,156.8,27.6,156.9,27.5L156.9,27.5z"/>
</g>
</svg>
