<svg xmlns="http://www.w3.org/2000/svg" viewBox="0 0 922.94 1628.58"><defs><style>.a{fill:#a7a9ac;}</style></defs><path class="a" d="M949.92,57.27a26,26,0,1,0,26-26A26,26,0,0,0,949.92,57.27Z" transform="translate(-79.06 -31.23)"/><path class="a" d="M804.77,57.27a26,26,0,1,0,26.05-26A26,26,0,0,0,804.77,57.27Z" transform="translate(-79.06 -31.23)"/><path class="a" d="M659.63,57.27a26,26,0,1,0,26-26A26,26,0,0,0,659.63,57.27Z" transform="translate(-79.06 -31.23)"/><path class="a" d="M514.49,57.27a26,26,0,1,0,26-26A26,26,0,0,0,514.49,57.27Z" transform="translate(-79.06 -31.23)"/><path class="a" d="M369.34,57.27a26,26,0,1,0,26.05-26A26,26,0,0,0,369.34,57.27Z" transform="translate(-79.06 -31.23)"/><path class="a" d="M224.2,57.27a26,26,0,1,0,26-26A26,26,0,0,0,224.2,57.27Z" transform="translate(-79.06 -31.23)"/><path class="a" d="M79.06,57.27a26,26,0,1,0,26-26A26,26,0,0,0,79.06,57.27Z" transform="translate(-79.06 -31.23)"/><path class="a" d="M949.92,232.43a26,26,0,1,0,26-26A26,26,0,0,0,949.92,232.43Z" transform="translate(-79.06 -31.23)"/><path class="a" d="M804.77,232.43a26,26,0,1,0,26.05-26A26,26,0,0,0,804.77,232.43Z" transform="translate(-79.06 -31.23)"/><path class="a" d="M659.63,232.43a26,26,0,1,0,26-26A26,26,0,0,0,659.63,232.43Z" transform="translate(-79.06 -31.23)"/><path class="a" d="M514.49,232.43a26,26,0,1,0,26-26A26,26,0,0,0,514.49,232.43Z" transform="translate(-79.06 -31.23)"/><path class="a" d="M369.34,232.43a26,26,0,1,0,26.05-26A26,26,0,0,0,369.34,232.43Z" transform="translate(-79.06 -31.23)"/><path class="a" d="M224.2,232.43a26,26,0,1,0,26-26A26,26,0,0,0,224.2,232.43Z" transform="translate(-79.06 -31.23)"/><path class="a" d="M79.06,232.43a26,26,0,1,0,26-26A26,26,0,0,0,79.06,232.43Z" transform="translate(-79.06 -31.23)"/><path class="a" d="M949.92,407.6a26,26,0,1,0,26-26A26,26,0,0,0,949.92,407.6Z" transform="translate(-79.06 -31.23)"/><path class="a" d="M804.77,407.6a26,26,0,1,0,26.05-26A26,26,0,0,0,804.77,407.6Z" transform="translate(-79.06 -31.23)"/><path class="a" d="M659.63,407.6a26,26,0,1,0,26-26A26,26,0,0,0,659.63,407.6Z" transform="translate(-79.06 -31.23)"/><path class="a" d="M514.49,407.6a26,26,0,1,0,26-26A26,26,0,0,0,514.49,407.6Z" transform="translate(-79.06 -31.23)"/><path class="a" d="M369.34,407.6a26,26,0,1,0,26.05-26A26,26,0,0,0,369.34,407.6Z" transform="translate(-79.06 -31.23)"/><path class="a" d="M224.2,407.6a26,26,0,1,0,26-26A26,26,0,0,0,224.2,407.6Z" transform="translate(-79.06 -31.23)"/><path class="a" d="M79.06,407.6a26,26,0,1,0,26-26A26,26,0,0,0,79.06,407.6Z" transform="translate(-79.06 -31.23)"/><path class="a" d="M949.92,582.77a26,26,0,1,0,26-26A26,26,0,0,0,949.92,582.77Z" transform="translate(-79.06 -31.23)"/><path class="a" d="M804.77,582.77a26,26,0,1,0,26.05-26A26,26,0,0,0,804.77,582.77Z" transform="translate(-79.06 -31.23)"/><path class="a" d="M659.63,582.77a26,26,0,1,0,26-26A26,26,0,0,0,659.63,582.77Z" transform="translate(-79.06 -31.23)"/><path class="a" d="M514.49,582.77a26,26,0,1,0,26-26A26,26,0,0,0,514.49,582.77Z" transform="translate(-79.06 -31.23)"/><path class="a" d="M369.34,582.77a26,26,0,1,0,26.05-26A26,26,0,0,0,369.34,582.77Z" transform="translate(-79.06 -31.23)"/><path class="a" d="M224.2,582.77a26,26,0,1,0,26-26A26,26,0,0,0,224.2,582.77Z" transform="translate(-79.06 -31.23)"/><path class="a" d="M79.06,582.77a26,26,0,1,0,26-26A26,26,0,0,0,79.06,582.77Z" transform="translate(-79.06 -31.23)"/><path class="a" d="M949.92,757.93a26,26,0,1,0,26-26A26,26,0,0,0,949.92,757.93Z" transform="translate(-79.06 -31.23)"/><path class="a" d="M804.77,757.93a26,26,0,1,0,26.05-26A26,26,0,0,0,804.77,757.93Z" transform="translate(-79.06 -31.23)"/><path class="a" d="M659.63,757.93a26,26,0,1,0,26-26A26,26,0,0,0,659.63,757.93Z" transform="translate(-79.06 -31.23)"/><path class="a" d="M514.49,757.93a26,26,0,1,0,26-26A26,26,0,0,0,514.49,757.93Z" transform="translate(-79.06 -31.23)"/><path class="a" d="M369.34,757.93a26,26,0,1,0,26.05-26A26,26,0,0,0,369.34,757.93Z" transform="translate(-79.06 -31.23)"/><path class="a" d="M224.2,757.93a26,26,0,1,0,26-26A26,26,0,0,0,224.2,757.93Z" transform="translate(-79.06 -31.23)"/><path class="a" d="M79.06,757.93a26,26,0,1,0,26-26A26,26,0,0,0,79.06,757.93Z" transform="translate(-79.06 -31.23)"/><path class="a" d="M949.92,933.1a26,26,0,1,0,26-26A26,26,0,0,0,949.92,933.1Z" transform="translate(-79.06 -31.23)"/><path class="a" d="M804.77,933.1a26,26,0,1,0,26.05-26A26,26,0,0,0,804.77,933.1Z" transform="translate(-79.06 -31.23)"/><path class="a" d="M659.63,933.1a26,26,0,1,0,26-26A26,26,0,0,0,659.63,933.1Z" transform="translate(-79.06 -31.23)"/><path class="a" d="M514.49,933.1a26,26,0,1,0,26-26A26,26,0,0,0,514.49,933.1Z" transform="translate(-79.06 -31.23)"/><path class="a" d="M369.34,933.1a26,26,0,1,0,26.05-26A26,26,0,0,0,369.34,933.1Z" transform="translate(-79.06 -31.23)"/><path class="a" d="M224.2,933.1a26,26,0,1,0,26-26A26,26,0,0,0,224.2,933.1Z" transform="translate(-79.06 -31.23)"/><path class="a" d="M79.06,933.1a26,26,0,1,0,26-26A26,26,0,0,0,79.06,933.1Z" transform="translate(-79.06 -31.23)"/><path class="a" d="M949.92,1108.26a26,26,0,1,0,26-26A26,26,0,0,0,949.92,1108.26Z" transform="translate(-79.06 -31.23)"/><path class="a" d="M804.77,1108.26a26,26,0,1,0,26.05-26A26,26,0,0,0,804.77,1108.26Z" transform="translate(-79.06 -31.23)"/><path class="a" d="M659.63,1108.26a26,26,0,1,0,26-26A26,26,0,0,0,659.63,1108.26Z" transform="translate(-79.06 -31.23)"/><path class="a" d="M514.49,1108.26a26,26,0,1,0,26-26A26,26,0,0,0,514.49,1108.26Z" transform="translate(-79.06 -31.23)"/><path class="a" d="M369.34,1108.26a26,26,0,1,0,26.05-26A26,26,0,0,0,369.34,1108.26Z" transform="translate(-79.06 -31.23)"/><path class="a" d="M224.2,1108.26a26,26,0,1,0,26-26A26,26,0,0,0,224.2,1108.26Z" transform="translate(-79.06 -31.23)"/><path class="a" d="M79.06,1108.26a26,26,0,1,0,26-26A26,26,0,0,0,79.06,1108.26Z" transform="translate(-79.06 -31.23)"/><path class="a" d="M949.92,1283.43a26,26,0,1,0,26-26A26,26,0,0,0,949.92,1283.43Z" transform="translate(-79.06 -31.23)"/><path class="a" d="M804.77,1283.43a26,26,0,1,0,26.05-26A26,26,0,0,0,804.77,1283.43Z" transform="translate(-79.06 -31.23)"/><path class="a" d="M659.63,1283.43a26,26,0,1,0,26-26A26,26,0,0,0,659.63,1283.43Z" transform="translate(-79.06 -31.23)"/><path class="a" d="M514.49,1283.43a26,26,0,1,0,26-26A26,26,0,0,0,514.49,1283.43Z" transform="translate(-79.06 -31.23)"/><path class="a" d="M369.34,1283.43a26,26,0,1,0,26.05-26A26,26,0,0,0,369.34,1283.43Z" transform="translate(-79.06 -31.23)"/><path class="a" d="M224.2,1283.43a26,26,0,1,0,26-26A26,26,0,0,0,224.2,1283.43Z" transform="translate(-79.06 -31.23)"/><path class="a" d="M79.06,1283.43a26,26,0,1,0,26-26A26,26,0,0,0,79.06,1283.43Z" transform="translate(-79.06 -31.23)"/><path class="a" d="M949.92,1458.6a26,26,0,1,0,26-26A26,26,0,0,0,949.92,1458.6Z" transform="translate(-79.06 -31.23)"/><path class="a" d="M804.77,1458.6a26,26,0,1,0,26.05-26A26,26,0,0,0,804.77,1458.6Z" transform="translate(-79.06 -31.23)"/><path class="a" d="M659.63,1458.6a26,26,0,1,0,26-26A26,26,0,0,0,659.63,1458.6Z" transform="translate(-79.06 -31.23)"/><path class="a" d="M514.49,1458.6a26,26,0,1,0,26-26A26,26,0,0,0,514.49,1458.6Z" transform="translate(-79.06 -31.23)"/><path class="a" d="M369.34,1458.6a26,26,0,1,0,26.05-26A26,26,0,0,0,369.34,1458.6Z" transform="translate(-79.06 -31.23)"/><path class="a" d="M224.2,1458.6a26,26,0,1,0,26-26A26,26,0,0,0,224.2,1458.6Z" transform="translate(-79.06 -31.23)"/><path class="a" d="M79.06,1458.6a26,26,0,1,0,26-26A26,26,0,0,0,79.06,1458.6Z" transform="translate(-79.06 -31.23)"/><path class="a" d="M949.92,1633.76a26,26,0,1,0,26-26A26,26,0,0,0,949.92,1633.76Z" transform="translate(-79.06 -31.23)"/><path class="a" d="M804.77,1633.76a26,26,0,1,0,26.05-26A26,26,0,0,0,804.77,1633.76Z" transform="translate(-79.06 -31.23)"/><path class="a" d="M659.63,1633.76a26,26,0,1,0,26-26A26,26,0,0,0,659.63,1633.76Z" transform="translate(-79.06 -31.23)"/><path class="a" d="M514.49,1633.76a26,26,0,1,0,26-26A26,26,0,0,0,514.49,1633.76Z" transform="translate(-79.06 -31.23)"/><path class="a" d="M369.34,1633.76a26,26,0,1,0,26.05-26A26,26,0,0,0,369.34,1633.76Z" transform="translate(-79.06 -31.23)"/><path class="a" d="M224.2,1633.76a26,26,0,1,0,26-26A26,26,0,0,0,224.2,1633.76Z" transform="translate(-79.06 -31.23)"/><path class="a" d="M79.06,1633.76a26,26,0,1,0,26-26A26,26,0,0,0,79.06,1633.76Z" transform="translate(-79.06 -31.23)"/></svg>