<svg xmlns="http://www.w3.org/2000/svg" viewBox="0 0 800.67 799.39"><defs><style>.a{fill:#00347f;}.b{fill:#070707;opacity:0.11;}.c{fill:#fff;}</style></defs><ellipse class="a" cx="399.94" cy="399.69" rx="399.94" ry="399.69"/><path class="b" d="M800,369.41,529.09,112.23,357.78,305.69l9,8.95L260,400.19l91.2,69.86-9.21,9.2L417.78,555,318.17,688.47,438.54,798.15c32.09-3.41,156.83-20.46,255.77-127.94C808.41,546.27,801.66,396.06,800,369.41Z" transform="translate(0)"/><path class="c" d="M318.17,223.84v79.33H260v97h58.16V688.47H437.64V400.19h80.17s7.51-46.53,11.15-97.38H438.1V236.47c0-9.91,13-23.24,25.9-23.24h65.09v-101h-88.5C315.21,112.22,318.17,209.33,318.17,223.84Z" transform="translate(0)"/></svg>