<?xml version="1.0" encoding="utf-8"?>
<!-- Generator: Adobe Illustrator 25.0.1, SVG Export Plug-In . SVG Version: 6.00 Build 0)  -->
<svg version="1.1" id="Layer_1" xmlns="http://www.w3.org/2000/svg" xmlns:xlink="http://www.w3.org/1999/xlink" x="0px" y="0px"
	 viewBox="0 0 260.8 70" style="enable-background:new 0 0 260.8 70;" xml:space="preserve">
<style type="text/css">
	.st0{fill:#3A5A98;}
	.st1{fill:#345387;}
	.st2{fill:#2E4D72;}
	.st3{fill:#FFFFFF;}
	.st4{fill:#F9EC31;}
	.st5{enable-background:new    ;}
	.st6{fill:#404041;}
	.st7{fill:#E6E7E8;}
</style>
<ellipse class="st0" cx="35" cy="35" rx="35" ry="35"/>
<path class="st1" d="M59.8,10.3c13.3,14,12.7,36.2-1.3,49.5c-13.5,12.8-34.7,12.8-48.2,0L59.8,10.3z"/>
<path class="st2" d="M69.8,38.9L44.5,13.6L31.3,26.8l0.8,0.8L24.6,35l6.1,6.1l-0.8,0.8l6.6,6.6l-7.7,7.7l13.1,13
	C56.8,66.2,68,54,69.8,38.9z"/>
<path class="st3" d="M28.9,22v5.9h-4.3V35h4.3v21.3h8.8V35h5.9c0,0,0.5-3.4,0.8-7.2h-6.7v-4.9c0.2-0.9,1-1.6,1.9-1.7h4.8v-7.5h-6.5
	C28.7,13.7,28.9,20.9,28.9,22z"/>
<polygon class="st4" points="99.1,7.5 103.1,15.7 112.1,17 105.6,23.3 107.2,32.3 99.1,28.1 91,32.3 92.6,23.3 86.1,17 95.1,15.7 
	"/>
<polygon class="st4" points="136.3,7.5 140.3,15.7 149.3,17 142.8,23.3 144.3,32.3 136.3,28.1 128.2,32.3 129.7,23.3 123.2,17 
	132.2,15.7 "/>
<polygon class="st4" points="173.4,7.5 177.4,15.7 186.5,17 179.9,23.3 181.5,32.3 173.4,28.1 165.4,32.3 166.9,23.3 160.4,17 
	169.4,15.7 "/>
<polygon class="st4" points="210.6,7.5 214.6,15.7 223.6,17 217.1,23.3 218.6,32.3 210.6,28.1 202.5,32.3 204.1,23.3 197.5,17 
	206.6,15.7 "/>
<g class="st5">
	<path class="st6" d="M86.7,52.2v-1.5l4.6-6.6h2.3v6.4h1.2v1.7h-1.2v2h-2v-2H86.7z M91.7,46.2l-2.9,4.3h2.9V46.2z"/>
	<path class="st6" d="M96.3,54c-0.2-0.2-0.3-0.5-0.3-0.8c0-0.3,0.1-0.6,0.3-0.8c0.2-0.2,0.5-0.3,0.9-0.3c0.3,0,0.6,0.1,0.9,0.3
		c0.2,0.2,0.3,0.5,0.3,0.8c0,0.3-0.1,0.6-0.3,0.8c-0.2,0.2-0.5,0.3-0.9,0.3C96.8,54.3,96.5,54.2,96.3,54z"/>
	<path class="st6" d="M99.6,52.2v-1.5l4.6-6.6h2.3v6.4h1.2v1.7h-1.2v2h-2v-2H99.6z M104.6,46.2l-2.9,4.3h2.9V46.2z"/>
	<path class="st6" d="M118.5,44.4V46h-4.1v2.5h3.1v1.6h-3.1v4.1h-2v-9.8H118.5z"/>
	<path class="st6" d="M119.9,48.2c0.3-0.6,0.7-1.1,1.3-1.4c0.5-0.3,1.1-0.5,1.8-0.5c0.6,0,1.1,0.1,1.5,0.3s0.8,0.5,1,0.9v-1.1h2v7.8
		h-2v-1.1c-0.3,0.4-0.6,0.7-1,0.9c-0.4,0.2-1,0.4-1.5,0.4c-0.7,0-1.2-0.2-1.8-0.5c-0.5-0.3-1-0.8-1.3-1.4c-0.3-0.6-0.5-1.3-0.5-2.1
		C119.4,49.5,119.6,48.8,119.9,48.2z M125.2,49.1c-0.2-0.3-0.4-0.6-0.8-0.8c-0.3-0.2-0.7-0.3-1-0.3c-0.4,0-0.7,0.1-1,0.3
		c-0.3,0.2-0.6,0.4-0.7,0.8s-0.3,0.7-0.3,1.2s0.1,0.9,0.3,1.2c0.2,0.3,0.4,0.6,0.8,0.8c0.3,0.2,0.6,0.3,1,0.3c0.4,0,0.7-0.1,1-0.3
		c0.3-0.2,0.6-0.4,0.8-0.8c0.2-0.3,0.3-0.7,0.3-1.2S125.4,49.4,125.2,49.1z"/>
	<path class="st6" d="M129.4,48.2c0.3-0.6,0.8-1.1,1.4-1.4c0.6-0.3,1.2-0.5,2-0.5c1,0,1.8,0.2,2.4,0.7s1.1,1.2,1.3,2h-2.1
		c-0.1-0.3-0.3-0.6-0.6-0.8c-0.3-0.2-0.6-0.3-1-0.3c-0.6,0-1,0.2-1.3,0.6c-0.3,0.4-0.5,1-0.5,1.7c0,0.7,0.2,1.3,0.5,1.7
		s0.8,0.6,1.3,0.6c0.8,0,1.3-0.4,1.6-1.1h2.1c-0.2,0.8-0.6,1.5-1.3,2c-0.6,0.5-1.4,0.7-2.4,0.7c-0.7,0-1.4-0.2-2-0.5
		c-0.6-0.3-1-0.8-1.4-1.4c-0.3-0.6-0.5-1.3-0.5-2.1S129.1,48.8,129.4,48.2z"/>
	<path class="st6" d="M145,50.9h-5.7c0,0.6,0.2,1,0.6,1.3s0.8,0.5,1.3,0.5c0.7,0,1.2-0.3,1.6-0.9h2.1c-0.2,0.7-0.7,1.4-1.3,1.8
		s-1.4,0.7-2.3,0.7c-0.7,0-1.4-0.2-2-0.5c-0.6-0.3-1.1-0.8-1.4-1.4c-0.3-0.6-0.5-1.3-0.5-2.1c0-0.8,0.2-1.5,0.5-2.1
		c0.3-0.6,0.8-1.1,1.4-1.4c0.6-0.3,1.3-0.5,2-0.5c0.7,0,1.4,0.2,2,0.5s1,0.8,1.4,1.4c0.3,0.6,0.5,1.3,0.5,2
		C145,50.4,145,50.7,145,50.9z M143,49.6c0-0.5-0.2-0.9-0.5-1.2c-0.4-0.3-0.8-0.5-1.3-0.5c-0.5,0-0.9,0.1-1.2,0.4s-0.5,0.7-0.6,1.2
		H143z"/>
	<path class="st6" d="M149.5,46.7c0.4-0.2,0.9-0.3,1.5-0.3c0.7,0,1.3,0.2,1.8,0.5c0.5,0.3,1,0.8,1.3,1.4c0.3,0.6,0.5,1.3,0.5,2.1
		c0,0.8-0.2,1.5-0.5,2.1c-0.3,0.6-0.7,1.1-1.3,1.4s-1.1,0.5-1.8,0.5c-0.6,0-1.1-0.1-1.5-0.3c-0.4-0.2-0.8-0.5-1-0.9v1.1h-2V43.8h2
		v3.7C148.7,47.2,149,46.9,149.5,46.7z M152.2,49.1c-0.2-0.3-0.4-0.6-0.8-0.8c-0.3-0.2-0.7-0.3-1-0.3c-0.4,0-0.7,0.1-1,0.3
		c-0.3,0.2-0.6,0.4-0.8,0.8c-0.2,0.3-0.3,0.8-0.3,1.2s0.1,0.9,0.3,1.2c0.2,0.3,0.4,0.6,0.8,0.8c0.3,0.2,0.6,0.3,1,0.3
		c0.4,0,0.7-0.1,1-0.3s0.6-0.5,0.8-0.8s0.3-0.8,0.3-1.2C152.5,49.8,152.4,49.4,152.2,49.1z"/>
	<path class="st6" d="M157.4,53.8c-0.6-0.3-1.1-0.8-1.4-1.4c-0.3-0.6-0.5-1.3-0.5-2.1s0.2-1.5,0.5-2.1c0.4-0.6,0.8-1.1,1.4-1.4
		c0.6-0.3,1.3-0.5,2-0.5c0.7,0,1.4,0.2,2,0.5s1.1,0.8,1.4,1.4c0.3,0.6,0.5,1.3,0.5,2.1s-0.2,1.5-0.5,2.1c-0.4,0.6-0.8,1.1-1.5,1.4
		s-1.3,0.5-2.1,0.5C158.7,54.3,158,54.2,157.4,53.8z M160.4,52.4c0.3-0.2,0.6-0.4,0.7-0.8c0.2-0.3,0.3-0.8,0.3-1.3
		c0-0.7-0.2-1.3-0.6-1.7c-0.4-0.4-0.9-0.6-1.4-0.6c-0.6,0-1,0.2-1.4,0.6s-0.6,1-0.6,1.7s0.2,1.3,0.6,1.7c0.4,0.4,0.8,0.6,1.4,0.6
		C159.8,52.6,160.1,52.5,160.4,52.4z"/>
	<path class="st6" d="M166.3,53.8c-0.6-0.3-1.1-0.8-1.4-1.4c-0.3-0.6-0.5-1.3-0.5-2.1s0.2-1.5,0.5-2.1c0.4-0.6,0.8-1.1,1.4-1.4
		c0.6-0.3,1.3-0.5,2-0.5c0.7,0,1.4,0.2,2,0.5s1.1,0.8,1.4,1.4c0.3,0.6,0.5,1.3,0.5,2.1s-0.2,1.5-0.5,2.1c-0.4,0.6-0.8,1.1-1.5,1.4
		s-1.3,0.5-2.1,0.5C167.6,54.3,166.9,54.2,166.3,53.8z M169.3,52.4c0.3-0.2,0.6-0.4,0.7-0.8c0.2-0.3,0.3-0.8,0.3-1.3
		c0-0.7-0.2-1.3-0.6-1.7c-0.4-0.4-0.9-0.6-1.4-0.6c-0.6,0-1,0.2-1.4,0.6s-0.6,1-0.6,1.7s0.2,1.3,0.6,1.7c0.4,0.4,0.8,0.6,1.4,0.6
		C168.7,52.6,169,52.5,169.3,52.4z"/>
	<path class="st6" d="M178.4,54.2l-2.6-3.3v3.3h-2V43.8h2v5.9l2.6-3.3h2.5l-3.4,3.9l3.4,3.9H178.4z"/>
	<path class="st6" d="M190.4,54.2l-2.2-3.8h-0.9v3.8h-2v-9.8h3.7c0.8,0,1.4,0.1,1.9,0.4c0.5,0.3,0.9,0.6,1.2,1.1s0.4,1,0.4,1.5
		c0,0.6-0.2,1.2-0.6,1.7c-0.4,0.5-0.9,0.9-1.7,1.1l2.3,4H190.4z M187.3,48.9h1.6c0.5,0,0.9-0.1,1.2-0.4c0.3-0.3,0.4-0.6,0.4-1.1
		c0-0.4-0.1-0.8-0.4-1c-0.3-0.2-0.7-0.4-1.2-0.4h-1.6V48.9z"/>
	<path class="st6" d="M194.3,48.2c0.3-0.6,0.7-1.1,1.3-1.4c0.5-0.3,1.1-0.5,1.8-0.5c0.6,0,1.1,0.1,1.5,0.3c0.4,0.2,0.8,0.5,1,0.9
		v-1.1h2v7.8h-2v-1.1c-0.3,0.4-0.6,0.7-1,0.9c-0.4,0.2-1,0.4-1.5,0.4c-0.7,0-1.2-0.2-1.8-0.5c-0.5-0.3-1-0.8-1.3-1.4
		s-0.5-1.3-0.5-2.1C193.8,49.5,194,48.8,194.3,48.2z M199.6,49.1c-0.2-0.3-0.4-0.6-0.8-0.8c-0.3-0.2-0.7-0.3-1-0.3s-0.7,0.1-1,0.3
		c-0.3,0.2-0.6,0.4-0.7,0.8s-0.3,0.7-0.3,1.2s0.1,0.9,0.3,1.2c0.2,0.3,0.4,0.6,0.8,0.8s0.6,0.3,1,0.3c0.4,0,0.7-0.1,1-0.3
		c0.3-0.2,0.6-0.4,0.8-0.8c0.2-0.3,0.3-0.7,0.3-1.2S199.8,49.4,199.6,49.1z"/>
	<path class="st6" d="M206.1,48.1v3.8c0,0.3,0.1,0.5,0.2,0.6c0.1,0.1,0.3,0.2,0.6,0.2h0.9v1.7h-1.2c-1.7,0-2.5-0.8-2.5-2.4v-3.7
		h-0.9v-1.6h0.9v-1.9h2v1.9h1.7v1.6H206.1z"/>
	<path class="st6" d="M209.4,45.2c-0.2-0.2-0.3-0.5-0.3-0.8c0-0.3,0.1-0.6,0.3-0.8c0.2-0.2,0.5-0.3,0.9-0.3c0.3,0,0.6,0.1,0.9,0.3
		c0.2,0.2,0.3,0.5,0.3,0.8c0,0.3-0.1,0.6-0.3,0.8c-0.2,0.2-0.5,0.3-0.9,0.3C209.9,45.5,209.6,45.4,209.4,45.2z M211.2,46.4v7.8h-2
		v-7.8H211.2z"/>
	<path class="st6" d="M219.7,47.2c0.6,0.6,0.9,1.4,0.9,2.4v4.5h-2v-4.3c0-0.6-0.2-1.1-0.5-1.4c-0.3-0.3-0.7-0.5-1.3-0.5
		c-0.5,0-1,0.2-1.3,0.5c-0.3,0.3-0.5,0.8-0.5,1.4v4.3h-2v-7.8h2v1c0.3-0.3,0.6-0.6,1-0.8c0.4-0.2,0.9-0.3,1.3-0.3
		C218.3,46.3,219.1,46.6,219.7,47.2z"/>
	<path class="st6" d="M226.9,46.7c0.4,0.2,0.8,0.5,1,0.9v-1.1h2v7.8c0,0.7-0.1,1.4-0.4,1.9c-0.3,0.6-0.7,1-1.3,1.3
		c-0.6,0.3-1.3,0.5-2.1,0.5c-1.1,0-2-0.3-2.7-0.8c-0.7-0.5-1.1-1.2-1.2-2.1h1.9c0.1,0.4,0.3,0.6,0.7,0.8s0.8,0.3,1.2,0.3
		c0.6,0,1-0.2,1.4-0.5s0.5-0.9,0.5-1.5v-1.2c-0.3,0.4-0.6,0.7-1,0.9c-0.4,0.2-1,0.4-1.5,0.4c-0.7,0-1.3-0.2-1.8-0.5
		c-0.5-0.3-1-0.8-1.3-1.4c-0.3-0.6-0.5-1.3-0.5-2.1c0-0.8,0.2-1.5,0.5-2.1c0.3-0.6,0.7-1.1,1.3-1.4c0.5-0.3,1.1-0.5,1.8-0.5
		C226,46.3,226.5,46.4,226.9,46.7z M227.7,49.1c-0.2-0.3-0.4-0.6-0.8-0.8c-0.3-0.2-0.7-0.3-1-0.3c-0.4,0-0.7,0.1-1,0.3
		c-0.3,0.2-0.6,0.4-0.7,0.8s-0.3,0.7-0.3,1.2s0.1,0.9,0.3,1.2c0.2,0.3,0.4,0.6,0.8,0.8c0.3,0.2,0.6,0.3,1,0.3c0.4,0,0.7-0.1,1-0.3
		c0.3-0.2,0.6-0.4,0.8-0.8c0.2-0.3,0.3-0.7,0.3-1.2S227.9,49.4,227.7,49.1z"/>
	<path class="st6" d="M233.1,54c-0.5-0.2-0.9-0.5-1.2-0.9c-0.3-0.4-0.5-0.8-0.5-1.3h2c0,0.3,0.2,0.5,0.4,0.7s0.6,0.3,1,0.3
		c0.4,0,0.7-0.1,0.9-0.2s0.3-0.3,0.3-0.6c0-0.3-0.1-0.4-0.4-0.6s-0.7-0.3-1.2-0.4c-0.6-0.1-1.1-0.3-1.4-0.4c-0.4-0.1-0.7-0.4-1-0.7
		c-0.3-0.3-0.4-0.7-0.4-1.2c0-0.4,0.1-0.8,0.4-1.2c0.2-0.4,0.6-0.6,1.1-0.8c0.5-0.2,1-0.3,1.6-0.3c0.9,0,1.7,0.2,2.2,0.7
		c0.6,0.5,0.9,1.1,0.9,1.9h-1.9c0-0.3-0.2-0.6-0.4-0.7c-0.2-0.2-0.5-0.3-0.9-0.3c-0.4,0-0.6,0.1-0.8,0.2s-0.3,0.3-0.3,0.5
		c0,0.3,0.1,0.5,0.4,0.6c0.3,0.1,0.7,0.3,1.2,0.4c0.6,0.1,1,0.3,1.4,0.4s0.7,0.4,0.9,0.7c0.3,0.3,0.4,0.7,0.4,1.2
		c0,0.4-0.1,0.8-0.4,1.2c-0.2,0.4-0.6,0.6-1.1,0.8c-0.5,0.2-1,0.3-1.6,0.3C234.2,54.3,233.6,54.2,233.1,54z"/>
</g>
<polygon class="st4" points="243.7,15.7 234.7,17 241.2,23.3 239.7,32.3 246.8,28.6 246.8,9.4 "/>
<polygon class="st7" points="255.8,32.3 254.3,23.3 260.8,17 251.8,15.7 247.8,7.5 246.8,9.4 246.8,28.6 247.8,28.1 "/>
</svg>
