<svg id="Layer_1" data-name="Layer 1" xmlns="http://www.w3.org/2000/svg" viewBox="0 0 800 800"><defs><style>.cls-1{fill:#3a5a98;}.cls-2{fill:#345387;}.cls-3{fill:#2e4d72;}.cls-4{fill:#fff;}</style></defs><ellipse class="cls-1" cx="399.94" cy="399.69" rx="399.94" ry="399.69"/><path class="cls-2" d="M682.86,117.66c156.18,156.09,156.19,409.17,0,565.27s-409.43,156.09-565.62,0Z" transform="translate(0 0)"/><path class="cls-3" d="M797.29,444.71,508,155.58,357.78,305.69l9,8.95L281.21,400.1l70,69.95-9.21,9.2L417.78,555,330.42,642.3,479.66,791.45C648,757.41,777.87,617.77,797.29,444.71Z" transform="translate(0 0)"/><path class="cls-4" d="M330,251.21v67H280.88v82H330V643.78H431V400.22h67.73s6.35-39.31,9.42-82.28H431.34V261.89c0-8.37,11-19.64,21.89-19.64h55V156.92H433.45C327.52,156.91,330,239,330,251.21Z" transform="translate(0 0)"/></svg>