<svg id="Layer_1" data-name="Layer 1" xmlns="http://www.w3.org/2000/svg" xmlns:xlink="http://www.w3.org/1999/xlink" viewBox="0 0 60 60"><defs><style>.cls-1{fill:url(#linear-gradient);}.cls-2{fill:#fff;}</style><linearGradient id="linear-gradient" x1="8.79" y1="560.79" x2="51.21" y2="603.21" gradientTransform="matrix(1, 0, 0, -1, 0, 612)" gradientUnits="userSpaceOnUse"><stop offset="0" stop-color="#e8212e"/><stop offset="1" stop-color="#e01f28"/></linearGradient></defs><circle class="cls-1" cx="30" cy="30" r="30"/><polygon class="cls-2" points="13.6 49.07 14.28 49.07 14.31 17.81 16.85 20.89 16.78 19.73 13.6 15.86 13.6 49.07"/><polygon class="cls-2" points="14.74 49.53 13.14 49.53 13.14 14.56 17.23 19.55 17.41 22.29 14.77 19.09 14.74 49.53"/><polygon class="cls-2" points="19.31 49.07 20.07 49.07 20.07 13.46 30 26.58 39.9 13.46 39.9 19.52 40.59 18.43 40.59 11.4 30 25.38 19.31 11.4 19.31 49.07"/><polygon class="cls-2" points="20.53 49.53 18.85 49.53 18.85 10.03 30 24.61 41.05 10.02 41.05 18.56 39.44 21.12 39.44 14.84 30 27.35 20.53 14.84 20.53 49.53"/><polygon class="cls-2" points="22.29 26.58 22.29 27.61 30 36.99 45.69 17.81 45.69 49.07 46.37 49.07 46.37 15.89 30 35.89 22.29 26.58"/><polygon class="cls-2" points="46.84 49.53 45.23 49.53 45.23 19.1 30 37.72 21.83 27.77 21.83 25.3 30 35.16 46.84 14.6 46.84 49.53"/><polygon class="cls-2" points="39.97 29.04 39.9 49.07 40.59 49.07 40.65 27.95 39.97 29.04"/><polygon class="cls-2" points="41.05 49.53 39.44 49.53 39.5 28.91 41.12 26.33 41.05 49.53"/></svg>