<?xml version="1.0" encoding="utf-8"?>
<!-- Generator: Adobe Illustrator 25.0.1, SVG Export Plug-In . SVG Version: 6.00 Build 0)  -->
<svg version="1.1" xmlns="http://www.w3.org/2000/svg" xmlns:xlink="http://www.w3.org/1999/xlink" x="0px" y="0px"
	 viewBox="0 0 256 256" style="enable-background:new 0 0 256 256;" xml:space="preserve">
<style type="text/css">
	.st0{fill:none;stroke:#000000;stroke-width:7;stroke-miterlimit:10;}
	.st1{fill:none;stroke:#000000;stroke-width:6;stroke-miterlimit:10;}
	.st2{fill:#020000;}
	.st3{fill:none;stroke:#020000;stroke-width:7;stroke-miterlimit:10;}
	.st4{fill:none;stroke:#020000;stroke-width:5;stroke-miterlimit:10;}
	.st5{fill:none;stroke:#000000;stroke-width:5;stroke-miterlimit:10;}
</style>
<g id="Layer_2">
</g>
<g id="Layer_1">
	<g>
		<path class="st0" d="M110.52,27.61h-50.4c-9.21,0-16.68,7.47-16.68,16.68v41.73c0,9.21,7.47,16.68,16.68,16.68l-6.23,19.11
			l21.79-19.11h24.25"/>
		<path class="st0" d="M134.69,41.55h64.39c9.21,0,16.68,7.47,16.68,16.68v41.73c0,9.21-7.47,16.68-16.68,16.68l6.23,19.11
			l-21.79-19.11h-48.83c-9.21,0-16.68-7.47-16.68-16.68V58.23C118.01,49.02,125.48,41.55,134.69,41.55z"/>
		<path class="st0" d="M185.34,129.99L185.34,129.99c-12.95,0-23.54,10.59-23.54,23.54v23.94c0,1.49,1.22,2.71,2.71,2.71h41.65
			c1.49,0,2.71-1.22,2.71-2.71v-23.94C208.88,140.58,198.29,129.99,185.34,129.99z"/>
		<path class="st0" d="M185.34,184.68L185.34,184.68c-20.53,0-37.33,16.8-37.33,37.33v6.21c0,2.37,1.94,4.3,4.3,4.3h66.05
			c2.37,0,4.3-1.94,4.3-4.3v-6.21C222.67,201.48,205.87,184.68,185.34,184.68z"/>
		<path class="st0" d="M70.66,183.61L70.66,183.61c-20.53,0-37.33,16.8-37.33,37.33v6.21c0,2.37,1.94,4.3,4.3,4.3h66.05
			c2.37,0,4.3-1.94,4.3-4.3v-6.21C107.99,200.4,91.19,183.61,70.66,183.61z"/>
		<polyline class="st0" points="56.28,183.61 73.27,203.5 89.58,184.68 		"/>
		<g>
			<path class="st0" d="M49.81,134.36v28.18c0,9.74,7.9,17.64,17.64,17.64h11.81c9.74,0,17.64-7.9,17.64-17.64v-10.72H67.27
				C57.63,151.83,49.81,144.01,49.81,134.36z"/>
			<path class="st0" d="M79.43,129.99H49.81v4.38c0,9.64,7.82,17.46,17.46,17.46h29.62v-4.38C96.89,137.8,89.08,129.99,79.43,129.99
				z"/>
		</g>
		<circle class="st2" cx="166.77" cy="63.16" r="4.13"/>
		<path class="st2" d="M182.49,65.54h32.37v-4.74h-32.37c-1.31,0-2.37,1.06-2.37,2.37v0C180.12,64.47,181.18,65.54,182.49,65.54z"/>
		<circle class="st2" cx="123.87" cy="27.61" r="4.13"/>
	</g>
</g>
</svg>
