<?xml version="1.0" encoding="utf-8"?>
<!-- Generator: Adobe Illustrator 25.0.1, SVG Export Plug-In . SVG Version: 6.00 Build 0)  -->
<svg version="1.1" xmlns="http://www.w3.org/2000/svg" xmlns:xlink="http://www.w3.org/1999/xlink" x="0px" y="0px"
	 viewBox="0 0 256 256" style="enable-background:new 0 0 256 256;" xml:space="preserve">
<style type="text/css">
	.st0{fill:none;stroke:#000000;stroke-width:7;stroke-miterlimit:10;}
	.st1{fill:none;stroke:#000000;stroke-width:6;stroke-miterlimit:10;}
	.st2{fill:#020000;}
	.st3{fill:none;stroke:#020000;stroke-width:7;stroke-miterlimit:10;}
	.st4{fill:none;stroke:#020000;stroke-width:5;stroke-miterlimit:10;}
	.st5{fill:none;stroke:#000000;stroke-width:5;stroke-miterlimit:10;}
</style>
<g id="Layer_2">
</g>
<g id="Layer_1">
	<g>
		<g>
			<circle class="st0" cx="75.4" cy="59.66" r="8.49"/>
			<path class="st0" d="M96.23,94.93c0,0.07,0,0.14,0,0.22H54.56c0-0.07,0-0.14,0-0.22c0-11.5,9.33-20.83,20.83-20.83
				C86.9,74.1,96.23,83.43,96.23,94.93z"/>
		</g>
		<line class="st0" x1="111.83" y1="82.51" x2="140.22" y2="82.51"/>
		<line class="st0" x1="111.83" y1="93.3" x2="144.28" y2="93.3"/>
		<line class="st0" x1="111.83" y1="115.14" x2="111.83" y2="214.18"/>
		<rect x="54.34" y="134.21" class="st1" width="43" height="19.7"/>
		<rect x="53.22" y="173.51" class="st1" width="43" height="19.7"/>
		<line class="st0" x1="153.6" y1="93.3" x2="160.51" y2="93.3"/>
		<path class="st0" d="M174.64,187.8v26.86c0,2.18-1.77,3.96-3.96,3.96H42.1V37.38h95.22V69.7h33.37c2.18,0,3.96,1.77,3.96,3.96
			v28.17"/>
		<path class="st0" d="M141.27,69.71h-3.95v-3.95C137.32,67.93,139.09,69.71,141.27,69.71z"/>
		<path class="st0" d="M174.65,214.66v3.96h-3.96C172.88,218.62,174.65,216.84,174.65,214.66z"/>
		<path class="st0" d="M174.65,67.38v2.32h-37.33V37.38h7.77c0.57,0,1.11,0.22,1.49,0.6l27.47,27.98
			C174.44,66.36,174.65,66.86,174.65,67.38z"/>
		<g>
			<path class="st0" d="M123.58,176.27l89.4,0.1c0.51,0,0.92-0.44,0.92-0.97v-57.24c0-0.74-0.76-1.21-1.37-0.85l-29.61,18.34
				c-0.66,0.39-1.46-0.18-1.36-0.98l2.05-16.99c0.11-0.85-0.8-1.42-1.45-0.91l-27.32,20.13c-0.61,0.47-1.46,0.01-1.46-0.78v-20.03
				c0-0.83-0.92-1.28-1.51-0.74l-26.51,23.45"/>
			<path d="M137.96,156.12c0,0.69,0.01,1.38,0,2.06c-0.02,3.43-1.2,4.68-4.44,4.71c-1.44,0.01-2.89,0.05-4.33-0.02
				c-2.34-0.11-3.62-1.45-3.69-3.87c-0.06-1.91-0.06-3.82,0-5.73c0.07-2.46,1.3-3.74,3.68-3.85c1.51-0.07,3.03-0.04,4.55-0.01
				c3.13,0.05,4.22,1.25,4.25,4.64C137.97,154.75,137.96,155.44,137.96,156.12z"/>
			<path d="M165.24,156.12c0,0.69,0.01,1.38,0,2.06c-0.02,3.43-1.2,4.68-4.44,4.71c-1.44,0.01-2.89,0.05-4.33-0.02
				c-2.34-0.11-3.62-1.45-3.69-3.87c-0.06-1.91-0.06-3.82,0-5.73c0.07-2.46,1.3-3.74,3.68-3.85c1.51-0.07,3.03-0.04,4.55-0.01
				c3.13,0.05,4.22,1.25,4.25,4.64C165.24,154.75,165.24,155.44,165.24,156.12z"/>
			<path d="M192.25,156.12c0,0.69,0.01,1.38,0,2.06c-0.02,3.43-1.2,4.68-4.44,4.71c-1.44,0.01-2.89,0.05-4.33-0.02
				c-2.34-0.11-3.62-1.45-3.69-3.87c-0.06-1.91-0.06-3.82,0-5.73c0.07-2.46,1.3-3.74,3.68-3.85c1.51-0.07,3.03-0.04,4.55-0.01
				c3.13,0.05,4.22,1.25,4.25,4.64C192.26,154.75,192.25,155.44,192.25,156.12z"/>
		</g>
	</g>
</g>
</svg>
