<?xml version="1.0" encoding="utf-8"?>
<!-- Generator: Adobe Illustrator 25.0.1, SVG Export Plug-In . SVG Version: 6.00 Build 0)  -->
<svg version="1.1" xmlns="http://www.w3.org/2000/svg" xmlns:xlink="http://www.w3.org/1999/xlink" x="0px" y="0px"
	 viewBox="0 0 256 256" style="enable-background:new 0 0 256 256;" xml:space="preserve">
<style type="text/css">
	.st0{fill:none;stroke:#000000;stroke-width:7;stroke-miterlimit:10;}
	.st1{fill:none;stroke:#000000;stroke-width:6;stroke-miterlimit:10;}
	.st2{fill:#020000;}
	.st3{fill:none;stroke:#020000;stroke-width:7;stroke-miterlimit:10;}
	.st4{fill:none;stroke:#020000;stroke-width:5;stroke-miterlimit:10;}
	.st5{fill:none;stroke:#000000;stroke-width:5;stroke-miterlimit:10;}
</style>
<g id="Layer_2">
</g>
<g id="Layer_1">
	<g>
		<g>
			<g>
				<circle class="st1" cx="115.32" cy="74.64" r="9.33"/>
				<path class="st1" d="M92.44,113.62c0-0.08,0-0.16,0-0.24c0-12.64,10.24-22.88,22.88-22.88c12.64,0,22.88,10.24,22.88,22.88
					c0,0.08,0,0.16,0,0.24"/>
			</g>
			<circle class="st1" cx="115.32" cy="89.47" r="33.78"/>
		</g>
		<path class="st0" d="M192.05,151.87v58.09c0,3.12-2.78,5.65-6.2,5.65H44.3c-3.42,0-6.2-2.53-6.2-5.65V46.04
			c0-3.12,2.78-5.65,6.2-5.65h141.55c3.42,0,6.2,2.53,6.2,5.65v44.11"/>
		<g>
			<path d="M149.57,148.61H71.09c-1.35,0-2.44-1.09-2.44-2.44l0,0c0-1.35,1.09-2.44,2.44-2.44h78.48c1.35,0,2.44,1.09,2.44,2.44l0,0
				C152.01,147.51,150.92,148.61,149.57,148.61z"/>
		</g>
		<g>
			<g>
				<path class="st1" d="M216.99,91.66l-43.94,76.1c-0.27,0.46-0.86,0.62-1.32,0.35l-10.04-5.8c-0.46-0.27-0.62-0.86-0.35-1.32
					l41.11-71.2l2.83-4.9c1.87-3.24,6-4.34,9.24-2.48v0C217.75,84.29,218.86,88.43,216.99,91.66z"/>
				<line class="st1" x1="200.94" y1="92.42" x2="212.9" y2="98.75"/>
			</g>
			<path class="st1" d="M172.63,167.76c0.1,0.17,0.07,0.4-0.11,0.52l-12.18,8.88c-0.28,0.2-0.66-0.02-0.63-0.36l1.44-15.09
				c0.01-0.14,0.1-0.26,0.21-0.31"/>
		</g>
		<path d="M58.28,148.61h-2.33c-1.35,0-2.44-1.09-2.44-2.44l0,0c0-1.35,1.09-2.44,2.44-2.44h2.33c1.35,0,2.44,1.09,2.44,2.44l0,0
			C60.72,147.51,59.63,148.61,58.28,148.61z"/>
		<g>
			<path d="M149.57,159.55H71.09c-1.35,0-2.44-1.09-2.44-2.44v0c0-1.35,1.09-2.44,2.44-2.44h78.48c1.35,0,2.44,1.09,2.44,2.44v0
				C152.01,158.46,150.92,159.55,149.57,159.55z"/>
		</g>
		<path d="M58.28,159.55h-2.33c-1.35,0-2.44-1.09-2.44-2.44v0c0-1.35,1.09-2.44,2.44-2.44h2.33c1.35,0,2.44,1.09,2.44,2.44v0
			C60.72,158.46,59.63,159.55,58.28,159.55z"/>
		<g>
			<path d="M149.57,170.49H71.09c-1.35,0-2.44-1.09-2.44-2.44l0,0c0-1.35,1.09-2.44,2.44-2.44h78.48c1.35,0,2.44,1.09,2.44,2.44l0,0
				C152.01,169.4,150.92,170.49,149.57,170.49z"/>
		</g>
		<path d="M58.28,170.49h-2.33c-1.35,0-2.44-1.09-2.44-2.44l0,0c0-1.35,1.09-2.44,2.44-2.44h2.33c1.35,0,2.44,1.09,2.44,2.44l0,0
			C60.72,169.4,59.63,170.49,58.28,170.49z"/>
		<g>
			<path d="M149.57,181.2h-20.05c-1.35,0-2.44-1.09-2.44-2.44v0c0-1.35,1.09-2.44,2.44-2.44h20.05c1.35,0,2.44,1.09,2.44,2.44v0
				C152.01,180.11,150.92,181.2,149.57,181.2z"/>
		</g>
	</g>
</g>
</svg>
