<?xml version="1.0" encoding="utf-8"?>
<!-- Generator: Adobe Illustrator 25.0.1, SVG Export Plug-In . SVG Version: 6.00 Build 0)  -->
<svg version="1.1" id="Capa_1" xmlns="http://www.w3.org/2000/svg" xmlns:xlink="http://www.w3.org/1999/xlink" x="0px" y="0px"
	 viewBox="0 0 512 512" style="enable-background:new 0 0 512 512;" xml:space="preserve">
<style type="text/css">
	.st0{opacity:0.1;fill:#3A3A3A;}
</style>
<circle class="st0" cx="256" cy="256" r="256"/>
<path d="M419.7,218.2c-1.2-3.7-4.6-6.4-8.5-6.6l-106.9-6.9l-39.7-99.6c-1.5-3.7-5-6.1-8.9-6.1s-7.5,2.4-8.9,6.1l-39.7,99.6
	l-106.3,6.9c-3.9,0.3-7.3,2.9-8.5,6.6c-1.2,3.7,0,7.8,3,10.4l81.8,68.5L150.6,401c-1,3.8,0.5,7.8,3.7,10.2c3.2,2.3,7.5,2.5,10.8,0.3
	l90.6-57.3l90.6,57.3c3.3,2.1,7.6,2,10.8-0.3c3.2-2.3,4.6-6.3,3.7-10.2l-26.5-103.9l82.4-68.5C419.7,226.1,420.9,222,419.7,218.2z
	 M317.3,286.2c-2.9,2.4-4.1,6.2-3.2,9.8l22,86.4l-75.3-47.6c-1.6-1-3.4-1.5-5.1-1.5c-1.8,0-3.6,0.5-5.1,1.5l-75.3,47.6l22-86.4
	c0.9-3.6-0.3-7.4-3.1-9.8l-68-57l88.4-5.8c3.7-0.2,6.9-2.6,8.3-6l33-82.8l33,82.8c1.4,3.5,4.6,5.8,8.3,6l88.9,5.8L317.3,286.2z"/>
</svg>
