<?xml version="1.0" encoding="utf-8"?>
<!-- Generator: Adobe Illustrator 25.0.1, SVG Export Plug-In . SVG Version: 6.00 Build 0)  -->
<svg version="1.1" xmlns="http://www.w3.org/2000/svg" xmlns:xlink="http://www.w3.org/1999/xlink" x="0px" y="0px"
	 viewBox="0 0 256 256" style="enable-background:new 0 0 256 256;" xml:space="preserve">
<style type="text/css">
	.st0{fill:none;stroke:#000000;stroke-width:7;stroke-miterlimit:10;}
	.st1{fill:none;stroke:#000000;stroke-width:6;stroke-miterlimit:10;}
	.st2{fill:#020000;}
	.st3{fill:none;stroke:#020000;stroke-width:7;stroke-miterlimit:10;}
	.st4{fill:none;stroke:#020000;stroke-width:5;stroke-miterlimit:10;}
	.st5{fill:none;stroke:#000000;stroke-width:5;stroke-miterlimit:10;}
</style>
<g id="Layer_2">
</g>
<g id="Layer_1">
	<g>
		<path class="st0" d="M198.14,159.4c14.66-6.2,24.94-20.71,24.94-37.63c0-20.65-15.32-37.71-35.22-40.45
			c0.03-0.68,0.05-1.37,0.05-2.06c0-25.36-20.56-45.92-45.92-45.92c-18,0-33.59,10.36-41.11,25.45c-4.62-3.47-10.36-5.52-16.59-5.52
			c-15.28,0-27.66,12.39-27.66,27.66c0,4.09,0.89,7.97,2.48,11.47c-15.15,4.58-26.18,18.65-26.18,35.29
			c0,17.03,11.55,31.37,27.24,35.6"/>
		<rect x="64.89" y="106.87" class="st0" width="126.54" height="32.37"/>
		<circle cx="82.44" cy="123.06" r="5.29"/>
		<circle cx="128.08" cy="123.06" r="5.29"/>
		<circle cx="168.19" cy="123.06" r="5.29"/>
		<rect x="66.17" y="148.04" class="st0" width="126.54" height="32.37"/>
		<circle cx="82.44" cy="164.76" r="5.29"/>
		<circle cx="128.08" cy="164.76" r="5.29"/>
		<circle cx="168.19" cy="164.76" r="5.29"/>
		<rect x="64.89" y="190.28" class="st0" width="126.54" height="32.37"/>
		<circle cx="82.44" cy="206.46" r="5.29"/>
		<circle cx="128.08" cy="206.46" r="5.29"/>
		<circle cx="168.19" cy="206.46" r="5.29"/>
	</g>
</g>
</svg>
