<?xml version="1.0" encoding="utf-8"?>
<!-- Generator: Adobe Illustrator 25.0.1, SVG Export Plug-In . SVG Version: 6.00 Build 0)  -->
<svg version="1.1" xmlns="http://www.w3.org/2000/svg" xmlns:xlink="http://www.w3.org/1999/xlink" x="0px" y="0px"
	 viewBox="0 0 256 256" style="enable-background:new 0 0 256 256;" xml:space="preserve">
<style type="text/css">
	.st0{fill:none;stroke:#000000;stroke-width:7;stroke-miterlimit:10;}
	.st1{fill:none;stroke:#000000;stroke-width:6;stroke-miterlimit:10;}
	.st2{fill:#020000;}
	.st3{fill:none;stroke:#020000;stroke-width:7;stroke-miterlimit:10;}
	.st4{fill:none;stroke:#020000;stroke-width:5;stroke-miterlimit:10;}
	.st5{fill:none;stroke:#000000;stroke-width:5;stroke-miterlimit:10;}
</style>
<g id="Layer_2">
</g>
<g id="Layer_1">
	<g>
		<g>
			<g>
				<line class="st0" x1="82.82" y1="56.62" x2="171.36" y2="56.62"/>
				<path class="st0" d="M179.49,77.16L179.49,77.16c-4.49,0-8.13-3.64-8.13-8.13V40.48c0-4.49,3.64-8.13,8.13-8.13h0
					c4.49,0,8.13,3.64,8.13,8.13v28.55C187.62,73.52,183.98,77.16,179.49,77.16z"/>
				<path class="st0" d="M74.22,77.16L74.22,77.16c-4.49,0-8.13-3.64-8.13-8.13V40.48c0-4.49,3.64-8.13,8.13-8.13h0
					c4.49,0,8.13,3.64,8.13,8.13v28.55C82.35,73.52,78.71,77.16,74.22,77.16z"/>
				<g>
					<path class="st0" d="M187.62,56.62h14.49c12.78,0,23.14,12.47,23.14,27.85V195.8c0,15.38-10.36,27.85-23.14,27.85H53.89
						c-12.78,0-23.14-12.47-23.14-27.85V84.48c0-15.38,10.36-27.85,23.14-27.85H64.6"/>
					<line class="st0" x1="30.75" y1="102.36" x2="225.25" y2="102.36"/>
				</g>
			</g>
			<g>
				<rect x="110.73" y="87.34" class="st2" width="6.49" height="6.49"/>
				<rect x="123.15" y="87.34" class="st2" width="6.49" height="6.49"/>
				<rect x="135.76" y="87.34" class="st2" width="6.49" height="6.49"/>
			</g>
		</g>
		<g>
			<g>
				<path class="st3" d="M162.39,167.59c-2.18,18.56-17.96,32.95-37.1,32.95s-34.92-14.4-37.1-32.95"/>
				<path class="st3" d="M88.08,159.83c1.7-19.06,17.71-34,37.21-34c19.02,0,34.73,14.22,37.06,32.61"/>
				<path class="st4" d="M169.21,149.59c-1.84,3.96-3.68,7.91-5.52,11.87l-11.71-6.73"/>
				<path class="st4" d="M81.23,176.94c1.84-3.96,3.68-7.91,5.52-11.87l11.71,6.73"/>
			</g>
			<polyline class="st3" points="105.81,162.08 119.55,175.82 144.8,150.56 			"/>
		</g>
	</g>
</g>
</svg>
