<?xml version="1.0" encoding="utf-8"?>
<!-- Generator: Adobe Illustrator 25.0.1, SVG Export Plug-In . SVG Version: 6.00 Build 0)  -->
<svg version="1.1" xmlns="http://www.w3.org/2000/svg" xmlns:xlink="http://www.w3.org/1999/xlink" x="0px" y="0px"
	 viewBox="0 0 256 256" style="enable-background:new 0 0 256 256;" xml:space="preserve">
<style type="text/css">
	.st0{fill:none;stroke:#000000;stroke-width:7;stroke-miterlimit:10;}
	.st1{fill:none;stroke:#000000;stroke-width:6;stroke-miterlimit:10;}
	.st2{fill:#020000;}
	.st3{fill:none;stroke:#020000;stroke-width:7;stroke-miterlimit:10;}
	.st4{fill:none;stroke:#020000;stroke-width:5;stroke-miterlimit:10;}
	.st5{fill:none;stroke:#000000;stroke-width:5;stroke-miterlimit:10;}
</style>
<g id="Layer_2">
</g>
<g id="Layer_1">
	<g>
		<g>
			<g>
				<path class="st0" d="M164.48,63.42c0.12,0.21-11.39-0.48-12.22,0.37c-0.87,0.89-2.46,8.82-2.85,9.38
					c-1.86,2.63-6.35,0.3-8.26,2.57c-1.93,2.29,0.79,6.65-1.11,11.18c-0.58,1.39-2.24,1.97-4.87,4.24
					c-0.88,0.76-1.98,1.56-2.19,2.92c-0.16,1.03,0.24,2.12,1.12,3.36c2.91,4.08,3.96,9.25,1.02,13.29c-1.9,2.61-1.13,4.26,1.44,6.11
					c3.75,2.7,5.82,6.3,4.7,11.43c-0.27,1.27,1.71,4,3.18,4.51c4.61,1.58,7.82,4.41,8.73,9.02c0.67,3.37,2.16,4.18,5.09,3.51
					c4.89-1.13,8.7,0.53,11.28,4.7c1.81,2.92,3.68,2.7,6.15,0.97c3.85-2.69,7.93-2.8,11.73-0.04c2.87,2.09,4.83,1.6,6.62-1.24
					c2.54-4.05,6.22-5.42,10.83-4.42c1.22,0.27,2.11,0.24,2.84-0.1c1.03-0.48,1.59-1.37,2.47-3.22c2.19-4.6,1.63-4.98,2.7-6.04
					c1-0.99,1.26-0.42,5.48-2.49c2.46-1.21,3.11-1.77,3.53-2.56c0.48-0.91,0.5-2.05,0.24-3.62c-0.73-4.36,0.7-7.92,4.6-10.3
					c2.9-1.77,3.14-3.86,1.21-6.71c-2.58-3.79-2.86-7.76,0.13-11.65c2.07-2.69,1.49-4.79-1.48-6.59c-3.84-2.33-5.21-6.06-4.42-10.4
					c0.26-1.4,0.2-2.41-0.19-3.24c-0.48-1.01-1.29-1.62-3.28-2.68c-4.73-2.51-5.5-2.02-6.55-3.37c-0.98-1.26-0.26-1.64-1.85-4.93
					c-1.12-2.33-1.85-2.91-2.41-3.2c-0.9-0.47-1.98-0.49-3.41-0.29c-4.36,0.59-7.96-0.71-10.41-4.54c-1.8-2.82-3.91-3.33-6.69-1.27
					c-3.84,2.85-7.79,2.75-11.61-0.06c-2.83-2.08-4.45-0.91-6.75,1.34C166.86,61.47,164.6,63.63,164.48,63.42z"/>
				<circle class="st0" cx="181.66" cy="104.53" r="28.42"/>
			</g>
		</g>
		<path class="st0" d="M157.64,214.52H34.85c-9.45,0-17.11-7.66-17.11-17.11V59.19c0-9.45,7.66-17.11,17.11-17.11h191.11
			c9.45,0,17.11,7.66,17.11,17.11v138.22c0,9.45-7.66,17.11-17.11,17.11h-43.11"/>
		<path class="st0" d="M127.07,182.07H58.41c-9.45,0-17.11-7.66-17.11-17.11V91.02c0-9.45,7.66-17.11,17.11-17.11h70.15"/>
		<line class="st0" x1="61.32" y1="96.89" x2="115.24" y2="96.89"/>
		<line class="st0" x1="61.32" y1="112.59" x2="115.24" y2="112.59"/>
		<line class="st0" x1="61.32" y1="128.3" x2="115.24" y2="128.3"/>
		<line class="st0" x1="87.22" y1="158.53" x2="114.04" y2="158.53"/>
		<g>
			<line class="st0" x1="178.88" y1="196.18" x2="178.88" y2="149.42"/>
			<polyline class="st0" points="157.64,144.69 157.64,228.05 170.25,213.38 182.86,228.05 182.86,195.83 			"/>
			<line class="st0" x1="200.99" y1="148.43" x2="200.99" y2="145.88"/>
			<polyline class="st0" points="182.86,195.83 188.38,191.82 200.99,200.97 200.99,148.43 			"/>
			<polyline class="st0" points="178.88,150.98 178.88,198.09 182.86,195.83 			"/>
		</g>
	</g>
</g>
</svg>
