<?xml version="1.0" encoding="utf-8"?>
<!-- Generator: Adobe Illustrator 25.0.1, SVG Export Plug-In . SVG Version: 6.00 Build 0)  -->
<svg version="1.1" xmlns="http://www.w3.org/2000/svg" xmlns:xlink="http://www.w3.org/1999/xlink" x="0px" y="0px"
	 viewBox="0 0 256 256" style="enable-background:new 0 0 256 256;" xml:space="preserve">
<style type="text/css">
	.st0{fill:none;stroke:#000000;stroke-width:7;stroke-miterlimit:10;}
	.st1{fill:none;stroke:#000000;stroke-width:6;stroke-miterlimit:10;}
	.st2{fill:#020000;}
	.st3{fill:none;stroke:#020000;stroke-width:7;stroke-miterlimit:10;}
	.st4{fill:none;stroke:#020000;stroke-width:5;stroke-miterlimit:10;}
	.st5{fill:none;stroke:#000000;stroke-width:5;stroke-miterlimit:10;}
</style>
<g id="Layer_2">
</g>
<g id="Layer_1">
	<g>
		<g>
			<g>
				<line class="st0" x1="191.08" y1="67.61" x2="191.08" y2="104.32"/>
				<polyline class="st0" points="190.06,69.01 160.64,69.01 160.64,36.84 				"/>
				<path class="st0" d="M191.08,134.35v84.04c0,1.3-0.96,2.35-2.15,2.35H43.52c-1.19,0-2.15-1.05-2.15-2.35V37.8
					c0-1.3,0.96-2.35,2.15-2.35h118.14"/>
				<line class="st0" x1="159" y1="34.26" x2="192.04" y2="69.89"/>
				<g>
					<g>
						<path class="st0" d="M213.75,90.02l-42.49,80.48c-0.26,0.49-0.83,0.66-1.28,0.37l-9.71-6.13c-0.45-0.28-0.6-0.91-0.34-1.4
							l39.75-75.29l2.74-5.19c1.81-3.42,5.81-4.59,8.93-2.62v0C214.49,82.22,215.56,86.6,213.75,90.02z"/>
						<line class="st0" x1="198.23" y1="90.82" x2="209.8" y2="97.51"/>
					</g>
					<path class="st0" d="M170.85,170.49c0.1,0.18,0.06,0.42-0.1,0.55l-11.78,9.39c-0.27,0.21-0.64-0.02-0.61-0.38l1.39-15.95
						c0.01-0.15,0.1-0.27,0.21-0.33"/>
				</g>
			</g>
		</g>
		<g>
			<g>
				<path d="M141.89,156.54H66.54c-1.23,0-2.23-1-2.23-2.23v-1.75c0-1.23,1-2.23,2.23-2.23h75.35c1.23,0,2.23,1,2.23,2.23v1.75
					C144.12,155.54,143.12,156.54,141.89,156.54z"/>
			</g>
			<g>
				<path d="M130.92,172.99H66.54c-1.23,0-2.23-1-2.23-2.23v-1.75c0-1.23,1-2.23,2.23-2.23h64.38c1.23,0,2.23,1,2.23,2.23v1.75
					C133.15,171.99,132.15,172.99,130.92,172.99z"/>
			</g>
			<g>
				<path d="M115.41,189.76H66.54c-1.23,0-2.23-1-2.23-2.23v-1.75c0-1.23,1-2.23,2.23-2.23h48.87c1.23,0,2.23,1,2.23,2.23v1.75
					C117.64,188.76,116.64,189.76,115.41,189.76z"/>
			</g>
		</g>
		<g>
			<path class="st5" d="M125.29,89.05h-3.23c-0.74-4.28-2.51-8.21-5.03-11.53l2.2-2.37c0.72-0.78,0.68-2-0.1-2.73l-3.93-3.65
				c-0.78-0.72-2-0.68-2.73,0.1l-2.2,2.37c-2.86-1.86-6.1-3.18-9.58-3.83v-3.93c0-1.06-0.86-1.93-1.93-1.93h-6.01
				c-1.06,0-1.93,0.86-1.93,1.93v3.93c-4.04,0.76-7.77,2.42-10.95,4.78l-2.85-2.64c-0.78-0.72-2-0.68-2.73,0.1l-4.09,4.4
				c-0.72,0.78-0.68,2,0.1,2.73l2.84,2.64c-1.82,2.88-3.11,6.14-3.71,9.63h-3.23c-1.06,0-1.93,0.86-1.93,1.93v5.36
				c0,1.06,0.86,1.93,1.93,1.93h3.23c0.74,4.28,2.51,8.21,5.03,11.53l-2.2,2.37c-0.72,0.78-0.68,2,0.1,2.73l3.93,3.65
				c0.78,0.72,2,0.68,2.73-0.1l2.2-2.37c2.86,1.86,6.1,3.18,9.58,3.83v3.93c0,1.06,0.86,1.93,1.93,1.93h6.01
				c1.06,0,1.93-0.86,1.93-1.93v-3.93c4.04-0.76,7.77-2.42,10.95-4.78l2.85,2.64c0.78,0.72,2,0.68,2.73-0.1l4.09-4.4
				c0.72-0.78,0.68-2-0.1-2.73l-2.84-2.64c1.82-2.88,3.11-6.14,3.71-9.63h3.23c1.06,0,1.93-0.86,1.93-1.93v-5.36
				C127.22,89.91,126.36,89.05,125.29,89.05z"/>
			<circle class="st5" cx="95.76" cy="93.66" r="16.55"/>
		</g>
	</g>
</g>
</svg>
