<?xml version="1.0" encoding="utf-8"?>
<!-- Generator: Adobe Illustrator 25.0.1, SVG Export Plug-In . SVG Version: 6.00 Build 0)  -->
<svg version="1.1"
	 id="svg3336" sodipodi:docname="Gartner_logo.svg" xmlns:cc="http://creativecommons.org/ns#" xmlns:dc="http://purl.org/dc/elements/1.1/" xmlns:inkscape="http://www.inkscape.org/namespaces/inkscape" xmlns:rdf="http://www.w3.org/1999/02/22-rdf-syntax-ns#" xmlns:sodipodi="http://sodipodi.sourceforge.net/DTD/sodipodi-0.dtd" xmlns:svg="http://www.w3.org/2000/svg"
	 xmlns="http://www.w3.org/2000/svg" xmlns:xlink="http://www.w3.org/1999/xlink" x="0px" y="0px" viewBox="0 0 400 160"
	 style="enable-background:new 0 0 400 160;" xml:space="preserve">
<style type="text/css">
	.st0{fill:#FFFFFF;}
</style>
<sodipodi:namedview  bordercolor="#666666" borderopacity="1" gridtolerance="10" guidetolerance="10" id="namedview9" inkscape:current-layer="svg3336" inkscape:cx="48.681217" inkscape:cy="9.7305543" inkscape:pageopacity="0" inkscape:pageshadow="2" inkscape:showpageshadow="false" inkscape:window-height="705" inkscape:window-maximized="1" inkscape:window-width="1366" inkscape:window-x="-8" inkscape:window-y="-8" inkscape:zoom="1" objecttolerance="10" pagecolor="#ffffff" showgrid="false">
	</sodipodi:namedview>
<path id="path3345" inkscape:connector-curvature="0" class="st0" d="M397.9,64.1l-1.2,13.8h-5.6c-9,0-13.7,7.2-13.7,14.2v31.2h-16
	V64.1h15.1l0.3,7.4c3.2-5.1,8.7-7.4,15.6-7.4H397.9z M287.2,123.3h-16V92c0-6.6-0.6-14.8-9.8-14.8c-8.9,0-12.4,6.4-12.4,13.9v32.2
	h-16V64.1h14.8l0.3,7.6c3.2-5.1,9.1-9,17.8-9c16.1,0,21.2,11.5,21.2,23.5V123.3z M226,109.4l-1.1,13.5c-3.8,1-7.2,1.4-11.4,1.4
	c-15.1,0-19.4-6.9-19.4-20.8V47.4h16v16.7H226l-1.1,13.8h-14.8v24.4c0,5.6,1.5,8.6,7.2,8.6C219.8,110.9,222.6,110.6,226,109.4
	 M188.9,64.1l-1.2,13.8h-4.3c-9,0-13.5,7.2-13.5,14.2v31.2h-16V64.1H169l0.3,7.4c3.2-5.1,8.7-7.4,15.6-7.4L188.9,64.1z M81.7,116.7
	c-10.8,5.8-21.7,9.1-36,8.7C19.1,124.6,0,108.2,0,80.3c0-27.7,19.3-45.4,45.7-45.8C59,34.3,71,37.7,80.3,46L69.1,57.3
	c-5.8-4.9-14.3-7.8-24.5-7.3C28,50.8,18,62.8,17.8,79.4c-0.2,18,10.8,30.3,28,30.8c8.1,0.2,13.9-0.9,18.9-3.1V88.7H46.9l1.2-15.1
	h33.6V116.7z M354.3,99.3h-43.8c1.2,7.6,7.2,12.1,14.6,12.3c7.2,0.2,11.2-2,16.5-7.3l10.4,8c-7.4,9.1-16.3,12.5-26.4,12.5
	c-17.8,0-31.2-12.5-31.2-31c0-18.6,13.3-31,30.5-31c19,0,29.4,11.5,29.4,31.9V99.3z M338.3,86.9c-0.5-7.5-6.1-12.2-13.8-11.9
	c-7.8,0.3-12.9,5.4-14,11.9H338.3z M143.7,84.5v38.8h-14.1l-0.3-5.8c-4.3,5.4-11.3,7.3-18.6,7.3c-10.9,0-21.2-5.4-21.4-17.9
	c-0.3-19.7,22.1-21,36.2-21h2.8V85c0-6.5-4.3-10-12.4-10c-5.8,0-11.5,2.3-15.8,6.3L90.9,72c8.4-6.8,17.1-9.3,26.4-9.3
	C135.7,62.6,143.7,71.1,143.7,84.5 M128.4,97.5h-2.2c-7.6,0-20.9,0.4-20.8,8.3c0.1,11.2,23,7.6,23-5.8V97.5z M385.5,116.4
	c0-3.8,2.8-6.6,6.5-6.6c3.6,0,6.5,2.8,6.5,6.6c0,3.8-2.8,6.7-6.5,6.7C388.3,123.1,385.5,120.2,385.5,116.4 M392,124.4
	c4.3,0,8-3.4,8-8c0-4.6-3.7-7.9-8-7.9c-4.4,0-8.1,3.4-8.1,7.9C383.9,121,387.6,124.4,392,124.4 M390.3,117h1.6l2.4,4h1.6l-2.6-4
	c1.3-0.2,2.4-0.9,2.4-2.5c0-1.8-1.1-2.6-3.2-2.6h-3.5v9.2h1.4L390.3,117z M390.3,115.8V113h1.9c1,0,2,0.2,2,1.3
	c0,1.4-1.1,1.5-2.2,1.5L390.3,115.8z"/>
</svg>
