<svg xmlns="http://www.w3.org/2000/svg" viewBox="0 0 800 200"><defs><style>.a{fill:none;}.b{fill:#fff;fill-rule:evenodd;}</style></defs><rect class="a" width="800" height="200"/><path class="b" d="M800,67.43l-1.84,28.44H786.24c-18.35,0-27.53,14.68-27.53,28.44v62.38H726.6V67.43h30.28L757.8,83c6.42-11,17.42-15.59,31.19-15.59ZM577.06,186.69H545V124.31C545,110.55,544,94,525.68,94s-24.77,12.85-24.77,28.44v64.22h-33V67.43h30.28L499.07,83c6.43-10.09,18.35-18.34,35.78-18.34,32.12,0,42.2,22.93,42.2,47.7v74.31ZM454.13,159.17l-1.84,26.61c-8.26,2.75-14.68,2.75-22.93,2.75-30.28,0-39.45-13.76-39.45-41.28V34.4H422v33h32.11l-1.84,28.44H422V144.5c0,11,3.66,17.43,14.68,17.43A62.55,62.55,0,0,0,454.13,159.17ZM379.81,67.43l-2.75,28.44h-9.18c-17.42,0-26.6,14.68-26.6,28.44v62.38H309.17V67.43h30.27L340.36,83c6.42-11,17.43-15.59,31.19-15.59ZM164.22,173.85c-22,11.93-44,18.34-72.48,17.43C38.53,189.44,0,156.41,0,100.45S38.53,9.63,91.74,8.71c26.61-.92,50.46,6.42,69.73,22.94L138.53,54.58C126.61,44.49,110.09,39,89.91,39.9,56,40.82,35.78,65.59,35.78,98.62c-.92,35.78,21.1,60.55,56,61.47,16.52.92,28.44-.92,38.54-5.51V117H93.58l2.75-30.28h67.89v87.16ZM711.92,139H623.85c2.75,14.69,14.68,23.86,29.36,24.78,14.67,0,22.93-4.59,33-14.68l21.1,15.59c-14.69,18.35-32.12,24.77-53.21,24.77-35.78,0-62.39-24.77-62.39-62.39,0-36.69,26.61-62.38,61.47-62.38,38.54,0,58.71,22.94,58.71,64.22V139Zm-32.1-25.68c-.92-14.68-11.94-23.85-27.53-23.85-15.59.91-25.69,11-28.44,23.85ZM289,108.71v78H260.55l-.92-11.92c-8.26,11-22.94,14.68-37.62,14.68-21.1,0-42.2-10.09-42.2-35.78-.91-39.45,44-42.2,72.48-42.2h5.5v-1.84c0-12.84-8.25-20.18-24.76-20.18-11.93,0-22.94,5.5-32.11,12.84L182.57,83.94a81.12,81.12,0,0,1,53.21-19.26c36.7,0,53.21,17.43,53.21,44ZM257.8,135.32h-4.59c-14.68,0-42.2,0-41.29,16.51,0,22,45.87,14.68,45.87-11.93v-4.58Z"/></svg>