<svg xmlns="http://www.w3.org/2000/svg" viewBox="0 0 800 800"><defs><style>.a{fill:#fbbd00;}.b{fill:#0f9d58;}.c{fill:#31aa52;}.d{fill:#3c79e6;}.e{fill:#cf2d48;}.f{fill:#eb4132;}</style></defs><path class="a" d="M187.5,400a211.2,211.2,0,0,1,29.89-108.56V156.59H82.54C29,226.1,0,310.82,0,400S29,573.9,82.54,643.41H217.39V508.56A211.2,211.2,0,0,1,187.5,400Z" transform="translate(0)"/><path class="b" d="M400,612.5l-93.75,93.75L400,800c89.19,0,173.9-29,243.41-82.54V582.75H508.7A212.46,212.46,0,0,1,400,612.5Z" transform="translate(0)"/><path class="c" d="M217.39,508.56,82.54,643.41a403.14,403.14,0,0,0,34.62,39.43A397.38,397.38,0,0,0,400,800V612.5A212.59,212.59,0,0,1,217.39,508.56Z" transform="translate(0)"/><path class="d" d="M800,400a403.08,403.08,0,0,0-6.55-72.46l-3.52-19.22H400v187.5H589.77a211.51,211.51,0,0,1-81.07,86.93L643.41,717.47a405.76,405.76,0,0,0,39.43-34.63A397.38,397.38,0,0,0,800,400Z" transform="translate(0)"/><path class="e" d="M550.26,249.74l16.57,16.57L699.42,133.73l-16.58-16.57C607.29,41.61,506.85,0,400,0L306.25,93.75,400,187.5A211.1,211.1,0,0,1,550.26,249.74Z" transform="translate(0)"/><path class="f" d="M400,187.5V0A397.38,397.38,0,0,0,117.16,117.16a404.58,404.58,0,0,0-34.63,39.43L217.39,291.44A212.59,212.59,0,0,1,400,187.5Z" transform="translate(0)"/></svg>