<?xml version="1.0" encoding="utf-8"?>
<!-- Generator: Adobe Illustrator 25.0.1, SVG Export Plug-In . SVG Version: 6.00 Build 0)  -->
<svg version="1.1" id="Layer_1" xmlns="http://www.w3.org/2000/svg" xmlns:xlink="http://www.w3.org/1999/xlink" x="0px" y="0px"
	 viewBox="0 0 260.8 70" style="enable-background:new 0 0 260.8 70;" xml:space="preserve">
<style type="text/css">
	.st0{fill:#FBBD00;}
	.st1{fill:#0F9D58;}
	.st2{fill:#31AA52;}
	.st3{fill:#3C79E6;}
	.st4{fill:#CF2D48;}
	.st5{fill:#EB4132;}
	.st6{fill:#F9EC31;}
	.st7{enable-background:new    ;}
	.st8{fill:#404041;}
	.st9{fill:#E6E7E8;}
</style>
<path class="st0" d="M16.4,35c0-3.3,0.9-6.6,2.6-9.5V13.7H7.2c-9.6,12.6-9.6,30,0,42.6H19V44.5C17.3,41.6,16.4,38.3,16.4,35z"/>
<path class="st1" d="M35,53.6l-8.2,8.2L35,70c7.7,0,15.2-2.5,21.3-7.2V51H44.5C41.6,52.7,38.3,53.6,35,53.6z"/>
<path class="st2" d="M19,44.5L7.2,56.3c0.9,1.2,1.9,2.4,3,3.5C16.8,66.3,25.7,70,35,70V53.6C28.4,53.6,22.4,50.1,19,44.5L19,44.5z"
	/>
<path class="st3" d="M70,35c0-2.1-0.2-4.2-0.6-6.3L69.2,27H35v16.4h16.6c-1.6,3.2-4.1,5.8-7.1,7.6l11.8,11.8c1.2-0.9,2.4-1.9,3.5-3
	C66.3,53.2,70,44.3,70,35z"/>
<path class="st4" d="M48.2,21.9l1.5,1.5l11.5-11.6l-1.5-1.4C53.2,3.7,44.3,0,35,0l-8.2,8.2l8.2,8.2C39.9,16.4,44.7,18.4,48.2,21.9z"
	/>
<path class="st5" d="M35,16.4V0c-9.3,0-18.2,3.7-24.8,10.3c-1.1,1.1-2.1,2.2-3,3.4L19,25.5C22.4,19.9,28.5,16.4,35,16.4z"/>
<polygon class="st6" points="99.1,7.5 103.1,15.7 112.1,17 105.6,23.3 107.2,32.3 99.1,28.1 91,32.3 92.6,23.3 86.1,17 95.1,15.7 
	"/>
<polygon class="st6" points="136.3,7.5 140.3,15.7 149.3,17 142.8,23.3 144.3,32.3 136.3,28.1 128.2,32.3 129.7,23.3 123.2,17 
	132.2,15.7 "/>
<polygon class="st6" points="173.4,7.5 177.4,15.7 186.5,17 179.9,23.3 181.5,32.3 173.4,28.1 165.4,32.3 166.9,23.3 160.4,17 
	169.4,15.7 "/>
<polygon class="st6" points="210.6,7.5 214.6,15.7 223.6,17 217.1,23.3 218.6,32.3 210.6,28.1 202.5,32.3 204.1,23.3 197.5,17 
	206.6,15.7 "/>
<polygon class="st6" points="247.8,7.5 251.8,15.7 260.8,17 254.3,23.3 255.8,32.3 247.8,28.1 239.7,32.3 241.2,23.3 234.7,17 
	243.7,15.7 "/>
<g class="st7">
	<path class="st8" d="M86.7,52.2v-1.5l4.6-6.6h2.3v6.4h1.2v1.7h-1.2v2h-2v-2H86.7z M91.7,46.2l-2.9,4.3h2.9V46.2z"/>
	<path class="st8" d="M96.3,54c-0.2-0.2-0.3-0.5-0.3-0.8c0-0.3,0.1-0.6,0.3-0.8c0.2-0.2,0.5-0.3,0.9-0.3c0.3,0,0.6,0.1,0.9,0.3
		c0.2,0.2,0.3,0.5,0.3,0.8c0,0.3-0.1,0.6-0.3,0.8c-0.2,0.2-0.5,0.3-0.9,0.3C96.8,54.3,96.5,54.2,96.3,54z"/>
	<path class="st8" d="M104.5,45.7c-0.2-0.2-0.6-0.3-1-0.3c-0.6,0-1.1,0.3-1.4,0.8c-0.3,0.5-0.5,1.4-0.5,2.5c0.2-0.4,0.6-0.7,1-0.9
		s0.9-0.3,1.4-0.3c0.6,0,1.1,0.1,1.6,0.4c0.5,0.3,0.8,0.6,1.1,1.1c0.3,0.5,0.4,1.1,0.4,1.8c0,0.7-0.1,1.3-0.4,1.8
		c-0.3,0.5-0.7,0.9-1.2,1.2c-0.5,0.3-1.1,0.4-1.8,0.4c-1,0-1.7-0.2-2.3-0.6c-0.6-0.4-0.9-1-1.2-1.8c-0.2-0.8-0.3-1.7-0.3-2.8
		c0-1.7,0.3-3,0.9-3.9c0.6-0.9,1.5-1.3,2.8-1.3c1,0,1.7,0.3,2.3,0.8c0.5,0.5,0.9,1.2,0.9,2H105C104.9,46.2,104.7,45.9,104.5,45.7z
		 M102.3,49.5c-0.3,0.3-0.5,0.7-0.5,1.3s0.2,1,0.5,1.3c0.3,0.3,0.8,0.5,1.3,0.5c0.5,0,0.9-0.2,1.2-0.5c0.3-0.3,0.4-0.7,0.4-1.2
		c0-0.5-0.1-1-0.4-1.3s-0.7-0.5-1.3-0.5C103.1,49.1,102.6,49.2,102.3,49.5z"/>
	<path class="st8" d="M119,47.4c-0.2-0.4-0.5-0.7-0.9-0.9c-0.4-0.2-0.8-0.3-1.4-0.3c-0.6,0-1.1,0.1-1.5,0.4
		c-0.4,0.3-0.8,0.6-1.1,1.1c-0.3,0.5-0.4,1-0.4,1.7c0,0.7,0.1,1.2,0.4,1.7c0.3,0.5,0.6,0.9,1.1,1.1c0.5,0.3,1,0.4,1.6,0.4
		c0.7,0,1.4-0.2,1.8-0.6c0.5-0.4,0.8-0.9,0.9-1.7h-3.4v-1.5h5.3v1.7c-0.1,0.7-0.4,1.3-0.8,1.9c-0.4,0.6-1,1-1.7,1.4
		c-0.7,0.4-1.4,0.5-2.3,0.5c-0.9,0-1.8-0.2-2.6-0.6c-0.8-0.4-1.4-1-1.8-1.8s-0.7-1.6-0.7-2.6c0-1,0.2-1.8,0.7-2.6
		c0.4-0.8,1-1.4,1.8-1.8c0.8-0.4,1.6-0.6,2.5-0.6c1.1,0,2.1,0.3,2.9,0.8c0.8,0.5,1.4,1.3,1.7,2.3H119z"/>
	<path class="st8" d="M124.4,53.8c-0.6-0.3-1.1-0.8-1.4-1.4c-0.3-0.6-0.5-1.3-0.5-2.1s0.2-1.5,0.5-2.1c0.4-0.6,0.8-1.1,1.4-1.4
		c0.6-0.3,1.3-0.5,2-0.5s1.4,0.2,2,0.5c0.6,0.3,1.1,0.8,1.4,1.4c0.3,0.6,0.5,1.3,0.5,2.1s-0.2,1.5-0.5,2.1c-0.4,0.6-0.8,1.1-1.5,1.4
		s-1.3,0.5-2.1,0.5C125.7,54.3,125,54.2,124.4,53.8z M127.4,52.4c0.3-0.2,0.6-0.4,0.7-0.8c0.2-0.3,0.3-0.8,0.3-1.3
		c0-0.7-0.2-1.3-0.6-1.7S127,48,126.4,48s-1,0.2-1.4,0.6c-0.4,0.4-0.6,1-0.6,1.7s0.2,1.3,0.6,1.7c0.4,0.4,0.8,0.6,1.4,0.6
		C126.8,52.6,127.1,52.5,127.4,52.4z"/>
	<path class="st8" d="M133.3,53.8c-0.6-0.3-1.1-0.8-1.4-1.4c-0.3-0.6-0.5-1.3-0.5-2.1s0.2-1.5,0.5-2.1c0.4-0.6,0.8-1.1,1.4-1.4
		c0.6-0.3,1.3-0.5,2-0.5c0.7,0,1.4,0.2,2,0.5s1.1,0.8,1.4,1.4c0.3,0.6,0.5,1.3,0.5,2.1s-0.2,1.5-0.5,2.1c-0.4,0.6-0.8,1.1-1.5,1.4
		s-1.3,0.5-2.1,0.5C134.6,54.3,133.9,54.2,133.3,53.8z M136.3,52.4c0.3-0.2,0.6-0.4,0.7-0.8c0.2-0.3,0.3-0.8,0.3-1.3
		c0-0.7-0.2-1.3-0.6-1.7c-0.4-0.4-0.9-0.6-1.4-0.6c-0.6,0-1,0.2-1.4,0.6s-0.6,1-0.6,1.7s0.2,1.3,0.6,1.7c0.4,0.4,0.8,0.6,1.4,0.6
		C135.7,52.6,136,52.5,136.3,52.4z"/>
	<path class="st8" d="M145.4,46.7c0.4,0.2,0.8,0.5,1,0.9v-1.1h2v7.8c0,0.7-0.1,1.4-0.4,1.9c-0.3,0.6-0.7,1-1.3,1.3
		c-0.6,0.3-1.3,0.5-2.1,0.5c-1.1,0-2-0.3-2.7-0.8c-0.7-0.5-1.1-1.2-1.2-2.1h1.9c0.1,0.4,0.3,0.6,0.7,0.8c0.3,0.2,0.8,0.3,1.2,0.3
		c0.6,0,1-0.2,1.4-0.5c0.4-0.3,0.5-0.9,0.5-1.5v-1.2c-0.3,0.4-0.6,0.7-1,0.9c-0.4,0.2-0.9,0.4-1.5,0.4c-0.7,0-1.3-0.2-1.8-0.5
		c-0.5-0.3-1-0.8-1.3-1.4s-0.5-1.3-0.5-2.1c0-0.8,0.2-1.5,0.5-2.1c0.3-0.6,0.7-1.1,1.3-1.4c0.5-0.3,1.1-0.5,1.8-0.5
		C144.4,46.3,144.9,46.4,145.4,46.7z M146.1,49.1c-0.2-0.3-0.4-0.6-0.8-0.8c-0.3-0.2-0.7-0.3-1-0.3s-0.7,0.1-1,0.3
		c-0.3,0.2-0.6,0.4-0.7,0.8s-0.3,0.7-0.3,1.2s0.1,0.9,0.3,1.2c0.2,0.3,0.4,0.6,0.8,0.8s0.6,0.3,1,0.3c0.4,0,0.7-0.1,1-0.3
		c0.3-0.2,0.6-0.4,0.8-0.8c0.2-0.3,0.3-0.7,0.3-1.2S146.3,49.4,146.1,49.1z"/>
	<path class="st8" d="M152.3,43.8v10.4h-2V43.8H152.3z"/>
	<path class="st8" d="M161.4,50.9h-5.7c0,0.6,0.2,1,0.6,1.3c0.3,0.3,0.8,0.5,1.3,0.5c0.7,0,1.2-0.3,1.6-0.9h2.1
		c-0.2,0.7-0.7,1.4-1.3,1.8s-1.4,0.7-2.3,0.7c-0.7,0-1.4-0.2-2-0.5s-1.1-0.8-1.4-1.4c-0.3-0.6-0.5-1.3-0.5-2.1
		c0-0.8,0.2-1.5,0.5-2.1c0.3-0.6,0.8-1.1,1.4-1.4c0.6-0.3,1.3-0.5,2-0.5c0.7,0,1.4,0.2,2,0.5c0.6,0.3,1,0.8,1.4,1.4
		c0.3,0.6,0.5,1.3,0.5,2C161.4,50.4,161.4,50.7,161.4,50.9z M159.4,49.6c0-0.5-0.2-0.9-0.5-1.2c-0.4-0.3-0.8-0.5-1.3-0.5
		c-0.5,0-0.9,0.1-1.2,0.4c-0.3,0.3-0.5,0.7-0.6,1.2H159.4z"/>
	<path class="st8" d="M171.2,54.2l-2.2-3.8h-0.9v3.8h-2v-9.8h3.7c0.8,0,1.4,0.1,1.9,0.4c0.5,0.3,0.9,0.6,1.2,1.1s0.4,1,0.4,1.5
		c0,0.6-0.2,1.2-0.6,1.7c-0.4,0.5-0.9,0.9-1.7,1.1l2.3,4H171.2z M168.1,48.9h1.6c0.5,0,0.9-0.1,1.2-0.4c0.3-0.3,0.4-0.6,0.4-1.1
		c0-0.4-0.1-0.8-0.4-1c-0.3-0.2-0.7-0.4-1.2-0.4h-1.6V48.9z"/>
	<path class="st8" d="M175.1,48.2c0.3-0.6,0.7-1.1,1.3-1.4c0.5-0.3,1.1-0.5,1.8-0.5c0.6,0,1.1,0.1,1.5,0.3c0.4,0.2,0.8,0.5,1,0.9
		v-1.1h2v7.8h-2v-1.1c-0.3,0.4-0.6,0.7-1,0.9c-0.4,0.2-1,0.4-1.5,0.4c-0.7,0-1.2-0.2-1.8-0.5s-1-0.8-1.3-1.4
		c-0.3-0.6-0.5-1.3-0.5-2.1C174.6,49.5,174.8,48.8,175.1,48.2z M180.5,49.1c-0.2-0.3-0.4-0.6-0.8-0.8c-0.3-0.2-0.7-0.3-1-0.3
		c-0.4,0-0.7,0.1-1,0.3c-0.3,0.2-0.6,0.4-0.7,0.8s-0.3,0.7-0.3,1.2s0.1,0.9,0.3,1.2c0.2,0.3,0.4,0.6,0.8,0.8c0.3,0.2,0.6,0.3,1,0.3
		c0.4,0,0.7-0.1,1-0.3c0.3-0.2,0.6-0.4,0.8-0.8c0.2-0.3,0.3-0.7,0.3-1.2S180.7,49.4,180.5,49.1z"/>
	<path class="st8" d="M186.9,48.1v3.8c0,0.3,0.1,0.5,0.2,0.6c0.1,0.1,0.3,0.2,0.6,0.2h0.9v1.7h-1.2c-1.7,0-2.5-0.8-2.5-2.4v-3.7H184
		v-1.6h0.9v-1.9h2v1.9h1.7v1.6H186.9z"/>
	<path class="st8" d="M190.2,45.2c-0.2-0.2-0.3-0.5-0.3-0.8c0-0.3,0.1-0.6,0.3-0.8c0.2-0.2,0.5-0.3,0.9-0.3c0.3,0,0.6,0.1,0.9,0.3
		c0.2,0.2,0.3,0.5,0.3,0.8c0,0.3-0.1,0.6-0.3,0.8c-0.2,0.2-0.5,0.3-0.9,0.3C190.7,45.5,190.4,45.4,190.2,45.2z M192,46.4v7.8h-2
		v-7.8H192z"/>
	<path class="st8" d="M200.5,47.2c0.6,0.6,0.9,1.4,0.9,2.4v4.5h-2v-4.3c0-0.6-0.2-1.1-0.5-1.4c-0.3-0.3-0.7-0.5-1.3-0.5
		c-0.5,0-1,0.2-1.3,0.5c-0.3,0.3-0.5,0.8-0.5,1.4v4.3h-2v-7.8h2v1c0.3-0.3,0.6-0.6,1-0.8c0.4-0.2,0.9-0.3,1.3-0.3
		C199.2,46.3,199.9,46.6,200.5,47.2z"/>
	<path class="st8" d="M207.8,46.7c0.4,0.2,0.8,0.5,1,0.9v-1.1h2v7.8c0,0.7-0.1,1.4-0.4,1.9c-0.3,0.6-0.7,1-1.3,1.3
		c-0.6,0.3-1.3,0.5-2.1,0.5c-1.1,0-2-0.3-2.7-0.8c-0.7-0.5-1.1-1.2-1.2-2.1h1.9c0.1,0.4,0.3,0.6,0.7,0.8s0.8,0.3,1.2,0.3
		c0.6,0,1-0.2,1.4-0.5s0.5-0.9,0.5-1.5v-1.2c-0.3,0.4-0.6,0.7-1,0.9c-0.4,0.2-1,0.4-1.5,0.4c-0.7,0-1.3-0.2-1.8-0.5
		c-0.5-0.3-1-0.8-1.3-1.4c-0.3-0.6-0.5-1.3-0.5-2.1c0-0.8,0.2-1.5,0.5-2.1c0.3-0.6,0.7-1.1,1.3-1.4c0.5-0.3,1.1-0.5,1.8-0.5
		C206.8,46.3,207.3,46.4,207.8,46.7z M208.5,49.1c-0.2-0.3-0.4-0.6-0.8-0.8c-0.3-0.2-0.7-0.3-1-0.3c-0.4,0-0.7,0.1-1,0.3
		c-0.3,0.2-0.6,0.4-0.7,0.8s-0.3,0.7-0.3,1.2s0.1,0.9,0.3,1.2c0.2,0.3,0.4,0.6,0.8,0.8c0.3,0.2,0.6,0.3,1,0.3c0.4,0,0.7-0.1,1-0.3
		c0.3-0.2,0.6-0.4,0.8-0.8c0.2-0.3,0.3-0.7,0.3-1.2S208.7,49.4,208.5,49.1z"/>
	<path class="st8" d="M214,54c-0.5-0.2-0.9-0.5-1.2-0.9c-0.3-0.4-0.5-0.8-0.5-1.3h2c0,0.3,0.2,0.5,0.4,0.7s0.6,0.3,1,0.3
		c0.4,0,0.7-0.1,0.9-0.2s0.3-0.3,0.3-0.6c0-0.3-0.1-0.4-0.4-0.6c-0.3-0.1-0.7-0.3-1.2-0.4c-0.6-0.1-1.1-0.3-1.4-0.4s-0.7-0.4-1-0.7
		c-0.3-0.3-0.4-0.7-0.4-1.2c0-0.4,0.1-0.8,0.4-1.2c0.2-0.4,0.6-0.6,1.1-0.8c0.5-0.2,1-0.3,1.6-0.3c0.9,0,1.7,0.2,2.2,0.7
		c0.6,0.5,0.9,1.1,0.9,1.9h-1.9c0-0.3-0.2-0.6-0.4-0.7c-0.2-0.2-0.5-0.3-0.9-0.3c-0.4,0-0.6,0.1-0.8,0.2s-0.3,0.3-0.3,0.5
		c0,0.3,0.1,0.5,0.4,0.6c0.3,0.1,0.7,0.3,1.2,0.4c0.6,0.1,1,0.3,1.4,0.4c0.4,0.1,0.7,0.4,0.9,0.7s0.4,0.7,0.4,1.2
		c0,0.4-0.1,0.8-0.4,1.2s-0.6,0.6-1.1,0.8c-0.5,0.2-1,0.3-1.6,0.3C215,54.3,214.5,54.2,214,54z"/>
</g>
<polygon class="st9" points="254.3,23.3 260.8,17 251.8,15.7 248.7,9.4 248.7,28.6 255.8,32.3 "/>
</svg>
