<svg id="Layer_1" data-name="Layer 1" xmlns="http://www.w3.org/2000/svg" viewBox="0 0 800.79 800.79"><defs><style>.cls-1{fill:#fbbd00;}.cls-2{fill:#0f9d58;}.cls-3{fill:#31aa52;}.cls-4{fill:#3c79e6;}.cls-5{fill:#cf2d48;}.cls-6{fill:#eb4132;}</style></defs><path class="cls-1" d="M187.18,399.6A211.39,211.39,0,0,1,217.1,290.94V156h-135C28.53,225.53-.51,310.33-.51,399.6s29,174.08,82.62,243.66h135v-135A211.43,211.43,0,0,1,187.18,399.6Z" transform="translate(0.51 0.79)"/><path class="cls-2" d="M399.89,612.31l-93.84,93.85L399.89,800c89.27,0,174.07-29,243.66-82.62V582.54H508.7A212.68,212.68,0,0,1,399.89,612.31Z" transform="translate(0.51 0.79)"/><path class="cls-3" d="M217.1,508.27l-135,135a407.71,407.71,0,0,0,34.66,39.47A397.78,397.78,0,0,0,399.89,800V612.31a212.81,212.81,0,0,1-182.79-104Z" transform="translate(0.51 0.79)"/><path class="cls-4" d="M800.29,399.6a403.94,403.94,0,0,0-6.56-72.53l-3.52-19.24H399.89V495.52h190a211.81,211.81,0,0,1-81.15,87L643.54,717.38A405.07,405.07,0,0,0,683,682.73C758.64,607.1,800.29,506.55,800.29,399.6Z" transform="translate(0.51 0.79)"/><path class="cls-5" d="M550.3,249.19l16.59,16.59L699.6,133.07,683,116.48C607.39,40.85,506.84-.79,399.89-.79L306.05,93.05l93.84,93.84A211.34,211.34,0,0,1,550.3,249.19Z" transform="translate(0.51 0.79)"/><path class="cls-6" d="M399.89,186.89V-.79c-106.95,0-207.5,41.64-283.12,117.27A406.52,406.52,0,0,0,82.11,156l135,135A212.8,212.8,0,0,1,399.89,186.89Z" transform="translate(0.51 0.79)"/></svg>