<svg id="Layer_1" data-name="Layer 1" xmlns="http://www.w3.org/2000/svg" xmlns:xlink="http://www.w3.org/1999/xlink" viewBox="0 0 1677.32 1098.19"><defs><style>.cls-1{opacity:0.15;}.cls-2{fill:url(#linear-gradient);}.cls-3{fill:url(#New_Gradient_Swatch_copy_42);}.cls-4{fill:url(#linear-gradient-2);}.cls-5{fill:url(#linear-gradient-3);}.cls-6{fill:url(#linear-gradient-4);}.cls-7{fill:url(#linear-gradient-5);}.cls-8{fill:url(#linear-gradient-6);}.cls-9{fill:url(#New_Gradient_Swatch_copy_37);}.cls-10{fill:url(#linear-gradient-7);}.cls-11{fill:url(#linear-gradient-8);}.cls-12{fill:url(#linear-gradient-9);}.cls-13{fill:url(#linear-gradient-10);}.cls-14{fill:url(#linear-gradient-11);}.cls-15{fill:url(#New_Gradient_Swatch_copy_40);}.cls-16{fill:url(#linear-gradient-12);}.cls-17{fill:url(#linear-gradient-13);}.cls-18{fill:url(#linear-gradient-14);}.cls-19{fill:url(#linear-gradient-15);}.cls-20{fill:url(#New_Gradient_Swatch_copy_33);}.cls-21{fill:url(#New_Gradient_Swatch_copy_33-2);}.cls-22{fill:url(#New_Gradient_Swatch_copy_35);}.cls-23{fill:url(#New_Gradient_Swatch_copy_33-3);}.cls-24{fill:url(#New_Gradient_Swatch_copy_2);}.cls-25{fill:url(#New_Gradient_Swatch_copy_2-2);}.cls-26{fill:url(#linear-gradient-16);}.cls-27{fill:url(#New_Gradient_Swatch_copy_2-3);}.cls-28{fill:url(#New_Gradient_Swatch_copy_2-4);}.cls-29{fill:url(#New_Gradient_Swatch_copy_2-5);}.cls-30{fill:url(#New_Gradient_Swatch_copy_2-6);}.cls-31{opacity:0.46;}.cls-32{fill:url(#linear-gradient-17);}.cls-33{fill:url(#linear-gradient-18);}.cls-34{fill:url(#linear-gradient-19);}.cls-35{fill:url(#linear-gradient-20);}.cls-36{fill:url(#linear-gradient-21);}.cls-37{fill:url(#linear-gradient-22);}.cls-38{fill:url(#linear-gradient-23);}.cls-39{fill:url(#linear-gradient-24);}.cls-40{fill:url(#linear-gradient-25);}.cls-41{fill:url(#linear-gradient-26);}.cls-42{fill:url(#linear-gradient-27);}.cls-43{fill:url(#linear-gradient-28);}.cls-44{fill:url(#linear-gradient-29);}.cls-45{fill:url(#New_Gradient_Swatch_copy_2-7);}.cls-46{opacity:0.49;}.cls-47{fill:url(#linear-gradient-30);}.cls-48{fill:url(#linear-gradient-31);}.cls-49{fill:url(#linear-gradient-32);}.cls-50{fill:url(#linear-gradient-33);}.cls-51{fill:url(#linear-gradient-34);}.cls-52{fill:url(#linear-gradient-35);}.cls-53{opacity:0.51;}.cls-54{fill:url(#linear-gradient-36);}.cls-55{fill:url(#linear-gradient-37);}.cls-56{fill:url(#linear-gradient-38);}.cls-57{fill:url(#linear-gradient-39);}.cls-58{fill:url(#linear-gradient-40);}.cls-59{fill:url(#linear-gradient-41);}.cls-60{fill:url(#linear-gradient-42);}.cls-61{fill:url(#linear-gradient-43);}.cls-62{fill:url(#New_Gradient_Swatch_copy_34);}.cls-63,.cls-66{opacity:0.65;}.cls-63{fill:url(#linear-gradient-44);}.cls-64{fill:url(#New_Gradient_Swatch_copy_34-2);}.cls-65{fill:#fff;}.cls-66{fill:url(#linear-gradient-45);}.cls-67{fill:url(#New_Gradient_Swatch_copy_7);}.cls-68{fill:url(#New_Gradient_Swatch_copy_2-8);}.cls-69{opacity:0.41;}.cls-70{fill:url(#linear-gradient-46);}.cls-71{fill:url(#linear-gradient-47);}.cls-72{fill:url(#linear-gradient-48);}.cls-73{fill:url(#linear-gradient-49);}.cls-74{fill:url(#linear-gradient-50);}.cls-75{fill:url(#linear-gradient-51);}.cls-76{fill:url(#linear-gradient-52);}.cls-77{fill:url(#linear-gradient-53);}.cls-78{fill:url(#linear-gradient-54);}.cls-79{fill:url(#linear-gradient-55);}.cls-80{fill:url(#linear-gradient-56);}.cls-81{fill:url(#linear-gradient-57);}.cls-82{fill:url(#New_Gradient_Swatch_copy_34-3);}.cls-83{fill:url(#linear-gradient-58);}.cls-84{fill:url(#New_Gradient_Swatch_copy_40-2);}.cls-85{fill:url(#New_Gradient_Swatch_copy_40-3);}.cls-100,.cls-86,.cls-87,.cls-88,.cls-92,.cls-93,.cls-94,.cls-98,.cls-99{opacity:0.27;}.cls-86{fill:url(#linear-gradient-59);}.cls-87{fill:url(#linear-gradient-60);}.cls-88{fill:url(#linear-gradient-61);}.cls-89{fill:url(#linear-gradient-62);}.cls-90{fill:url(#New_Gradient_Swatch_copy_39);}.cls-91{fill:url(#New_Gradient_Swatch_copy_39-2);}.cls-92{fill:url(#linear-gradient-63);}.cls-93{fill:url(#linear-gradient-64);}.cls-94{fill:url(#linear-gradient-65);}.cls-95{fill:url(#linear-gradient-66);}.cls-96{fill:url(#New_Gradient_Swatch_copy_34-4);}.cls-97{fill:url(#New_Gradient_Swatch_copy_34-5);}.cls-98{fill:url(#linear-gradient-67);}.cls-99{fill:url(#linear-gradient-68);}.cls-100{fill:url(#linear-gradient-69);}.cls-101{fill:url(#linear-gradient-70);}.cls-102{fill:url(#linear-gradient-71);}.cls-103{fill:url(#linear-gradient-72);}.cls-104{fill:url(#linear-gradient-73);}.cls-105{fill:url(#linear-gradient-74);}.cls-106{fill:url(#linear-gradient-75);}.cls-107{fill:url(#linear-gradient-76);}.cls-108{fill:url(#linear-gradient-77);}.cls-109{fill:url(#linear-gradient-78);}.cls-110{fill:url(#linear-gradient-79);}.cls-111{fill:url(#New_Gradient_Swatch_copy_33-4);}.cls-112{fill:url(#New_Gradient_Swatch_2);}.cls-113{fill:url(#New_Gradient_Swatch_copy_33-5);}.cls-114{fill:url(#linear-gradient-80);}.cls-115{fill:url(#linear-gradient-81);}.cls-116{fill:url(#New_Gradient_Swatch_copy_38);}.cls-117{fill:url(#New_Gradient_Swatch_copy_38-2);}.cls-118{fill:url(#linear-gradient-82);}.cls-119{fill:url(#linear-gradient-83);}.cls-120{fill:url(#linear-gradient-84);}.cls-121{fill:url(#linear-gradient-85);}.cls-122{fill:url(#New_Gradient_Swatch_copy_36);}.cls-123{fill:url(#New_Gradient_Swatch_copy_36-2);}.cls-124{fill:url(#linear-gradient-86);}.cls-125{fill:url(#linear-gradient-87);}.cls-126{fill:url(#linear-gradient-88);}.cls-127{fill:url(#New_Gradient_Swatch_copy_33-6);}.cls-128{fill:url(#New_Gradient_Swatch_copy_33-7);}.cls-129{fill:url(#linear-gradient-89);}.cls-130{fill:url(#linear-gradient-90);}.cls-131{fill:url(#linear-gradient-91);}.cls-132{fill:url(#linear-gradient-92);}.cls-133{fill:url(#linear-gradient-93);}.cls-134{fill:url(#linear-gradient-94);}.cls-135{fill:url(#linear-gradient-95);}.cls-136{fill:url(#linear-gradient-96);}.cls-137{fill:url(#linear-gradient-97);}.cls-138{fill:url(#linear-gradient-98);}.cls-139{fill:url(#linear-gradient-99);}.cls-140{fill:url(#New_Gradient_Swatch_copy_37-2);}.cls-141{fill:url(#linear-gradient-100);}.cls-142{fill:url(#New_Gradient_Swatch_copy_33-8);}.cls-143{fill:url(#linear-gradient-101);}.cls-144{fill:url(#New_Gradient_Swatch_copy_33-9);}.cls-145{fill:url(#New_Gradient_Swatch_copy_37-3);}.cls-146{fill:url(#linear-gradient-102);}.cls-147{fill:url(#linear-gradient-103);}.cls-148{fill:url(#linear-gradient-104);}.cls-149{fill:url(#linear-gradient-105);}.cls-150{fill:url(#New_Gradient_Swatch_copy_43);}.cls-151{fill:url(#New_Gradient_Swatch_copy_43-2);}.cls-152{fill:url(#New_Gradient_Swatch_copy_43-3);}.cls-153{fill:url(#New_Gradient_Swatch_copy_38-3);}.cls-154{fill:url(#New_Gradient_Swatch_copy_34-6);}.cls-155{fill:url(#New_Gradient_Swatch_copy_34-7);}.cls-156{fill:url(#New_Gradient_Swatch_copy_34-8);}</style><linearGradient id="linear-gradient" x1="95.56" y1="954.4" x2="622.01" y2="954.4" gradientUnits="userSpaceOnUse"><stop offset="0" stop-color="#f7f7f7"/><stop offset="1" stop-color="#fff"/></linearGradient><linearGradient id="New_Gradient_Swatch_copy_42" x1="95.91" y1="768.67" x2="808.49" y2="1227.3" gradientUnits="userSpaceOnUse"><stop offset="0" stop-color="#fa8696"/><stop offset="0.68" stop-color="#c24972"/><stop offset="1" stop-color="#ac3164"/></linearGradient><linearGradient id="linear-gradient-2" x1="119.67" y1="899.01" x2="622.01" y2="899.01" gradientUnits="userSpaceOnUse"><stop offset="0" stop-color="#e2e2e2"/><stop offset="0.12" stop-color="#e6e6e6"/><stop offset="1" stop-color="#fff"/></linearGradient><linearGradient id="linear-gradient-3" x1="108.19" y1="935.94" x2="622.01" y2="935.94" xlink:href="#linear-gradient-2"/><linearGradient id="linear-gradient-4" x1="108.19" y1="972.86" x2="622.01" y2="972.86" xlink:href="#linear-gradient-2"/><linearGradient id="linear-gradient-5" x1="119.67" y1="1009.79" x2="622.01" y2="1009.79" xlink:href="#linear-gradient-2"/><linearGradient id="linear-gradient-6" x1="163.79" y1="786.93" x2="690.24" y2="786.93" xlink:href="#linear-gradient"/><linearGradient id="New_Gradient_Swatch_copy_37" x1="157.13" y1="568" x2="532.58" y2="849.31" gradientUnits="userSpaceOnUse"><stop offset="0" stop-color="#b4f492"/><stop offset="0.3" stop-color="#8ad292"/><stop offset="0.77" stop-color="#4da092"/><stop offset="1" stop-color="#358c92"/></linearGradient><linearGradient id="linear-gradient-7" x1="187.9" y1="746.38" x2="690.24" y2="746.38" xlink:href="#linear-gradient-2"/><linearGradient id="linear-gradient-8" x1="176.42" y1="773.41" x2="690.24" y2="773.41" xlink:href="#linear-gradient-2"/><linearGradient id="linear-gradient-9" x1="176.42" y1="800.45" x2="690.24" y2="800.45" xlink:href="#linear-gradient-2"/><linearGradient id="linear-gradient-10" x1="187.9" y1="827.48" x2="690.24" y2="827.48" xlink:href="#linear-gradient-2"/><linearGradient id="linear-gradient-11" x1="107.44" y1="659.3" x2="633.89" y2="659.3" xlink:href="#linear-gradient"/><linearGradient id="New_Gradient_Swatch_copy_40" x1="91.81" y1="659.29" x2="657.02" y2="659.29" gradientUnits="userSpaceOnUse"><stop offset="0" stop-color="#a392d0"/><stop offset="0.06" stop-color="#9f8ccc"/><stop offset="0.7" stop-color="#774fa1"/><stop offset="1" stop-color="#673790"/></linearGradient><linearGradient id="linear-gradient-12" x1="131.55" y1="626.86" x2="633.89" y2="626.86" xlink:href="#linear-gradient-2"/><linearGradient id="linear-gradient-13" x1="120.07" y1="648.49" x2="633.89" y2="648.49" xlink:href="#linear-gradient-2"/><linearGradient id="linear-gradient-14" x1="120.07" y1="670.11" x2="633.89" y2="670.11" xlink:href="#linear-gradient-2"/><linearGradient id="linear-gradient-15" x1="131.55" y1="691.74" x2="633.89" y2="691.74" xlink:href="#linear-gradient-2"/><linearGradient id="New_Gradient_Swatch_copy_33" x1="867.04" y1="1070.48" x2="861.2" y2="850.1" gradientUnits="userSpaceOnUse"><stop offset="0" stop-color="#796393"/><stop offset="0.57" stop-color="#51396c"/><stop offset="1" stop-color="#361d52"/></linearGradient><linearGradient id="New_Gradient_Swatch_copy_33-2" x1="866.39" y1="1002.86" x2="866.39" y2="1062.2" xlink:href="#New_Gradient_Swatch_copy_33"/><linearGradient id="New_Gradient_Swatch_copy_35" x1="146.33" y1="896.74" x2="1845.14" y2="886.52" gradientUnits="userSpaceOnUse"><stop offset="0" stop-color="#fbb48f"/><stop offset="0.23" stop-color="#f09788"/><stop offset="0.75" stop-color="#da5a78"/><stop offset="1" stop-color="#d14272"/></linearGradient><linearGradient id="New_Gradient_Swatch_copy_33-3" x1="76.2" y1="519.23" x2="2468.26" y2="558.64" xlink:href="#New_Gradient_Swatch_copy_33"/><linearGradient id="New_Gradient_Swatch_copy_2" x1="356.98" y1="532.8" x2="372.16" y2="532.8" gradientUnits="userSpaceOnUse"><stop offset="0" stop-color="#fff"/><stop offset="0.37" stop-color="#f2f2ff"/><stop offset="1" stop-color="#d2d2ff"/></linearGradient><linearGradient id="New_Gradient_Swatch_copy_2-2" x1="365.26" y1="526.91" x2="390.1" y2="526.91" xlink:href="#New_Gradient_Swatch_copy_2"/><linearGradient id="linear-gradient-16" x1="393.69" y1="536.26" x2="854.97" y2="536.26" xlink:href="#linear-gradient-2"/><linearGradient id="New_Gradient_Swatch_copy_2-3" x1="376.3" y1="532.09" x2="410.11" y2="532.09" xlink:href="#New_Gradient_Swatch_copy_2"/><linearGradient id="New_Gradient_Swatch_copy_2-4" x1="1358.12" y1="529.34" x2="1339.84" y2="529.34" xlink:href="#New_Gradient_Swatch_copy_2"/><linearGradient id="New_Gradient_Swatch_copy_2-5" x1="1349.84" y1="533.4" x2="1326.04" y2="533.4" xlink:href="#New_Gradient_Swatch_copy_2"/><linearGradient id="New_Gradient_Swatch_copy_2-6" x1="387.67" y1="542.38" x2="482.2" y2="541" xlink:href="#New_Gradient_Swatch_copy_2"/><linearGradient id="linear-gradient-17" x1="444.33" y1="291.53" x2="812.77" y2="291.53" gradientUnits="userSpaceOnUse"><stop offset="0" stop-color="#b7b4b1"/><stop offset="0.55" stop-color="#959390"/><stop offset="1" stop-color="#7d7b79"/></linearGradient><linearGradient id="linear-gradient-18" x1="444.33" y1="332.59" x2="812.77" y2="332.59" xlink:href="#linear-gradient-17"/><linearGradient id="linear-gradient-19" x1="444.33" y1="373.66" x2="812.77" y2="373.66" xlink:href="#linear-gradient-17"/><linearGradient id="linear-gradient-20" x1="444.33" y1="414.73" x2="812.77" y2="414.73" xlink:href="#linear-gradient-17"/><linearGradient id="linear-gradient-21" x1="444.33" y1="455.8" x2="812.77" y2="455.8" xlink:href="#linear-gradient-17"/><linearGradient id="linear-gradient-22" x1="444.33" y1="496.86" x2="812.77" y2="496.86" xlink:href="#linear-gradient-17"/><linearGradient id="linear-gradient-23" x1="444.33" y1="537.93" x2="812.77" y2="537.93" xlink:href="#linear-gradient-17"/><linearGradient id="linear-gradient-24" x1="444.33" y1="579" x2="812.77" y2="579" xlink:href="#linear-gradient-17"/><linearGradient id="linear-gradient-25" x1="444.33" y1="620.07" x2="812.77" y2="620.07" xlink:href="#linear-gradient-17"/><linearGradient id="linear-gradient-26" x1="444.33" y1="661.13" x2="812.77" y2="661.13" xlink:href="#linear-gradient-17"/><linearGradient id="linear-gradient-27" x1="444.33" y1="702.2" x2="812.77" y2="702.2" xlink:href="#linear-gradient-17"/><linearGradient id="linear-gradient-28" x1="444.33" y1="743.27" x2="812.77" y2="743.27" xlink:href="#linear-gradient-17"/><linearGradient id="linear-gradient-29" x1="444.33" y1="784.33" x2="812.77" y2="784.33" xlink:href="#linear-gradient-17"/><linearGradient id="New_Gradient_Swatch_copy_2-7" x1="1532.64" y1="531.03" x2="721.24" y2="540.69" xlink:href="#New_Gradient_Swatch_copy_2"/><linearGradient id="linear-gradient-30" x1="1215.73" y1="313.93" x2="1315.22" y2="313.93" xlink:href="#linear-gradient-17"/><linearGradient id="linear-gradient-31" x1="1215.73" y1="403.22" x2="1315.22" y2="403.22" xlink:href="#linear-gradient-17"/><linearGradient id="linear-gradient-32" x1="1215.73" y1="494.37" x2="1315.22" y2="494.37" xlink:href="#linear-gradient-17"/><linearGradient id="linear-gradient-33" x1="1215.73" y1="585.53" x2="1315.22" y2="585.53" xlink:href="#linear-gradient-17"/><linearGradient id="linear-gradient-34" x1="1215.73" y1="676.69" x2="1315.22" y2="676.69" xlink:href="#linear-gradient-17"/><linearGradient id="linear-gradient-35" x1="1215.73" y1="769.71" x2="1315.22" y2="769.71" xlink:href="#linear-gradient-17"/><linearGradient id="linear-gradient-36" x1="912.51" y1="548.99" x2="1196.85" y2="548.99" xlink:href="#linear-gradient-17"/><linearGradient id="linear-gradient-37" x1="912.83" y1="584.38" x2="1197.17" y2="584.38" xlink:href="#linear-gradient-17"/><linearGradient id="linear-gradient-38" x1="913.15" y1="619.77" x2="1197.49" y2="619.77" xlink:href="#linear-gradient-17"/><linearGradient id="linear-gradient-39" x1="913.47" y1="655.16" x2="1197.81" y2="655.16" xlink:href="#linear-gradient-17"/><linearGradient id="linear-gradient-40" x1="913.79" y1="690.55" x2="1198.13" y2="690.55" xlink:href="#linear-gradient-17"/><linearGradient id="linear-gradient-41" x1="914.11" y1="725.94" x2="1198.45" y2="725.94" xlink:href="#linear-gradient-17"/><linearGradient id="linear-gradient-42" x1="914.44" y1="761.33" x2="1198.77" y2="761.33" xlink:href="#linear-gradient-17"/><linearGradient id="linear-gradient-43" x1="914.76" y1="796.72" x2="1199.09" y2="796.72" xlink:href="#linear-gradient-17"/><linearGradient id="New_Gradient_Swatch_copy_34" x1="911.96" y1="510.4" x2="945.49" y2="510.4" gradientUnits="userSpaceOnUse"><stop offset="0" stop-color="#fcee99"/><stop offset="0.61" stop-color="#fdc182"/><stop offset="1" stop-color="#fea975"/></linearGradient><linearGradient id="linear-gradient-44" x1="952.95" y1="503.44" x2="1025.82" y2="503.44" xlink:href="#linear-gradient-17"/><linearGradient id="New_Gradient_Swatch_copy_34-2" x1="893.23" y1="467.29" x2="1271.33" y2="252.02" xlink:href="#New_Gradient_Swatch_copy_34"/><linearGradient id="linear-gradient-45" x1="952.95" y1="522.45" x2="1025.82" y2="522.45" xlink:href="#linear-gradient-17"/><linearGradient id="New_Gradient_Swatch_copy_7" x1="880.98" y1="-157.66" x2="880.98" y2="1252.63" gradientUnits="userSpaceOnUse"><stop offset="0" stop-color="#ffc1d6"/><stop offset="0.38" stop-color="#eb849d"/><stop offset="0.8" stop-color="#d84764"/><stop offset="1" stop-color="#d02f4d"/></linearGradient><linearGradient id="New_Gradient_Swatch_copy_2-8" x1="395.69" y1="526.59" x2="915.93" y2="527.97" xlink:href="#New_Gradient_Swatch_copy_2"/><linearGradient id="linear-gradient-46" x1="525.06" y1="260.19" x2="843.88" y2="260.19" xlink:href="#linear-gradient-17"/><linearGradient id="linear-gradient-47" x1="525.06" y1="306.58" x2="843.88" y2="306.58" xlink:href="#linear-gradient-17"/><linearGradient id="linear-gradient-48" x1="525.06" y1="352.97" x2="843.88" y2="352.97" xlink:href="#linear-gradient-17"/><linearGradient id="linear-gradient-49" x1="525.06" y1="399.36" x2="843.88" y2="399.36" xlink:href="#linear-gradient-17"/><linearGradient id="linear-gradient-50" x1="525.06" y1="445.75" x2="843.88" y2="445.75" xlink:href="#linear-gradient-17"/><linearGradient id="linear-gradient-51" x1="525.06" y1="492.15" x2="843.88" y2="492.15" xlink:href="#linear-gradient-17"/><linearGradient id="linear-gradient-52" x1="525.06" y1="538.54" x2="843.88" y2="538.54" xlink:href="#linear-gradient-17"/><linearGradient id="linear-gradient-53" x1="673.94" y1="584.62" x2="842.87" y2="584.62" xlink:href="#linear-gradient-17"/><linearGradient id="linear-gradient-54" x1="673.02" y1="633.6" x2="841.94" y2="633.6" xlink:href="#linear-gradient-17"/><linearGradient id="linear-gradient-55" x1="672.09" y1="683.29" x2="841.02" y2="683.29" xlink:href="#linear-gradient-17"/><linearGradient id="linear-gradient-56" x1="671.17" y1="732.97" x2="840.09" y2="732.97" xlink:href="#linear-gradient-17"/><linearGradient id="linear-gradient-57" x1="670.24" y1="778.87" x2="839.4" y2="778.87" xlink:href="#linear-gradient-17"/><linearGradient id="New_Gradient_Swatch_copy_34-3" x1="486.35" y1="777.99" x2="719.55" y2="557.89" xlink:href="#New_Gradient_Swatch_copy_34"/><linearGradient id="linear-gradient-58" x1="1177.02" y1="938.01" x2="1177.02" y2="979.14" gradientUnits="userSpaceOnUse"><stop offset="0" stop-color="#e2e2e2"/><stop offset="0.28" stop-color="#f1f1f1"/><stop offset="0.61" stop-color="#fcfcfc"/><stop offset="1" stop-color="#fff"/></linearGradient><linearGradient id="New_Gradient_Swatch_copy_40-2" x1="1099.3" y1="956.11" x2="1364.24" y2="956.11" xlink:href="#New_Gradient_Swatch_copy_40"/><linearGradient id="New_Gradient_Swatch_copy_40-3" x1="1240.79" y1="960.44" x2="1591.29" y2="948.02" xlink:href="#New_Gradient_Swatch_copy_40"/><linearGradient id="linear-gradient-59" x1="1117.68" y1="948.21" x2="1236.36" y2="948.21" xlink:href="#linear-gradient-17"/><linearGradient id="linear-gradient-60" x1="1117.68" y1="956.11" x2="1236.36" y2="956.11" xlink:href="#linear-gradient-17"/><linearGradient id="linear-gradient-61" x1="1117.68" y1="964.01" x2="1236.36" y2="964.01" xlink:href="#linear-gradient-17"/><linearGradient id="linear-gradient-62" x1="1162.01" y1="990.36" x2="1162.01" y2="1042.39" xlink:href="#linear-gradient-58"/><linearGradient id="New_Gradient_Swatch_copy_39" x1="1063.68" y1="1013.26" x2="1398.86" y2="1013.26" gradientUnits="userSpaceOnUse"><stop offset="0" stop-color="#60cdf9"/><stop offset="0.23" stop-color="#5daff1"/><stop offset="0.75" stop-color="#5872e1"/><stop offset="1" stop-color="#565adb"/></linearGradient><linearGradient id="New_Gradient_Swatch_copy_39-2" x1="1242.68" y1="1018.74" x2="1686.1" y2="1003.03" xlink:href="#New_Gradient_Swatch_copy_39"/><linearGradient id="linear-gradient-63" x1="1086.94" y1="1003.26" x2="1237.08" y2="1003.26" xlink:href="#linear-gradient-17"/><linearGradient id="linear-gradient-64" x1="1086.94" y1="1013.26" x2="1237.08" y2="1013.26" xlink:href="#linear-gradient-17"/><linearGradient id="linear-gradient-65" x1="1086.94" y1="1023.25" x2="1237.08" y2="1023.25" xlink:href="#linear-gradient-17"/><linearGradient id="linear-gradient-66" x1="1219.69" y1="885.28" x2="1219.69" y2="926.41" xlink:href="#linear-gradient-58"/><linearGradient id="New_Gradient_Swatch_copy_34-4" x1="1152.88" y1="903.38" x2="1291.86" y2="903.38" xlink:href="#New_Gradient_Swatch_copy_34"/><linearGradient id="New_Gradient_Swatch_copy_34-5" x1="1289.41" y1="905.12" x2="1566.78" y2="900.98" xlink:href="#New_Gradient_Swatch_copy_34"/><linearGradient id="linear-gradient-67" x1="1160.36" y1="895.48" x2="1279.03" y2="895.48" xlink:href="#linear-gradient-17"/><linearGradient id="linear-gradient-68" x1="1160.36" y1="903.38" x2="1279.03" y2="903.38" xlink:href="#linear-gradient-17"/><linearGradient id="linear-gradient-69" x1="1160.36" y1="911.28" x2="1279.03" y2="911.28" xlink:href="#linear-gradient-17"/><linearGradient id="linear-gradient-70" x1="2888.89" y1="-307.65" x2="2938.22" y2="-307.65" gradientTransform="translate(3051.06 -1714.51) rotate(137.66)" gradientUnits="userSpaceOnUse"><stop offset="0" stop-color="#f5f5f5"/><stop offset="0.41" stop-color="#ddd"/><stop offset="1" stop-color="#b3b3b3"/></linearGradient><linearGradient id="linear-gradient-71" x1="2914.48" y1="-199.81" x2="2913.55" y2="-260.33" gradientTransform="translate(3051.06 -1714.51) rotate(137.66)" gradientUnits="userSpaceOnUse"><stop offset="0" stop-color="#f75757"/><stop offset="1" stop-color="#cc1212"/></linearGradient><linearGradient id="linear-gradient-72" x1="2913.85" y1="-354.88" x2="2910.62" y2="-564.79" xlink:href="#linear-gradient-71"/><linearGradient id="linear-gradient-73" x1="2902.86" y1="-583.33" x2="2924.26" y2="-583.33" gradientTransform="translate(-1623.36 1262.34)" xlink:href="#linear-gradient-70"/><linearGradient id="linear-gradient-74" x1="2903.32" y1="-482.75" x2="2924.28" y2="-482.75" xlink:href="#linear-gradient-70"/><linearGradient id="linear-gradient-75" x1="2910.42" y1="-191.27" x2="2916.77" y2="-191.27" xlink:href="#linear-gradient-70"/><linearGradient id="linear-gradient-76" x1="-5551.24" y1="871.56" x2="-5525" y2="871.56" gradientTransform="matrix(-1, 0, 0, 1, -4325.9, 0)" xlink:href="#linear-gradient"/><linearGradient id="linear-gradient-77" x1="-5603.47" y1="871.56" x2="-5577.24" y2="871.56" gradientTransform="matrix(-1, 0, 0, 1, -4325.9, 0)" xlink:href="#linear-gradient"/><linearGradient id="linear-gradient-78" x1="1250.39" y1="560.08" x2="1238.53" y2="566.89" gradientUnits="userSpaceOnUse"><stop offset="0" stop-color="#ffecdc"/><stop offset="0.24" stop-color="#f6dac4"/><stop offset="0.74" stop-color="#e0ad87"/><stop offset="1" stop-color="#d39364"/></linearGradient><linearGradient id="linear-gradient-79" x1="1241.01" y1="555.57" x2="1273.59" y2="555.57" gradientUnits="userSpaceOnUse"><stop offset="0" stop-color="gray"/><stop offset="0.64" stop-color="#52524d"/><stop offset="1" stop-color="#3c3c35"/></linearGradient><linearGradient id="New_Gradient_Swatch_copy_33-4" x1="-5603.55" y1="776.07" x2="-5572.15" y2="776.07" gradientTransform="matrix(-1, 0, 0, 1, -4325.9, 0)" xlink:href="#New_Gradient_Swatch_copy_33"/><linearGradient id="New_Gradient_Swatch_2" x1="1192.41" y1="532.43" x2="1276.69" y2="704.29" gradientUnits="userSpaceOnUse"><stop offset="0" stop-color="#dbbafd"/><stop offset="0.11" stop-color="#d0aefd"/><stop offset="0.71" stop-color="#9371fc"/><stop offset="1" stop-color="#7c59fc"/></linearGradient><linearGradient id="New_Gradient_Swatch_copy_33-5" x1="-5603.09" y1="776.07" x2="-5536.96" y2="776.07" gradientTransform="matrix(-1, 0, 0, 1, -4325.9, 0)" xlink:href="#New_Gradient_Swatch_copy_33"/><linearGradient id="linear-gradient-80" x1="1246.5" y1="573.64" x2="1257.32" y2="573.64" gradientUnits="userSpaceOnUse"><stop offset="0" stop-color="#e3cbba"/><stop offset="0.25" stop-color="#dbbaa2"/><stop offset="0.78" stop-color="#c88f65"/><stop offset="1" stop-color="#bf7c4a"/></linearGradient><linearGradient id="linear-gradient-81" x1="1179.41" y1="619.48" x2="1195.42" y2="604.79" xlink:href="#linear-gradient-78"/><linearGradient id="New_Gradient_Swatch_copy_38" x1="-425.4" y1="286.84" x2="-398.11" y2="286.84" gradientTransform="translate(667.97)" gradientUnits="userSpaceOnUse"><stop offset="0" stop-color="#595b68"/><stop offset="0.54" stop-color="#38404e"/><stop offset="1" stop-color="#202d3b"/></linearGradient><linearGradient id="New_Gradient_Swatch_copy_38-2" x1="-390.73" y1="299.31" x2="-363.46" y2="299.31" xlink:href="#New_Gradient_Swatch_copy_38"/><linearGradient id="linear-gradient-82" x1="-374.7" y1="293.97" x2="-363.45" y2="293.97" gradientTransform="translate(667.97)" gradientUnits="userSpaceOnUse"><stop offset="0" stop-color="#77d8fc"/><stop offset="0.43" stop-color="#75c0ea"/><stop offset="1" stop-color="#719acd"/></linearGradient><linearGradient id="linear-gradient-83" x1="1673.98" y1="73.81" x2="1701.28" y2="73.81" gradientTransform="matrix(-1, 0, 0, 1, 2104.5, 0)" xlink:href="#linear-gradient-78"/><linearGradient id="linear-gradient-84" x1="1679.46" y1="90.53" x2="1693.54" y2="90.53" gradientTransform="matrix(-1, 0, 0, 1, 2104.5, 0)" xlink:href="#linear-gradient-80"/><linearGradient id="linear-gradient-85" x1="1677.12" y1="99.4" x2="1692.95" y2="99.4" gradientTransform="matrix(-1, 0, 0, 1, 2104.5, 0)" xlink:href="#linear-gradient"/><linearGradient id="New_Gradient_Swatch_copy_36" x1="1655.06" y1="132.86" x2="1717.36" y2="132.86" gradientTransform="matrix(-1, 0, 0, 1, 2104.5, 0)" gradientUnits="userSpaceOnUse"><stop offset="0" stop-color="#00dcac"/><stop offset="0.12" stop-color="#00cea6"/><stop offset="0.72" stop-color="#02918e"/><stop offset="1" stop-color="#027984"/></linearGradient><linearGradient id="New_Gradient_Swatch_copy_36-2" x1="1652.01" y1="132.96" x2="1675.15" y2="132.96" xlink:href="#New_Gradient_Swatch_copy_36"/><linearGradient id="linear-gradient-86" x1="1655.38" y1="170.71" x2="1719.42" y2="170.71" gradientTransform="matrix(-1, 0, 0, 1, 2104.5, 0)" xlink:href="#linear-gradient-78"/><linearGradient id="linear-gradient-87" x1="-331.76" y1="181.84" x2="-286.96" y2="181.84" gradientTransform="translate(667.97)" gradientUnits="userSpaceOnUse"><stop offset="0" stop-color="gray"/><stop offset="0.07" stop-color="#7a7a79"/><stop offset="0.47" stop-color="#585854"/><stop offset="0.79" stop-color="#44443d"/><stop offset="1" stop-color="#3c3c35"/></linearGradient><linearGradient id="linear-gradient-88" x1="-360.49" y1="164.09" x2="-331.76" y2="164.09" xlink:href="#linear-gradient-87"/><linearGradient id="New_Gradient_Swatch_copy_33-6" x1="-374.7" y1="238.41" x2="-226.93" y2="238.41" gradientTransform="translate(667.97)" xlink:href="#New_Gradient_Swatch_copy_33"/><linearGradient id="New_Gradient_Swatch_copy_33-7" x1="-407.56" y1="240.34" x2="-348.68" y2="240.34" gradientTransform="translate(667.97)" xlink:href="#New_Gradient_Swatch_copy_33"/><linearGradient id="linear-gradient-89" x1="-299.53" y1="178.2" x2="-282.89" y2="178.2" gradientTransform="translate(667.97)" xlink:href="#linear-gradient-78"/><linearGradient id="linear-gradient-90" x1="-302.15" y1="170.96" x2="-276.13" y2="170.96" gradientTransform="translate(667.97)" xlink:href="#linear-gradient-78"/><linearGradient id="linear-gradient-91" x1="-318.8" y1="176.91" x2="-300.81" y2="176.91" gradientTransform="translate(667.97)" xlink:href="#linear-gradient-78"/><linearGradient id="linear-gradient-92" x1="433.74" y1="64.08" x2="390.16" y2="64.08" xlink:href="#linear-gradient-79"/><linearGradient id="linear-gradient-93" x1="-4047.18" y1="1075.27" x2="-4020.56" y2="1075.27" gradientTransform="matrix(-1, 0, 0, 1, -3453.68, 0)" xlink:href="#linear-gradient"/><linearGradient id="linear-gradient-94" x1="-4100.2" y1="1075.27" x2="-4073.57" y2="1075.27" gradientTransform="matrix(-1, 0, 0, 1, -3453.68, 0)" xlink:href="#linear-gradient"/><linearGradient id="linear-gradient-95" x1="618.93" y1="759.15" x2="606.9" y2="766.05" xlink:href="#linear-gradient-78"/><linearGradient id="linear-gradient-96" x1="-253.61" y1="764.6" x2="-252.93" y2="764.6" gradientTransform="translate(872.22)" xlink:href="#linear-gradient-79"/><linearGradient id="linear-gradient-97" x1="617.29" y1="767.1" x2="613.69" y2="781.25" xlink:href="#linear-gradient-78"/><linearGradient id="linear-gradient-98" x1="-253.94" y1="765.23" x2="-253.44" y2="765.23" gradientTransform="translate(872.22)" xlink:href="#linear-gradient-80"/><linearGradient id="linear-gradient-99" x1="616.8" y1="762.02" x2="607.23" y2="780.6" xlink:href="#linear-gradient-78"/><linearGradient id="New_Gradient_Swatch_copy_37-2" x1="519.63" y1="760.99" x2="693.5" y2="898.98" xlink:href="#New_Gradient_Swatch_copy_37"/><linearGradient id="linear-gradient-100" x1="695.73" y1="802.25" x2="716.85" y2="802.25" gradientTransform="matrix(-1, 0, 0, 1, 1254.2, 0)" xlink:href="#linear-gradient-78"/><linearGradient id="New_Gradient_Swatch_copy_33-8" x1="607.57" y1="975.47" x2="675.18" y2="975.47" gradientTransform="matrix(-1, 0, 0, 1, 1254.2, 0)" xlink:href="#New_Gradient_Swatch_copy_33"/><linearGradient id="linear-gradient-101" x1="605.63" y1="876.73" x2="607.84" y2="876.73" gradientTransform="matrix(-1, 0, 0, 1, 1254.2, 0)" gradientUnits="userSpaceOnUse"><stop offset="0" stop-color="#ffd571"/><stop offset="0.25" stop-color="#ffbd60"/><stop offset="0.78" stop-color="#ff8035"/><stop offset="1" stop-color="#ff6421"/></linearGradient><linearGradient id="New_Gradient_Swatch_copy_33-9" x1="604.51" y1="975.61" x2="639.2" y2="975.61" gradientTransform="matrix(-1, 0, 0, 1, 1254.2, 0)" xlink:href="#New_Gradient_Swatch_copy_33"/><linearGradient id="New_Gradient_Swatch_copy_37-3" x1="543.72" y1="697.86" x2="627.9" y2="804.11" xlink:href="#New_Gradient_Swatch_copy_37"/><linearGradient id="linear-gradient-102" x1="566.46" y1="727.67" x2="586.26" y2="727.67" xlink:href="#linear-gradient-78"/><linearGradient id="linear-gradient-103" x1="568.79" y1="717.46" x2="572.71" y2="717.46" xlink:href="#linear-gradient-78"/><linearGradient id="linear-gradient-104" x1="569.3" y1="719.14" x2="568.27" y2="719.14" xlink:href="#linear-gradient"/><linearGradient id="linear-gradient-105" x1="-269.05" y1="781.63" x2="-226.69" y2="781.63" gradientTransform="translate(872.22)" xlink:href="#linear-gradient-79"/><linearGradient id="New_Gradient_Swatch_copy_43" x1="1258.56" y1="356.57" x2="1374.47" y2="218.58" gradientUnits="userSpaceOnUse"><stop offset="0" stop-color="#767aa4"/><stop offset="0.55" stop-color="#5c6081"/><stop offset="1" stop-color="#4b4f69"/></linearGradient><linearGradient id="New_Gradient_Swatch_copy_43-2" x1="1337.66" y1="275.96" x2="1470.14" y2="96.57" xlink:href="#New_Gradient_Swatch_copy_43"/><linearGradient id="New_Gradient_Swatch_copy_43-3" x1="1649.34" y1="439.61" x2="1105.65" y2="4.94" xlink:href="#New_Gradient_Swatch_copy_43"/><linearGradient id="New_Gradient_Swatch_copy_38-3" x1="1186.45" y1="127.31" x2="1433.4" y2="127.31" gradientTransform="matrix(1, 0, 0, 1, 0, 0)" xlink:href="#New_Gradient_Swatch_copy_38"/><linearGradient id="New_Gradient_Swatch_copy_34-6" x1="1212.02" y1="114.28" x2="1165.68" y2="115.74" xlink:href="#New_Gradient_Swatch_copy_34"/><linearGradient id="New_Gradient_Swatch_copy_34-7" x1="1199.54" y1="228.54" x2="1190.78" y2="102.3" xlink:href="#New_Gradient_Swatch_copy_34"/><linearGradient id="New_Gradient_Swatch_copy_34-8" x1="1191.68" y1="90.96" x2="1191.55" y2="105.78" gradientTransform="translate(-3.37 24.43) rotate(-0.92)" xlink:href="#New_Gradient_Swatch_copy_34"/></defs><ellipse class="cls-1" cx="838.66" cy="1054.15" rx="838.66" ry="44.04"/><path class="cls-2" d="M622,876.74v155.32H144.1c-26.8,0-48.54-26.5-48.54-59.2v-37c0-32.66,21.74-59.16,48.54-59.16Z"/><path class="cls-3" d="M95.56,935.9v37c0,32.69,21.75,59.2,48.57,59.2h501v19H138.25c-32.21,0-58.32-31.82-58.32-71.08V928.77c0-39.25,26.11-71.08,58.32-71.08H645.13v19h-501C117.29,876.74,95.56,903.23,95.56,935.9Z"/><rect class="cls-4" x="119.67" y="891.78" width="502.34" height="14.47"/><rect class="cls-5" x="108.19" y="928.71" width="513.82" height="14.47"/><rect class="cls-6" x="108.19" y="965.63" width="513.82" height="14.47"/><rect class="cls-7" x="119.67" y="1002.56" width="502.34" height="14.47"/><path class="cls-8" d="M690.24,730.08v113.7H212.33c-26.8,0-48.54-19.39-48.54-43.34V773.39c0-23.91,21.74-43.31,48.54-43.31Z"/><path class="cls-9" d="M163.79,773.39v27.05c0,23.94,21.75,43.34,48.58,43.34h501v13.91H206.48c-32.21,0-58.32-23.29-58.32-52V768.17c0-28.74,26.11-52,58.32-52H713.37v13.94h-501C185.52,730.08,163.79,749.47,163.79,773.39Z"/><rect class="cls-10" x="187.9" y="741.09" width="502.34" height="10.59"/><rect class="cls-11" x="176.42" y="768.12" width="513.82" height="10.59"/><rect class="cls-12" x="176.42" y="795.15" width="513.82" height="10.59"/><rect class="cls-13" x="187.9" y="822.18" width="502.34" height="10.59"/><path class="cls-14" d="M633.89,613.82v91H156c-26.8,0-48.54-15.51-48.54-34.67V648.47c0-19.13,21.74-34.65,48.54-34.65Z"/><path class="cls-15" d="M107.44,648.47v21.64c0,19.15,21.75,34.67,48.58,34.67H657v11.13H150.13c-32.21,0-58.32-18.64-58.32-41.63v-30c0-23,26.11-41.62,58.32-41.62H657v11.15H156C129.17,613.82,107.44,629.33,107.44,648.47Z"/><rect class="cls-16" x="131.55" y="622.63" width="502.34" height="8.47"/><rect class="cls-17" x="120.07" y="644.25" width="513.82" height="8.47"/><rect class="cls-18" x="120.07" y="665.88" width="513.82" height="8.47"/><rect class="cls-19" x="131.55" y="687.5" width="502.34" height="8.47"/><polygon class="cls-20" points="995.22 1024.03 736.39 1024.03 749.26 939.66 983.07 939.66 995.22 1024.03"/><path class="cls-21" d="M726,1024h280.84a13.79,13.79,0,0,1,13.79,13.79v9.57a0,0,0,0,1,0,0H712.18a0,0,0,0,1,0,0v-9.57A13.79,13.79,0,0,1,726,1024Z"/><path class="cls-22" d="M343.13,845.27H1389.2a0,0,0,0,1,0,0v75.63a18.75,18.75,0,0,1-18.75,18.75H361.88a18.75,18.75,0,0,1-18.75-18.75V845.27a0,0,0,0,1,0,0Z"/><path class="cls-23" d="M361.88,218.92H1370.45a18.75,18.75,0,0,1,18.75,18.75V845.27a0,0,0,0,1,0,0H343.13a0,0,0,0,1,0,0V237.67A18.75,18.75,0,0,1,361.88,218.92Z"/><rect class="cls-24" x="365.37" y="242.84" width="1000.87" height="579.92"/><rect class="cls-25" x="372.23" y="240.41" width="462.83" height="573"/><rect class="cls-26" x="393.69" y="249.76" width="461.28" height="573"/><rect class="cls-27" x="382.49" y="245.6" width="461.28" height="573"/><polygon class="cls-28" points="865.38 815.84 1355.97 815.84 1355.97 244.39 865.38 242.84 865.38 815.84"/><polygon class="cls-29" points="865.8 818.59 1342.44 821.2 1342.44 245.6 865.8 245.6 865.8 818.59"/><polygon class="cls-30" points="865.8 822.76 404.53 829.6 404.53 254.66 865.8 254.66 865.8 822.76"/><g class="cls-31"><rect class="cls-32" x="444.33" y="285.46" width="368.44" height="12.13"/><rect class="cls-33" x="444.33" y="326.53" width="368.44" height="12.13"/><rect class="cls-34" x="444.33" y="367.6" width="368.44" height="12.13"/><rect class="cls-35" x="444.33" y="408.66" width="368.44" height="12.13"/><rect class="cls-36" x="444.33" y="449.73" width="368.44" height="12.13"/><rect class="cls-37" x="444.33" y="490.8" width="368.44" height="12.13"/><rect class="cls-38" x="444.33" y="531.86" width="368.44" height="12.13"/><rect class="cls-39" x="444.33" y="572.93" width="368.44" height="12.13"/><rect class="cls-40" x="444.33" y="614" width="368.44" height="12.13"/><rect class="cls-41" x="444.33" y="655.07" width="368.44" height="12.13"/><rect class="cls-42" x="444.33" y="696.13" width="368.44" height="12.13"/><rect class="cls-43" x="444.33" y="737.2" width="368.44" height="12.13"/><rect class="cls-44" x="444.33" y="778.27" width="368.44" height="12.13"/></g><polygon class="cls-45" points="866.16 822.62 1327.44 829.6 1327.44 242.84 866.16 242.84 866.16 822.62"/><g class="cls-46"><rect class="cls-47" x="1215.73" y="278.93" width="99.49" height="70"/><rect class="cls-48" x="1215.73" y="368.22" width="99.49" height="70"/><rect class="cls-49" x="1215.73" y="459.37" width="99.49" height="70"/><rect class="cls-50" x="1215.73" y="550.53" width="99.49" height="70"/><rect class="cls-51" x="1215.73" y="641.69" width="99.49" height="70"/><rect class="cls-52" x="1215.73" y="734.71" width="99.49" height="70"/></g><g class="cls-53"><rect class="cls-54" x="912.51" y="542.55" width="284.34" height="12.88"/><rect class="cls-55" x="912.83" y="577.94" width="284.34" height="12.88"/><rect class="cls-56" x="913.15" y="613.33" width="284.34" height="12.88"/><rect class="cls-57" x="913.47" y="648.72" width="284.34" height="12.88"/><rect class="cls-58" x="913.79" y="684.11" width="284.34" height="12.88"/><rect class="cls-59" x="914.11" y="719.49" width="284.34" height="12.88"/><rect class="cls-60" x="914.44" y="754.88" width="284.34" height="12.88"/><rect class="cls-61" x="914.76" y="790.27" width="284.34" height="12.88"/></g><ellipse class="cls-62" cx="928.72" cy="510.4" rx="16.76" ry="17.53"/><rect class="cls-63" x="952.95" y="494.26" width="72.87" height="18.36"/><rect class="cls-64" x="910.86" y="268.66" width="285.99" height="214.36"/><rect class="cls-65" x="950.48" y="462.72" width="232.84" height="7.46"/><polygon class="cls-65" points="918.17 466.45 925.52 470.42 925.52 466.45 925.52 462.49 918.17 466.45"/><polygon class="cls-65" points="944.15 466.45 936.81 470.42 936.81 466.45 936.81 462.49 944.15 466.45"/><rect class="cls-65" x="928.89" y="462.49" width="1.61" height="7.93"/><rect class="cls-65" x="931.48" y="462.49" width="1.61" height="7.93"/><polygon class="cls-65" points="1076.12 359.66 1035.79 381.44 1035.79 359.66 1035.79 337.88 1076.12 359.66"/><path class="cls-65" d="M1053.85,309.39a50.27,50.27,0,1,0,50.27,50.27A50.27,50.27,0,0,0,1053.85,309.39Zm0,92a41.77,41.77,0,1,1,41.77-41.77A41.77,41.77,0,0,1,1053.85,401.43Z"/><rect class="cls-66" x="952.95" y="518.45" width="72.87" height="8.01"/><path class="cls-67" d="M894.28,869h0v-626a4.06,4.06,0,0,0-4-4.11H871.68a4.06,4.06,0,0,0-4,4.11V888.4L881,869l13.3,19.37Z"/><path class="cls-68" d="M865.81,822.76V242.84s-192.19-60.36-384.38-42.31V856.67S688.84,855.11,865.81,822.76Z"/><g class="cls-69"><path class="cls-70" d="M843.88,283.38c-.29-.1-35.55-12.55-88.14-21.32C707.21,254,625,245.58,525.06,252.81v-13c101.41-7.35,184,1.22,233.29,9.47,53.65,9,84.31,20.07,85.53,20.52v6.41h0Z"/><path class="cls-71" d="M843.88,329.77c-.29-.1-35.55-12.55-88.14-21.31C707.21,300.37,625,292,525.06,299.21v-13c101.41-7.35,184,1.22,233.29,9.47,53.65,9,84.31,20.08,85.53,20.52v6.41h0Z"/><path class="cls-72" d="M843.88,376.17c-.29-.11-35.55-12.55-88.14-21.32-48.53-8.09-130.78-16.49-230.68-9.25v-13c101.41-7.35,184,1.21,233.29,9.47,53.65,9,84.31,20.07,85.53,20.52V369h0Z"/><path class="cls-73" d="M843.88,422.56c-.29-.11-35.55-12.55-88.14-21.32C707.21,393.15,625,384.75,525.06,392V379c101.41-7.35,184,1.22,233.29,9.47,53.65,9,84.31,20.07,85.53,20.52v6.41h0Z"/><path class="cls-74" d="M843.88,469c-.29-.1-35.55-12.55-88.14-21.32-48.53-8.09-130.78-16.48-230.68-9.25v-13c101.41-7.35,184,1.22,233.29,9.47,53.65,9,84.31,20.07,85.53,20.52v6.41h0Z"/><path class="cls-75" d="M843.88,515.34c-.29-.1-35.55-12.55-88.14-21.32-48.53-8.09-130.78-16.48-230.68-9.24v-13c101.41-7.35,184,1.22,233.29,9.47,53.65,9,84.31,20.07,85.53,20.52v6.41h0Z"/><path class="cls-76" d="M843.88,561.74c-.29-.11-35.55-12.56-88.14-21.32-48.53-8.09-130.78-16.49-230.68-9.25v-13c101.41-7.34,184,1.22,233.29,9.47,53.65,9,84.31,20.08,85.53,20.52v6.41h0Z"/><path class="cls-77" d="M842.87,606a306.65,306.65,0,0,0-47.43-18.21c-25.74-7.64-68.85-14.7-121.27-9.42l-.23-13c53.12-6,96.49,1.83,122.65,9.63,28.45,8.48,45.39,17,46,17.43l.11,6.41h0Z"/><path class="cls-78" d="M841.94,655.7c-.15-.1-19-12.22-46.86-20.5-25.74-7.64-69.27-15.28-121.83-7.13L673,615c53.36-8.28,97.06-.47,123.21,7.32,28.46,8.49,44.82,19.3,45.47,19.73l.12,6.41h0Z"/><path class="cls-79" d="M841,705.39c-.16-.1-19-12.22-46.87-20.51-25.73-7.64-69.27-15.28-121.83-7.12l-.23-13c53.36-8.27,97.06-.47,123.22,7.33,28.45,8.48,44.82,19.29,45.47,19.73l.11,6.41h0Z"/><path class="cls-80" d="M840.09,755.07c-.16-.1-19-12.22-46.86-20.5-25.74-7.64-69.27-15.28-121.84-7.13l-.22-13c53.36-8.28,97.06-.47,123.21,7.32,28.46,8.49,44.82,19.3,45.47,19.74l.11,6.4h0Z"/><path class="cls-81" d="M839.4,797.19c-.15-.11-19.2-4.65-47.1-12.94C766.57,776.61,723,769,670.47,777.13l-.23-13c53.36-8.28,97.06-.48,123.22,7.32,28.45,8.48,45,11.72,45.7,12.16l.12,6.41,0,.82Z"/></g><path class="cls-82" d="M654.33,565s-77.47-12.13-129.27,1.24v236.6s75.84-.83,129.27-8.24V565"/><polygon class="cls-65" points="603.72 668.81 580.51 681.35 580.51 668.81 580.51 656.28 603.72 668.81"/><path class="cls-65" d="M590.91,639.88a28.93,28.93,0,1,0,28.92,28.93A28.93,28.93,0,0,0,590.91,639.88Zm0,53a24,24,0,1,1,24-24A24,24,0,0,1,590.91,692.85Z"/><rect class="cls-83" x="1117.68" y="938.97" width="118.68" height="34.29"/><polygon class="cls-84" points="1249.19 929.75 1249.19 982.48 1110.21 982.48 1110.21 973.25 1236.36 973.25 1236.36 938.97 1110.21 938.97 1110.21 929.75 1249.19 929.75"/><rect class="cls-85" x="1249.19" y="929.74" width="227.73" height="52.73"/><rect class="cls-86" x="1117.68" y="946.72" width="118.68" height="2.98"/><rect class="cls-87" x="1117.68" y="954.62" width="118.68" height="2.98"/><rect class="cls-88" x="1117.68" y="962.52" width="118.68" height="2.98"/><rect class="cls-89" x="1086.94" y="991.57" width="150.14" height="43.37"/><polygon class="cls-90" points="1253.31 979.9 1253.31 1046.61 1077.49 1046.61 1077.49 1034.94 1237.08 1034.94 1237.08 991.57 1077.49 991.57 1077.49 979.9 1253.31 979.9"/><rect class="cls-91" x="1253.31" y="979.9" width="288.1" height="66.71"/><rect class="cls-92" x="1086.94" y="1001.38" width="150.14" height="3.78"/><rect class="cls-93" x="1086.94" y="1011.37" width="150.14" height="3.78"/><rect class="cls-94" x="1086.94" y="1021.36" width="150.14" height="3.78"/><rect class="cls-95" x="1160.36" y="886.24" width="118.68" height="34.29"/><polygon class="cls-96" points="1291.86 877.01 1291.86 929.75 1152.88 929.75 1152.88 920.52 1279.03 920.52 1279.03 886.24 1152.88 886.24 1152.88 877.01 1291.86 877.01"/><rect class="cls-97" x="1291.86" y="877.01" width="227.73" height="52.73"/><rect class="cls-98" x="1160.36" y="893.99" width="118.68" height="2.98"/><rect class="cls-99" x="1160.36" y="901.89" width="118.68" height="2.98"/><rect class="cls-100" x="1160.36" y="909.79" width="118.68" height="2.98"/><path class="cls-101" d="M1118.39,527c-22.88-25.75-44.07-51.58-59.72-74.39l27.66-25.21c21.26,17.71,45,41.21,68.53,66.38Z"/><path class="cls-102" d="M1058.67,452.59c-3-4.33-5.69-8.55-8.22-12.61l-22.19-41.08,7.43-6.78L1074.54,418c3.81,2.89,7.76,6,11.79,9.34Z"/><path class="cls-103" d="M1118.39,527l36.47-33.22c68.3,73.17,134.79,160.37,134.79,160.37l-24.09,22S1184.91,601.78,1118.39,527Z"/><path class="cls-104" d="M1282,660.22h16.44a2.48,2.48,0,0,1,2.48,2.48v35a0,0,0,0,1,0,0h-21.4a0,0,0,0,1,0,0v-35A2.48,2.48,0,0,1,1282,660.22Z" transform="translate(2701.24 311.91) rotate(137.66)"/><path class="cls-105" d="M1231.71,630.66l33.84,37.14,7.58-6.91.33-.3,7.58-6.91-33.83-37.13-4.86,1.39L1199.4,572.4s-6.91-9.76-7.64-10.56-18.94-14.38-18.94-14.38l-1.33,1.21-.33.3-1.33,1.21s11.84,19.4,12.57,20.2,9.8,8.58,9.8,8.58l41.35,47Z"/><path class="cls-106" d="M1029.6,397.68l-9.49-13.49c-.6-2.08,1.85-1.69,1.85-1.69l12.33,10.9Z"/><path class="cls-107" d="M1199.11,873.57c0,2.51,1.38,3.14,4.14,3.14s10.36.63,11.74,0,4.83-2.66,4.83-1.26c0,1.89,2.76,1.89,4.14,1.26s1.38-10.67,1.38-10.67H1215s-3.46.63-4.15,3.14S1199.11,871.06,1199.11,873.57Z"/><path class="cls-108" d="M1251.34,873.57c0,2.51,1.38,3.14,4.14,3.14s10.36.63,11.74,0,4.83-2.66,4.83-1.26c0,1.89,2.77,1.89,4.15,1.26s1.38-10.67,1.38-10.67h-10.36s-3.45.63-4.14,3.14S1251.34,871.06,1251.34,873.57Z"/><path class="cls-109" d="M1250.75,564.79a2.89,2.89,0,0,0-.62.75c-.44.74-.45,1.43-1.31,2.2s-2,3.33-3.64,4.26h0a2.18,2.18,0,0,1-1.2.33,1.58,1.58,0,0,1-.66-.15h0c-2-.82,2.42-11.83,4.31-16.24l.62-1.43.08-.18.08-.19c1.56-3.84,4-4.34,3.6-1.52s-4.15,10.23-3.14,11.4,2-6.66,4.53-5.63S1251.92,563.77,1250.75,564.79Z"/><path class="cls-110" d="M1273.48,558.37c-.68,7.18-18.68,18.49-18.68,18.49l-5.76-2.33c.66-3.46,1.09-9,1.09-9a2.89,2.89,0,0,1,.62-.75c1.17-1,5.16-5.36,2.61-6.4s-3.5,6.78-4.53,5.63,2.74-8.58,3.14-11.4-2-2.32-3.6,1.52l-.08.19a1.59,1.59,0,0,0-.08.18l-.62,1.43s-2.06.52-5.47-4.2,2.1-8.92,2.1-8.92c-1.25-2.55,1.8-5.76,1.8-5.76,10.32-8,15.87,4,15.87,4C1271.89,542.08,1274.16,551.19,1273.48,558.37Z"/><path class="cls-111" d="M1246.25,735.2l11.07,56.62L1267,866h10.57c.6-12.66-2.76-74.22-2.76-74.22,2.76-32.1,2.76-92.4,2.76-92.4s-.13-5.2-.38-13.31h0A351.73,351.73,0,0,0,1246.25,735.2Z"/><path class="cls-112" d="M1226.94,647.56c2.91-14.06,5.08-23,5.18-23.4a125.87,125.87,0,0,1-13.38,12.3l-14.93-17s11-12.68,18.77-21.62c3.48-4,6.28-7.28,7.09-8.28,2.65-3.23,12.26-6.39,12.26-6.39a21,21,0,0,1,2.28-1.07l.9-.34a20.15,20.15,0,0,1,9.66-1,8.69,8.69,0,0,1,.88.18s9.37,3.88,14.44,12.08c3.93,6.36,6.25,66,7.11,93.12h-57.43C1222.21,671.31,1224.78,658,1226.94,647.56Z"/><path class="cls-113" d="M1211.06,777.89l3.69,88.15h10.59s2.74-80.66,7.36-97.35c3.09-11.18,8-22.72,13.55-33.49a351.73,351.73,0,0,1,30.94-49.09h-57.42C1215.1,714.48,1210.91,748.3,1211.06,777.89Z"/><path class="cls-114" d="M1254.77,580.73a20.15,20.15,0,0,0-9.66,1,51,51,0,0,0,.86-5.43c.34-2.75-1.09-3.67-2-4a2.18,2.18,0,0,0,1.2-.33h0c1.59-.93,2.79-3.52,3.64-4.26s.87-1.46,1.31-2.2c0,0-.43,5.53-1.09,9l5.76,2.33S1254.28,579.9,1254.77,580.73Z"/><path class="cls-115" d="M1203.81,619.44s-8.56-8.54-16.91-17.13c-1.57-1.61-3.14-3.22-4.62-4.78h0l-1-1c-3.23-3.38-6.07-6.43-7.91-8.54a5.46,5.46,0,0,0,.11-1.29,13.78,13.78,0,0,0-.11-2c-.25-2.26-.15-5-1.13-4.91s-1.77,3.08-1.44,3.49l-4.12-5.19a7.56,7.56,0,0,0-1,5.78c.88,3,2.4,9.1,2.4,9.1s26.31,50.62,36.22,50.62c3.74,0,8.65-2.79,13.29-6.25.4-.29.78-.59,1.17-.89Z"/><path class="cls-116" d="M269.86,286.46s-5.32,8.68-6.84,8.5-3.91-1.64-2.92-3.27c.74-1.21-3.32-1.27-4.84-1.46s-7.75-4.72-10.14-6.17-3.25-2.72-1.93-4.89,10.54,4.19,12.45,2.38,4.77.56,4.77.56Z"/><path class="cls-117" d="M304.51,294.06c-.06.6-1.2,10.08-2.62,10.53s-4.23.16-4-1.74c.17-1.4-3.53.24-5,.71s-9-1.05-11.79-1.36-4.09-1.12-3.8-3.64,11.32-.61,12.31-3.05c.68-1.7,2.61-1.76,3.73-1.63l-.05.18Z"/><path class="cls-118" d="M304.52,294v0H293.27l.05-.18a5.6,5.6,0,0,1,.82.14Z"/><path class="cls-119" d="M403.23,70.71s.14.6.41,1.57c.22.77.52,1.79.9,2.94C406.36,80.68,410,89,415.16,87.68a4.89,4.89,0,0,0,1.16-.44c8.28-4.27,5.89-12.41,7-11.94s9.37-3.82,6.69-8.19-7.85-1.36-8.6,3.5-2.35,1-4.25-3.74-2.37-3.59-5.21-6.08-7.19.19-7.81,3.17A65.19,65.19,0,0,0,403.23,70.71Z"/><path class="cls-120" d="M411.16,105.78c.27-.13.4,0,.4,0,2.42-.74,5.29-7.78,9.9-10.55,3.74-2.24,3.66-3.76,3.55-5.54s-.42-6.2-.42-6.2L424.36,82l-1.05-6.7c-1.1-.47,1.29,7.67-7,11.94a4.89,4.89,0,0,1-1.16.44s2.08,5.29.93,9.19C415,100.49,409.92,105.67,411.16,105.78Z"/><path class="cls-121" d="M411.56,105.73s6.07-.69,6.45,3.44c0,0,10.48-7.64,9.28-18.34-1.42-.76-2.28-1.19-2.28-1.19.11,1.78.19,3.3-3.55,5.54C416.85,98,414,105,411.56,105.73Z"/><path class="cls-122" d="M429.65,158.3c-.64-13.17-.84-37.68,5.84-45.41,5.22-6,10.09-7.22,14-6.27-4.41-5.2-13.18-10.7-18.92-14-1.25-.71-2.36-1.32-3.24-1.8,1.2,10.7-9.28,18.34-9.28,18.34-.38-4.13-6.45-3.44-6.45-3.44a.9.9,0,0,1-.4,0c-.51.25-1.53,1.28-3.16,5.15h0a124.93,124.93,0,0,0-4.76,14.41c-3.31,11.78-8,25.88-11.39,36-2.66,7.8-4.6,13.27-4.7,13.53,8.43-.86,40-4.35,43.07-8C430.21,166.89,429.89,163.46,429.65,158.3Z"/><path class="cls-123" d="M429.65,158.3c4.69,1.57,19.48,1.27,19.48,1.27,2.49-19.73,5-45.48,2-50.68a16.61,16.61,0,0,0-1.65-2.27c-3.87-1-8.74.24-14,6.27C428.81,120.62,429,145.13,429.65,158.3Z"/><path class="cls-124" d="M385.09,175.11v8h53.43a8.46,8.46,0,0,0,8.39-7.27c.61-4.22,1.41-9.94,2.22-16.29,0,0-14.79.3-19.48-1.27.24,5.16.56,8.59.56,8.59-3.1,3.65-34.64,7.14-43.07,8Z"/><path class="cls-125" d="M381,180.56v2.57H336.21v-2.57H381Z"/><polygon class="cls-126" points="336.21 183.13 307.48 146.14 308.89 145.05 336.21 180.56 336.21 183.13"/><path class="cls-127" d="M441,182.75c-.13.64-4.55,20.94-16,32-11.63,11.25-79.47,0-79.47,0l-41.05,79.3H293.27l.05-.18c.5-2,5.32-20.65,10.77-41.68,5.84-22.48,12.4-47.66,15.2-58h0c.6-2.25,1-3.78,1.25-4.44,2.1-6.64,15.66-6.64,15.66-6.64H438.52A8.45,8.45,0,0,0,441,182.75Z"/><path class="cls-128" d="M319.29,194.23c-2.81,10.31-9.36,35.48-15.2,58l-34.23,34.26-9.45-4.35Z"/><path class="cls-129" d="M385.08,175.11v8a7.86,7.86,0,0,1-4.08-2.57H368.49c-.7,0,5.06-6.64,7-7.2S385.08,175.11,385.08,175.11Z"/><path class="cls-130" d="M391.84,161.36c-2.66,7.8-4.6,13.26-4.7,13.54l-2.06.21s-7.59-2.32-9.56-1.75-7.73,7.2-7,7.2h-1.33l-1.34-5.45Z"/><path class="cls-131" d="M367.16,180.56H349.23c-.71,0,5-6.64,7-7.2s9.56,1.75,9.56,1.75Z"/><path class="cls-132" d="M403.64,72.28c-.27-1-.41-1.57-.41-1.57a65.19,65.19,0,0,1,.9-6.75c.62-3,5-5.66,7.81-3.17s3.3,1.4,5.21,6.08,3.49,8.6,4.25,3.74,5.9-7.87,8.6-3.5-5.6,8.65-6.69,8.19l1.05,6.7A74.43,74.43,0,0,0,432,72.62c3.52-5.24,2.07-19.84-6.92-18.64,0,0-.28-8.71-10.8-7.74s-16.58,6.53-21.66,5.92-1.33,11.37,3.27,11.92,2.42,3.21,4.6,5.75S403.64,72.28,403.64,72.28Z"/><path class="cls-133" d="M566.88,1077.31c0,2.55,1.4,3.19,4.21,3.19s10.51.64,11.91,0,4.9-2.7,4.9-1.28c0,1.92,2.8,1.92,4.21,1.28s1.4-10.83,1.4-10.83H583s-3.51.63-4.21,3.19S566.88,1074.76,566.88,1077.31Z"/><path class="cls-134" d="M619.9,1077.31c0,2.55,1.4,3.19,4.2,3.19s10.51.64,11.91,0,4.91-2.7,4.91-1.28c0,1.92,2.8,1.92,4.2,1.28s1.4-10.83,1.4-10.83H636s-3.5.63-4.2,3.19S619.9,1074.76,619.9,1077.31Z"/><path class="cls-135" d="M619.3,763.93a3,3,0,0,0-.64.75c-.21.38-.34.74-.5,1.1l0,.11a2.66,2.66,0,0,1-.33.53,2.23,2.23,0,0,1-.45.49c-.85.76-2.08,3.38-3.69,4.34h0a2.31,2.31,0,0,1-1.21.34,2,2,0,0,1-.68-.16h0c-.82-.33-.61-2.27.06-4.77A99.21,99.21,0,0,1,616.09,755l.62-1.45.08-.2.09-.18c1.58-3.9,4.06-4.41,3.65-1.54s-4.21,10.37-3.18,11.56,2-6.76,4.59-5.71S620.49,762.89,619.3,763.93Z"/><path class="cls-136" d="M619.3,763.93a12.23,12.23,0,0,0-.69,1.35c0-.1,0-.18,0-.26l0-.34A2.81,2.81,0,0,1,619.3,763.93Z"/><path class="cls-137" d="M618.61,765.29c-2,4.53-1.74,10.52-.91,14.81h0a23.4,23.4,0,0,0-3.05.66c-.36.11-.72.22-1.09.36a48.4,48.4,0,0,0,.89-5.51,4.27,4.27,0,0,0-.49-2.89,2.83,2.83,0,0,0-1.53-1.13,2.31,2.31,0,0,0,1.21-.34h0c1.61-1,2.84-3.58,3.69-4.34a2.23,2.23,0,0,0,.45-.49,2.66,2.66,0,0,0,.33-.53l0-.11.47-.76C618.63,765.09,618.62,765.18,618.61,765.29Z"/><path class="cls-138" d="M618.66,764.68l0,.34-.47.76A10.5,10.5,0,0,1,618.66,764.68Z"/><path class="cls-139" d="M619.3,763.93l-.67,1.09-.47.76,0,.11-.33.53a2.23,2.23,0,0,1-.45.49c-.85.76-2.08,3.38-3.69,4.34h0a2.31,2.31,0,0,1-1.21.34,2,2,0,0,1-.68-.16h0c-.82-.33-.61-2.27.06-4.77A99.21,99.21,0,0,1,616.09,755l.62-1.45.08-.2.09-.18c1.58-3.9,4.06-4.41,3.65-1.54s-4.21,10.37-3.18,11.56,2-6.76,4.59-5.71S620.49,762.89,619.3,763.93Z"/><path class="cls-140" d="M646.59,881.56,589,881.27c1.27-7.64,1.6-3.29,10.46-28.8,6.6-19-2.93-26.47-2.93-26.47-.2-.24-.39-.46-.57-.69-3.36,3.44-7.08,7.1-10.51,10.12-4.61,4.07-8.66,7-10.49,6.6-5.45-1.18-26.35-19.79-26.35-19.79l4.88-7.89,5-8h0s11.33,9,13.17,10.38c0,0,11.22-10.2,19.06-19.26,3.53-4.09,6.37-7.4,7.19-8.41a13.21,13.21,0,0,1,3.68-2.73,49.29,49.29,0,0,1,5.73-2.64c1.76-.69,3-1.12,3-1.12a22.58,22.58,0,0,1,2.31-1.08c.31-.13.62-.24.9-.34s.73-.25,1.09-.36a22,22,0,0,1,3.05-.67h0a20.11,20.11,0,0,1,5.68,0c.56.1.88.19.88.19s9.51,3.94,14.67,12.26a16.19,16.19,0,0,1,1.34,4.46v0c0,.46.52,7.8.32,17.42a153.87,153.87,0,0,1-2.44,26.25,16.08,16.08,0,0,0,1.08,9.75c4.34,9.6,6.31,16.55,7.11,21.42v0A28.11,28.11,0,0,1,646.59,881.56Z"/><path class="cls-141" d="M537.38,794.19c.46,3.37,2.5,4.5,4.77,5.6s2.52,1.53,2.7,1.9,8.67,12.65,8.67,12.65l5-8s-9.7-8.2-9.83-8.61,0-4-1.22-4.87-.82,2.91-2,2.65-3.67-2.54-3.94-4.54S536.93,790.83,537.38,794.19Z"/><path class="cls-142" d="M579,980.21l3.73,89.45h10.76s2.77-81.86,7.47-98.8a176.94,176.94,0,0,1,11.58-29.66h0l2.42-3c21.92-27.12,28.7-43,30.75-50.69l.13-.49c0-.14.06-.27.1-.42a15.55,15.55,0,0,0,.62-5.07L589,881.27s-.79,3.62-1.17,5.78h0c0,.2-.07.39-.1.6C583.05,916.32,578.86,950.38,579,980.21Z"/><path class="cls-143" d="M646.6,881.56h2a57.15,57.15,0,0,0-2.21-9.66A28.27,28.27,0,0,1,646.6,881.56Z"/><path class="cls-144" d="M615,938.23l11,56.11,9.83,75.32h10.72c.62-12.84-2.79-75.32-2.79-75.32,1.25-14.65,1.94-35.09,2.32-53.14h0A185.1,185.1,0,0,0,648.61,913a112,112,0,0,0,0-31.46h-2a15.55,15.55,0,0,1-.62,5.07c0,.15-.07.28-.1.42l-.13.49C643.7,895.28,636.92,911.11,615,938.23Z"/><path class="cls-145" d="M614.45,775.62a48.4,48.4,0,0,1-.89,5.51c-.28.1-.59.21-.9.34a22.58,22.58,0,0,0-2.31,1.08s-1.28.43-3,1.12a49.29,49.29,0,0,0-5.73,2.64c-7.62-3.6-24.19-36.56-24.19-36.56L581,744l5.23-8.25C588,737.92,601.34,754,608,762.08c2.3,2.76,3.8,4.58,3.8,4.58-.67,2.5-.88,4.44-.06,4.77h0a2,2,0,0,0,.68.16,2.83,2.83,0,0,1,1.53,1.13A4.27,4.27,0,0,1,614.45,775.62Z"/><path class="cls-146" d="M586.26,735.76,581,744l-9.62-20.09a4.77,4.77,0,0,0-1.21-1.75c-.8-.69-4.07-1.77-3.71-2.64.18-.43,1.21-.44,2.3-.39a9.68,9.68,0,0,0,2.63.05,5.09,5.09,0,0,0,1.29-3,4.66,4.66,0,0,0-.08-.59c-.24-1.45-1-4.32-.37-4.33,1.28,0,2.6,5.57,2.78,6.9s-.23,3.17,0,4.11S586.26,735.76,586.26,735.76Z"/><path class="cls-147" d="M572.71,716.24a5.09,5.09,0,0,1-1.29,3,9.68,9.68,0,0,1-2.63-.05,15.59,15.59,0,0,1,1.27-3.08,9.34,9.34,0,0,1,2.57-.41A4.66,4.66,0,0,1,572.71,716.24Z"/><polygon class="cls-148" points="568.27 719.15 568.27 719.14 569.3 719.14 568.27 719.15"/><path class="cls-149" d="M641,790.69c1.88,5.82,4.37,13.81,1.23,21.14a10.83,10.83,0,0,1-.65,1.27c-.06.11-.13.21-.2.32a3.51,3.51,0,0,1-.27.4,7.8,7.8,0,0,1-.48.62c-1.83,2.23-4.77,3.93-9.23,4.73-15.7,2.84-22.2-12.83-18.94-21.43s8.61-10.32,7-12.51a15,15,0,0,1-1.7-5.12c-.83-4.29-1.07-10.3.91-14.83a12.23,12.23,0,0,1,.69-1.35c1.19-1,5.23-5.44,2.64-6.5s-3.55,6.88-4.59,5.71,2.79-8.7,3.18-11.56-2.08-2.36-3.65,1.54l-.09.18c0,.06,0,.12-.07.2l-.64,1.45c-1.91,4.47-6.44,15.64-4.36,16.48h0a2.08,2.08,0,0,0,.68.15,2.93,2.93,0,0,1,1.53,1.14,4.27,4.27,0,0,1,.49,2.89,51.77,51.77,0,0,1-.89,5.51c-.29.11-.6.22-.9.35a19.84,19.84,0,0,0-2.32,1.08s-1.28.42-3,1.11c-10.41-12.57,2.1-23,2.1-23a14.78,14.78,0,0,1,1.8-9.1,13.21,13.21,0,0,1,8.56-5.84s12.94-7.45,22.53,6.47c.52.73,1,1.54,1.49,2.37C650.61,765.28,634.78,771.59,641,790.69Z"/><path class="cls-150" d="M1492.35,324.9l-60.53,68.45a41.64,41.64,0,0,1-48.73,10.31c-36-16.83-72.77-40.9-107.41-71.54s-63-64.24-84.14-97.87a41.61,41.61,0,0,1,4.27-49.62l60.53-68.45Z"/><polygon class="cls-151" points="1617.48 387.62 1594.77 376.28 1366.67 262.37 1194.72 21.78 1179.18 0 1435.65 143.12 1617.48 387.62"/><polygon class="cls-152" points="1617.48 387.62 1609.73 396.38 1358.91 271.14 1171.42 8.77 1179.18 0 1194.72 21.78 1366.67 262.37 1594.77 376.28 1617.48 387.62"/><path class="cls-153" d="M1408.12,179.4c-13.1-11.59-26.17-19.46-33.64-20.8h0c-.39-.31-41.87-33.71-80.79-63.84-80.39-62.26-84.49-57.33-87.42-56.83-2,.35-6.94,6.18-19.82,55.67l8.14.66c4.49-15.68,10.15-44.95,15.82-50.51,15.56,10.42,102.72,78.7,158.77,122.66,2.88,7.33,12,18.63,24.3,29.55,17.54,15.51,35,24.38,39.08,19.81S1425.66,194.91,1408.12,179.4Z"/><path class="cls-154" d="M1200.44,114.21a7.32,7.32,0,0,1-1,4.31,10.44,10.44,0,0,1-16.51,1.29,7.19,7.19,0,0,1-1.68-4.09c-.36-4.58,3.64-8.64,9-9.06S1200.08,109.63,1200.44,114.21Z"/><path class="cls-155" d="M1221.05,200.63s-13.69,2.69-15.06,1.18-5.4-1.7-5.4-1.7l-2.78,3.09-3.27-2.61s-4,.82-5.06,2.52-15.06,1.19-15.06,1.19l8.5-84.49a10.44,10.44,0,0,0,16.51-1.29Z"/><path class="cls-156" d="M1197.94,99.47c.31,3.94-3.14,7.43-7.7,7.79s-8.51-2.55-8.82-6.49,3.13-7.43,7.7-7.78S1197.63,95.53,1197.94,99.47Z"/></svg>