<svg id="Layer_1" data-name="Layer 1" xmlns="http://www.w3.org/2000/svg" viewBox="0 0 698.38 357.58"><defs><style>.cls-1{fill:#e9eaeb;}.cls-10,.cls-11,.cls-2,.cls-7,.cls-9{fill:none;}.cls-10,.cls-2,.cls-4,.cls-5,.cls-7,.cls-8{stroke:#263238;}.cls-10,.cls-11,.cls-2,.cls-4,.cls-5,.cls-7,.cls-8,.cls-9{stroke-linecap:round;stroke-linejoin:round;}.cls-3{fill:#f0ae00;}.cls-4,.cls-6{fill:#263238;}.cls-13,.cls-5,.cls-8{fill:#fff;}.cls-7,.cls-8{stroke-width:2px;}.cls-9{stroke:#fff;}.cls-10{stroke-width:3px;}.cls-11{stroke:#f0ae00;}.cls-12{fill:#e91d2c;}.cls-14{fill:#a2a7a9;}</style></defs><path class="cls-1" d="M683.26,135.58s-13-68.72-86-107.12-162-28.3-199,14.15-34,117.23-73,115.21-54-55.59-108-21.22-26,80.84-30,110.15-50-16.17-87-4-54,46.49-50,66.7-14,45.47-14,45.47h653S699.26,223.51,683.26,135.58Z" transform="translate(-1.73 -4.54)"/><line class="cls-2" x1="0.5" y1="350.73" x2="697.88" y2="350.73"/><path class="cls-3" d="M635.48,298.9c1.75.76,6,.67,6,.67s-.92-2.81-1-3c-.94-2-3.91-5.21-6.33-4.88a2.88,2.88,0,0,0-2.31,3.62C632.27,297,634,298.25,635.48,298.9Z" transform="translate(-1.73 -4.54)"/><path class="cls-3" d="M637,311.31c1.81.26,5.64-.85,5.94-.94a51.09,51.09,0,0,0,2.32,6.42c.52,1.21,1.09,2.42,1.68,3.63-.35-.51-.67-1-.72-1-1.43-1.65-5.15-4-7.39-3a2.88,2.88,0,0,0-1.28,4.1c.83,1.51,2.81,2.26,4.42,2.49s4.91-.64,5.78-.89c.23.46.45.93.68,1.39,1.11,2.2,2.22,4.39,3.25,6.58.36.77.69,1.54,1,2.31-.31-.45-.57-.83-.62-.88-1.43-1.65-5.15-4-7.39-3a2.88,2.88,0,0,0-1.28,4.1c.83,1.51,2.81,2.26,4.42,2.49s4.59-.56,5.62-.84c.32.8.64,1.6.91,2.39.17.54.37,1.05.51,1.61s.31,1.08.46,1.62c.25,1,.51,2.12.73,3.14.16.71.29,1.39.43,2.08-.35-.78-1.07-2.27-1.14-2.39-1.16-1.84-4.49-4.73-6.85-4.12a2.88,2.88,0,0,0-1.89,3.86c.59,1.62,2.44,2.65,4,3.13s5.51.05,6,0c.23,1.14.44,2.24.62,3.29.41,2.3.71,4.37,1,6.12h1.6c-.28-1.81-.65-4-1.13-6.39-.22-1.15-.49-2.38-.77-3.63a33.61,33.61,0,0,0,3.33-1.57,21,21,0,0,0,4.87,3.13c-.44,1.07-.87,2.11-1.3,3.08-.88,2-1.72,3.85-2.46,5.38H664c.63-1.41,1.33-3,2.07-4.81.44-1.09.9-2.26,1.35-3.46.46.09,4.22.86,6,.46,1.59-.36,3.51-1.26,4.22-2.83a2.89,2.89,0,0,0-1.59-4c-2.32-.77-5.85,1.85-7.14,3.61-.08.1-.78,1.32-1.21,2.09.18-.49.37-1,.55-1.48.37-1,.71-2,1.08-3.11.16-.54.32-1.07.48-1.62s.29-1.12.44-1.69c.31-1.32.56-2.67.79-4,.88.32,4,1.41,5.66,1.3s3.66-.71,4.6-2.16a2.88,2.88,0,0,0-1-4.18c-2.17-1.12-6.06.94-7.6,2.48-.1.09-1.08,1.32-1.61,2,.13-.83.26-1.65.37-2.49.3-2.42.53-4.88.77-7.33.07-.75.15-1.5.23-2.24.31.11,4,1.5,5.85,1.37,1.63-.12,3.66-.71,4.6-2.16a2.88,2.88,0,0,0-1-4.18c-2.17-1.12-6,.94-7.6,2.48-.12.11-1.53,1.88-1.87,2.35.18-1.65.37-3.29.62-4.9a50.31,50.31,0,0,1,1.4-6.44c.15.05,4,1.51,5.89,1.38,1.62-.11,3.66-.71,4.6-2.15a2.89,2.89,0,0,0-1-4.19c-2.17-1.12-6.06.94-7.6,2.48-.12.12-1.64,2-1.89,2.39l.09-.38a36.86,36.86,0,0,1,2.56-6.09c.55-1.09,1.14-2.1,1.74-3.06.69.34,3.88,1.89,5.57,2s3.72-.31,4.81-1.64a2.89,2.89,0,0,0-.5-4.27c-2-1.35-6.12.27-7.83,1.63-.09.08-1,.93-1.57,1.56l.83-1.29c1-1.54,2-2.88,3-4.06.53-.67,1-1.27,1.49-1.82.85,0,4.31-.12,5.82-.83s3.16-2,3.51-3.67a2.89,2.89,0,0,0-2.41-3.55c-2.43-.26-5.31,3.06-6.2,5.05-.08.18-1,3-.92,3h0c-.46.52-.94,1.09-1.46,1.72-.95,1.16-2,2.49-3.07,4a51.08,51.08,0,0,0-3.18,5.07,36.78,36.78,0,0,0-2.72,6.12s0,0,0,.07c0-.71,0-2.71,0-2.86-.28-2.16-2.09-6.18-4.49-6.62a2.89,2.89,0,0,0-3.33,2.72c-.14,1.71,1.1,3.43,2.31,4.52,1.37,1.22,5.17,2.4,5.48,2.5a51,51,0,0,0-1.61,6.63c-.23,1.3-.43,2.62-.6,3.95,0-.62,0-1.17,0-1.25-.28-2.16-2.09-6.17-4.49-6.61a2.88,2.88,0,0,0-3.33,2.71c-.14,1.72,1.11,3.44,2.32,4.52s4.45,2.18,5.31,2.45c-.07.51-.13,1-.2,1.53-.29,2.45-.57,4.89-.92,7.28-.12.85-.27,1.67-.42,2.5,0-.55,0-1,0-1.08-.28-2.17-2.09-6.18-4.49-6.62a2.88,2.88,0,0,0-3.33,2.72c-.14,1.71,1.1,3.43,2.31,4.52s4.14,2.06,5.16,2.39c-.18.84-.36,1.69-.57,2.49-.15.55-.27,1.09-.45,1.63s-.35,1.08-.52,1.61c-.37,1-.74,2.05-1.12,3-.26.68-.52,1.32-.79,2,.14-.84.36-2.48.36-2.62a11.2,11.2,0,0,0-1.5-5.46,3.33,3.33,0,0,0,0-.63,2.88,2.88,0,0,0-3.53-2.45c-2.36.62-3.85,4.76-4,6.94,0,.13.08,1.53.15,2.41-.12-.51-.23-1-.36-1.54-.25-1-.52-2.07-.82-3.19-.16-.53-.32-1.07-.49-1.61s-.38-1.1-.57-1.65c-.46-1.27-1-2.54-1.56-3.81.91-.22,4.14-1,5.44-2S662,327.72,662,326a2.9,2.9,0,0,0-3.12-3c-2.43.26-4.54,4.13-5,6.26,0,.14-.17,1.7-.23,2.56-.35-.75-.69-1.51-1.06-2.27-1.09-2.18-2.25-4.36-3.41-6.54-.35-.66-.69-1.33-1-2,.32-.07,4.18-1,5.64-2.08,1.29-1,2.66-2.62,2.65-4.34a2.9,2.9,0,0,0-3.12-3c-2.43.27-4.53,4.13-5,6.27,0,.16-.24,2.41-.26,3-.77-1.47-1.52-2.95-2.2-4.43a52.94,52.94,0,0,1-2.38-6.15c.16,0,4.19-1,5.68-2.09,1.29-1,2.66-2.61,2.64-4.34a2.88,2.88,0,0,0-3.11-2.95c-2.43.26-4.54,4.13-5,6.26,0,.17-.25,2.59-.26,3,0-.13-.09-.25-.12-.37a37.37,37.37,0,0,1-1.24-6.49c-.13-1.22-.2-2.38-.23-3.52.77-.09,4.28-.56,5.73-1.44s2.93-2.3,3.11-4a2.9,2.9,0,0,0-2.78-3.28c-2.44,0-4.95,3.61-5.63,5.68,0,.11-.28,1.3-.44,2.17,0-.51,0-1,0-1.53,0-1.85.12-3.54.24-5,.07-.85.15-1.61.24-2.33.7-.48,3.53-2.48,4.39-3.9s1.54-3.4.91-5a2.88,2.88,0,0,0-4-1.63c-2.17,1.12-2.74,5.48-2.38,7.63,0,.19.85,3,.88,3l0,0c-.1.69-.19,1.43-.28,2.24-.15,1.5-.3,3.19-.35,5a53.43,53.43,0,0,0,.15,6,37.26,37.26,0,0,0,1.11,6.61.19.19,0,0,0,0,.07c-.38-.6-1.51-2.25-1.61-2.37-1.43-1.65-5.15-4-7.4-3a2.89,2.89,0,0,0-1.28,4.1C633.36,310.32,635.35,311.07,637,311.31Z" transform="translate(-1.73 -4.54)"/><path class="cls-3" d="M678.8,299.84s.78-2.85.81-3c.3-2.16-.39-6.51-2.59-7.57a2.9,2.9,0,0,0-3.93,1.74c-.59,1.62.16,3.61,1,5C675.17,297.56,678.8,299.84,678.8,299.84Z" transform="translate(-1.73 -4.54)"/><path class="cls-4" d="M429.93,303.46a294.14,294.14,0,0,1,34.69-2.83c17.95-.3,23.83.88,28.24,2.35s8.36,13.84,2.56,25.6S469.33,350,441.68,347.69s-47.36-7.94-57.95-15.88-1.18-12.36,10.59-18.83S422,303.06,429.93,303.46Z" transform="translate(-1.73 -4.54)"/><path class="cls-5" d="M407,330.63s41.18-22.65,55.6-26.77,30.88-5,38.53,0S507,325,503.45,331.22,471.39,350.34,455.51,355s-78,4.42-95,5.89-58.24.59-64.13-2.65-2.35-6.77,6.18-8.82,36.77-2.06,50-5.89S397.26,335.63,407,330.63Z" transform="translate(-1.73 -4.54)"/><path class="cls-4" d="M503.45,331.22c1.72-3,3-8.4,3-13.71C495.8,326,479.2,336,456.24,344.17c-21.77,7.77-83.43,14.73-108.92,17.37,5.07-.11,9.64-.31,13.17-.61,17.06-1.47,79.13-1.18,95-5.89S499.92,337.4,503.45,331.22Z" transform="translate(-1.73 -4.54)"/><path class="cls-4" d="M474.35,348.09c4.36-1.85,8.73-3.86,12.71-5.86.88-4.33,1.92-17-7.39-41.54a91.09,91.09,0,0,0-17.1,3.17S480,323.81,474.35,348.09Z" transform="translate(-1.73 -4.54)"/><path class="cls-5" d="M366.71,340.35c-5.54,1.11-10.54,2.18-14.16,3.22-13.24,3.83-41.48,3.83-50,5.89s-12.06,5.58-6.18,8.82,47.07,4.12,64.13,2.65c2-.18,4.66-.32,7.78-.46C361.46,353.07,364.56,344.43,366.71,340.35Z" transform="translate(-1.73 -4.54)"/><path class="cls-5" d="M339.9,293.57s-26.77,3.23-40.3,4.41-38,12.06-43,22.65,10,23.24,18.54,25.88,34.12,8.53,48.24,7.65,55.89-13.24,63.24-15.59,20.3-7.94,20.3-7.94-12.36,0-33.24-10.59S349.61,298.57,339.9,293.57Z" transform="translate(-1.73 -4.54)"/><path class="cls-4" d="M282.43,302s21.11-2.2,30.78,4.84S329,335.39,329,335.39L373.73,320s-3.35-3.56-11.71-13.67-33-15.83-47.49-12.76S282.43,302,282.43,302Z" transform="translate(-1.73 -4.54)"/><path class="cls-5" d="M384.56,339.23l2.11-.66c7.36-2.35,20.3-7.94,20.3-7.94s-9.49,0-25.89-7.13C383.42,327.44,385.75,333.18,384.56,339.23Z" transform="translate(-1.73 -4.54)"/><path class="cls-4" d="M400.48,333.35a368.21,368.21,0,0,0-53.2,10.82c-25.43,7.19-56.09,4.63-70.95,2.69,9.48,2.78,33.56,8.15,47.1,7.3,14.12-.88,55.89-13.24,63.24-15.59C390.62,337.31,396.17,335.11,400.48,333.35Z" transform="translate(-1.73 -4.54)"/><path class="cls-5" d="M428.34,208.08l-6,59.45s2.86,14.31,4.76,20,3.82,14.95,2.87,15.9-1.59.32-8.27,2.23S407,319,396.86,323.49s-18.44,2.23-28-1.59-27.34-27-31.16-27.66-15.26-2.54-20-4.13-10.49-8.27-10.49-8.27-1,0-1-3.5.32-3.81.32-3.81a11.1,11.1,0,0,1-3.18-5.09c-.63-2.86,6-18.12,6-27.66s4.77-45.47,4.77-49.92,6.68-5.4,13.68-8.26,43.87-16.54,44.51-20.35,3.18-30.53,3.18-30.53,19.78,21.17,22.25,22.9a21.07,21.07,0,0,1,4.77,4.45l-2.22,10.49s9.54,7,15.89,10.81,14.95,7.31,15.27,9.86" transform="translate(-1.73 -4.54)"/><path class="cls-2" d="M328.4,278a21.49,21.49,0,0,1,4.23,4.47" transform="translate(-1.73 -4.54)"/><path class="cls-2" d="M306.24,278.34s9.14-6.33,18.27-2.6" transform="translate(-1.73 -4.54)"/><path class="cls-5" d="M406.08,174.65c-3.26-2.28-5.72-4.09-5.72-4.09l2.22-10.49a21.07,21.07,0,0,0-4.77-4.45c-2.47-1.73-22.25-22.9-22.25-22.9s-2.55,26.71-3.18,30.53c-.21,1.24-4.24,3.51-9.82,6.12,1,6.13,4.47,16.37,16.81,20.27S401.25,182.25,406.08,174.65Z" transform="translate(-1.73 -4.54)"/><path class="cls-6" d="M400.45,170.63l-.09-.07,2.22-10.49a21.07,21.07,0,0,0-4.77-4.45c-1.4-1-8.38-8.23-14.16-14.31l-1.47,7S382.2,168.26,400.45,170.63Z" transform="translate(-1.73 -4.54)"/><path class="cls-4" d="M380.46,67.13s-.91-7.59-7-9.11-20-.61-24.9,8.5-1.21,16.09.61,17.31a20.58,20.58,0,0,0,3.34,1.82l1.52-7.59s.6,6.68,4.86,8.2,13,0,13,0S379.55,80.79,380.46,67.13Z" transform="translate(-1.73 -4.54)"/><path class="cls-4" d="M436.6,94.25s10.81,7,10.81,14-13.35,9.54-13.35,9.54Z" transform="translate(-1.73 -4.54)"/><path class="cls-5" d="M439.07,95.67s-1.22,14.58-2.43,22.77-6.38,14.88-6.68,20.35-12.45,18.82-18.52,23.38-15.19,3-19.74-.61a58.79,58.79,0,0,1-15.79-21.86c-3.64-9.41-.91-23.08,0-27.33s23.68-21,41-21S439.07,95.67,439.07,95.67Z" transform="translate(-1.73 -4.54)"/><path class="cls-2" d="M419.94,129.68s1.21,10.93,1.21,11.84-2.73,3.65-7.29.91" transform="translate(-1.73 -4.54)"/><path class="cls-2" d="M401.72,142.43s4.86,6.08,12.75,5.77" transform="translate(-1.73 -4.54)"/><path class="cls-7" d="M418.12,120a37.63,37.63,0,0,0-22.78-4.25s-3.64,0-1.52,2.73c0,0-.91,9.11,1.22,11.85s7,4.85,11.84,4.85S416.6,129.38,418.12,120Z" transform="translate(-1.73 -4.54)"/><line class="cls-8" x1="391.79" y1="111.47" x2="372.05" y2="110.26"/><path class="cls-7" d="M418.12,120l5.16,1.52s-2.13,11.24-.91,14.27h0a6.65,6.65,0,0,0,4.53,4,23.48,23.48,0,0,0,4.88.88c2.43,0,7.59-4.86,8.81-13.36,0,0,1.51-.61.91-1.52s-7.95-5.16-18-4.24" transform="translate(-1.73 -4.54)"/><path class="cls-7" d="M417.81,122.7s3.88.25,5,1.71" transform="translate(-1.73 -4.54)"/><path class="cls-6" d="M407.33,126.16c-.35,2-1.34,3.48-2.2,3.33s-1.28-1.89-.93-3.88,1.33-3.47,2.2-3.32S407.68,124.18,407.33,126.16Z" transform="translate(-1.73 -4.54)"/><ellipse class="cls-6" cx="428.09" cy="131.11" rx="3.28" ry="1.43" transform="translate(185.47 503.97) rotate(-74.48)"/><path class="cls-7" d="M401,119.05s7.63-2.54,11.13,1.59" transform="translate(-1.73 -4.54)"/><path class="cls-7" d="M426.11,124.78s3.5-3.18,6.36,1.27" transform="translate(-1.73 -4.54)"/><path class="cls-4" d="M386.54,113s16.39-8.81,30.36-11.54,24.6-1.52,27-9.72S430,69.86,413,65s-37.34.31-45.54,12.45-5.47,26.72-3,32.19,4.25,9.72,8.81,10.32S386.54,113,386.54,113Z" transform="translate(-1.73 -4.54)"/><path class="cls-9" d="M374.67,103.35a17.6,17.6,0,0,0-4.43,3.66" transform="translate(-1.73 -4.54)"/><path class="cls-9" d="M431.78,82.66s4.43,2.66-8.41,8c-9.32,3.86-28.21,4.91-41.42,9.44" transform="translate(-1.73 -4.54)"/><path class="cls-9" d="M414.73,79.55a12.14,12.14,0,0,0,2.44-4" transform="translate(-1.73 -4.54)"/><path class="cls-9" d="M367.14,101.7s-4-5.76,9.74-9.74c9.9-2.88,24.18-3.91,33-8.75" transform="translate(-1.73 -4.54)"/><path class="cls-5" d="M378,124.52s-2.41-11.85-7.57-11.85-5.86,5.47-3.79,12.15,5.51,8.81,8.61,6.68" transform="translate(-1.73 -4.54)"/><path class="cls-2" d="M337.72,294.24s1.27-1.59,1.27-6.68-3.49-21.93-5.08-33.7-3.18-34.34-3.18-43.87" transform="translate(-1.73 -4.54)"/><path class="cls-2" d="M369.76,257.49a32.72,32.72,0,0,0,2.62,3.69" transform="translate(-1.73 -4.54)"/><path class="cls-2" d="M352,198.86s5.7,35.14,15.45,54.54" transform="translate(-1.73 -4.54)"/><path class="cls-2" d="M372,228.76c1.28,2.44,2.59,4.69,3.89,6.66" transform="translate(-1.73 -4.54)"/><path class="cls-2" d="M355.84,189s6.38,19.74,13.93,35.37" transform="translate(-1.73 -4.54)"/><path class="cls-5" d="M287.49,280.57s3.49,2.86,10.49,2.86,13-3.5,21.94-1.27,8.9,11.13,7.95,13.67S318.33,300,310.38,299s-24.17-2.54-24.17-2.54S288.76,287.25,287.49,280.57Z" transform="translate(-1.73 -4.54)"/><path class="cls-5" d="M281,272.49a9.33,9.33,0,0,0,4.78,5.52c4.05,2.21,5.52,8.09,5.52,11.4a15.22,15.22,0,0,1-.73,5.15s-1.11,4.42-4.79,5.15-5.88,3-10.3-1.47-10.66-18.39-10.66-18.39l.73-2.21a17,17,0,0,0,6.62-1.47C275.12,274.7,281,272.49,281,272.49Z" transform="translate(-1.73 -4.54)"/><line class="cls-10" x1="258.67" y1="252.87" x2="284.05" y2="295.17"/><path class="cls-5" d="M268.13,299.34a12,12,0,0,0,8.09,3c5.15,0,10.3-3.31,7.72-4.42s-4.41-2.2-6.25-1.47S268.13,299.34,268.13,299.34Z" transform="translate(-1.73 -4.54)"/><path class="cls-5" d="M264.45,293.83s2.2,6.25,4,7,9.57-1.11,11.78-2.58-1.48-4.05-4.79-4.05S264.45,293.83,264.45,293.83Z" transform="translate(-1.73 -4.54)"/><path class="cls-5" d="M263,284.26s-1.48,7.73,1.47,9.57,14.34,2.57,15.45.36-2.95-3.31-7-5.15S263,284.26,263,284.26Z" transform="translate(-1.73 -4.54)"/><path class="cls-5" d="M274.38,273.59s.37,14.35,1.84,15.82,4.78,1.84,5.52.74,1.47-13.61-.74-17.66S274.38,273.59,274.38,273.59Z" transform="translate(-1.73 -4.54)"/><path class="cls-5" d="M265.55,277.64s-4.78-1.1-4.78,3.68,6.62,7.72,9.56,8.09,6.26-.73,3.68-2.94S267.76,279.48,265.55,277.64Z" transform="translate(-1.73 -4.54)"/><path class="cls-4" d="M301.66,300.92,322.25,298s-2.65-3.83-9.41-3.83-10.89,3.24-11.77,4.42S301.66,300.92,301.66,300.92Z" transform="translate(-1.73 -4.54)"/><path class="cls-5" d="M343.14,325.33l32.94-11.47s-7.94-16.76-22.94-22.65-37.26-4.37-46.67-.84l3.43,3.78s6.76.3,14.12,8.83S338.72,325,338.72,325Z" transform="translate(-1.73 -4.54)"/><path class="cls-11" d="M322.58,292s13.08-1.87,26.79,27.4" transform="translate(-1.73 -4.54)"/><path class="cls-11" d="M329,290.68s13.08-1.87,26.79,27.41" transform="translate(-1.73 -4.54)"/><path class="cls-11" d="M334.44,289.64s13.09-1.86,26.79,27.41" transform="translate(-1.73 -4.54)"/><path class="cls-5" d="M255.48,321.51s14.7-21.77,42.06-20l4.12-.59s2.65-6.18,10.3-4.71S339.31,328,339.31,328l3.83-2.65s-10.41-17.63-18.35-27.63-18.32-9.66-21.65-6a51,51,0,0,0-4.82,7.3s-3.06-4.61-12.11-2.54C275.09,299,269,304,265.8,307.37c-4.59,5-13.87,11.72-13,11.2Z" transform="translate(-1.73 -4.54)"/><polygon class="cls-5" points="337.58 323.44 372.58 311.38 374.35 309.32 341.4 320.79 337.58 323.44"/><path class="cls-5" d="M425.65,186.62s12.63,4.36,14.53,11,11.37,43.18,13.91,48.58,8.27,8.59,8.27,12.72.31,7.31.31,7.31,6.68.32,7.32,5.73,1.91,12.4,1.91,12.4l25.44,39.35s15.17,1.23,18.67.91S529.9,325,533.7,327c1.47.77,4.4,3.29,6.7,11.39,1.14,4,3.67,11.81,2.08,11.49s-3.54-4.74-4.18-5.69a62.82,62.82,0,0,1-2.5-6.39s1.27,9.22,1.59,11.13a7.07,7.07,0,0,1-.63,3.81l-.14.06a7.75,7.75,0,0,1-4.92.3l-1.3-.36h0a5.19,5.19,0,0,1-4,.42l-1.42-.42s-2.06-6.53-4-9.07-7.9-5.3-7.9-5.3,6.47,7.38,6.15,12.15c-.13,1.93.32,3.5-1.27,2.54s-3.5-5.72-7-7.31-11.76-3.82-14.94-5.72-8.27-8.91-8.27-8.91l-41.65-37.51s-4.13-4.14-4.77-6.36l-.63-2.23s-5.73-3.5-7.32-5.4-2.22-6-2.22-6l-8.59-9.86,5.73-54.37" transform="translate(-1.73 -4.54)"/><path class="cls-5" d="M425.09,221.94l-2.48,41.78,8.59,9.86s.63,4.13,2.22,6,7.32,5.4,7.32,5.4l.63,2.23c.64,2.22,4.77,6.36,4.77,6.36l6.24,5.61c2.53-4.94,8.55-13.85,19.44-15.28-.29-1.6-1.29-7.35-1.83-11.95-.64-5.41-7.32-5.73-7.32-5.73s-.31-3.18-.31-7.31-5.73-7.31-8.27-12.72-12-41.9-13.91-48.58-14.53-11-14.53-11" transform="translate(-1.73 -4.54)"/><polygon class="cls-6" points="422.86 230.03 427.05 265.77 420.88 259.18 422.86 230.03"/><path class="cls-2" d="M454.12,271.87a33.46,33.46,0,0,1,2.83-1.79" transform="translate(-1.73 -4.54)"/><path class="cls-2" d="M443.92,283.43a29.61,29.61,0,0,1,7-9" transform="translate(-1.73 -4.54)"/><path class="cls-2" d="M450.85,266.22a23.06,23.06,0,0,1,4.19-.28" transform="translate(-1.73 -4.54)"/><path class="cls-2" d="M435.33,273.89a33.15,33.15,0,0,1,10.56-6.37" transform="translate(-1.73 -4.54)"/><path class="cls-2" d="M514.82,340.66s-3.5-4.77-8.27-5.09" transform="translate(-1.73 -4.54)"/><path class="cls-2" d="M516.41,330.17s3.81.95,8.58,7,6,14.95,6,14.95" transform="translate(-1.73 -4.54)"/><path class="cls-2" d="M525.51,328.9s7.11,5.72,8.38,11.13,2.87,12.71,2.87,12.71" transform="translate(-1.73 -4.54)"/><path class="cls-2" d="M535.8,337.8a31.89,31.89,0,0,0-4.45-10.17" transform="translate(-1.73 -4.54)"/><polygon class="cls-5" points="630.41 345.96 542.65 345.96 566.82 265.84 654.57 265.84 630.41 345.96"/><path class="cls-4" d="M632.14,350.5l20.47-67.88c-25.91,3.2-41.15,24.54-65.12,47.95-15.09,14.74-25.56,19-31.7,19.93Z" transform="translate(-1.73 -4.54)"/><ellipse class="cls-5" cx="602.11" cy="302.09" rx="6.94" ry="6.68"/><rect class="cls-5" x="467.3" y="345.64" width="164.06" height="5.09"/><rect class="cls-4" x="547.42" y="345.64" width="83.94" height="5.09"/><rect class="cls-2" x="605.87" y="9.41" width="14" height="14" transform="translate(166.17 433.63) rotate(-45)"/><rect class="cls-2" x="264.49" y="281.34" width="14" height="14" transform="translate(-126.1 271.88) rotate(-45)"/><rect class="cls-2" x="221.36" y="262.06" width="14" height="14" transform="translate(-125.1 235.74) rotate(-45)"/><rect class="cls-2" x="590.65" y="26.24" width="7.64" height="7.64" transform="translate(151.13 424.62) rotate(-45)"/><circle class="cls-2" cx="594.53" cy="244.11" r="4"/><circle class="cls-2" cx="262.66" cy="209.44" r="4"/><circle class="cls-2" cx="439.14" cy="19.87" r="4"/><rect class="cls-3" x="533.03" y="132.45" width="123.08" height="111.02"/><rect class="cls-5" x="539.98" y="126.74" width="124.05" height="111.5"/><rect class="cls-4" x="572.65" y="126.74" width="91.37" height="15.13"/><rect class="cls-5" x="539.98" y="126.74" width="124.05" height="7.87"/><rect class="cls-4" x="545.42" y="152.76" width="75.64" height="48.41"/><rect class="cls-5" x="545.42" y="195.78" width="75.64" height="5.39"/><rect class="cls-5" x="545.42" y="197.69" width="75.64" height="1.57"/><circle class="cls-12" cx="583.66" cy="181.27" r="11.14" transform="translate(122.3 579.55) rotate(-58.49)"/><polygon class="cls-13" points="588.38 176.97 578.69 171.37 578.69 182.56 588.38 176.97"/><rect class="cls-4" x="627.85" y="152.76" width="29.87" height="19.12"/><rect class="cls-5" x="627.85" y="169.75" width="29.87" height="2.13"/><rect class="cls-5" x="627.85" y="170.5" width="29.87" height="0.62"/><circle class="cls-12" cx="642.27" cy="162.22" r="4.4"/><polygon class="cls-13" points="644.82 162.32 640.99 160.11 640.99 164.53 644.82 162.32"/><rect class="cls-4" x="627.85" y="173.77" width="29.87" height="19.12"/><rect class="cls-5" x="627.85" y="190.75" width="29.87" height="2.13"/><rect class="cls-5" x="627.85" y="191.51" width="29.87" height="0.62"/><path class="cls-12" d="M648.4,187.77a4.4,4.4,0,1,0-4.4,4.4A4.4,4.4,0,0,0,648.4,187.77Z" transform="translate(-1.73 -4.54)"/><polygon class="cls-13" points="644.82 183.33 640.99 181.12 640.99 185.53 644.82 183.33"/><rect class="cls-4" x="627.85" y="194.77" width="29.87" height="19.12"/><rect class="cls-5" x="627.85" y="211.76" width="29.87" height="2.13"/><rect class="cls-5" x="627.85" y="212.51" width="29.87" height="0.62"/><path class="cls-12" d="M648.4,208.78a4.4,4.4,0,1,0-4.4,4.4A4.4,4.4,0,0,0,648.4,208.78Z" transform="translate(-1.73 -4.54)"/><polygon class="cls-13" points="644.82 204.33 640.99 202.12 640.99 206.54 644.82 204.33"/><rect class="cls-4" x="627.85" y="215.78" width="29.87" height="19.12"/><rect class="cls-5" x="627.85" y="232.77" width="29.87" height="2.13"/><rect class="cls-5" x="627.85" y="233.52" width="29.87" height="0.62"/><path class="cls-12" d="M648.4,229.78a4.4,4.4,0,1,0-4.4,4.4A4.4,4.4,0,0,0,648.4,229.78Z" transform="translate(-1.73 -4.54)"/><polygon class="cls-13" points="644.82 225.34 640.99 223.13 640.99 227.55 644.82 225.34"/><line class="cls-2" x1="546.01" y1="206.28" x2="603.94" y2="206.28"/><line class="cls-2" x1="546.01" y1="219.97" x2="580.42" y2="219.97"/><line class="cls-2" x1="546.01" y1="225.38" x2="580.42" y2="225.38"/><line class="cls-2" x1="546.01" y1="230.79" x2="580.42" y2="230.79"/><line class="cls-2" x1="587.03" y1="219.97" x2="621.44" y2="219.97"/><line class="cls-2" x1="587.03" y1="225.38" x2="621.44" y2="225.38"/><line class="cls-2" x1="587.03" y1="230.79" x2="621.44" y2="230.79"/><line class="cls-2" x1="546.01" y1="210.74" x2="619.21" y2="210.74"/><rect class="cls-14" x="659.51" y="152.79" width="2.99" height="82.81"/><rect class="cls-6" x="659.51" y="172.88" width="2.99" height="10.59"/><line class="cls-2" x1="632" y1="238.4" x2="632" y2="265.68"/><path class="cls-4" d="M549.16,350.19l.32.31h.75A5.91,5.91,0,0,1,549.16,350.19Z" transform="translate(-1.73 -4.54)"/><path class="cls-5" d="M203.27,342.36H165.54a6.05,6.05,0,0,0-6,6.06v.66a6.05,6.05,0,0,0,6,6.06h37.73a13.22,13.22,0,0,1-2-6.47A12.29,12.29,0,0,1,203.27,342.36Z" transform="translate(-1.73 -4.54)"/><path class="cls-5" d="M185.36,342.36H147.63a6.06,6.06,0,0,0-6.06,6.06v.66a6.06,6.06,0,0,0,6.06,6.06h37.73a13.22,13.22,0,0,1-2-6.47A12.29,12.29,0,0,1,185.36,342.36Z" transform="translate(-1.73 -4.54)"/><path class="cls-5" d="M141.57,348.42v.66a6.07,6.07,0,0,0,3.5,5.49l.83,0V343.3l-.48-.51A6.05,6.05,0,0,0,141.57,348.42Z" transform="translate(-1.73 -4.54)"/><path class="cls-10" d="M203.27,342.36H147.63a6.06,6.06,0,0,0-6.06,6.06v.66a6.06,6.06,0,0,0,6.06,6.06h55.64" transform="translate(-1.73 -4.54)"/><line class="cls-2" x1="144.36" y1="340.64" x2="162.82" y2="340.64"/><line class="cls-2" x1="165.45" y1="342.33" x2="168.28" y2="342.33"/><line class="cls-2" x1="147.94" y1="342.33" x2="163.01" y2="342.33"/><line class="cls-2" x1="144.36" y1="346.1" x2="153.78" y2="346.1"/><line class="cls-2" x1="172.61" y1="348.17" x2="174.68" y2="348.17"/><line class="cls-2" x1="159.43" y1="348.17" x2="170.92" y2="348.17"/><line class="cls-2" x1="147.94" y1="348.17" x2="156.04" y2="348.17"/><path class="cls-5" d="M165.91,342.36H113.06a6.06,6.06,0,0,0-6.06,6.06v.66a6.06,6.06,0,0,0,6.06,6.06h52.85a13.26,13.26,0,0,1-2-6.47A12.33,12.33,0,0,1,165.91,342.36Z" transform="translate(-1.73 -4.54)"/><line class="cls-2" x1="132.03" y1="339.83" x2="132.03" y2="348.97"/><line class="cls-2" x1="132.32" y1="341.26" x2="147.46" y2="341.26"/><line class="cls-2" x1="132.32" y1="343.54" x2="153.17" y2="343.54"/><line class="cls-2" x1="138.74" y1="346.11" x2="144.17" y2="346.11"/><line class="cls-2" x1="151.03" y1="347.83" x2="134.75" y2="347.83"/><path class="cls-4" d="M131.14,349.08v-.66a6.05,6.05,0,0,1,6.05-6.06H113.06a6.06,6.06,0,0,0-6.06,6.06v.66a6.06,6.06,0,0,0,6.06,6.06h24.13A6.05,6.05,0,0,1,131.14,349.08Z" transform="translate(-1.73 -4.54)"/><path class="cls-10" d="M163.13,342.36H113.06a6.06,6.06,0,0,0-6.06,6.06v.66a6.06,6.06,0,0,0,6.06,6.06h50.07" transform="translate(-1.73 -4.54)"/><path class="cls-10" d="M167,342.36H137.33a6.05,6.05,0,0,0-6.05,6.06v.66a6.05,6.05,0,0,0,6.05,6.06H167" transform="translate(-1.73 -4.54)"/><path class="cls-5" d="M197.27,329.79H159.54a6.05,6.05,0,0,0-6,6.06v.66a6.05,6.05,0,0,0,6,6.05h37.73a13.16,13.16,0,0,1-2-6.46A12.29,12.29,0,0,1,197.27,329.79Z" transform="translate(-1.73 -4.54)"/><path class="cls-5" d="M179.36,329.79H141.63a6.06,6.06,0,0,0-6.06,6.06v.66a6.05,6.05,0,0,0,6.06,6.05h37.73a13.16,13.16,0,0,1-2-6.46A12.29,12.29,0,0,1,179.36,329.79Z" transform="translate(-1.73 -4.54)"/><path class="cls-5" d="M135.57,335.85v.66a6,6,0,0,0,3.5,5.48l.83,0v-11.3l-.48-.51A6,6,0,0,0,135.57,335.85Z" transform="translate(-1.73 -4.54)"/><path class="cls-10" d="M197.27,329.79H141.63a6.06,6.06,0,0,0-6.06,6.06v.66a6.05,6.05,0,0,0,6.06,6.05h55.64" transform="translate(-1.73 -4.54)"/><line class="cls-2" x1="138.36" y1="328.07" x2="156.82" y2="328.07"/><line class="cls-2" x1="159.45" y1="329.76" x2="162.28" y2="329.76"/><line class="cls-2" x1="141.94" y1="329.76" x2="157.01" y2="329.76"/><line class="cls-2" x1="138.36" y1="333.53" x2="147.78" y2="333.53"/><line class="cls-2" x1="166.61" y1="335.6" x2="168.68" y2="335.6"/><line class="cls-2" x1="153.43" y1="335.6" x2="164.92" y2="335.6"/><line class="cls-2" x1="141.94" y1="335.6" x2="150.04" y2="335.6"/></svg>