<?xml version="1.0" encoding="utf-8"?>
<!-- Generator: Adobe Illustrator 25.0.1, SVG Export Plug-In . SVG Version: 6.00 Build 0)  -->
<svg version="1.1"
	 id="svg2" sodipodi:docname="infy.svg" xmlns:cc="http://creativecommons.org/ns#" xmlns:dc="http://purl.org/dc/elements/1.1/" xmlns:inkscape="http://www.inkscape.org/namespaces/inkscape" xmlns:rdf="http://www.w3.org/1999/02/22-rdf-syntax-ns#" xmlns:sodipodi="http://sodipodi.sourceforge.net/DTD/sodipodi-0.dtd" xmlns:svg="http://www.w3.org/2000/svg"
	 xmlns="http://www.w3.org/2000/svg" xmlns:xlink="http://www.w3.org/1999/xlink" x="0px" y="0px" viewBox="0 0 400 160"
	 style="enable-background:new 0 0 400 160;" xml:space="preserve">
<style type="text/css">
	.st0{fill-rule:evenodd;clip-rule:evenodd;fill:#FFFFFF;}
</style>
<defs>
	
		<inkscape:perspective  id="perspective9" inkscape:persp3d-origin="372.04724 : 350.78739 : 1" inkscape:vp_x="0 : 526.18109 : 1" inkscape:vp_y="0 : 1000 : 0" inkscape:vp_z="744.09448 : 526.18109 : 1" sodipodi:type="inkscape:persp3d">
		</inkscape:perspective>
</defs>
<sodipodi:namedview  bordercolor="#666666" borderopacity="1.0" gridtolerance="10.0" guidetolerance="10.0" id="base" inkscape:current-layer="g11" inkscape:cx="241.53186" inkscape:cy="104.7294" inkscape:pageopacity="0.0" inkscape:pageshadow="2" inkscape:window-height="750" inkscape:window-width="1280" inkscape:window-x="-8" inkscape:window-y="-8" inkscape:zoom="2.0111111" objecttolerance="10.0" pagecolor="#ffffff" showgrid="false">
	</sodipodi:namedview>
<g id="g2552" transform="matrix(2.5650071,0,0,2.5650071,-1722.9173,15.11566)">
	<path id="path161" class="st0" d="M673.1,1.4L673.1,1.4l0-6h5.9v43.3l0,0.1v5.8h-5.9v-5.9l0-0.1V1.4"/>
	<path id="path163" class="st0" d="M733,26.8c0.2,9,5.7,16.1,12.4,16c6.7-0.1,12-7.5,11.8-16.4c-0.2-9-5.7-16.1-12.4-16
		C738.1,10.5,732.8,17.8,733,26.8z M781.7,15.9c0.2,0.3-0.2-0.5-0.2-0.5L781.7,15.9z M785.8,53c0.3-0.5,0.6-1.2,1.1-2.1L785.8,53z
		 M786.1,12.9c0.1,0.2,0.2,0.4,0.2,0.6l2,4.9L786.1,12.9z M761.4,37.4c3.6,3.3,6.9,5,11.1,5c4.3,0,8.1-2.1,8.1-6.1
		c0-3.4-3-5.4-8.3-7.6c-4.5-2-7.9-3.4-9.7-6.2c0.2,1.2,0.3,2.5,0.3,3.8c0,11-7.9,19.9-17.7,19.9s-17.7-8.9-17.7-19.9
		c0-6.6,2.9-12.5,7.3-16.1h-12v28.5l0,0.1v5.9h-5.3V39c0-0.1,0-0.2,0-0.3V10.2h-4.7V6.6h4.8c0.6-7.2,5.1-11.3,11.3-11.3
		c4,0,6.2,0.4,7.5,1v4.9c0,0.4,0,0.6,0,0.6c-0.1,0-0.2,0-0.2,0c-1.9-1.8-3.8-3.1-8.3-3.1c-3.5,0-5.9,2.9-5.1,8h19.9
		c0.8-0.1,1.7-0.2,2.5-0.2c7.1,0,13.2,4.7,16,11.5c0-0.4,0-0.8,0-1.2c0-7.1,6.8-10.1,13.9-10.1c0.3,0,0.5,0,0.8,0
		c2.5,0,6,0.8,8.2,1.3l4.2,10.4l6,14.7l0.7,2.4l0.8-2.4l7.6-18.9c1.4-5.2,6.9-7.4,13-7.4c3,0,5.3,0.4,8,1.3v5.7
		c-3.3-2.4-5.7-3.8-9.5-3.8c-3.3,0-7.3,1.5-7.3,6.4c-0.1,3.7,2.1,4.4,8.6,7.6c5.3,2.3,10.2,4.9,10.2,10.8c0,9.9-9.6,11.6-14.3,11.6
		c-4.2,0-8-1-10.2-2.8v-6.5l0.3,0.3c3.8,3.6,7.2,5.4,11.5,5.4c4.3,0,8.1-2.1,8.1-6.1c0-3.4-3-5.4-8.3-7.6c-5.1-2.2-8.5-3.7-9.8-7.4
		c-2.1,5.1-11.8,28.8-14,33.9h-5.2l2.4-4.4c1.3-2.6,3.2-6.7,4.9-10.6l-10-24.4c-0.1-0.1-0.2-0.5-0.6-1.3c-0.8-1.8-1.5-3.4-3.7-4.2
		c-1.2-0.4-2.4-0.6-3.8-0.6c-3.3,0-7.5,1.5-7.5,6.4c-0.1,3.7,2.4,4.4,8.8,7.6c5.3,2.3,10.2,4.9,10.2,10.8c0,9.9-9.6,11.6-14.3,11.6
		c-3.7,0-7.2-0.8-9.4-2.3V37.4"/>
	<path id="path165" class="st0" d="M689.9,7l0.1,4.3l0,0.3l0.1,0c0.1-0.2,0.2-0.3,0.2-0.4c2.2-2.3,4.9-4.7,11.4-4.7
		c6.2,0,10.2,5.3,10.4,8.6l0,23.6v0.1v5.9h-5.3v-7l0-20.1c0-4.2-3.6-7.2-8.1-7.2c-3.7,0-8.4,3.3-8.6,6.7v21.6l0,0.2v5.8h-5.3V11.9
		l0-5H689.9"/>
</g>
</svg>
