<svg xmlns="http://www.w3.org/2000/svg" viewBox="0 0 800 271.88"><defs><style>.a{fill:#fff;fill-rule:evenodd;}.b{fill:none;}</style></defs><path class="a" d="M746-35.94a22.2,22.2,0,0,0-22.15,22.16A22.33,22.33,0,0,0,746,8.6a22.44,22.44,0,0,0,22.38-22.38A22.31,22.31,0,0,0,746-35.94Zm0,3.33A19,19,0,0,1,765-13.78,19.2,19.2,0,0,1,746,5.28a19,19,0,0,1-18.83-19.06A18.82,18.82,0,0,1,746-32.61ZM281.57-31.06c-27.55,0-47.69,18.29-50.52,50.52H209.78V35.41h21.05V188.73h23.93V35.41h53.4C288.31,51.46,275.59,77.69,275.59,107c0,48.6,35,87.87,78.44,88.41a2,2,0,0,0,.88.22c43.83,0,79.1-39.71,79.1-88.63a98.49,98.49,0,0,0-1.55-17.06c7.92,12.59,23,18.9,43.21,27.7,24,10.09,37.22,18.81,37.22,33.9,0,18.12-16.92,27.36-36.12,27.25-18.76,0-33.58-7.62-49.85-22.38v28.36c10,6.41,25.39,10.2,42.1,10.2,12.8-.12,34-3,48.52-15.29,9.22-7.7,15.74-19.31,15.74-36.34-.12-14-6.29-23.65-15.74-31.24-8.24-6.61-18.85-11.74-29.91-16.4C458.77,81.36,447.87,78.38,448.19,62c0-21.81,18.82-28.36,33.68-28.36a49.89,49.89,0,0,1,17.06,2.88c9.76,3.59,12.93,10.7,16.4,18.62,1.08,2.39,1.78,3.9,2.21,4.87a8.27,8.27,0,0,1,.45.88c.15.43.08.46,0,.22l45,108.13c-7.6,17.25-16.08,35.47-21.94,47l-.22.23c-.87,1.74-1.68,3.35-2.44,4.65q-1.15,2.25-2.44,4.43l-5.53,10.42h23.26c10.2-22.57,53.6-128.11,62.93-150.67,6.07,16.27,21,22.92,43.87,32.79,23.87,10.1,37.44,18.83,37.44,33.9,0,18-17.13,27.48-36.33,27.26-19.42,0-34.49-8.1-51.63-23.93L608.38,154v28.81c9.55,8,26.66,12.63,45.43,12.63,20.93,0,64.26-7.58,64.26-51.41-.11-26.25-22-37.77-45.65-47.85-28.86-14.32-38.65-17.19-38.33-33.46,0-21.81,17.81-28.36,32.57-28.36,16.92,0,27.46,6.21,42.32,17V25.89c-12-4.24-22.22-5.77-35.89-5.77-27.33,0-52,9.92-58.28,33l-33.89,83.75-3.55,10.64-3.11-10.64L528.62,25.66c-3.14-.86-7-2-11.08-2.88-8.46-1.84-18.21-3.2-25.7-3.09a31.47,31.47,0,0,0-3.33-.23c-31.66,0-62.25,13.29-62.25,44.76,0,1.84.1,3.69.22,5.32-12.7-30.17-39.78-51-71.57-51H354a82.6,82.6,0,0,0-10.42.89H254.32C250.74-3,261.08-16,276.92-16c19.85,0,28.43,6,37,14h.89s.11-1,.21-2.66V-26.41c-5.74-2.61-15.45-4.66-33.45-4.66Zm-249.93.65V188.73H58V-30.41ZM737.79-26V-2.47H742V-12h4.87l3.76,9.53h4.88l-4.43-10.19c1.52-.76,4-1.54,4-5.76,0-6.52-4.75-7.54-9.09-7.54ZM742-22h4.65c2.49,0,4,1,4,3.09s-1.59,3.11-3.54,3.11H742ZM159.7,18.78c-29,0-41.08,10.41-50.73,20.83a5.66,5.66,0,0,0-1.11,2h-.45L107.2,21H83.92V188.73h23.93V66.2c.65-15,22.06-29.92,38.56-29.92,19.85,0,36.11,13.47,36.11,31.91V188.72h23.71V57.34c-.64-14.87-18.75-38.56-46.53-38.56Zm193,17.28H354c29.29.33,53.19,31.75,53.83,70.91.66,39.81-22.78,72.58-52.73,73.12H354c-29.4-.34-53.53-31.86-54.29-71.13-.66-39.71,23.13-72.36,53-72.89Z" transform="translate(0 35.94)"/><rect class="b" y="35.94" width="800" height="200"/></svg>