<svg id="Layer_1" data-name="Layer 1" xmlns="http://www.w3.org/2000/svg" viewBox="0 0 762.36 90"><defs><style>.cls-1,.cls-2{fill:none;stroke:#000;stroke-miterlimit:10;stroke-width:15px;}.cls-2{stroke-dasharray:29.47 29.47;}</style></defs><line class="cls-1" x1="373.68" y1="47.6" x2="629.16" y2="47.6"/><line class="cls-1" y1="47.6" x2="15" y2="47.6"/><line class="cls-2" x1="44.47" y1="47.6" x2="324.39" y2="47.6"/><line class="cls-1" x1="339.12" y1="47.6" x2="354.12" y2="47.6"/><path d="M765.84,10.81h-7.2v-9A1.8,1.8,0,0,0,756.85,0h-.16L752,.4a109.41,109.41,0,0,0-33.1,8.07l-5.25,2.19L708.4,8.48A109.11,109.11,0,0,0,675.3.41L670.6,0a1.8,1.8,0,0,0-2,1.64v9.16h-7.2a1.79,1.79,0,0,0-1.8,1.8V88.2a1.8,1.8,0,0,0,1.8,1.8H765.84a1.81,1.81,0,0,0,1.8-1.8V12.61A1.8,1.8,0,0,0,765.84,10.81ZM663.25,86.4v-72h5.4v63a1.79,1.79,0,0,0,1.64,1.8l4.85.41c1.32.12,2.64.25,4,.41.44.06.88.13,1.32.18.87.12,1.74.24,2.61.38.52.08,1,.18,1.55.27.79.14,1.58.27,2.36.43l1.62.34c.76.17,1.52.33,2.27.51l1.64.41c.74.19,1.48.38,2.22.59l1.62.47c.74.21,1.47.44,2.2.67l1.6.53c.74.24,1.47.5,2.2.77.52.18,1,.37,1.55.57l.67.26Zm48.59-.9-3.31-1.39A109.23,109.23,0,0,0,675.44,76l-3.19-.27v-72L675,4a105.86,105.86,0,0,1,32,7.81l4.83,2Zm3.6,0V13.81l4.84-2a105.94,105.94,0,0,1,32-7.81L755,3.76v72l-3,.24A110,110,0,0,0,719,84Zm48.6.9H722.79l.74-.29c.54-.21,1.08-.4,1.63-.6l2.12-.74,1.67-.54c.71-.23,1.43-.44,2.14-.66l1.69-.48,2.18-.58,1.68-.42c.75-.18,1.5-.34,2.25-.5l1.63-.34c.8-.16,1.59-.3,2.39-.44l1.54-.27c.89-.14,1.78-.26,2.67-.38L748.4,80c1.32-.16,2.65-.29,4-.4L757,79.2a1.81,1.81,0,0,0,1.65-1.8v-63H764v72Z" transform="translate(-5.28 0)"/></svg>