<svg id="Layer_1" data-name="Layer 1" xmlns="http://www.w3.org/2000/svg" xmlns:xlink="http://www.w3.org/1999/xlink" viewBox="0 0 2601.3 649"><defs><style>.cls-1{fill:url(#linear-gradient);}.cls-2,.cls-3{fill:#fff;}.cls-2{stroke:#fff;stroke-miterlimit:10;stroke-width:10px;}.cls-4{fill:url(#linear-gradient-2);}.cls-5{fill:url(#linear-gradient-3);}.cls-6{fill:url(#linear-gradient-4);}.cls-7{fill:url(#linear-gradient-5);}.cls-8{fill:url(#linear-gradient-6);}</style><linearGradient id="linear-gradient" x1="95.04" y1="646.04" x2="553.96" y2="1104.96" gradientTransform="matrix(1, 0, 0, -1, 0, 1200)" gradientUnits="userSpaceOnUse"><stop offset="0" stop-color="#e91d2c"/><stop offset="1" stop-color="#e01826"/></linearGradient><linearGradient id="linear-gradient-2" x1="1840.6" y1="67.55" x2="2119.3" y2="67.55" gradientTransform="matrix(1, 0, 0, -1, -194, 419.5)" xlink:href="#linear-gradient"/><linearGradient id="linear-gradient-3" x1="2160.8" y1="40.2" x2="2376.3" y2="40.2" gradientTransform="matrix(1, 0, 0, -1, -194, 419.5)" xlink:href="#linear-gradient"/><linearGradient id="linear-gradient-4" x1="2391.1" y1="33.5" x2="2479.91" y2="33.5" gradientTransform="matrix(1, 0, 0, -1, -194, 419.5)" xlink:href="#linear-gradient"/><linearGradient id="linear-gradient-5" x1="2519.89" y1="83.4" x2="2575.91" y2="83.4" gradientTransform="matrix(1, 0, 0, -1, -194, 419.5)" xlink:href="#linear-gradient"/><linearGradient id="linear-gradient-6" x1="2600.6" y1="40.15" x2="2795.3" y2="40.15" gradientTransform="matrix(1, 0, 0, -1, -194, 419.5)" xlink:href="#linear-gradient"/></defs><circle class="cls-1" cx="324.5" cy="324.5" r="324.5"/><polygon class="cls-2" points="147.1 530.8 154.5 530.8 154.8 192.6 182.3 226 181.5 213.4 147.1 171.5 147.1 530.8"/><polygon class="cls-2" points="208.9 530.8 217.1 530.8 217.1 145.6 324.5 287.5 431.6 145.6 431.6 211.1 439 199.3 439 123.3 324.5 274.5 208.9 123.3 208.9 530.8"/><polygon class="cls-2" points="241.1 287.5 241.1 298.6 324.5 400.1 494.2 192.6 494.2 530.8 501.6 530.8 501.6 171.9 324.5 388.2 241.1 287.5"/><polygon class="cls-2" points="432.3 314.1 431.6 530.8 439 530.8 439.7 302.3 432.3 314.1"/><path class="cls-3" d="M992.7,219.6V484.3H948.9V285.8L872.4,484.2H834.3L757.4,285.8V484.2H714V219.6h52.5L854,430.9l86.1-211.3Z"/><path class="cls-3" d="M1046.4,195.2c5.1-4.8,11.8-7.2,20.2-7.2s15.2,2.4,20.4,7.2a23.92,23.92,0,0,1,7.8,18.3,22.83,22.83,0,0,1-7.8,17.9c-5.2,4.6-12,6.9-20.4,6.8s-15.1-2.3-20.2-6.8-7.6-10.5-7.6-17.9A23.54,23.54,0,0,1,1046.4,195.2Zm41.9,79.2V484.2h-43.4V274.4Z"/><path class="cls-3" d="M1316.7,294.6q22,23.55,22.1,67.4V484.2h-43.4V366.6c0-18.8-4.8-33.3-14.5-43.6s-22.8-15.4-39.6-15.5c-17.3,0-31.1,5.5-41.5,16.6s-15.6,27.2-15.6,48.6V484.3h-43.4V274.4h43.4v46.1q8.4-23.55,28.2-36.6c13.2-8.7,28.4-13,45.7-13C1282.5,271,1302,278.8,1316.7,294.6Z"/><path class="cls-3" d="M1522.4,285.8a74.2,74.2,0,0,1,28.2,37.3V202.4h43.8V484.2h-43.8V435.5a73.37,73.37,0,0,1-28.2,37.3q-20.25,14.1-48.7,14.1-27.45,0-48.9-13c-14.3-8.7-25.6-21.1-33.7-37.3s-12.2-35.4-12.2-57.5c0-21.8,4.1-40.9,12.2-57.1s19.4-28.7,33.7-37.3,30.7-13,48.9-13Q1502.2,271.7,1522.4,285.8Zm-81.7,42.5c-11.6,12.3-17.3,29.3-17.3,50.8s5.8,38.5,17.3,50.8,27,18.5,46.3,18.5a63.13,63.13,0,0,0,32.8-8.6,61,61,0,0,0,22.8-24.2Q1551,400,1551,379c0-13.7-2.8-25.8-8.4-36.4a60.89,60.89,0,0,0-22.8-24.4,62.89,62.89,0,0,0-32.8-8.6c-19.3.2-34.8,6.4-46.3,18.7Z"/><path class="cls-4" d="M1925.3,219.6V484.3h-43.8V285.8L1805,484.2h-38.1L1690,285.8V484.2h-43.4V219.6h52.6L1786.8,431l86.1-211.3Z"/><path class="cls-5" d="M2110.3,285.8a76.68,76.68,0,0,1,28.6,37.3V274.4h43.4V484.2h-43.4V435.5a75.09,75.09,0,0,1-28.6,37.3q-20.25,14.1-48.7,14.1-27.45,0-48.9-13c-14.3-8.7-25.6-21.1-33.7-37.3s-12.2-35.4-12.2-57.5c0-21.8,4.1-40.9,12.2-57.1s19.4-28.7,33.7-37.3,30.7-13,48.9-13C2080.6,271.7,2096.9,276.4,2110.3,285.8Zm-81.6,42.5c-11.6,12.3-17.3,29.3-17.3,50.8s5.8,38.5,17.3,50.8,27,18.5,46.3,18.5a63.13,63.13,0,0,0,32.8-8.6,62,62,0,0,0,22.9-24.2q8.4-15.6,8.4-36.6c0-13.7-2.8-25.8-8.4-36.4a61.1,61.1,0,0,0-22.9-24.4,62.89,62.89,0,0,0-32.8-8.6q-29.1.3-46.3,18.7Z"/><path class="cls-6" d="M2197.1,545.9H2212c8.4,0,14.5-1.8,18.5-5.5s5.9-10,5.9-18.8V274.4h43.8V521.9q0,62.1-62.4,62.1h-20.6Zm40.6-314.5c-5.2-4.6-7.8-10.5-7.8-17.9a24.06,24.06,0,0,1,7.8-18.3q7.8-7.2,20.4-7.2c8.4,0,15.1,2.4,20.2,7.2a24.24,24.24,0,0,1,7.6,18.3c0,7.3-2.5,13.3-7.6,17.9s-11.8,6.9-20.2,6.8-15.2-2.3-20.4-6.8Z"/><path class="cls-7" d="M2333.5,195.2c5.1-4.8,11.8-7.2,20.2-7.2s15.2,2.4,20.4,7.2a23.92,23.92,0,0,1,7.8,18.3,22.83,22.83,0,0,1-7.8,17.9c-5.2,4.6-12,6.9-20.4,6.8s-15.1-2.3-20.2-6.8-7.6-10.5-7.6-17.9A23.88,23.88,0,0,1,2333.5,195.2Zm41.9,79.2V484.2H2332V274.4Z"/><path class="cls-8" d="M2552.1,484.2l-51.4-74.3-44.9,74.3h-48.4l69.3-108.9-70.1-100.9h49.1l50.3,72.3,44.6-72.3h48l-69.3,105.9,72,104Z"/></svg>