<svg id="Layer_1" data-name="Layer 1" xmlns="http://www.w3.org/2000/svg" xmlns:xlink="http://www.w3.org/1999/xlink" viewBox="0 0 2601.19 649"><defs><style>.cls-1{fill:url(#linear-gradient);}.cls-2{fill:#fff;stroke:#fff;stroke-miterlimit:10;stroke-width:10px;}.cls-3{fill:#1a1a1a;}.cls-4{fill:url(#linear-gradient-2);}.cls-5{fill:url(#linear-gradient-3);}.cls-6{fill:url(#linear-gradient-4);}.cls-7{fill:url(#linear-gradient-5);}.cls-8{fill:url(#linear-gradient-6);}</style><linearGradient id="linear-gradient" x1="95.04" y1="553.96" x2="553.96" y2="95.04" gradientUnits="userSpaceOnUse"><stop offset="0" stop-color="#e91d2c"/><stop offset="1" stop-color="#e01826"/></linearGradient><linearGradient id="linear-gradient-2" x1="1840.51" y1="1132.39" x2="2119.26" y2="1132.39" xlink:href="#linear-gradient"/><linearGradient id="linear-gradient-3" x1="2160.77" y1="1159.81" x2="2376.31" y2="1159.81" xlink:href="#linear-gradient"/><linearGradient id="linear-gradient-4" x1="2391.15" y1="1166.48" x2="2479.88" y2="1166.48" xlink:href="#linear-gradient"/><linearGradient id="linear-gradient-5" x1="2519.87" y1="1116.59" x2="2575.85" y2="1116.59" xlink:href="#linear-gradient"/><linearGradient id="linear-gradient-6" x1="2600.6" y1="1159.81" x2="2795.19" y2="1159.81" xlink:href="#linear-gradient"/></defs><title>logo</title><circle class="cls-1" cx="324.5" cy="324.5" r="324.5"/><polygon class="cls-2" points="147.06 530.83 154.47 530.83 154.84 192.63 182.25 225.97 181.51 213.37 147.06 171.51 147.06 530.83"/><polygon class="cls-2" points="208.93 530.83 217.07 530.83 217.07 145.58 324.5 287.46 431.56 145.58 431.56 211.15 438.96 199.29 438.96 123.35 324.5 274.49 208.93 123.35 208.93 530.83"/><polygon class="cls-2" points="241.15 287.46 241.15 298.57 324.5 400.07 494.16 192.63 494.16 530.83 501.57 530.83 501.57 171.88 324.5 388.21 241.15 287.46"/><polygon class="cls-2" points="432.3 314.13 431.56 530.83 438.96 530.83 439.7 302.27 432.3 314.13"/><path class="cls-3" d="M1186.67,1000.06v264.66h-43.8v-198.4l-76.54,198.4h-38.08l-76.93-198.4v198.4H907.91V1000.06h52.55l87.59,211.35,86.06-211.35Z" transform="translate(-194 -780.5)"/><path class="cls-3" d="M1240.36,975.69q7.61-7.23,20.18-7.24t20.37,7.24a23.87,23.87,0,0,1,7.81,18.28q0,11-7.81,17.9t-20.37,6.85q-12.57,0-20.18-6.85t-7.62-17.9A24.1,24.1,0,0,1,1240.36,975.69Zm41.89,79.21v209.82h-43.42V1054.9Z" transform="translate(-194 -780.5)"/><path class="cls-3" d="M1510.73,1075.08q22.08,23.61,22.09,67.4v122.24h-43.41V1147.05q0-28.17-14.47-43.6T1435.33,1088q-25.9,0-41.51,16.56t-15.61,48.56v111.57H1334.8V1054.9h43.41V1101q8.37-23.61,28.18-36.56t45.7-13Q1488.65,1051.47,1510.73,1075.08Z" transform="translate(-194 -780.5)"/><path class="cls-3" d="M1716.37,1066.32a73.76,73.76,0,0,1,28.18,37.32V982.92h43.79v281.8h-43.79V1216a73.68,73.68,0,0,1-28.18,37.32q-20.19,14.1-48.74,14.09-27.42,0-48.94-13t-33.7-37.32q-12.2-24.36-12.19-57.5,0-32.74,12.19-57.12t33.7-37.32q21.51-12.95,48.94-13Q1696.19,1052.23,1716.37,1066.32Zm-81.68,42.46q-17.34,18.48-17.33,50.84t17.33,50.84q17.32,18.48,46.26,18.47a63.07,63.07,0,0,0,32.75-8.57,60.79,60.79,0,0,0,22.85-24.18q8.37-15.62,8.38-36.56,0-20.56-8.38-36.37a60.53,60.53,0,0,0-22.85-24.37,63.07,63.07,0,0,0-32.75-8.57Q1652,1090.31,1634.69,1108.78Z" transform="translate(-194 -780.5)"/><path class="cls-4" d="M2119.26,1000.06v264.66h-43.79v-198.4l-76.54,198.4h-38.08l-76.93-198.4v198.4h-43.41V1000.06h52.55l87.59,211.35,86.06-211.35Z" transform="translate(-194 -780.5)"/><path class="cls-5" d="M2304.33,1066.32a75.83,75.83,0,0,1,28.56,37.32V1054.9h43.42v209.82h-43.42V1216a75.74,75.74,0,0,1-28.56,37.32q-20.19,14.1-48.74,14.09-27.42,0-48.93-13T2173,1217.12q-12.18-24.36-12.18-57.5,0-32.74,12.18-57.12t33.71-37.32q21.51-12.95,48.93-13Q2284.15,1052.23,2304.33,1066.32Zm-81.68,42.46q-17.34,18.48-17.33,50.84t17.33,50.84q17.32,18.48,46.27,18.47a63.09,63.09,0,0,0,32.75-8.57,60.92,60.92,0,0,0,22.85-24.18q8.37-15.62,8.37-36.56,0-20.56-8.37-36.37a60.66,60.66,0,0,0-22.85-24.37,63.09,63.09,0,0,0-32.75-8.57Q2240,1090.31,2222.65,1108.78Z" transform="translate(-194 -780.5)"/><path class="cls-6" d="M2391.15,1326.42H2406q12.55,0,18.46-5.53t5.91-18.85V1054.9h43.79v247.52q0,62.07-62.45,62.08h-20.57Zm40.56-314.55q-7.82-6.86-7.81-17.9a23.84,23.84,0,0,1,7.81-18.28q7.8-7.23,20.37-7.24t20.19,7.24a24.16,24.16,0,0,1,7.61,18.28q0,11-7.61,17.9t-20.19,6.85Q2439.53,1018.72,2431.71,1011.87Z" transform="translate(-194 -780.5)"/><path class="cls-7" d="M2527.48,975.69q7.62-7.23,20.19-7.24t20.37,7.24a23.87,23.87,0,0,1,7.81,18.28q0,11-7.81,17.9t-20.37,6.85q-12.57,0-20.19-6.85t-7.61-17.9A24.12,24.12,0,0,1,2527.48,975.69Zm41.89,79.21v209.82H2526V1054.9Z" transform="translate(-194 -780.5)"/><path class="cls-8" d="M2746.07,1264.72l-51.41-74.25-44.94,74.25h-48.36l69.31-108.91L2600.6,1054.9h49.12l50.27,72.35,44.56-72.35h48l-69.31,105.86,72,104Z" transform="translate(-194 -780.5)"/></svg>