<svg xmlns="http://www.w3.org/2000/svg" xmlns:xlink="http://www.w3.org/1999/xlink" viewBox="0 0 800 800"><defs><style>.cls-1{isolation:isolate;}.cls-2{fill:#fff;}.cls-3{fill:url(#îâûé_îáðàçåö_ãðàäèåíòà_25);}.cls-4{fill:url(#îâûé_îáðàçåö_ãðàäèåíòà_25-2);}.cls-5{fill:url(#îâûé_îáðàçåö_ãðàäèåíòà_25-3);}.cls-6{opacity:0.5;mix-blend-mode:soft-light;}.cls-7{fill:url(#îâûé_îáðàçåö_ãðàäèåíòà_25-4);}.cls-8{fill:url(#îâûé_îáðàçåö_ãðàäèåíòà_25-5);}.cls-9{fill:url(#îâûé_îáðàçåö_ãðàäèåíòà_25-6);}.cls-10{fill:url(#îâûé_îáðàçåö_ãðàäèåíòà_25-7);}.cls-11{fill:url(#îâûé_îáðàçåö_ãðàäèåíòà_25-8);}.cls-12{fill:url(#îâûé_îáðàçåö_ãðàäèåíòà_25-9);}.cls-13{fill:url(#îâûé_îáðàçåö_ãðàäèåíòà_25-10);}.cls-14{fill:url(#îâûé_îáðàçåö_ãðàäèåíòà_25-11);}.cls-15{opacity:0.3;}.cls-16{fill:url(#îâûé_îáðàçåö_ãðàäèåíòà_25-12);}.cls-17{fill:url(#îâûé_îáðàçåö_ãðàäèåíòà_25-13);}.cls-18{fill:url(#îâûé_îáðàçåö_ãðàäèåíòà_25-14);}.cls-19{fill:url(#îâûé_îáðàçåö_ãðàäèåíòà_25-15);}.cls-20{fill:url(#îâûé_îáðàçåö_ãðàäèåíòà_25-16);}.cls-21{fill:url(#îâûé_îáðàçåö_ãðàäèåíòà_25-17);}.cls-22{fill:url(#îâûé_îáðàçåö_ãðàäèåíòà_25-18);}.cls-23{fill:url(#îâûé_îáðàçåö_ãðàäèåíòà_25-19);}.cls-24{fill:url(#îâûé_îáðàçåö_ãðàäèåíòà_25-20);}.cls-25{fill:url(#îâûé_îáðàçåö_ãðàäèåíòà_25-21);}.cls-26{fill:url(#îâûé_îáðàçåö_ãðàäèåíòà_25-22);}.cls-27{fill:url(#îâûé_îáðàçåö_ãðàäèåíòà_25-23);}.cls-28{fill:url(#îâûé_îáðàçåö_ãðàäèåíòà_25-24);}.cls-29{fill:url(#îâûé_îáðàçåö_ãðàäèåíòà_25-25);}.cls-30{fill:url(#îâûé_îáðàçåö_ãðàäèåíòà_25-26);}.cls-31{fill:url(#îâûé_îáðàçåö_ãðàäèåíòà_25-27);}.cls-32{fill:url(#îâûé_îáðàçåö_ãðàäèåíòà_25-28);}.cls-33{fill:url(#îâûé_îáðàçåö_ãðàäèåíòà_25-29);}.cls-34{fill:url(#îâûé_îáðàçåö_ãðàäèåíòà_25-30);}.cls-35{fill:url(#îâûé_îáðàçåö_ãðàäèåíòà_25-31);}.cls-36{fill:url(#îâûé_îáðàçåö_ãðàäèåíòà_25-32);}.cls-37{fill:url(#îâûé_îáðàçåö_ãðàäèåíòà_25-33);}.cls-38{fill:url(#îâûé_îáðàçåö_ãðàäèåíòà_25-34);}.cls-39{fill:url(#îâûé_îáðàçåö_ãðàäèåíòà_25-35);}.cls-40{fill:url(#îâûé_îáðàçåö_ãðàäèåíòà_25-36);}.cls-41{fill:url(#îâûé_îáðàçåö_ãðàäèåíòà_25-37);}.cls-42{fill:url(#îâûé_îáðàçåö_ãðàäèåíòà_25-38);}.cls-43{fill:url(#îâûé_îáðàçåö_ãðàäèåíòà_25-39);}.cls-44{fill:url(#îâûé_îáðàçåö_ãðàäèåíòà_25-40);}.cls-45{fill:url(#îâûé_îáðàçåö_ãðàäèåíòà_25-41);}.cls-46{fill:url(#îâûé_îáðàçåö_ãðàäèåíòà_25-42);}.cls-47{fill:url(#îâûé_îáðàçåö_ãðàäèåíòà_25-43);}.cls-48{fill:url(#îâûé_îáðàçåö_ãðàäèåíòà_25-44);}.cls-49{fill:url(#îâûé_îáðàçåö_ãðàäèåíòà_25-45);}.cls-50{fill:url(#îâûé_îáðàçåö_ãðàäèåíòà_25-46);}.cls-51{fill:url(#îâûé_îáðàçåö_ãðàäèåíòà_25-47);}.cls-52{fill:url(#îâûé_îáðàçåö_ãðàäèåíòà_25-48);}.cls-53{fill:url(#îâûé_îáðàçåö_ãðàäèåíòà_25-49);}.cls-54{fill:url(#îâûé_îáðàçåö_ãðàäèåíòà_25-50);}.cls-55{fill:url(#îâûé_îáðàçåö_ãðàäèåíòà_25-51);}.cls-56{fill:url(#îâûé_îáðàçåö_ãðàäèåíòà_25-52);}.cls-57{fill:url(#îâûé_îáðàçåö_ãðàäèåíòà_25-53);}.cls-58{fill:url(#îâûé_îáðàçåö_ãðàäèåíòà_25-54);}.cls-59{fill:url(#îâûé_îáðàçåö_ãðàäèåíòà_25-55);}.cls-60{fill:#6d6e70;}</style><linearGradient id="îâûé_îáðàçåö_ãðàäèåíòà_25" x1="241.14" y1="246.88" x2="241.14" y2="321.27" gradientUnits="userSpaceOnUse"><stop offset="0" stop-color="#ffd03f"/><stop offset="0.2" stop-color="#fdca3a"/><stop offset="0.46" stop-color="#f6b82b"/><stop offset="0.77" stop-color="#eb9c12"/><stop offset="0.9" stop-color="#e58e06"/><stop offset="1" stop-color="#df8800"/></linearGradient><linearGradient id="îâûé_îáðàçåö_ãðàäèåíòà_25-2" x1="236.92" y1="247.54" x2="236.92" y2="288.7" xlink:href="#îâûé_îáðàçåö_ãðàäèåíòà_25"/><linearGradient id="îâûé_îáðàçåö_ãðàäèåíòà_25-3" x1="245.36" y1="247.54" x2="245.36" y2="288.7" xlink:href="#îâûé_îáðàçåö_ãðàäèåíòà_25"/><linearGradient id="îâûé_îáðàçåö_ãðàäèåíòà_25-4" x1="279.58" y1="278.03" x2="242.56" y2="290.99" xlink:href="#îâûé_îáðàçåö_ãðàäèåíòà_25"/><linearGradient id="îâûé_îáðàçåö_ãðàäèåíòà_25-5" x1="276.7" y1="270.77" x2="240.15" y2="282.92" xlink:href="#îâûé_îáðàçåö_ãðàäèåíòà_25"/><linearGradient id="îâûé_îáðàçåö_ãðàäèåíòà_25-6" x1="244.37" y1="284.13" x2="267.4" y2="315.93" xlink:href="#îâûé_îáðàçåö_ãðàäèåíòà_25"/><linearGradient id="îâûé_îáðàçåö_ãðàäèåíòà_25-7" x1="253.15" y1="302.15" x2="242.51" y2="306.83" xlink:href="#îâûé_îáðàçåö_ãðàäèåíòà_25"/><linearGradient id="îâûé_îáðàçåö_ãðàäèåíòà_25-8" x1="76.37" y1="278.03" x2="39.35" y2="290.99" gradientTransform="matrix(-1, 0, 0, 1, 279.08, 0)" xlink:href="#îâûé_îáðàçåö_ãðàäèåíòà_25"/><linearGradient id="îâûé_îáðàçåö_ãðàäèåíòà_25-9" x1="73.49" y1="270.77" x2="36.94" y2="282.92" gradientTransform="matrix(-1, 0, 0, 1, 279.08, 0)" xlink:href="#îâûé_îáðàçåö_ãðàäèåíòà_25"/><linearGradient id="îâûé_îáðàçåö_ãðàäèåíòà_25-10" x1="41.16" y1="284.13" x2="64.19" y2="315.93" gradientTransform="matrix(-1, 0, 0, 1, 279.08, 0)" xlink:href="#îâûé_îáðàçåö_ãðàäèåíòà_25"/><linearGradient id="îâûé_îáðàçåö_ãðàäèåíòà_25-11" x1="229.45" y1="302.19" x2="236.97" y2="307.51" xlink:href="#îâûé_îáðàçåö_ãðàäèåíòà_25"/><linearGradient id="îâûé_îáðàçåö_ãðàäèåíòà_25-12" x1="320.84" y1="246.88" x2="320.84" y2="321.27" xlink:href="#îâûé_îáðàçåö_ãðàäèåíòà_25"/><linearGradient id="îâûé_îáðàçåö_ãðàäèåíòà_25-13" x1="316.62" y1="247.54" x2="316.62" y2="288.7" xlink:href="#îâûé_îáðàçåö_ãðàäèåíòà_25"/><linearGradient id="îâûé_îáðàçåö_ãðàäèåíòà_25-14" x1="325.06" y1="247.54" x2="325.06" y2="288.7" xlink:href="#îâûé_îáðàçåö_ãðàäèåíòà_25"/><linearGradient id="îâûé_îáðàçåö_ãðàäèåíòà_25-15" x1="359.27" y1="278.03" x2="322.26" y2="290.99" xlink:href="#îâûé_îáðàçåö_ãðàäèåíòà_25"/><linearGradient id="îâûé_îáðàçåö_ãðàäèåíòà_25-16" x1="356.39" y1="270.77" x2="319.84" y2="282.92" xlink:href="#îâûé_îáðàçåö_ãðàäèåíòà_25"/><linearGradient id="îâûé_îáðàçåö_ãðàäèåíòà_25-17" x1="324.07" y1="284.13" x2="347.09" y2="315.93" xlink:href="#îâûé_îáðàçåö_ãðàäèåíòà_25"/><linearGradient id="îâûé_îáðàçåö_ãðàäèåíòà_25-18" x1="332.84" y1="302.15" x2="322.21" y2="306.83" xlink:href="#îâûé_îáðàçåö_ãðàäèåíòà_25"/><linearGradient id="îâûé_îáðàçåö_ãðàäèåíòà_25-19" x1="-3.33" y1="278.03" x2="-40.34" y2="290.99" gradientTransform="matrix(-1, 0, 0, 1, 279.08, 0)" xlink:href="#îâûé_îáðàçåö_ãðàäèåíòà_25"/><linearGradient id="îâûé_îáðàçåö_ãðàäèåíòà_25-20" x1="-6.21" y1="270.77" x2="-42.76" y2="282.92" gradientTransform="matrix(-1, 0, 0, 1, 279.08, 0)" xlink:href="#îâûé_îáðàçåö_ãðàäèåíòà_25"/><linearGradient id="îâûé_îáðàçåö_ãðàäèåíòà_25-21" x1="-38.53" y1="284.13" x2="-15.51" y2="315.93" gradientTransform="matrix(-1, 0, 0, 1, 279.08, 0)" xlink:href="#îâûé_îáðàçåö_ãðàäèåíòà_25"/><linearGradient id="îâûé_îáðàçåö_ãðàäèåíòà_25-22" x1="309.14" y1="302.19" x2="316.66" y2="307.51" xlink:href="#îâûé_îáðàçåö_ãðàäèåíòà_25"/><linearGradient id="îâûé_îáðàçåö_ãðàäèåíòà_25-23" x1="400.53" y1="246.88" x2="400.53" y2="321.27" xlink:href="#îâûé_îáðàçåö_ãðàäèåíòà_25"/><linearGradient id="îâûé_îáðàçåö_ãðàäèåíòà_25-24" x1="396.31" y1="247.54" x2="396.31" y2="288.7" xlink:href="#îâûé_îáðàçåö_ãðàäèåíòà_25"/><linearGradient id="îâûé_îáðàçåö_ãðàäèåíòà_25-25" x1="404.75" y1="247.54" x2="404.75" y2="288.7" xlink:href="#îâûé_îáðàçåö_ãðàäèåíòà_25"/><linearGradient id="îâûé_îáðàçåö_ãðàäèåíòà_25-26" x1="438.97" y1="278.03" x2="401.95" y2="290.99" xlink:href="#îâûé_îáðàçåö_ãðàäèåíòà_25"/><linearGradient id="îâûé_îáðàçåö_ãðàäèåíòà_25-27" x1="436.09" y1="270.77" x2="399.54" y2="282.92" xlink:href="#îâûé_îáðàçåö_ãðàäèåíòà_25"/><linearGradient id="îâûé_îáðàçåö_ãðàäèåíòà_25-28" x1="403.76" y1="284.13" x2="426.79" y2="315.93" xlink:href="#îâûé_îáðàçåö_ãðàäèåíòà_25"/><linearGradient id="îâûé_îáðàçåö_ãðàäèåíòà_25-29" x1="412.54" y1="302.15" x2="401.9" y2="306.83" xlink:href="#îâûé_îáðàçåö_ãðàäèåíòà_25"/><linearGradient id="îâûé_îáðàçåö_ãðàäèåíòà_25-30" x1="-83.02" y1="278.03" x2="-120.04" y2="290.99" gradientTransform="matrix(-1, 0, 0, 1, 279.08, 0)" xlink:href="#îâûé_îáðàçåö_ãðàäèåíòà_25"/><linearGradient id="îâûé_îáðàçåö_ãðàäèåíòà_25-31" x1="-85.9" y1="270.77" x2="-122.45" y2="282.92" gradientTransform="matrix(-1, 0, 0, 1, 279.08, 0)" xlink:href="#îâûé_îáðàçåö_ãðàäèåíòà_25"/><linearGradient id="îâûé_îáðàçåö_ãðàäèåíòà_25-32" x1="-118.23" y1="284.13" x2="-95.2" y2="315.93" gradientTransform="matrix(-1, 0, 0, 1, 279.08, 0)" xlink:href="#îâûé_îáðàçåö_ãðàäèåíòà_25"/><linearGradient id="îâûé_îáðàçåö_ãðàäèåíòà_25-33" x1="388.84" y1="302.19" x2="396.35" y2="307.51" xlink:href="#îâûé_îáðàçåö_ãðàäèåíòà_25"/><linearGradient id="îâûé_îáðàçåö_ãðàäèåíòà_25-34" x1="480.23" y1="246.88" x2="480.23" y2="321.27" xlink:href="#îâûé_îáðàçåö_ãðàäèåíòà_25"/><linearGradient id="îâûé_îáðàçåö_ãðàäèåíòà_25-35" x1="476.01" y1="247.54" x2="476.01" y2="288.7" xlink:href="#îâûé_îáðàçåö_ãðàäèåíòà_25"/><linearGradient id="îâûé_îáðàçåö_ãðàäèåíòà_25-36" x1="484.45" y1="247.54" x2="484.45" y2="288.7" xlink:href="#îâûé_îáðàçåö_ãðàäèåíòà_25"/><linearGradient id="îâûé_îáðàçåö_ãðàäèåíòà_25-37" x1="518.66" y1="278.03" x2="481.65" y2="290.99" xlink:href="#îâûé_îáðàçåö_ãðàäèåíòà_25"/><linearGradient id="îâûé_îáðàçåö_ãðàäèåíòà_25-38" x1="515.78" y1="270.77" x2="479.23" y2="282.92" xlink:href="#îâûé_îáðàçåö_ãðàäèåíòà_25"/><linearGradient id="îâûé_îáðàçåö_ãðàäèåíòà_25-39" x1="483.46" y1="284.13" x2="506.48" y2="315.93" xlink:href="#îâûé_îáðàçåö_ãðàäèåíòà_25"/><linearGradient id="îâûé_îáðàçåö_ãðàäèåíòà_25-40" x1="492.23" y1="302.15" x2="481.6" y2="306.83" xlink:href="#îâûé_îáðàçåö_ãðàäèåíòà_25"/><linearGradient id="îâûé_îáðàçåö_ãðàäèåíòà_25-41" x1="-162.72" y1="278.03" x2="-199.73" y2="290.99" gradientTransform="matrix(-1, 0, 0, 1, 279.08, 0)" xlink:href="#îâûé_îáðàçåö_ãðàäèåíòà_25"/><linearGradient id="îâûé_îáðàçåö_ãðàäèåíòà_25-42" x1="-165.6" y1="270.77" x2="-202.15" y2="282.92" gradientTransform="matrix(-1, 0, 0, 1, 279.08, 0)" xlink:href="#îâûé_îáðàçåö_ãðàäèåíòà_25"/><linearGradient id="îâûé_îáðàçåö_ãðàäèåíòà_25-43" x1="-197.92" y1="284.13" x2="-174.9" y2="315.93" gradientTransform="matrix(-1, 0, 0, 1, 279.08, 0)" xlink:href="#îâûé_îáðàçåö_ãðàäèåíòà_25"/><linearGradient id="îâûé_îáðàçåö_ãðàäèåíòà_25-44" x1="468.53" y1="302.19" x2="476.05" y2="307.51" xlink:href="#îâûé_îáðàçåö_ãðàäèåíòà_25"/><linearGradient id="îâûé_îáðàçåö_ãðàäèåíòà_25-45" x1="559.92" y1="246.88" x2="559.92" y2="321.27" xlink:href="#îâûé_îáðàçåö_ãðàäèåíòà_25"/><linearGradient id="îâûé_îáðàçåö_ãðàäèåíòà_25-46" x1="555.7" y1="247.54" x2="555.7" y2="288.7" xlink:href="#îâûé_îáðàçåö_ãðàäèåíòà_25"/><linearGradient id="îâûé_îáðàçåö_ãðàäèåíòà_25-47" x1="564.14" y1="247.54" x2="564.14" y2="288.7" xlink:href="#îâûé_îáðàçåö_ãðàäèåíòà_25"/><linearGradient id="îâûé_îáðàçåö_ãðàäèåíòà_25-48" x1="598.36" y1="278.03" x2="561.34" y2="290.99" xlink:href="#îâûé_îáðàçåö_ãðàäèåíòà_25"/><linearGradient id="îâûé_îáðàçåö_ãðàäèåíòà_25-49" x1="595.48" y1="270.77" x2="558.93" y2="282.92" xlink:href="#îâûé_îáðàçåö_ãðàäèåíòà_25"/><linearGradient id="îâûé_îáðàçåö_ãðàäèåíòà_25-50" x1="563.15" y1="284.13" x2="586.18" y2="315.93" xlink:href="#îâûé_îáðàçåö_ãðàäèåíòà_25"/><linearGradient id="îâûé_îáðàçåö_ãðàäèåíòà_25-51" x1="571.93" y1="302.15" x2="561.29" y2="306.83" xlink:href="#îâûé_îáðàçåö_ãðàäèåíòà_25"/><linearGradient id="îâûé_îáðàçåö_ãðàäèåíòà_25-52" x1="-242.41" y1="278.03" x2="-279.43" y2="290.99" gradientTransform="matrix(-1, 0, 0, 1, 279.08, 0)" xlink:href="#îâûé_îáðàçåö_ãðàäèåíòà_25"/><linearGradient id="îâûé_îáðàçåö_ãðàäèåíòà_25-53" x1="-245.29" y1="270.77" x2="-281.84" y2="282.92" gradientTransform="matrix(-1, 0, 0, 1, 279.08, 0)" xlink:href="#îâûé_îáðàçåö_ãðàäèåíòà_25"/><linearGradient id="îâûé_îáðàçåö_ãðàäèåíòà_25-54" x1="-277.62" y1="284.13" x2="-254.59" y2="315.93" gradientTransform="matrix(-1, 0, 0, 1, 279.08, 0)" xlink:href="#îâûé_îáðàçåö_ãðàäèåíòà_25"/><linearGradient id="îâûé_îáðàçåö_ãðàäèåíòà_25-55" x1="548.23" y1="302.19" x2="555.74" y2="307.51" xlink:href="#îâûé_îáðàçåö_ãðàäèåíòà_25"/></defs><g class="cls-1"><g id="Layer_1" data-name="Layer 1"><circle class="cls-2" cx="400" cy="400" r="400"/><polygon class="cls-3" points="241.14 248.35 249.58 275.24 277.77 274.96 254.8 291.3 263.78 318.01 241.14 301.21 218.51 318.01 227.49 291.3 204.52 274.96 232.71 275.24 241.14 248.35"/><polygon class="cls-4" points="241.14 286.89 241.14 248.35 232.71 275.24 241.14 286.89"/><polygon class="cls-5" points="241.14 286.89 249.58 275.24 241.14 248.35 241.14 286.89"/><polygon class="cls-6" points="241.14 286.89 249.58 275.24 241.14 248.35 241.14 286.89"/><polygon class="cls-7" points="254.8 291.3 277.77 274.96 241.14 286.89 254.8 291.3"/><polygon class="cls-6" points="254.8 291.3 277.77 274.96 241.14 286.89 254.8 291.3"/><polygon class="cls-8" points="277.77 274.96 241.14 286.89 249.58 275.24 277.77 274.96"/><polygon class="cls-9" points="241.14 286.89 254.8 291.3 263.78 318.01 241.14 286.89"/><polygon class="cls-10" points="241.14 286.89 241.14 301.21 263.78 318.01 241.14 286.89"/><polygon class="cls-6" points="241.14 286.89 241.14 301.21 263.78 318.01 241.14 286.89"/><polygon class="cls-11" points="227.49 291.3 204.52 274.96 241.14 286.89 227.49 291.3"/><polygon class="cls-6" points="227.49 291.3 204.52 274.96 241.14 286.89 227.49 291.3"/><polygon class="cls-12" points="204.52 274.96 241.14 286.89 232.71 275.24 204.52 274.96"/><polygon class="cls-13" points="241.14 286.89 227.49 291.3 218.51 318.01 241.14 286.89"/><polygon class="cls-14" points="241.14 286.89 241.14 301.21 218.51 318.01 241.14 286.89"/><polygon class="cls-6" points="241.14 286.89 241.14 301.21 218.51 318.01 241.14 286.89"/><g class="cls-15"><path class="cls-2" d="M204.54,275l1.15.34,1.15.36,2.3.71q2.3.7,4.59,1.44l4.58,1.46,4.58,1.48,4.57,1.5,4.56,1.51,4.56,1.54,2.27.78,1.14.39,1.14.4-1.16-.35-1.14-.35-2.3-.71L231.94,284l-4.58-1.47-4.58-1.48-4.57-1.49-4.56-1.52-4.56-1.54-2.28-.78-1.13-.39Z" transform="translate(0 0)"/></g><g class="cls-15"><path class="cls-2" d="M241.13,248.35l0,1.21,0,1.2,0,2.41c0,1.6,0,3.21,0,4.81l0,4.82v9.63l0,4.81c0,1.6,0,3.21,0,4.81l0,2.41,0,1.2,0,1.21,0-1.21,0-1.2,0-2.41c0-1.6,0-3.21,0-4.81l0-4.81V262.8c0-1.61,0-3.21,0-4.82s0-3.21,0-4.81l0-2.41,0-1.2Z" transform="translate(0 0)"/></g><g class="cls-15"><path class="cls-2" d="M277.77,275l-1.14.39-1.14.39-2.28.78-4.56,1.54-4.57,1.52-4.58,1.49-4.58,1.48L250.33,284l-4.6,1.44-2.3.71-1.15.35-1.15.35,1.13-.4,1.14-.39,2.28-.78,4.57-1.54,4.57-1.51,4.57-1.5,4.59-1.48,4.59-1.46q2.3-.74,4.59-1.44l2.3-.71,1.16-.36Z" transform="translate(0 0)"/></g><g class="cls-15"><path class="cls-2" d="M263.76,318l-.73-1-.72-1-1.45-1.93c-1-1.28-1.91-2.57-2.87-3.86l-2.85-3.87-2.84-3.89-2.82-3.9c-.93-1.3-1.87-2.6-2.8-3.91s-1.87-2.61-2.79-3.92l-1.39-2-.69-1-.68-1,.72,1,.73,1,1.44,1.92c1,1.29,1.92,2.57,2.87,3.86s1.9,2.59,2.85,3.88l2.84,3.89,2.82,3.9q1.41,2,2.81,3.91l2.79,3.92,1.38,2,.69,1Z" transform="translate(0 0)"/></g><g class="cls-15"><path class="cls-2" d="M218.49,318l.69-1,.69-1,1.39-2q1.38-2,2.78-3.92c.93-1.31,1.88-2.61,2.81-3.91l2.82-3.9,2.84-3.89c1-1.29,1.89-2.59,2.85-3.88s1.91-2.57,2.87-3.86l1.44-1.92.73-1,.73-1-.69,1-.69,1-1.39,2q-1.38,2-2.78,3.92l-2.81,3.91-2.82,3.9-2.84,3.89-2.85,3.87q-1.42,1.93-2.87,3.86l-1.45,1.93-.72,1Z" transform="translate(0 0)"/></g><polygon class="cls-16" points="320.84 248.35 329.28 275.24 357.46 274.96 334.49 291.3 343.47 318.01 320.84 301.21 298.2 318.01 307.19 291.3 284.21 274.96 312.4 275.24 320.84 248.35"/><polygon class="cls-17" points="320.84 286.89 320.84 248.35 312.4 275.24 320.84 286.89"/><polygon class="cls-18" points="320.84 286.89 329.28 275.24 320.84 248.35 320.84 286.89"/><polygon class="cls-6" points="320.84 286.89 329.28 275.24 320.84 248.35 320.84 286.89"/><polygon class="cls-19" points="334.49 291.3 357.46 274.96 320.84 286.89 334.49 291.3"/><polygon class="cls-6" points="334.49 291.3 357.46 274.96 320.84 286.89 334.49 291.3"/><polygon class="cls-20" points="357.46 274.96 320.84 286.89 329.28 275.24 357.46 274.96"/><polygon class="cls-21" points="320.84 286.89 334.49 291.3 343.47 318.01 320.84 286.89"/><polygon class="cls-22" points="320.84 286.89 320.84 301.21 343.47 318.01 320.84 286.89"/><polygon class="cls-6" points="320.84 286.89 320.84 301.21 343.47 318.01 320.84 286.89"/><polygon class="cls-23" points="307.19 291.3 284.21 274.96 320.84 286.89 307.19 291.3"/><polygon class="cls-6" points="307.19 291.3 284.21 274.96 320.84 286.89 307.19 291.3"/><polygon class="cls-24" points="284.21 274.96 320.84 286.89 312.4 275.24 284.21 274.96"/><polygon class="cls-25" points="320.84 286.89 307.19 291.3 298.2 318.01 320.84 286.89"/><polygon class="cls-26" points="320.84 286.89 320.84 301.21 298.2 318.01 320.84 286.89"/><polygon class="cls-6" points="320.84 286.89 320.84 301.21 298.2 318.01 320.84 286.89"/><g class="cls-15"><path class="cls-2" d="M284.24,275l1.15.34,1.15.36,2.29.71q2.3.7,4.59,1.44l4.58,1.46,4.58,1.48,4.57,1.5,4.57,1.51,4.55,1.54,2.28.78,1.14.39,1.13.4-1.15-.35-1.15-.35-2.3-.71L311.63,284l-4.58-1.47-4.57-1.48-4.58-1.49-4.56-1.52-4.56-1.54-2.27-.78-1.14-.39Z" transform="translate(0 0)"/></g><g class="cls-15"><path class="cls-2" d="M320.82,248.35l0,1.21,0,1.2,0,2.41c0,1.6,0,3.21.05,4.81s0,3.21,0,4.82v9.63c0,1.6,0,3.2,0,4.81s0,3.21-.05,4.81l0,2.41,0,1.2,0,1.21,0-1.21v-1.2l0-2.41c0-1.6,0-3.21-.05-4.81s0-3.21,0-4.81V262.8c0-1.61,0-3.21,0-4.82s0-3.21.05-4.81l0-2.41,0-1.2Z" transform="translate(0 0)"/></g><g class="cls-15"><path class="cls-2" d="M357.46,275l-1.13.39-1.14.39-2.28.78-4.57,1.54-4.57,1.52-4.58,1.49-4.58,1.48L330,284l-4.59,1.44-2.31.71-1.15.35-1.15.35,1.14-.4,1.14-.39,2.28-.78,4.56-1.54,4.57-1.51,4.58-1.5,4.58-1.48,4.59-1.46q2.3-.74,4.6-1.44l2.3-.71,1.15-.36Z" transform="translate(0 0)"/></g><g class="cls-15"><path class="cls-2" d="M343.45,318l-.73-1-.72-1-1.44-1.93q-1.44-1.92-2.87-3.86c-1-1.29-1.9-2.58-2.85-3.87L332,302.54l-2.82-3.9q-1.41-2-2.81-3.91l-2.79-3.92-1.38-2-.69-1-.69-1,.73,1,.72,1,1.45,1.92,2.87,3.86,2.85,3.88,2.83,3.89,2.83,3.9c.93,1.3,1.87,2.6,2.8,3.91s1.86,2.61,2.79,3.92l1.38,2,.7,1Z" transform="translate(0 0)"/></g><g class="cls-15"><path class="cls-2" d="M298.19,318l.69-1,.69-1,1.38-2,2.79-3.92q1.39-2,2.81-3.91l2.82-3.9,2.83-3.89c.95-1.29,1.9-2.59,2.86-3.88l2.86-3.86,1.45-1.92.72-1,.73-1-.69,1-.69,1-1.38,2-2.79,3.92q-1.39,2-2.81,3.91l-2.82,3.9-2.83,3.89L304,310.3q-1.43,1.93-2.87,3.86l-1.44,1.93-.72,1Z" transform="translate(0 0)"/></g><polygon class="cls-27" points="400.53 248.35 408.97 275.24 437.16 274.96 414.19 291.3 423.17 318.01 400.53 301.21 377.9 318.01 386.88 291.3 363.91 274.96 392.1 275.24 400.53 248.35"/><polygon class="cls-28" points="400.53 286.89 400.53 248.35 392.1 275.24 400.53 286.89"/><polygon class="cls-29" points="400.53 286.89 408.97 275.24 400.53 248.35 400.53 286.89"/><polygon class="cls-6" points="400.53 286.89 408.97 275.24 400.53 248.35 400.53 286.89"/><polygon class="cls-30" points="414.19 291.3 437.16 274.96 400.53 286.89 414.19 291.3"/><polygon class="cls-6" points="414.19 291.3 437.16 274.96 400.53 286.89 414.19 291.3"/><polygon class="cls-31" points="437.16 274.96 400.53 286.89 408.97 275.24 437.16 274.96"/><polygon class="cls-32" points="400.53 286.89 414.19 291.3 423.17 318.01 400.53 286.89"/><polygon class="cls-33" points="400.53 286.89 400.53 301.21 423.17 318.01 400.53 286.89"/><polygon class="cls-6" points="400.53 286.89 400.53 301.21 423.17 318.01 400.53 286.89"/><polygon class="cls-34" points="386.88 291.3 363.91 274.96 400.53 286.89 386.88 291.3"/><polygon class="cls-6" points="386.88 291.3 363.91 274.96 400.53 286.89 386.88 291.3"/><polygon class="cls-35" points="363.91 274.96 400.53 286.89 392.1 275.24 363.91 274.96"/><polygon class="cls-36" points="400.53 286.89 386.88 291.3 377.9 318.01 400.53 286.89"/><polygon class="cls-37" points="400.53 286.89 400.53 301.21 377.9 318.01 400.53 286.89"/><polygon class="cls-6" points="400.53 286.89 400.53 301.21 377.9 318.01 400.53 286.89"/><g class="cls-15"><path class="cls-2" d="M363.93,275l1.15.34,1.15.36,2.3.71q2.3.7,4.59,1.44l4.58,1.46,4.58,1.48,4.57,1.5,4.56,1.51L396,285.3l2.27.78,1.14.39,1.14.4-1.16-.35-1.15-.35-2.29-.71L391.33,284l-4.58-1.47-4.58-1.48-4.57-1.49L373,278.06l-4.56-1.54-2.28-.78-1.13-.39Z" transform="translate(0 0)"/></g><g class="cls-15"><path class="cls-2" d="M400.52,248.35l0,1.21,0,1.2,0,2.41c0,1.6,0,3.21,0,4.81l0,4.82v9.63l0,4.81c0,1.6,0,3.21,0,4.81l0,2.41,0,1.2,0,1.21,0-1.21,0-1.2,0-2.41c0-1.6,0-3.21-.05-4.81l0-4.81V262.8l0-4.82c0-1.6,0-3.21.05-4.81l0-2.41,0-1.2Z" transform="translate(0 0)"/></g><g class="cls-15"><path class="cls-2" d="M437.16,275l-1.14.39-1.14.39-2.28.78L428,278.06l-4.57,1.52-4.58,1.49-4.58,1.48L409.72,284l-4.6,1.44-2.3.71-1.15.35-1.15.35,1.13-.4,1.14-.39,2.28-.78,4.57-1.54,4.57-1.51,4.57-1.5,4.59-1.48,4.59-1.46q2.3-.74,4.59-1.44l2.3-.71,1.15-.36Z" transform="translate(0 0)"/></g><g class="cls-15"><path class="cls-2" d="M423.15,318l-.73-1-.72-1-1.45-1.93q-1.44-1.92-2.87-3.86l-2.85-3.87-2.84-3.89-2.82-3.9c-.93-1.3-1.87-2.6-2.8-3.91s-1.87-2.61-2.79-3.92l-1.39-2-.69-1-.68-1,.72,1,.73,1,1.44,1.92c1,1.29,1.92,2.57,2.87,3.86s1.9,2.59,2.85,3.88l2.84,3.89,2.82,3.9q1.41,2,2.81,3.91l2.79,3.92,1.38,2,.69,1Z" transform="translate(0 0)"/></g><g class="cls-15"><path class="cls-2" d="M377.88,318l.69-1,.69-1,1.39-2q1.38-2,2.78-3.92c.93-1.31,1.88-2.61,2.81-3.91l2.82-3.9,2.84-3.89c1-1.29,1.89-2.59,2.85-3.88s1.91-2.57,2.87-3.86l1.44-1.92.73-1,.73-1-.69,1-.69,1-1.39,2q-1.38,2-2.78,3.92l-2.81,3.91-2.82,3.9-2.84,3.89-2.85,3.87q-1.42,1.93-2.87,3.86l-1.45,1.93-.72,1Z" transform="translate(0 0)"/></g><polygon class="cls-38" points="480.23 248.35 488.67 275.24 516.85 274.96 493.88 291.3 502.86 318.01 480.23 301.21 457.59 318.01 466.57 291.3 443.6 274.96 471.79 275.24 480.23 248.35"/><polygon class="cls-39" points="480.23 286.89 480.23 248.35 471.79 275.24 480.23 286.89"/><polygon class="cls-40" points="480.23 286.89 488.67 275.24 480.23 248.35 480.23 286.89"/><polygon class="cls-6" points="480.23 286.89 488.67 275.24 480.23 248.35 480.23 286.89"/><polygon class="cls-41" points="493.88 291.3 516.85 274.96 480.23 286.89 493.88 291.3"/><polygon class="cls-6" points="493.88 291.3 516.85 274.96 480.23 286.89 493.88 291.3"/><polygon class="cls-42" points="516.85 274.96 480.23 286.89 488.67 275.24 516.85 274.96"/><polygon class="cls-43" points="480.23 286.89 493.88 291.3 502.86 318.01 480.23 286.89"/><polygon class="cls-44" points="480.23 286.89 480.23 301.21 502.86 318.01 480.23 286.89"/><polygon class="cls-6" points="480.23 286.89 480.23 301.21 502.86 318.01 480.23 286.89"/><polygon class="cls-45" points="466.57 291.3 443.6 274.96 480.23 286.89 466.57 291.3"/><polygon class="cls-6" points="466.57 291.3 443.6 274.96 480.23 286.89 466.57 291.3"/><polygon class="cls-46" points="443.6 274.96 480.23 286.89 471.79 275.24 443.6 274.96"/><polygon class="cls-47" points="480.23 286.89 466.57 291.3 457.59 318.01 480.23 286.89"/><polygon class="cls-48" points="480.23 286.89 480.23 301.21 457.59 318.01 480.23 286.89"/><polygon class="cls-6" points="480.23 286.89 480.23 301.21 457.59 318.01 480.23 286.89"/><g class="cls-15"><path class="cls-2" d="M443.62,275l1.16.34,1.15.36,2.29.71q2.29.7,4.59,1.44l4.58,1.46,4.58,1.48,4.57,1.5,4.57,1.51,4.55,1.54,2.28.78,1.14.39,1.13.4-1.15-.35-1.15-.35-2.3-.71L471,284l-4.58-1.47-4.57-1.48-4.58-1.49-4.56-1.52-4.56-1.54-2.27-.78-1.14-.39Z" transform="translate(0 0)"/></g><g class="cls-15"><path class="cls-2" d="M480.21,248.35l0,1.21,0,1.2,0,2.41c0,1.6,0,3.21,0,4.81s0,3.21,0,4.82v9.63c0,1.6,0,3.2,0,4.81s0,3.21,0,4.81l0,2.41,0,1.2,0,1.21,0-1.21v-1.2l0-2.41c0-1.6,0-3.21-.05-4.81s0-3.21,0-4.81V262.8c0-1.61,0-3.21,0-4.82s0-3.21.05-4.81l0-2.41v-1.2Z" transform="translate(0 0)"/></g><g class="cls-15"><path class="cls-2" d="M516.85,275l-1.13.39-1.14.39-2.28.78-4.57,1.54-4.57,1.52-4.58,1.49L494,282.55,489.41,284l-4.59,1.44-2.31.71-1.15.35-1.15.35,1.14-.4,1.14-.39,2.27-.78,4.57-1.54,4.57-1.51,4.58-1.5,4.58-1.48,4.59-1.46q2.3-.74,4.6-1.44l2.3-.71,1.15-.36Z" transform="translate(0 0)"/></g><g class="cls-15"><path class="cls-2" d="M502.84,318l-.73-1-.72-1L500,314.16q-1.44-1.92-2.87-3.86c-1-1.29-1.9-2.58-2.85-3.87l-2.84-3.89-2.82-3.9q-1.41-2-2.81-3.91L483,290.81l-1.38-2-.69-1-.69-1,.73,1,.72,1,1.45,1.92,2.87,3.86,2.85,3.88,2.83,3.89,2.83,3.9c.93,1.3,1.87,2.6,2.8,3.91s1.86,2.61,2.79,3.92l1.38,2,.7,1Z" transform="translate(0 0)"/></g><g class="cls-15"><path class="cls-2" d="M457.58,318l.69-1,.69-1,1.38-2,2.79-3.92q1.39-2,2.81-3.91l2.82-3.9,2.83-3.89c1-1.29,1.9-2.59,2.86-3.88l2.86-3.86,1.45-1.92.72-1,.73-1-.69,1-.69,1-1.38,2-2.79,3.92q-1.4,2-2.81,3.91l-2.82,3.9-2.83,3.89-2.86,3.87q-1.43,1.93-2.87,3.86L459,316.09l-.72,1Z" transform="translate(0 0)"/></g><polygon class="cls-49" points="559.92 248.35 568.36 275.24 596.55 274.96 573.58 291.3 582.56 318.01 559.92 301.21 537.29 318.01 546.27 291.3 523.3 274.96 551.49 275.24 559.92 248.35"/><polygon class="cls-50" points="559.92 286.89 559.92 248.35 551.49 275.24 559.92 286.89"/><polygon class="cls-51" points="559.92 286.89 568.36 275.24 559.92 248.35 559.92 286.89"/><polygon class="cls-6" points="559.92 286.89 568.36 275.24 559.92 248.35 559.92 286.89"/><polygon class="cls-52" points="573.58 291.3 596.55 274.96 559.92 286.89 573.58 291.3"/><polygon class="cls-6" points="573.58 291.3 596.55 274.96 559.92 286.89 573.58 291.3"/><polygon class="cls-53" points="596.55 274.96 559.92 286.89 568.36 275.24 596.55 274.96"/><polygon class="cls-54" points="559.92 286.89 573.58 291.3 582.56 318.01 559.92 286.89"/><polygon class="cls-55" points="559.92 286.89 559.92 301.21 582.56 318.01 559.92 286.89"/><polygon class="cls-6" points="559.92 286.89 559.92 301.21 582.56 318.01 559.92 286.89"/><polygon class="cls-56" points="546.27 291.3 523.3 274.96 559.92 286.89 546.27 291.3"/><polygon class="cls-6" points="546.27 291.3 523.3 274.96 559.92 286.89 546.27 291.3"/><polygon class="cls-57" points="523.3 274.96 559.92 286.89 551.49 275.24 523.3 274.96"/><polygon class="cls-58" points="559.92 286.89 546.27 291.3 537.29 318.01 559.92 286.89"/><polygon class="cls-59" points="559.92 286.89 559.92 301.21 537.29 318.01 559.92 286.89"/><polygon class="cls-6" points="559.92 286.89 559.92 301.21 537.29 318.01 559.92 286.89"/><g class="cls-15"><path class="cls-2" d="M523.32,275l1.15.34,1.15.36,2.3.71q2.3.7,4.59,1.44l4.58,1.46,4.58,1.48,4.57,1.5,4.56,1.51,4.56,1.54,2.27.78,1.14.39,1.14.4-1.16-.35-1.15-.35-2.29-.71L550.72,284l-4.58-1.47-4.58-1.48L537,279.58l-4.56-1.52-4.56-1.54-2.28-.78-1.13-.39Z" transform="translate(0 0)"/></g><g class="cls-15"><path class="cls-2" d="M559.91,248.35l0,1.21,0,1.2,0,2.41c0,1.6,0,3.21,0,4.81l0,4.82v9.63l0,4.81c0,1.6,0,3.21,0,4.81l0,2.41,0,1.2,0,1.21,0-1.21,0-1.2,0-2.41c0-1.6,0-3.21-.05-4.81l0-4.81V262.8l0-4.82c0-1.6,0-3.21.05-4.81l0-2.41,0-1.2Z" transform="translate(0 0)"/></g><g class="cls-15"><path class="cls-2" d="M596.55,275l-1.14.39-1.14.39-2.28.78-4.56,1.54-4.57,1.52-4.58,1.49-4.58,1.48L569.11,284l-4.6,1.44-2.3.71-1.15.35-1.15.35,1.13-.4,1.14-.39,2.28-.78,4.56-1.54,4.58-1.51,4.57-1.5,4.59-1.48,4.59-1.46q2.29-.74,4.59-1.44l2.3-.71,1.15-.36Z" transform="translate(0 0)"/></g><g class="cls-15"><path class="cls-2" d="M582.54,318l-.73-1-.72-1-1.45-1.93q-1.44-1.92-2.87-3.86l-2.85-3.87-2.84-3.89-2.82-3.9c-.93-1.3-1.87-2.6-2.8-3.91s-1.87-2.61-2.79-3.92l-1.39-2-.69-1-.68-1,.72,1,.73,1,1.44,1.92c1,1.29,1.92,2.57,2.87,3.86s1.9,2.59,2.85,3.88l2.84,3.89,2.82,3.9q1.41,2,2.81,3.91l2.79,3.92,1.38,2,.69,1Z" transform="translate(0 0)"/></g><g class="cls-15"><path class="cls-2" d="M537.27,318l.69-1,.69-1,1.39-2q1.38-2,2.78-3.92t2.81-3.91l2.82-3.9,2.84-3.89c1-1.29,1.89-2.59,2.85-3.88s1.91-2.57,2.87-3.86l1.44-1.92.73-1,.73-1-.69,1-.69,1-1.39,2q-1.38,2-2.79,3.92c-.93,1.31-1.87,2.61-2.8,3.91l-2.82,3.9-2.84,3.89L543,310.3q-1.42,1.93-2.87,3.86l-1.45,1.93-.72,1Z" transform="translate(0 0)"/></g><path d="M335.84,405.66H267v30.46a32,32,0,0,1,12.36-7.95,47.07,47.07,0,0,1,17.21-3.09q16.56,0,27.48,7.51A44.18,44.18,0,0,1,340,452a65.25,65.25,0,0,1,5.08,25.82q0,25.82-14.57,40.94t-41.05,15.12q-17.65,0-30.67-6.07a47,47,0,0,1-20.09-16.89A48.84,48.84,0,0,1,231,486h36.85a19.88,19.88,0,0,0,6.4,11.37q5.08,4.53,13.91,4.52,10.36,0,15.45-6.62t5.07-17.65q0-10.82-5.29-16.55T288,455.32q-7.51,0-12.36,3.64a17,17,0,0,0-6.4,9.6H232.77v-96H335.84Z" transform="translate(0 0)"/><path d="M371,529.8a18.9,18.9,0,0,1-6.29-14.45A19.52,19.52,0,0,1,371,500.56q6.29-6,16.22-6,9.71,0,16,6a19.55,19.55,0,0,1,6.29,14.79,18.93,18.93,0,0,1-6.29,14.45q-6.28,5.85-16,5.85Q377.33,535.65,371,529.8Z" transform="translate(0 0)"/><path d="M442.76,391.32q14.67-21.85,47.34-21.85t47.34,21.85q14.67,21.84,14.68,59.81,0,38.4-14.68,60.24T490.1,533.22q-32.67,0-47.34-21.85t-14.67-60.24Q428.09,413.17,442.76,391.32Zm67.42,25.49q-4.85-12-20.08-12t-20.08,12q-4.86,12-4.86,34.32A143.8,143.8,0,0,0,466.93,476q1.76,9.82,7.17,15.89t16,6.07q10.59,0,16-6.07T513.27,476A143.8,143.8,0,0,0,515,451.13Q515,428.84,510.18,416.81Z" transform="translate(0 0)"/><path class="cls-60" d="M674.74,413.35a18.82,18.82,0,0,1,2.2,1.3,27.18,27.18,0,0,1,2.58,2A48.4,48.4,0,0,1,689.93,431a109.67,109.67,0,0,1,5.63,16.64c.58,2.47,1,4.44,1.35,5.8.07.37.14.69.19,1l.52-1.4a42.89,42.89,0,0,0,1.49-5.58,48.3,48.3,0,0,0,.92-12.59c-.91-10.36-7.69-23.39-27.21-26.19l-1.63-.25A1.08,1.08,0,0,0,670,409l-.61,1.45a28.12,28.12,0,0,0-1.22,15.2c1.15,8.18,5.88,19.48,25.29,29l.75.37c0-.33-.1-.72-.17-1.22-.24-1.33-.58-3.27-1-5.71a111.18,111.18,0,0,0-4.56-16.59A45.82,45.82,0,0,0,679.19,417a26.07,26.07,0,0,0-2.43-2.14,16.9,16.9,0,0,0-2.09-1.4,14.33,14.33,0,0,0-1.45-.76l-.52-.25.54.23A12.52,12.52,0,0,1,674.74,413.35Z" transform="translate(0 0)"/><path class="cls-60" d="M739.76,411.25a1,1,0,0,0-1.09-.82l-1.65.19c-20.15,2.42-27,15-30.6,24.92A50.77,50.77,0,0,0,703.25,454l.06,1.54.48-.88,3-5.23a171.75,171.75,0,0,1,10.54-15.54c3.88-5.57,8.06-10.95,12.09-14.22a28.66,28.66,0,0,1,2.79-2.1,20.84,20.84,0,0,1,2.33-1.32,14,14,0,0,1,1.57-.68l.57-.21-.55.25a12.74,12.74,0,0,0-1.53.77,18.29,18.29,0,0,0-2.23,1.45,28.31,28.31,0,0,0-2.65,2.23c-3.82,3.45-7.53,9-11.18,14.72A163.56,163.56,0,0,0,709,450.69L706.36,456l-.54,1.14.83-.09c21-2.2,30-14.79,33-24.73a45,45,0,0,0,1.26-13.3,35.79,35.79,0,0,0-.75-5.94Z" transform="translate(0 0)"/><path class="cls-60" d="M682.8,506.74a42.42,42.42,0,0,0,2.57-5.18,45.17,45.17,0,0,0,3.35-12.15c.39-10.54-3.11-24.37-21.92-30.74l-1.56-.54a1.08,1.08,0,0,0-1.25.37l-.89,1.3a28,28,0,0,0-4.26,14.61c.34,8.46,2.14,20.19,19.56,33.2l.67.5c0-.33,0-.72.07-1.22,0-1.34.08-3.3.14-5.77-.09-4.79,0-11-1.45-17.14s-3.77-12.09-6.44-16a24,24,0,0,0-2-2.54,16.88,16.88,0,0,0-1.78-1.75,15.05,15.05,0,0,0-1.27-1l-.47-.34.49.32a14.13,14.13,0,0,1,1.34.94,19.63,19.63,0,0,1,1.9,1.68,25.39,25.39,0,0,1,2.14,2.47c3,3.78,5.64,9.66,7.5,15.9s2.16,12.5,2.56,17.41c.07,2.53.14,4.54.18,5.93v1Z" transform="translate(0 0)"/><path class="cls-60" d="M732.12,473.52a1,1,0,0,0-.91-1l-1.66-.11c-20.12-1.26-30,9.61-34.69,18.91a52.31,52.31,0,0,0-6.71,17.45l-.24,1.52.64-.77,4-4.56c3.27-3.77,8.47-8.54,13.13-13.35s10-9.26,14.61-11.75a32.29,32.29,0,0,1,3.17-1.54,20.38,20.38,0,0,1,2.55-.87,14.22,14.22,0,0,1,1.68-.37l.6-.11-.59.15a12.27,12.27,0,0,0-1.66.47,20.31,20.31,0,0,0-2.48,1,30.56,30.56,0,0,0-3.05,1.7c-4.36,2.71-9.38,7.4-13.75,12.43s-9.24,10-12.28,13.91c-1.58,2-2.83,3.63-3.7,4.73l-.74,1,.82.07c20.94,1.69,32.9-8.77,37-18.23a45.15,45.15,0,0,0,3.88-12.82,37.8,37.8,0,0,0,.45-6Z" transform="translate(0 0)"/><path class="cls-60" d="M657.52,557c-.08.37-.14.69-.2,1l1-1.1a42.48,42.48,0,0,0,3.53-4.59c1.76-2.86,4.44-6.55,5.38-11.41,2.44-10.23,1.68-24.41-15.6-34.14l-1.42-.82a1.12,1.12,0,0,0-1.31.13l-1.13,1.11a28,28,0,0,0-7.07,13.49c-1.29,8.36-1.37,20.39,13.12,36.26l.56.62c.08-.33.18-.71.3-1.19.3-1.3.72-3.21,1.26-5.62.86-4.68,2.13-10.72,1.61-17.18-.24-6.34-1.36-12.53-3.23-16.81a25.82,25.82,0,0,0-1.43-2.84,18.79,18.79,0,0,0-1.41-2.05,13.38,13.38,0,0,0-1.06-1.22l-.39-.42.42.4a12.3,12.3,0,0,1,1.13,1.18,19.36,19.36,0,0,1,1.55,2,26.23,26.23,0,0,1,1.62,2.81c2.16,4.26,3.67,10.5,4.28,17,.87,6.56.1,12.84-.57,17.65C658.07,553.65,657.74,555.63,657.52,557Z" transform="translate(0 0)"/><path class="cls-60" d="M710.78,531.83c-19.57-5-31.4,3.82-37.85,12-6.24,7.58-9.7,15.52-9.71,16l-.52,1.44.78-.63,4.84-3.71c3.8-2.69,9.12-6.45,15.24-10.76,5.56-3.83,11.69-7.19,16.67-8.77a31.73,31.73,0,0,1,3.42-.92,20.4,20.4,0,0,1,2.68-.37,14.4,14.4,0,0,1,1.73-.06h.61l-.61,0a13.87,13.87,0,0,0-1.72.15,21.64,21.64,0,0,0-2.65.53,31.4,31.4,0,0,0-3.33,1.1c-4.82,1.84-10.68,5.49-16,9.59-5.09,4.21-10.74,8.22-14.51,11.47l-4.56,3.94-.93.85.81.22c20.49,5.64,33.85-2.57,39.66-11.09a45.46,45.46,0,0,0,6.3-11.82,36.22,36.22,0,0,0,1.6-5.75l.31-1.88a1,1,0,0,0-.7-1.15Z" transform="translate(0 0)"/><path class="cls-60" d="M628.69,588.25c-.74,2.89-1.61,5.55-2.39,7.84l-2,5.53c-.14.35-.27.65-.37.91l1.2-.89c.08-.35,7.74-5.09,11.62-14.15,4.27-9.61,6.48-23.45-9.05-36.43L626.39,550a1,1,0,0,0-1.25-.09l-1.2,1a28.56,28.56,0,0,0-9.54,11.9c-1.7,3.76-2.51,9.09-2.1,15.25s2.72,13.76,8.35,22.83l.44.7.52-1.1c.54-1.23,1.31-3,2.29-5.26a60.46,60.46,0,0,0,4.67-16.67c1-6.25,1-12.51,0-17a25.68,25.68,0,0,0-.87-3.05,18,18,0,0,0-1-2.26,11.91,11.91,0,0,0-.82-1.39l-.3-.49s.11.17.33.47a14.5,14.5,0,0,1,.9,1.36,18.42,18.42,0,0,1,1.14,2.24A24.61,24.61,0,0,1,629,561.4c1.33,4.56,1.62,11,1,17.38C629.74,582,629.26,585.22,628.69,588.25Z" transform="translate(0 0)"/><path class="cls-60" d="M681.15,586.63c-18-8.27-31.56-2-39.4,4.86-7.24,6.56-12.39,13.47-12.4,14l-.79,1.31.89-.48,5.47-2.73,8-3.61c2.77-1.43,5.79-2.89,8.91-4.23,6.21-2.71,12.89-4.86,18.1-5.48a29.38,29.38,0,0,1,3.54-.26,19.56,19.56,0,0,1,2.71.13,12.59,12.59,0,0,1,1.71.27l.6.12-.61-.08a13.13,13.13,0,0,0-1.72-.17,20.51,20.51,0,0,0-2.7,0,31.26,31.26,0,0,0-3.49.45c-5.11.91-11.57,3.39-17.54,6.42l-16.29,8.68-5.23,3-1.08.66.75.37c9.62,4.67,18,5.58,25,4.48s12.06-4.71,16-8.11A45.42,45.42,0,0,0,680,595.83a33.21,33.21,0,0,0,2.65-5.34l.53-1.87a1.07,1.07,0,0,0-.53-1.29Z" transform="translate(0 0)"/><path class="cls-60" d="M594.31,595.19a19.54,19.54,0,0,1,.7,2.41,24.06,24.06,0,0,1,.48,3.18c.45,4.72-.46,11-2.27,17.2s-4.22,12.4-6.77,16.41l-3,5c-.21.31-.39.59-.54.83l1.35-.65a41.77,41.77,0,0,0,5-2.94,32,32,0,0,0,9-8.9c6-8.61,10.8-21.73-2.26-37.5l-1-1.28a1,1,0,0,0-1.23-.32l-1.36.72c-.11.34-6.85,3.08-11.49,10a29.88,29.88,0,0,0-4.8,14.69c-.72,6.11.13,14,4,23.89l.3.78.72-1,3.24-4.72a63.52,63.52,0,0,0,7.58-15.6c2.11-5.94,3.37-12.05,3.2-16.68a22.13,22.13,0,0,0-.29-3.15,18.07,18.07,0,0,0-.55-2.4,13.83,13.83,0,0,0-.54-1.51l-.23-.55.26.54A14.19,14.19,0,0,1,594.31,595.19Z" transform="translate(0 0)"/><path class="cls-60" d="M642,635c-16-11.25-30.57-7.7-39.59-2.41-8.27,5.19-14.55,11.09-14.7,11.52l-1,1.14,1-.3,5.89-1.66c5.07-1.11,11.31-3.24,18-4.69s13.61-2.36,18.86-2a33.14,33.14,0,0,1,3.54.4,21.6,21.6,0,0,1,2.65.64,13.25,13.25,0,0,1,1.63.58l.56.21-.57-.18a14.52,14.52,0,0,0-1.67-.48,19.72,19.72,0,0,0-2.67-.48,30.9,30.9,0,0,0-3.53-.21c-5.19-.06-12,1.17-18.48,3s-12.62,4.23-17.54,5.62l-5.71,2-1.19.45.67.49c8.62,6.37,16.7,8.82,23.84,9.05A33.89,33.89,0,0,0,629,652.57c9-5.47,13.73-13,13.71-13.49l.87-1.73a1.09,1.09,0,0,0-.28-1.37Z" transform="translate(0 0)"/><path class="cls-60" d="M549.87,649.79c-3,5.61-6.4,11.46-9.61,15l-3.93,4.34-.69.71,1.46-.38a41.69,41.69,0,0,0,5.48-1.93c3.14-1.24,6.81-3.95,10.38-7.23,7.63-7.13,14.53-19.44,4.61-37.28l-.79-1.46a1,1,0,0,0-1.15-.54l-1.48.46a29.65,29.65,0,0,0-4.34,1.9,28,28,0,0,0-8.73,5.9,29.15,29.15,0,0,0-7.43,13.5c-1.67,6.18-2.43,13.77-.42,24.29l.15.82.9-.83,4.07-4c3.4-3.14,7-8.73,10.25-14s5.56-11.15,6.26-15.72a23.32,23.32,0,0,0,.3-3.13,18.29,18.29,0,0,0-.18-2.56,13.1,13.1,0,0,0-.29-1.64l-.12-.58s0,.2.15.57a13.8,13.8,0,0,1,.38,1.64,21.3,21.3,0,0,1,.32,2.58,22.63,22.63,0,0,1-.11,3.23C554.88,638.09,552.81,644.09,549.87,649.79Z" transform="translate(0 0)"/><path class="cls-60" d="M594.69,675.44c-13.7-14-28.49-12.92-38.47-9.6a81.92,81.92,0,0,0-16.52,8.71l-1.22.91,1-.11,6.12-.5c5.15-.22,11.58-1.35,18.48-1.42s13.86.24,19,1.57c1.27.31,2.43.72,3.41,1a20,20,0,0,1,2.42,1,12.37,12.37,0,0,1,1.47.83l.51.31-.53-.28a12.82,12.82,0,0,0-1.51-.73,18.77,18.77,0,0,0-2.47-.86,34,34,0,0,0-3.44-.85c-5.11-1-12.07-1.11-18.79-.51-6.8.44-13.09,2-18.23,2.4l-6,.85-1.26.21.57.61c7.27,7.8,14.92,12,21.73,13.2a34.58,34.58,0,0,0,17.83-1.85,45.43,45.43,0,0,0,11.71-6.52,28.63,28.63,0,0,0,4.19-4.31l1.18-1.53a1.06,1.06,0,0,0,0-1.39Z" transform="translate(0 0)"/><path class="cls-60" d="M509.82,658c-1.23,4.65-4.43,10-8.37,15.06a113.67,113.67,0,0,1-12.18,13.07c-1.88,1.51-3.52,2.67-4.68,3.5l-.81.56,1.51-.09a29.55,29.55,0,0,0,5.73-.91A48.69,48.69,0,0,0,502.53,684,30.14,30.14,0,0,0,514,671.4c2.49-6,3-13.76-.12-23.25l-.52-1.58a1,1,0,0,0-1-.74l-1.54.16a39.18,39.18,0,0,0-14.23,5.35c-6.86,4.51-14.48,14.94-14.68,35.71v.83l1-.63,4.76-3.12a102.38,102.38,0,0,0,12.63-12c4.15-4.7,7.58-9.8,9.07-14.21a25.74,25.74,0,0,0,.8-3.2,20,20,0,0,0,.3-2.54,16,16,0,0,0,0-1.66c0-.38,0-.59,0-.59s0,.2.05.59.1.95.07,1.67a19.83,19.83,0,0,1-.17,2.59A29.19,29.19,0,0,1,509.82,658Z" transform="translate(0 0)"/><path class="cls-60" d="M522.63,691.8A36.45,36.45,0,0,0,504.72,690a50,50,0,0,0-12.37,3.47c-3.19,1.18-5.29,2-5.45,2.15l-1.37.66,1,.09,6.12.68A162.3,162.3,0,0,1,511.06,699a77.07,77.07,0,0,1,18.37,5.1,28,28,0,0,1,3.09,1.49,18.2,18.2,0,0,1,2.2,1.46,11.27,11.27,0,0,1,1.3,1.08l.44.4-.47-.38a12,12,0,0,0-1.35-1,19.14,19.14,0,0,0-2.28-1.31,27.41,27.41,0,0,0-3.14-1.3,73.52,73.52,0,0,0-18.41-4c-6.76-.77-13.37-.79-18.33-.87l-6.07-.34-1.27,0,.45.71c11.57,18.68,26.46,20,36.78,18.41,5.18-.92,9.71-2.41,12.69-4.31a38.17,38.17,0,0,0,4.91-3.49l1.45-1.28a1.07,1.07,0,0,0,.24-1.37l-.91-1.38C535.27,698.11,528.87,693.88,522.63,691.8Z" transform="translate(0 0)"/><path class="cls-60" d="M434,695.22a111.93,111.93,0,0,0,14.67-9.35c4.95-3.77,9.3-8,11.5-12.45a27.35,27.35,0,0,0,1.39-3,18.59,18.59,0,0,0,.76-2.43,13.23,13.23,0,0,0,.33-1.62c.06-.38.1-.58.1-.58s0,.2-.07.59a14.44,14.44,0,0,1-.24,1.65,21.24,21.24,0,0,1-.65,2.5,28.13,28.13,0,0,1-1.24,3.1c-2,4.65-6.14,9.33-11,13.42a111.6,111.6,0,0,1-14.42,10.38,46.68,46.68,0,0,1-5.21,2.94l-.89.38,1.5.22a29.7,29.7,0,0,0,5.76-.2,48,48,0,0,0,12.31-2.88c9.82-3.29,20.49-13.29,17.8-33.13l-.21-1.64a1,1,0,0,0-.88-.94l-1.54-.14c-.39-.3-7.23-.07-14.95,2.77-7.61,3-17.06,11.69-21,32.47l-.15.8,1.13-.41A31.46,31.46,0,0,0,434,695.22Z" transform="translate(0 0)"/><path class="cls-60" d="M449.64,704.27a53.18,53.18,0,0,0-18.53,2.42l-1.47.37,1,.29c1.43.49,3.43.79,5.85,1.44a167.6,167.6,0,0,1,17.76,5.47,99.81,99.81,0,0,1,17.06,8.24,30.73,30.73,0,0,1,2.77,2.06,21.34,21.34,0,0,1,1.9,1.85,12,12,0,0,1,1.07,1.31l.37.48-.4-.46a13.33,13.33,0,0,0-1.15-1.24,20.12,20.12,0,0,0-2-1.72A30.91,30.91,0,0,0,471,722.9a97.92,97.92,0,0,0-17.3-7.21,158.45,158.45,0,0,0-17.87-4.39c-2.43-.43-4.44-.75-5.87-1.16l-1.25-.29.31.78c7.87,20.12,22.29,24.33,32.74,24.83a30.44,30.44,0,0,0,13.22-2.1,36.94,36.94,0,0,0,5.49-2.47l1.66-1a1,1,0,0,0,.49-1.28L482,727.1C474.22,708.68,460.26,705.39,449.64,704.27Z" transform="translate(0 0)"/><path class="cls-60" d="M412.09,674.8a17.9,17.9,0,0,1-1.1,2.32,26.65,26.65,0,0,1-1.79,2.79A41.85,41.85,0,0,1,396,691.4a111.91,111.91,0,0,1-16.07,7.28l-5.66,1.93-1,.29,1.45.37a43.79,43.79,0,0,0,5.7.92,48.19,48.19,0,0,0,12.62-.36,25.55,25.55,0,0,0,15.27-7.93c4.51-4.7,7.76-11.54,8.33-21.49l.09-1.65a1.05,1.05,0,0,0-.69-1.09l-1.5-.46a29.06,29.06,0,0,0-15.24.26c-8.05,1.52-18.9,7.7-26.63,27.86l-.3.78,1.2-.29,5.6-1.57A112,112,0,0,0,395.28,690a39.72,39.72,0,0,0,13.59-10.44,23.54,23.54,0,0,0,1.91-2.63,20.72,20.72,0,0,0,1.21-2.22c.32-.63.47-1.17.62-1.52l.2-.55-.18.56A11.34,11.34,0,0,1,412.09,674.8Z" transform="translate(0 0)"/><path class="cls-60" d="M408.91,716c-5.09-4.11-10.88-6.18-16-7.77a51.14,51.14,0,0,0-18.64-1.3l-1.53.22.92.39,5.49,2.49A169,169,0,0,1,395.57,719c5.89,3.9,11.62,7.1,15.25,10.91a28.9,28.9,0,0,1,2.34,2.57,20,20,0,0,1,1.53,2.19,12.37,12.37,0,0,1,.82,1.5l.26.54s-.1-.19-.3-.53a13.24,13.24,0,0,0-.9-1.44,20.84,20.84,0,0,0-1.65-2.08,27,27,0,0,0-2.46-2.41c-3.79-3.5-9.65-6.44-15.67-10A162.39,162.39,0,0,0,378,712.4l-5.57-2.14-1.18-.41.16.81c4.13,20.75,17.48,28.15,27.65,30.6a41.48,41.48,0,0,0,13.35,0,36.06,36.06,0,0,0,5.85-1.34l1.81-.62a1,1,0,0,0,.72-1.16l-.34-1.62C418.42,726.7,414,720.25,408.91,716Z" transform="translate(0 0)"/><path class="cls-60" d="M364.73,667.4a28,28,0,0,0-15-2.77c-8.33.8-19.91,4-31.24,22.54l-.44.71,1.23,0,5.76-.43A101.13,101.13,0,0,0,342,684.46c6.05-2.08,11.71-5,15.32-8a28.68,28.68,0,0,0,2.35-2.2,18.58,18.58,0,0,0,1.58-1.94,13.55,13.55,0,0,0,.88-1.37l.3-.5-.27.52a13.39,13.39,0,0,1-.82,1.42,18.7,18.7,0,0,1-1.49,2.06,27.12,27.12,0,0,1-2.27,2.37c-3.5,3.31-9.11,6.58-15.16,9a93.29,93.29,0,0,1-17.08,4.07l-5.89.76-1,.1,1.35.65a40.74,40.74,0,0,0,5.4,2,48,48,0,0,0,12.43,2.18c10.47-.36,24-5.44,28.58-24.71l.39-1.6a1.09,1.09,0,0,0-.48-1.21Z" transform="translate(0 0)"/><path class="cls-60" d="M336.3,702a51.13,51.13,0,0,0-18-5l-1.53-.08.83.56L322.5,701c4,3,9.34,7.39,14.49,11.93,5.23,4.19,10.16,9.07,13.06,13.35a29.24,29.24,0,0,1,1.83,3,20.92,20.92,0,0,1,1.11,2.45,12.39,12.39,0,0,1,.52,1.64l.17.58-.2-.57a13.28,13.28,0,0,0-.62-1.6,21.36,21.36,0,0,0-1.24-2.37,29.89,29.89,0,0,0-2-2.86c-3.11-4.07-8.24-8.6-13.66-12.43a182.58,182.58,0,0,0-15-11l-5.06-3.21-1.08-.64V700c.26,21.05,11.87,31.65,21.58,35.14a45.25,45.25,0,0,0,13.13,2.59,35.08,35.08,0,0,0,6-.15l1.89-.25a1,1,0,0,0,.92-1l0-1.66C357.75,714.51,346,706,336.3,702Z" transform="translate(0 0)"/><path class="cls-60" d="M317.64,658.85a1.12,1.12,0,0,0-.25-1.29l-1.21-1a28.13,28.13,0,0,0-14.12-5.7c-8.47-.43-20.35.37-34.88,16.41l-.56.62,1.21.19,5.72.7c4.79.31,10.84,1.22,17.23.08,6.3-.86,12.37-2.57,16.46-4.86a24.48,24.48,0,0,0,2.7-1.69,17.38,17.38,0,0,0,1.91-1.6,12.14,12.14,0,0,0,1.12-1.17l.38-.43s-.13.15-.36.45a11.73,11.73,0,0,1-1.06,1.24,19.1,19.1,0,0,1-1.85,1.73,23.72,23.72,0,0,1-2.65,1.89c-4,2.56-10.12,4.67-16.5,5.91-6.47,1.53-12.69,1.09-17.6,1l-5.91-.39-1-.1,1.19.9a42.67,42.67,0,0,0,4.91,3.07c3,1.52,7,3.66,11.83,4.37,10.43,1.43,24.5-.7,32.59-18.82Z" transform="translate(0 0)"/><path class="cls-60" d="M281.9,685.11a57.38,57.38,0,0,0-16.78-8.24l-1.48-.39.71.72,4.15,4.45c3.43,3.64,7.68,9.29,12.1,14.24,4.33,5.16,8.26,10.93,10.31,15.72a30.93,30.93,0,0,1,1.23,3.31,19.88,19.88,0,0,1,.63,2.63,12.46,12.46,0,0,1,.21,1.71l.06.61-.09-.61a14.54,14.54,0,0,0-.32-1.69,20,20,0,0,0-.77-2.58,30.74,30.74,0,0,0-1.41-3.21c-2.29-4.61-6.48-10.08-11.06-14.92-4.67-4.65-9.11-10.1-12.74-13.45l-4.35-4.14-.94-.85-.15.82c-3.66,20.79,5.67,33.57,14.72,38.48a45.13,45.13,0,0,0,12.38,5.12,34.77,34.77,0,0,0,5.89,1l1.9.13a1,1,0,0,0,1.08-.8l.27-1.65C300.59,701.62,290.7,690.71,281.9,685.11Z" transform="translate(0 0)"/><path class="cls-60" d="M270.55,640.7l1-1.36a1,1,0,0,0,0-1.26l-1-1.19a28.12,28.12,0,0,0-12.75-8.36c-8.17-2.11-20.26-3.13-37.33,9.72l-.66.51,1.15.41,5.46,1.79a62.54,62.54,0,0,0,17,3.15c6.32.36,12.57-.15,17-1.61a26.25,26.25,0,0,0,3-1.15,18.59,18.59,0,0,0,2.17-1.21,14.75,14.75,0,0,0,1.31-.94l.45-.35-.44.38a13.69,13.69,0,0,1-1.27,1,18.51,18.51,0,0,1-2.12,1.34,25,25,0,0,1-2.95,1.35c-4.43,1.75-10.77,2.65-17.24,2.64a63,63,0,0,1-17.56-2.15l-5.7-1.51-1-.29,1,1.12a43.06,43.06,0,0,0,4.24,4c2.61,2.11,6.17,4.92,10.9,6.34C245.08,656.43,259.18,657.16,270.55,640.7Z" transform="translate(0 0)"/><path class="cls-60" d="M216.57,647.34l-1.37-.66.55.84,3.24,5.17,9.33,16.13c3.28,5.91,6.05,12.35,7.16,17.46a34.58,34.58,0,0,1,.59,3.5,20.91,20.91,0,0,1,.12,2.71,13.28,13.28,0,0,1-.11,1.72l-.06.61s0-.21,0-.61a13.55,13.55,0,0,0,0-1.73,20.13,20.13,0,0,0-.27-2.69,31.25,31.25,0,0,0-.78-3.42c-1.38-5-4.46-11.18-8-16.83-4.08-6.25-7.61-11.63-10.11-15.46l-3.49-4.91-.76-1-.29.78c-7.58,20-.53,33.87,7.38,40.5a45.13,45.13,0,0,0,11.16,7.41,35.88,35.88,0,0,0,5.56,2.14l1.86.45a1.1,1.1,0,0,0,1.24-.65l.56-1.55c6.69-18.86-.89-31.62-8.47-38.8C224.51,651.69,217,647.34,216.57,647.34Z" transform="translate(0 0)"/><path class="cls-60" d="M229.8,611.53a1,1,0,0,0,.2-1.25l-.85-1.28c-.32-.11-3.61-6.64-11-10.56a31.21,31.21,0,0,0-15-3.46c-6.17-.15-13.93,1.43-23.46,6.19l-.75.37,1.05.63,5,2.78c2.1,1.08,4.52,2.34,7.23,3.46s5.9,1.93,9,2.68c6.13,1.55,12.34,2.22,17,1.62a23.72,23.72,0,0,0,3.11-.58,15.57,15.57,0,0,0,2.34-.78,11.09,11.09,0,0,0,1.46-.68l.51-.26-.5.29a12.72,12.72,0,0,1-1.43.77,19.41,19.41,0,0,1-2.33.93,25.34,25.34,0,0,1-3.14.77c-4.66.89-11,.58-17.36-.65a64.75,64.75,0,0,1-16.94-5.27l-5.3-2.55-.87-.46.77,1.29c.36.1,4.29,8.24,13.05,12.84,9.18,5.13,22.64,8.75,37.12-5.68Z" transform="translate(0 0)"/><path class="cls-60" d="M174.25,609.42l-1.23-.91.39.93,2.2,5.71c1.61,4.92,4.16,11.07,6.3,17.49s3.62,13.31,3.76,18.56a33.58,33.58,0,0,1-.07,3.55,21.43,21.43,0,0,1-.39,2.7,12.73,12.73,0,0,1-.43,1.68l-.17.58s0-.2.14-.59a14.49,14.49,0,0,0,.33-1.71,22.94,22.94,0,0,0,.23-2.7,34.09,34.09,0,0,0-.13-3.52c-.42-5.17-2.29-11.84-4.74-18.09-1.22-3.14-2.56-6.19-3.88-9-1.26-3.05-2.37-5.75-3.3-8s-1.91-4.22-2.5-5.5l-.55-1.14-.43.72c-5.55,9.16-7.23,17.41-6.8,24.53a32.58,32.58,0,0,0,6.65,16.63c6.33,8.41,14.2,12.48,14.66,12.44l1.81.71a1.09,1.09,0,0,0,1.34-.4l.83-1.43c9.76-17,4.93-31.23-1.22-39.66C181.09,615.31,174.76,609.46,174.25,609.42Z" transform="translate(0 0)"/><path class="cls-60" d="M192.48,577.5l1.38-.93a1,1,0,0,0,.43-1.19L193.7,574c-.31-.16-2.57-7-8.95-12.34a29.35,29.35,0,0,0-14.18-6.13c-6.12-1.21-13.92-1.16-24.17,1.79l-.8.23.91.81L150.9,562c3.48,3.08,9.18,6.3,14.87,9s11.66,4.49,16.28,4.75a23.71,23.71,0,0,0,3.15,0,14.53,14.53,0,0,0,2.46-.35,15.66,15.66,0,0,0,1.61-.44l.56-.18-.55.21a18.92,18.92,0,0,1-4.08,1,26.15,26.15,0,0,1-3.21.18c-4.73,0-10.91-1.49-16.88-3.87s-12-5.3-15.76-8.23l-4.71-3.5-.77-.61.52,1.41a41.12,41.12,0,0,0,2.45,5.26c1.45,3.07,4.45,6.49,8.09,9.71C162.85,583.18,175.6,589,192.48,577.5Z" transform="translate(0 0)"/><path class="cls-60" d="M139.55,564.41l-1-1.13c.06.29.12.62.2,1,.26,1.42.62,3.47,1.09,6,.6,5.17,2.33,11.46,3.07,18.3s1.06,13.79.22,19a31.18,31.18,0,0,1-.73,3.49c-.29,1-.59,1.9-.85,2.56a14.39,14.39,0,0,1-.68,1.54l-.26.53s.07-.19.22-.55a10.71,10.71,0,0,0,.59-1.57c.21-.67.48-1.58.7-2.6a29.93,29.93,0,0,0,.53-3.5c.55-5.17,0-12.1-1.27-18.71s-3.13-12.91-4-18L135.92,565c-.13-.5-.24-.89-.33-1.23l-.56.62c-7.12,8-10.4,15.87-11.18,22.89a34.47,34.47,0,0,0,3.52,17.55c4.52,9.56,11.74,14.83,12.21,14.86l1.64,1a1.07,1.07,0,0,0,1.38-.15l1.09-1.24c12.69-14.92,10.36-29.65,6-39.2A80.21,80.21,0,0,0,139.55,564.41Z" transform="translate(0 0)"/><path class="cls-60" d="M120.39,517.32a44.09,44.09,0,0,0,6.31,11,30.35,30.35,0,0,0,13.65,10.26c6,2,13.94,1.7,23.06-2.23l1.52-.65a1,1,0,0,0,.64-1.1l-.3-1.52a23.14,23.14,0,0,0-1.54-4.47,29.9,29.9,0,0,0-5.06-9.23c-5.32-6.34-16.14-13.07-36.92-11.31l-.82.07.73,1,3.59,4.44c3,3.59,8.08,7.79,13.08,11.48s10.55,6.59,15,7.71a17.45,17.45,0,0,0,3.19.54,21.13,21.13,0,0,0,2.57.06,15.48,15.48,0,0,0,1.65-.14l.59-.07-.58.1a14.49,14.49,0,0,1-1.66.22,19.08,19.08,0,0,1-2.61.08,19.83,19.83,0,0,1-3.29-.35c-4.62-.87-10.39-3.49-15.77-6.95a92.75,92.75,0,0,1-14.09-10.93l-3.93-4.34-.63-.74.22,1.49A43.66,43.66,0,0,0,120.39,517.32Z" transform="translate(0 0)"/><path class="cls-60" d="M116.29,519a41.53,41.53,0,0,0-2.6-5.25l-.79-1.3c0,.3,0,.63,0,1,0,1.44,0,3.53-.09,6.15,0,5.05.29,11.65-.24,18.51S111,552,109.21,556.93c-.47,1.27-.82,2.3-1.25,3.25a19.17,19.17,0,0,1-1.24,2.32,12.62,12.62,0,0,1-1,1.39l-.36.47.33-.5a12.27,12.27,0,0,0,.86-1.44,18.29,18.29,0,0,0,1.09-2.38c.33-1,.7-2.14,1.07-3.29,1.52-5,2.26-11.94,2.29-18.69.18-6.82-.65-13.3-.76-18.36-.11-2.59-.2-4.64-.26-6.06,0-.51-.06-.92-.09-1.27l-.66.51c-17.46,13.24-17.67,28.3-14.94,38.34a42.37,42.37,0,0,0,5.4,12.27,36.44,36.44,0,0,0,4,4.55l1.42,1.32a1,1,0,0,0,1.37.11l1.3-1c7.9-6.26,11.34-12.91,13-19.45a36.32,36.32,0,0,0,0-18A55.79,55.79,0,0,0,116.29,519Z" transform="translate(0 0)"/><path class="cls-60" d="M119.26,488.52c5.86,3,13.41,4.23,23.17,2l1.61-.36a1,1,0,0,0,.85-1v-1.55A39.27,39.27,0,0,0,140.81,473c-3.65-7.29-13.61-15.8-34.23-17.93l-.82-.08.52,1.09a43.67,43.67,0,0,0,2.76,5,114.11,114.11,0,0,0,10.78,13.7c4.33,4.55,8.83,8.52,13.38,10.33a25.88,25.88,0,0,0,3.1,1.09,19,19,0,0,0,2.49.54,13.46,13.46,0,0,0,1.65.17l.59,0h-.59a12.65,12.65,0,0,1-1.67-.09,18.87,18.87,0,0,1-2.56-.4,28.44,28.44,0,0,1-3.21-.95c-4.82-1.57-9.6-5.33-14.29-9.71a112.77,112.77,0,0,1-11.79-13.36,34.6,34.6,0,0,1-3.2-5l-.48-.86-.06,1.51c-.3.39.21,9,4.63,17.73C110.2,480.5,113.65,485.44,119.26,488.52Z" transform="translate(0 0)"/><path class="cls-60" d="M101.59,477.51c-.41-9.85-4.17-17.82-4-18.25l-.51-1.42c-.06.29-.12.62-.19,1-.27,1.45-.82,3.55-1.1,6A164.33,164.33,0,0,1,92.08,483a88.86,88.86,0,0,1-6.71,17.79,28.08,28.08,0,0,1-1.79,2.94,19.68,19.68,0,0,1-1.65,2.06,12.88,12.88,0,0,1-1.2,1.19l-.44.41.41-.44a11.61,11.61,0,0,0,1.13-1.26,18.7,18.7,0,0,0,1.51-2.14,29.64,29.64,0,0,0,1.6-3A84.7,84.7,0,0,0,90.6,482.6a154.72,154.72,0,0,0,2.6-18.17c.19-2.45.67-4.56.81-6,.07-.52.12-.92.17-1.27l-.75.38C73.69,467.34,71.27,482,71.69,492.47c.35,5.26,1.52,9.88,3.21,13a36.65,36.65,0,0,0,3,5.22L79,512.25a1,1,0,0,0,1.33.37l1.47-.77c8.85-4.67,13.75-10.68,16.31-16.68A38.31,38.31,0,0,0,101.59,477.51Z" transform="translate(0 0)"/><path class="cls-60" d="M130.26,441.71l1.65-.06a1.05,1.05,0,0,0,1-.79l.3-1.53c.23-.35,1-7.23-1.5-15.14-2.34-7.87-9.6-18.11-30.43-24l-.81-.23.41,1.17c.5,1.26,1.22,3.1,2.13,5.43a112.93,112.93,0,0,0,7.81,15.47,56.81,56.81,0,0,0,5.26,7.32,39.09,39.09,0,0,0,6.21,5.28,27.61,27.61,0,0,0,2.81,1.66,20.91,20.91,0,0,0,2.34,1,14.52,14.52,0,0,0,1.58.47l.56.15-.57-.12a14.25,14.25,0,0,1-1.62-.39,20.09,20.09,0,0,1-2.42-.88A26.3,26.3,0,0,1,122,435a39.15,39.15,0,0,1-12.49-12.16,112.34,112.34,0,0,1-8.87-15.33l-2.48-5.45-.39-.93-.22,1.47a40.58,40.58,0,0,0-.34,5.76,48.1,48.1,0,0,0,1.62,12.53C101.1,431,110.49,442.52,130.26,441.71Z" transform="translate(0 0)"/><path class="cls-60" d="M92.46,421.35a51,51,0,0,0-.59-18.68l-.37-1.49-.29.95c-.45,1.33-1.1,3.26-1.93,5.69A165.35,165.35,0,0,1,82.06,425c-3.23,6.22-6.49,12.28-9.65,16.21a30.76,30.76,0,0,1-2.33,2.57,20.12,20.12,0,0,1-2,1.72,13.92,13.92,0,0,1-1.41.95l-.51.31.49-.35a12.51,12.51,0,0,0,1.35-1,18.36,18.36,0,0,0,1.9-1.83A28.29,28.29,0,0,0,72,440.88a46.26,46.26,0,0,0,4.26-7.42,99.69,99.69,0,0,0,4.39-9.11A158.81,158.81,0,0,0,86.85,407c.67-2.45,1.2-4.4,1.56-5.73L88.7,400l-.78.24c-20.24,6-26.28,20-27.7,30.31-.93,5.25.26,9.91,1,13.33a38.31,38.31,0,0,0,1.91,5.69l.81,1.75a1,1,0,0,0,1.22.61l1.59-.49C86.07,445.39,90.22,431.83,92.46,421.35Z" transform="translate(0 0)"/><path class="cls-60" d="M125.26,386.65a18.82,18.82,0,0,1-2.2-1.3,27.18,27.18,0,0,1-2.58-2A48.4,48.4,0,0,1,110.07,369a109.67,109.67,0,0,1-5.63-16.64c-.57-2.47-1-4.44-1.35-5.8-.07-.37-.14-.69-.19-1l-.52,1.4a42.89,42.89,0,0,0-1.49,5.58,48.74,48.74,0,0,0-.92,12.59c.91,10.36,7.69,23.39,27.22,26.19l1.62.25A1.08,1.08,0,0,0,130,391l.6-1.45a28,28,0,0,0,1.23-15.2c-1.15-8.18-5.88-19.48-25.28-29l-.76-.37c0,.33.1.72.17,1.22.24,1.33.58,3.27,1,5.71a111.18,111.18,0,0,0,4.56,16.59A45.82,45.82,0,0,0,120.81,383a26.07,26.07,0,0,0,2.43,2.14,16.9,16.9,0,0,0,2.09,1.4,14.33,14.33,0,0,0,1.45.76l.52.25-.54-.23A13.28,13.28,0,0,1,125.26,386.65Z" transform="translate(0 0)"/><path class="cls-60" d="M61.33,389.57l1.65-.19c20.15-2.42,27.05-15,30.6-24.92A50.8,50.8,0,0,0,96.75,346l-.06-1.54-.48.88-3,5.23a171.07,171.07,0,0,1-10.54,15.55c-3.88,5.56-8.06,10.94-12.09,14.21a28.66,28.66,0,0,1-2.79,2.1,20.84,20.84,0,0,1-2.33,1.32,13.23,13.23,0,0,1-1.58.68l-.56.21.55-.25a12.74,12.74,0,0,0,1.53-.77,18.29,18.29,0,0,0,2.23-1.45A28.31,28.31,0,0,0,70.25,380c3.82-3.45,7.52-9,11.18-14.71A164.79,164.79,0,0,0,91,349.31L93.64,344l.54-1.14-.83.09c-21,2.2-30,14.79-33,24.73A45,45,0,0,0,59.06,381a35.79,35.79,0,0,0,.75,5.94l.43,1.86A1,1,0,0,0,61.33,389.57Z" transform="translate(0 0)"/><path class="cls-60" d="M134.75,341.87a1.09,1.09,0,0,0,1.26-.37l.89-1.3a28,28,0,0,0,4.26-14.61c-.34-8.46-2.14-20.19-19.56-33.2l-.67-.5c0,.33,0,.72-.07,1.22,0,1.34-.08,3.3-.14,5.77.09,4.79,0,11,1.44,17.14s3.78,12.09,6.45,16a24,24,0,0,0,2,2.54,16.88,16.88,0,0,0,1.78,1.75,15.05,15.05,0,0,0,1.27,1l.47.34-.49-.32a14.13,14.13,0,0,1-1.34-.94,19.63,19.63,0,0,1-1.9-1.68,25.39,25.39,0,0,1-2.14-2.47c-3-3.79-5.64-9.66-7.5-15.9s-2.16-12.5-2.56-17.41c-.08-2.53-.14-4.54-.18-5.93v-1l-.78,1.28a42.42,42.42,0,0,0-2.57,5.18,45.17,45.17,0,0,0-3.35,12.15c-.39,10.54,3.11,24.37,21.92,30.74Z" transform="translate(0 0)"/><path class="cls-60" d="M72.15,305.79a45.06,45.06,0,0,0-3.88,12.82,37.8,37.8,0,0,0-.45,6l.06,1.91a1,1,0,0,0,.91,1l1.66.11c20.12,1.26,30-9.61,34.69-18.91a52.56,52.56,0,0,0,6.71-17.45l.24-1.52-.64.77-4,4.56c-3.27,3.77-8.47,8.53-13.13,13.35s-10,9.26-14.61,11.75a33.43,33.43,0,0,1-3.17,1.54,20.38,20.38,0,0,1-2.55.87,14.66,14.66,0,0,1-1.68.37l-.6.11.59-.15a12.27,12.27,0,0,0,1.66-.47,20.31,20.31,0,0,0,2.48-1,30.56,30.56,0,0,0,3-1.7c4.37-2.71,9.38-7.4,13.75-12.42s9.24-10,12.28-13.92c1.58-2,2.83-3.63,3.7-4.73l.74-1-.82-.07C88.18,285.87,76.22,296.33,72.15,305.79Z" transform="translate(0 0)"/><path class="cls-60" d="M149.77,294.1a1.12,1.12,0,0,0,1.31-.13l1.13-1.1a28.16,28.16,0,0,0,7.07-13.5c1.29-8.36,1.37-20.39-13.12-36.26l-.56-.62c-.08.33-.18.71-.31,1.19-.29,1.31-.71,3.21-1.25,5.61-.86,4.69-2.13,10.73-1.61,17.19.24,6.34,1.36,12.53,3.23,16.81a25.82,25.82,0,0,0,1.43,2.84,18.79,18.79,0,0,0,1.41,2.05,13.38,13.38,0,0,0,1.06,1.22l.39.42-.42-.4a12.3,12.3,0,0,1-1.13-1.18,18.06,18.06,0,0,1-1.55-2,25.28,25.28,0,0,1-1.62-2.81c-2.16-4.25-3.67-10.5-4.28-16.95-.87-6.56-.1-12.84.57-17.65.41-2.49.74-4.47,1-5.83.08-.37.14-.69.2-1l-1,1.1a42.48,42.48,0,0,0-3.53,4.59c-1.75,2.86-4.44,6.55-5.38,11.41-2.44,10.23-1.68,24.41,15.6,34.14Z" transform="translate(0 0)"/><path class="cls-60" d="M95.12,247.15A45.46,45.46,0,0,0,88.82,259a36.22,36.22,0,0,0-1.6,5.75l-.31,1.88a1,1,0,0,0,.7,1.15l1.61.42c19.57,5,31.4-3.82,37.85-12,6.24-7.58,9.7-15.52,9.71-16l.52-1.44-.78.63-4.84,3.71c-3.8,2.69-9.12,6.45-15.24,10.76-5.56,3.83-11.7,7.19-16.67,8.77a31.73,31.73,0,0,1-3.42.92,20.4,20.4,0,0,1-2.68.37,14.4,14.4,0,0,1-1.73.06h-.61l.61,0a13.87,13.87,0,0,0,1.72-.15,21.28,21.28,0,0,0,2.65-.53,32.17,32.17,0,0,0,3.33-1.1c4.82-1.84,10.68-5.49,16-9.59,5.09-4.21,10.74-8.23,14.51-11.47l4.56-3.94.93-.85-.81-.22C114.29,230.42,100.93,238.63,95.12,247.15Z" transform="translate(0 0)"/><path class="cls-60" d="M172.34,248.94l1.27,1.07a1,1,0,0,0,1.25.09l1.2-1a28.56,28.56,0,0,0,9.54-11.9c1.7-3.77,2.51-9.09,2.1-15.25s-2.72-13.76-8.35-22.83l-.44-.7-.52,1.1c-.54,1.23-1.31,3-2.29,5.26a60.46,60.46,0,0,0-4.67,16.67c-1,6.25-1,12.51,0,17a25.68,25.68,0,0,0,.87,3.05,18,18,0,0,0,1,2.26,11.91,11.91,0,0,0,.82,1.39l.3.49s-.11-.17-.33-.47a14.5,14.5,0,0,1-.9-1.36,18.42,18.42,0,0,1-1.14-2.24A24.61,24.61,0,0,1,171,238.6c-1.33-4.56-1.62-10.95-1-17.38.29-3.22.77-6.44,1.34-9.47.74-2.89,1.61-5.55,2.39-7.84l2-5.53c.14-.35.27-.65.37-.91l-1.2.89c-.08.35-7.74,5.09-11.62,14.15C159,222.12,156.81,236,172.34,248.94Z" transform="translate(0 0)"/><path class="cls-60" d="M123.88,209.75a20.51,20.51,0,0,0,2.7,0,31.72,31.72,0,0,0,3.5-.45c5.1-.91,11.55-3.39,17.53-6.42l16.29-8.68,5.23-3,1.08-.66-.75-.37c-9.62-4.67-18-5.58-25-4.48s-12.06,4.71-16,8.11A45.42,45.42,0,0,0,120,204.17a33.21,33.21,0,0,0-2.65,5.34l-.53,1.87a1.08,1.08,0,0,0,.53,1.29l1.49.7c18,8.27,31.56,2,39.4-4.86,7.23-6.56,12.39-13.47,12.4-14l.79-1.31-.89.48-5.47,2.73-8,3.61c-2.77,1.43-5.79,2.89-8.91,4.23-6.21,2.71-12.89,4.86-18.09,5.48a29.68,29.68,0,0,1-3.55.26,19.56,19.56,0,0,1-2.71-.13,12.59,12.59,0,0,1-1.71-.27l-.6-.12.61.08A12.94,12.94,0,0,0,123.88,209.75Z" transform="translate(0 0)"/><path class="cls-60" d="M205.12,211a1,1,0,0,0,1.23.32l1.36-.72c.11-.34,6.85-3.08,11.49-10A29.79,29.79,0,0,0,224,185.91c.73-6.11-.12-14-4-23.89l-.3-.78-.72,1L215.75,167a63.52,63.52,0,0,0-7.58,15.6c-2.12,5.94-3.37,12-3.2,16.68a23.79,23.79,0,0,0,.28,3.15,19.63,19.63,0,0,0,.56,2.4,13.83,13.83,0,0,0,.54,1.51l.23.55-.26-.54a14.19,14.19,0,0,1-.63-1.49,19.54,19.54,0,0,1-.7-2.41,24,24,0,0,1-.48-3.19c-.45-4.71.46-11,2.27-17.19s4.22-12.4,6.77-16.41l3-5,.53-.83-1.35.65a41.77,41.77,0,0,0-5,2.94,32.11,32.11,0,0,0-9,8.9c-6,8.61-10.79,21.73,2.27,37.5Z" transform="translate(0 0)"/><path class="cls-60" d="M212.29,155.87l1-1.14-1,.3-5.89,1.66c-5.07,1.11-11.31,3.24-18,4.7s-13.61,2.35-18.86,2a33.14,33.14,0,0,1-3.54-.4,21.6,21.6,0,0,1-2.65-.64,13.25,13.25,0,0,1-1.63-.58l-.56-.21.57.18a14.52,14.52,0,0,0,1.67.48,19.72,19.72,0,0,0,2.67.48,28.73,28.73,0,0,0,3.52.2c5.2.07,12-1.16,18.49-3s12.62-4.23,17.54-5.62l5.71-2,1.19-.45-.67-.49c-8.62-6.37-16.7-8.82-23.84-9A33.89,33.89,0,0,0,171,147.43c-9,5.47-13.73,13-13.71,13.49l-.87,1.73a1.08,1.08,0,0,0,.28,1.37l1.34,1c16,11.25,30.57,7.7,39.59,2.41C205.86,162.21,212.14,156.3,212.29,155.87Z" transform="translate(0 0)"/><path class="cls-60" d="M250.12,150.21c3-5.62,6.41-11.45,9.62-15l3.93-4.34.69-.71-1.46.38a41.69,41.69,0,0,0-5.48,1.93c-3.14,1.24-6.81,3.94-10.38,7.23-7.63,7.13-14.53,19.44-4.61,37.28l.79,1.46a1,1,0,0,0,1.15.54l1.48-.46a29.65,29.65,0,0,0,4.34-1.9,28,28,0,0,0,8.73-5.9,29.15,29.15,0,0,0,7.43-13.5c1.67-6.18,2.43-13.77.42-24.29l-.15-.82-.9.83-4.07,4c-3.4,3.14-7,8.73-10.25,14s-5.56,11.15-6.26,15.72a23.32,23.32,0,0,0-.3,3.13,18.29,18.29,0,0,0,.18,2.56,13.1,13.1,0,0,0,.29,1.64l.12.58-.15-.57a13.8,13.8,0,0,1-.38-1.64,21.3,21.3,0,0,1-.32-2.58,22.63,22.63,0,0,1,.11-3.23C245.12,161.91,247.19,155.91,250.12,150.21Z" transform="translate(0 0)"/><path class="cls-60" d="M221.23,109.62a45.26,45.26,0,0,0-11.71,6.52,28.63,28.63,0,0,0-4.19,4.31L204.15,122a1.06,1.06,0,0,0,0,1.39l1.14,1.19c13.7,14,28.49,12.92,38.47,9.6a81.92,81.92,0,0,0,16.52-8.71l1.22-.91-1,.11-6.12.5c-5.15.22-11.58,1.35-18.48,1.42-6.81.22-13.86-.24-19-1.57-1.27-.31-2.43-.72-3.41-1a18.39,18.39,0,0,1-2.42-1,11.26,11.26,0,0,1-1.47-.82l-.51-.3.53.27a12.82,12.82,0,0,0,1.51.73,18.77,18.77,0,0,0,2.47.86,34,34,0,0,0,3.44.85c5.11,1,12.07,1.11,18.79.51,6.8-.44,13.09-2,18.23-2.4l6-.85,1.26-.21-.57-.61c-7.27-7.8-14.92-12-21.73-13.2A34.58,34.58,0,0,0,221.23,109.62Z" transform="translate(0 0)"/><path class="cls-60" d="M286.59,153.43a1,1,0,0,0,1,.74l1.54-.16a39.18,39.18,0,0,0,14.23-5.35c6.86-4.51,14.48-14.94,14.68-35.71v-.83l-1,.63-4.75,3.12a102.38,102.38,0,0,0-12.63,12c-4.14,4.7-7.58,9.8-9.07,14.21a25.74,25.74,0,0,0-.8,3.2,20,20,0,0,0-.3,2.54,16,16,0,0,0,0,1.66c0,.38,0,.59,0,.59s0-.21-.05-.59-.1-1-.07-1.67a19.83,19.83,0,0,1,.17-2.59,27.12,27.12,0,0,1,.64-3.3c1.23-4.65,4.43-10,8.37-15.06a113.67,113.67,0,0,1,12.18-13.07c1.88-1.51,3.52-2.67,4.68-3.5l.8-.56-1.5.09a29.55,29.55,0,0,0-5.73.91A48.69,48.69,0,0,0,297.47,116,30.14,30.14,0,0,0,286,128.6c-2.49,6-3,13.76.12,23.25Z" transform="translate(0 0)"/><path class="cls-60" d="M295.28,110a50,50,0,0,0,12.37-3.47c3.19-1.18,5.29-2,5.45-2.15l1.37-.66-1-.09-6.11-.68a162.23,162.23,0,0,1-18.4-1.89A77.56,77.56,0,0,1,270.57,96a29.9,29.9,0,0,1-3.09-1.5,18.2,18.2,0,0,1-2.2-1.46,11.27,11.27,0,0,1-1.3-1.08l-.44-.39.47.37a12,12,0,0,0,1.35,1,19.14,19.14,0,0,0,2.28,1.31,27.41,27.41,0,0,0,3.14,1.3,73.52,73.52,0,0,0,18.41,4c6.76.77,13.37.79,18.33.87l6.06.34,1.28,0-.45-.72c-11.57-18.68-26.46-20-36.78-18.41-5.18.92-9.71,2.41-12.69,4.31A37.31,37.31,0,0,0,260,89.46l-1.45,1.28a1.08,1.08,0,0,0-.24,1.37l.91,1.38c5.48,8.4,11.87,12.63,18.12,14.71A36.44,36.44,0,0,0,295.28,110Z" transform="translate(0 0)"/><path class="cls-60" d="M333.8,136.85a1,1,0,0,0,.88.94l1.54.14c.39.3,7.23.07,14.95-2.77,7.61-3,17.06-11.69,21-32.46l.15-.81-1.13.41a31.46,31.46,0,0,0-5.22,2.48,111.93,111.93,0,0,0-14.67,9.35c-5,3.77-9.3,8-11.5,12.45a25.58,25.58,0,0,0-1.39,3,19.07,19.07,0,0,0-.76,2.43,13.23,13.23,0,0,0-.33,1.62c-.06.38-.1.58-.1.58s0-.2.07-.59a14.44,14.44,0,0,1,.24-1.65,21.24,21.24,0,0,1,.65-2.5,28.13,28.13,0,0,1,1.24-3.1c2-4.65,6.14-9.33,11-13.42a112.34,112.34,0,0,1,14.43-10.38,47.62,47.62,0,0,1,5.2-2.94l.9-.38-1.5-.22a29.7,29.7,0,0,0-5.76.2,48,48,0,0,0-12.31,2.88c-9.82,3.29-20.49,13.29-17.8,33.13Z" transform="translate(0 0)"/><path class="cls-60" d="M350.36,95.73a53.18,53.18,0,0,0,18.53-2.42l1.47-.37-1-.29c-1.43-.49-3.43-.79-5.85-1.44a167.6,167.6,0,0,1-17.76-5.47,99.81,99.81,0,0,1-17.06-8.24,30.73,30.73,0,0,1-2.77-2.06,21.34,21.34,0,0,1-1.9-1.85A13.34,13.34,0,0,1,323,72.28c-.24-.31-.36-.48-.36-.48l.39.46a12.06,12.06,0,0,0,1.15,1.24,21.54,21.54,0,0,0,2,1.72A29.62,29.62,0,0,0,329,77.1a98.67,98.67,0,0,0,17.3,7.21,158.45,158.45,0,0,0,17.87,4.39c2.43.43,4.44.75,5.87,1.16l1.25.29-.31-.78C363.11,69.25,348.69,65,338.23,64.54A30.42,30.42,0,0,0,325,66.64a36.94,36.94,0,0,0-5.49,2.47l-1.66,1a1,1,0,0,0-.49,1.28L318,72.9C325.78,91.32,339.74,94.61,350.36,95.73Z" transform="translate(0 0)"/><path class="cls-60" d="M387.91,125.2a19.1,19.1,0,0,1,1.09-2.32,28.61,28.61,0,0,1,1.8-2.79,41.85,41.85,0,0,1,13.25-11.49,111.91,111.91,0,0,1,16.07-7.28l5.66-1.93,1-.29-1.45-.37a42.87,42.87,0,0,0-5.7-.91,47.7,47.7,0,0,0-12.62.35,25.58,25.58,0,0,0-15.27,7.93c-4.51,4.7-7.76,11.54-8.33,21.49l-.09,1.65a1.05,1.05,0,0,0,.69,1.09l1.5.46a29.06,29.06,0,0,0,15.24-.26c8.05-1.52,18.9-7.7,26.63-27.86l.3-.78-1.2.29-5.6,1.57A113.15,113.15,0,0,0,404.72,110a39.72,39.72,0,0,0-13.59,10.44,23.54,23.54,0,0,0-1.91,2.63,20.72,20.72,0,0,0-1.21,2.22c-.32.63-.47,1.17-.62,1.52l-.2.55.18-.56A11.34,11.34,0,0,1,387.91,125.2Z" transform="translate(0 0)"/><path class="cls-60" d="M428.55,89.34c-4.13-20.75-17.48-28.15-27.65-30.6a41.48,41.48,0,0,0-13.35,0,36.06,36.06,0,0,0-5.85,1.34l-1.81.62a1,1,0,0,0-.72,1.16l.34,1.62c2.07,9.83,6.5,16.28,11.58,20.5s10.88,6.18,16,7.77A51.24,51.24,0,0,0,425.77,93l1.52-.22-.92-.39-5.49-2.49A169,169,0,0,1,404.43,81c-5.89-3.9-11.62-7.1-15.25-10.91a28.9,28.9,0,0,1-2.34-2.57,20,20,0,0,1-1.53-2.19,12.37,12.37,0,0,1-.82-1.5l-.27-.54.31.53a13.24,13.24,0,0,0,.9,1.44,20.84,20.84,0,0,0,1.65,2.08,27,27,0,0,0,2.46,2.41c3.79,3.5,9.65,6.44,15.67,10A162.39,162.39,0,0,0,422,87.6l5.57,2.14,1.18.41Z" transform="translate(0 0)"/><path class="cls-60" d="M438.67,127.61a18.7,18.7,0,0,1,1.49-2.06,27.12,27.12,0,0,1,2.27-2.37c3.5-3.31,9.11-6.58,15.16-9.05a93.29,93.29,0,0,1,17.08-4.07l5.89-.76,1-.1-1.34-.65a42,42,0,0,0-5.41-2,48,48,0,0,0-12.43-2.18c-10.47.36-24,5.44-28.58,24.71l-.39,1.6a1.09,1.09,0,0,0,.48,1.21l1.39.75a28,28,0,0,0,15,2.77c8.33-.8,19.91-4,31.24-22.54l.44-.71-1.23,0-5.76.43A101.13,101.13,0,0,0,458,115.54c-6.05,2.08-11.71,5-15.32,8a28.68,28.68,0,0,0-2.35,2.2,18.58,18.58,0,0,0-1.58,1.94,13.55,13.55,0,0,0-.88,1.37l-.3.5s.1-.18.27-.52A12.46,12.46,0,0,1,438.67,127.61Z" transform="translate(0 0)"/><path class="cls-60" d="M482.42,102.56,477.5,99c-4-3-9.34-7.39-14.49-11.93-5.23-4.19-10.16-9.07-13.07-13.35a30.9,30.9,0,0,1-1.82-3A20.92,20.92,0,0,1,447,68.29a14.58,14.58,0,0,1-.53-1.64c-.1-.38-.16-.58-.16-.58l.2.57a13.28,13.28,0,0,0,.62,1.6,19.78,19.78,0,0,0,1.24,2.37,29.89,29.89,0,0,0,2,2.86c3.11,4.07,8.24,8.59,13.66,12.43a182.58,182.58,0,0,0,15,11l5.06,3.21,1.08.65V100c-.26-21-11.87-31.65-21.58-35.14a45.25,45.25,0,0,0-13.13-2.59,35.08,35.08,0,0,0-6,.15l-1.89.25a1,1,0,0,0-.92,1l0,1.66c.59,20.2,12.39,28.7,22,32.75a51.13,51.13,0,0,0,18,5l1.53.08C483,103,482.73,102.78,482.42,102.56Z" transform="translate(0 0)"/><path class="cls-60" d="M483.82,143.45a28.13,28.13,0,0,0,14.12,5.7c8.47.43,20.35-.37,34.88-16.41l.56-.62-1.21-.19-5.72-.7c-4.79-.31-10.84-1.23-17.23-.08-6.3.86-12.37,2.57-16.46,4.86a24.12,24.12,0,0,0-2.71,1.69,19.47,19.47,0,0,0-1.9,1.6,12.14,12.14,0,0,0-1.12,1.17l-.38.43s.13-.15.36-.45a11.73,11.73,0,0,1,1.06-1.24,17.94,17.94,0,0,1,1.85-1.73,23.72,23.72,0,0,1,2.65-1.89c4-2.56,10.12-4.67,16.5-5.91,6.47-1.53,12.69-1.09,17.6-1l5.91.39,1,.1-1.19-.9a41.61,41.61,0,0,0-4.91-3.07c-3-1.52-7-3.66-11.83-4.37-10.43-1.43-24.5.7-32.59,18.82l-.68,1.5a1.12,1.12,0,0,0,.25,1.29Z" transform="translate(0 0)"/><path class="cls-60" d="M507.37,82.43a20,20,0,0,0,.77,2.58,30.74,30.74,0,0,0,1.41,3.21c2.29,4.61,6.47,10.08,11.06,14.92,4.67,4.65,9.11,10.1,12.74,13.45l4.35,4.14.94.85.14-.82c3.67-20.79-5.66-33.57-14.71-38.48a45,45,0,0,0-12.39-5.12,34.58,34.58,0,0,0-5.88-1L503.9,76a1,1,0,0,0-1.08.8l-.27,1.65c-3.14,19.93,6.75,30.83,15.55,36.44a57.38,57.38,0,0,0,16.78,8.24l1.48.39-.71-.72-4.15-4.45c-3.43-3.64-7.68-9.29-12.1-14.24-4.34-5.15-8.26-10.93-10.31-15.72a29.62,29.62,0,0,1-1.23-3.31,19.88,19.88,0,0,1-.63-2.63,12.46,12.46,0,0,1-.21-1.71l-.06-.61.09.61A14.54,14.54,0,0,0,507.37,82.43Z" transform="translate(0 0)"/><path class="cls-60" d="M534.5,159.75a18.51,18.51,0,0,1,2.12-1.34,24.23,24.23,0,0,1,3-1.35c4.43-1.75,10.78-2.65,17.24-2.64a62.92,62.92,0,0,1,17.55,2.15l5.71,1.51.95.29-1-1.12a42.33,42.33,0,0,0-4.24-3.95c-2.61-2.12-6.17-4.93-10.9-6.35-10-3.38-24.06-4.11-35.43,12.35l-1,1.36a1,1,0,0,0,0,1.26l1,1.19a28.12,28.12,0,0,0,12.75,8.36c8.17,2.11,20.26,3.13,37.33-9.72l.66-.51-1.15-.41L573.68,159a62.54,62.54,0,0,0-17-3.15c-6.33-.36-12.58.15-17,1.61a26.25,26.25,0,0,0-3,1.15,18.59,18.59,0,0,0-2.17,1.21,14.75,14.75,0,0,0-1.31.94l-.45.35.44-.38A13.69,13.69,0,0,1,534.5,159.75Z" transform="translate(0 0)"/><path class="cls-60" d="M564,107.52a20.13,20.13,0,0,0,.27,2.69,31.25,31.25,0,0,0,.78,3.42c1.38,5,4.46,11.18,8,16.83l10.11,15.46,3.49,4.91.76,1,.29-.78c7.58-20,.53-33.87-7.38-40.5a45.13,45.13,0,0,0-11.16-7.41,35.88,35.88,0,0,0-5.56-2.14l-1.86-.45a1.1,1.1,0,0,0-1.24.65l-.56,1.55c-6.69,18.86.89,31.62,8.47,38.8,7.09,6.75,14.56,11.1,15,11.1l1.37.66-.55-.84L581,147.31l-9.33-16.13c-3.28-5.91-6-12.35-7.16-17.46a34.58,34.58,0,0,1-.59-3.5,20.91,20.91,0,0,1-.12-2.71,13.28,13.28,0,0,1,.11-1.72l.06-.61s0,.21,0,.61A13.55,13.55,0,0,0,564,107.52Z" transform="translate(0 0)"/><path class="cls-60" d="M621.09,198.46l-1.05-.63-5-2.78c-2.1-1.08-4.52-2.34-7.24-3.46s-5.89-1.93-8.95-2.68c-6.13-1.55-12.34-2.22-17-1.62a23.72,23.72,0,0,0-3.11.58,15.57,15.57,0,0,0-2.34.78,11.09,11.09,0,0,0-1.46.68l-.51.26.5-.29a12.72,12.72,0,0,1,1.43-.77,19.41,19.41,0,0,1,2.33-.93,25.34,25.34,0,0,1,3.14-.77c4.66-.89,11-.58,17.37.65a64.59,64.59,0,0,1,16.92,5.27c2.27,1.08,4.06,1.95,5.31,2.55l.87.46-.77-1.29c-.36-.1-4.29-8.24-13-12.84-9.18-5.13-22.64-8.75-37.12,5.68l-1.19,1.16a1,1,0,0,0-.2,1.25l.85,1.28c.32.11,3.61,6.64,11,10.56a31.21,31.21,0,0,0,15,3.46c6.17.15,13.93-1.43,23.46-6.19Z" transform="translate(0 0)"/><path class="cls-60" d="M614.92,142.59a22.94,22.94,0,0,0-.23,2.7,34.09,34.09,0,0,0,.13,3.52c.42,5.17,2.29,11.84,4.74,18.09,1.22,3.14,2.56,6.19,3.88,9,1.26,3.05,2.37,5.75,3.3,8s1.91,4.22,2.5,5.5l.55,1.14.43-.72c5.55-9.16,7.24-17.41,6.8-24.53a32.58,32.58,0,0,0-6.65-16.63c-6.33-8.41-14.2-12.48-14.66-12.44l-1.81-.71a1.09,1.09,0,0,0-1.34.4l-.83,1.43c-9.76,17-4.93,31.23,1.22,39.66,6,7.71,12.29,13.56,12.8,13.6l1.23.91c-.12-.27-.24-.58-.39-.93-.52-1.34-1.27-3.28-2.2-5.71-1.61-4.92-4.16-11.07-6.3-17.49s-3.62-13.31-3.76-18.56a33.58,33.58,0,0,1,.07-3.55,21.43,21.43,0,0,1,.39-2.7,12.73,12.73,0,0,1,.43-1.68l.17-.59-.14.6A14.49,14.49,0,0,0,614.92,142.59Z" transform="translate(0 0)"/><path class="cls-60" d="M615.25,238.38a29.35,29.35,0,0,0,14.18,6.13c6.12,1.21,13.92,1.16,24.17-1.79l.8-.23-.91-.81L649.1,238c-3.48-3.08-9.18-6.3-14.87-8.95s-11.66-4.49-16.28-4.75a23.71,23.71,0,0,0-3.15,0,14.53,14.53,0,0,0-2.46.35,16.43,16.43,0,0,0-1.61.44l-.56.18.55-.21a16.47,16.47,0,0,1,1.6-.53,15.69,15.69,0,0,1,2.48-.5,26,26,0,0,1,3.21-.18c4.73,0,10.91,1.49,16.88,3.87s12,5.29,15.76,8.23l4.71,3.5.76.61-.51-1.41a41.12,41.12,0,0,0-2.45-5.26c-1.45-3.07-4.45-6.49-8.09-9.71-7.92-6.86-20.67-12.71-37.55-1.18l-1.38.93a1,1,0,0,0-.43,1.19l.59,1.42C606.61,226.2,608.86,233,615.25,238.38Z" transform="translate(0 0)"/><path class="cls-60" d="M658.6,186.4c-.21.67-.48,1.58-.7,2.6a29.93,29.93,0,0,0-.53,3.5c-.55,5.17,0,12.1,1.27,18.71s3.13,12.91,4,18c.6,2.52,1.08,4.52,1.41,5.88.14.5.24.89.33,1.23l.56-.62c7.12-8,10.4-15.87,11.18-22.89a34.47,34.47,0,0,0-3.52-17.55c-4.52-9.56-11.74-14.82-12.21-14.86l-1.64-1a1.07,1.07,0,0,0-1.38.15l-1.09,1.24c-12.69,14.92-10.36,29.65-6,39.2a81,81,0,0,0,10.15,15.67l1,1.13c-.06-.29-.12-.62-.2-1-.26-1.42-.62-3.47-1.09-6-.6-5.17-2.33-11.46-3.07-18.3s-1.06-13.79-.22-19a31.18,31.18,0,0,1,.73-3.49c.29-1,.59-1.9.85-2.56a13.52,13.52,0,0,1,.68-1.54l.26-.53-.22.55A10.71,10.71,0,0,0,658.6,186.4Z" transform="translate(0 0)"/><path class="cls-60" d="M678.24,292l.83-.07-.73-1-3.59-4.44c-3-3.59-8.08-7.79-13.08-11.48s-10.55-6.59-15-7.71a17.59,17.59,0,0,0-3.19-.54,21.13,21.13,0,0,0-2.57-.06,15.48,15.48,0,0,0-1.65.14l-.59.07.58-.1a14.18,14.18,0,0,1,1.66-.22,19,19,0,0,1,2.6-.08,19.84,19.84,0,0,1,3.3.35c4.62.87,10.39,3.49,15.77,6.95a92.75,92.75,0,0,1,14.09,10.93c1.67,1.85,3,3.32,3.93,4.33l.63.75-.22-1.49a43.66,43.66,0,0,0-1.39-5.64,44.09,44.09,0,0,0-6.31-11,30.35,30.35,0,0,0-13.65-10.26c-6-2-13.94-1.7-23.06,2.23l-1.52.65a1,1,0,0,0-.64,1.1l.3,1.52a23.14,23.14,0,0,0,1.54,4.47,29.69,29.69,0,0,0,5.06,9.23C646.65,287,657.47,293.72,678.24,292Z" transform="translate(0 0)"/><path class="cls-60" d="M705.66,248.78a42.37,42.37,0,0,0-5.4-12.27,36.44,36.44,0,0,0-4-4.55l-1.42-1.32a1.06,1.06,0,0,0-1.38-.11l-1.29,1c-7.9,6.27-11.34,12.92-13.05,19.46a36.32,36.32,0,0,0,0,18,55.79,55.79,0,0,0,4.59,12,41.53,41.53,0,0,0,2.6,5.25l.79,1.3c0-.3,0-.63,0-1,0-1.44,0-3.52.09-6.15,0-5-.29-11.65.24-18.51s1.56-13.8,3.37-18.76c.47-1.27.82-2.3,1.25-3.25a19.17,19.17,0,0,1,1.24-2.32,14.21,14.21,0,0,1,1-1.39l.36-.47-.33.5a11.47,11.47,0,0,0-.86,1.44,18.29,18.29,0,0,0-1.09,2.38c-.33,1-.7,2.14-1.07,3.29-1.52,5-2.26,11.94-2.3,18.69s.66,13.3.77,18.36c.11,2.59.2,4.64.26,6.06,0,.51.06.92.09,1.27l.66-.51C708.18,273.88,708.39,258.82,705.66,248.78Z" transform="translate(0 0)"/><path class="cls-60" d="M661.23,313.11a18.87,18.87,0,0,1,2.56.4,28.44,28.44,0,0,1,3.21.95c4.82,1.57,9.6,5.33,14.29,9.71a112.77,112.77,0,0,1,11.79,13.36,34,34,0,0,1,3.2,5c.18.33.34.61.47.86l.08-1.51c.29-.39-.22-9.05-4.64-17.73-2.39-4.6-5.84-9.54-11.45-12.62-5.86-3-13.41-4.23-23.17-2l-1.61.36a1,1,0,0,0-.85,1v1.55A39.27,39.27,0,0,0,659.19,327c3.65,7.29,13.61,15.8,34.23,17.93l.82.08c-.15-.3-.31-.65-.53-1.09a41.83,41.83,0,0,0-2.75-5,113.32,113.32,0,0,0-10.78-13.7c-4.33-4.55-8.83-8.52-13.38-10.33a26.5,26.5,0,0,0-3.1-1.09,18.78,18.78,0,0,0-2.5-.54,13.16,13.16,0,0,0-1.64-.17l-.59,0h.59A12.65,12.65,0,0,1,661.23,313.11Z" transform="translate(0 0)"/><path class="cls-60" d="M718.17,294.31a18.7,18.7,0,0,0-1.51,2.14,29.64,29.64,0,0,0-1.6,3,85.45,85.45,0,0,0-5.67,17.93,156.38,156.38,0,0,0-2.58,18.17c-.19,2.45-.68,4.56-.82,6-.07.52-.12.92-.17,1.27l.75-.38c19.74-9.79,22.16-24.45,21.73-34.91-.34-5.27-1.51-9.89-3.2-13a36.44,36.44,0,0,0-3-5.23L721,287.75a1,1,0,0,0-1.33-.37l-1.47.77c-8.85,4.67-13.75,10.68-16.31,16.68a38.16,38.16,0,0,0-3.44,17.66c.4,9.85,4.16,17.82,4,18.25l.51,1.42c.06-.29.12-.62.19-1,.26-1.45.82-3.55,1.1-6A164.33,164.33,0,0,1,707.92,317a88.86,88.86,0,0,1,6.71-17.79,28.76,28.76,0,0,1,1.79-2.94,19.68,19.68,0,0,1,1.65-2.06,12.88,12.88,0,0,1,1.2-1.19l.44-.41-.41.44A11.61,11.61,0,0,0,718.17,294.31Z" transform="translate(0 0)"/><path class="cls-60" d="M672.59,362.57a20.09,20.09,0,0,1,2.42.88,26.3,26.3,0,0,1,3,1.53,39.15,39.15,0,0,1,12.49,12.16,112.34,112.34,0,0,1,8.87,15.33l2.48,5.45.39.93.22-1.47a40.58,40.58,0,0,0,.34-5.76,48.1,48.1,0,0,0-1.62-12.53c-2.23-10.09-11.62-21.61-31.39-20.8l-1.65.06a1.05,1.05,0,0,0-1,.79l-.3,1.53c-.23.34-1,7.23,1.5,15.14,2.33,7.87,9.59,18.11,30.43,24l.81.23-.41-1.17c-.5-1.26-1.22-3.1-2.13-5.42a111.46,111.46,0,0,0-7.82-15.48,55.82,55.82,0,0,0-5.25-7.32,39.09,39.09,0,0,0-6.21-5.28,28.74,28.74,0,0,0-2.81-1.66,20.91,20.91,0,0,0-2.34-1,14.52,14.52,0,0,0-1.58-.47l-.57-.15.58.12A14.25,14.25,0,0,1,672.59,362.57Z" transform="translate(0 0)"/><path class="cls-60" d="M732,354.62a18.36,18.36,0,0,0-1.9,1.83,28.29,28.29,0,0,0-2.16,2.67,47,47,0,0,0-4.27,7.42c-1.54,2.85-3.07,6-4.38,9.11a158.81,158.81,0,0,0-6.16,17.4c-.67,2.45-1.2,4.4-1.56,5.73-.12.5-.21.89-.3,1.22l.79-.24c20.24-6,26.28-20,27.7-30.31.93-5.25-.26-9.91-1-13.33a38.31,38.31,0,0,0-1.91-5.69l-.81-1.75a1,1,0,0,0-1.23-.61l-1.58.49c-19.3,6.05-23.45,19.61-25.69,30.09a51,51,0,0,0,.59,18.68l.37,1.49.29-.95c.45-1.33,1.11-3.26,1.93-5.69A165.35,165.35,0,0,1,717.94,375c3.23-6.22,6.49-12.27,9.65-16.21a30.76,30.76,0,0,1,2.33-2.57,20.12,20.12,0,0,1,2-1.72,13.92,13.92,0,0,1,1.41-.95l.51-.31-.49.35A12.51,12.51,0,0,0,732,354.62Z" transform="translate(0 0)"/></g></g></svg>