<svg id="Layer_1" data-name="Layer 1" xmlns="http://www.w3.org/2000/svg" viewBox="0 0 677.91 505.64"><defs><style>.cls-1{fill:none;}.cls-2{fill:#e21928;}.cls-3{fill:#263238;}</style></defs><polygon class="cls-1" points="257.63 304.05 255.65 304.05 256.63 305.37 257.63 304.05"/><path class="cls-1" d="M168.16,404.5h432a4.51,4.51,0,0,0,4.5-4.5v-4.5h-441V400A4.51,4.51,0,0,0,168.16,404.5Z" transform="translate(-23.52 -19.45)"/><path d="M600.15,123.5H411.94l-3.85-22,1.81-1.28a44.5,44.5,0,1,0-51.48,0l1.81,1.28-3.85,22H176.16a28.54,28.54,0,0,0-28.5,28.5V400a20.61,20.61,0,0,0,20.51,20.5H355.66v31h-51.5a4.51,4.51,0,0,0-4.5,4.5v32a4.51,4.51,0,0,0,4.5,4.5h160a4.51,4.51,0,0,0,4.5-4.5V456a4.51,4.51,0,0,0-4.5-4.5h-51.5v-31h187.5A20.61,20.61,0,0,0,620.66,400V144A20.61,20.61,0,0,0,600.15,123.5ZM348.66,64a35.5,35.5,0,1,1,35.5,35.5A35.55,35.55,0,0,1,348.66,64Zm54.13,59.5H365.53l3-17.68,3.74,1.05a44,44,0,0,0,23.71,0l3.73-1.05Zm56.87,337v23h-151v-23Zm-95-9v-31h39v31Zm247-51.5a11.51,11.51,0,0,1-11.5,11.5h-432a11.51,11.51,0,0,1-11.5-11.5V388.5h455Zm0-20.5h-455V152a19.59,19.59,0,0,1,19.49-19.5h424a11.51,11.51,0,0,1,11.5,11.5Z" transform="translate(-23.52 -19.45)"/><path class="cls-2" d="M404.66,64a20.5,20.5,0,1,0-20.5,20.5A20.53,20.53,0,0,0,404.66,64Zm-32,0a11.5,11.5,0,1,1,11.5,11.5A11.51,11.51,0,0,1,372.66,64Z" transform="translate(-23.52 -19.45)"/><path d="M592.16,147.5h-416a4.51,4.51,0,0,0-4.5,4.5V360a4.51,4.51,0,0,0,4.5,4.5h416a4.51,4.51,0,0,0,4.5-4.5V152A4.51,4.51,0,0,0,592.16,147.5Zm-311.75,208H212.66V344a27.64,27.64,0,0,1,27.49-27.5h13.76l22.65,30.2a4.47,4.47,0,0,0,3,1.76,5.27,5.27,0,0,0,.56,0h.18a4.47,4.47,0,0,0,2.6-.9,4.79,4.79,0,0,0,.9-.9l22.65-30.2h20.31l15.16,10.79a4.07,4.07,0,0,0,3.35.74l.11,0a4.19,4.19,0,0,0,2.84-2l14.05-22.77,22.88,17.08L365.5,355.5Zm-35.75-135h71V248a35.5,35.5,0,1,1-71,0Zm-23.95-9,1.1-4.35a35.22,35.22,0,0,1,56.4-18.74,4.44,4.44,0,0,0,3.79.82,30.08,30.08,0,0,1,6.1-.73,27.72,27.72,0,0,1,26,18.32l1.67,4.68Zm44.43,78.44,3.64,1a42.48,42.48,0,0,0,22.76,0l3.64-1,3.48,17.56h-37Zm30,26.56-15,20-15-20Zm71.75-21,4.35-7a13.71,13.71,0,0,1,17.84-5,13.85,13.85,0,0,1,6.08,18.58c-.07.14-.13.26-.2.38l-5.47,9.83Zm220.74,60H375.81l27.05-48.64a22.44,22.44,0,0,0,1.81-17.72,21.32,21.32,0,0,0-5.1-8.7l-1.73-1.78,28.75-57.51-8-4-28.52,57-2.64-.56a22.68,22.68,0,0,0-23.9,10.26l-20.43,33.25-12.42-8.78a3.79,3.79,0,0,0-2.48-.81H307.85l-4.29-21.63,1.89-1.31A44.53,44.53,0,0,0,324.66,248V216a36.54,36.54,0,0,0-36.5-36.5,37.32,37.32,0,0,0-4.7.36l-1.37.2-1.13-.79a43.17,43.17,0,0,0-24.76-7.77h0a44.55,44.55,0,0,0-44.5,44.5,4.51,4.51,0,0,0,4.5,4.5h19.5V248a44.53,44.53,0,0,0,19.21,36.56l1.89,1.31-4.29,21.63H240.16a36.54,36.54,0,0,0-36.5,36.5v11.5h-23v-199h407Z" transform="translate(-23.52 -19.45)"/><rect x="420.14" y="160.05" width="57" height="9"/><rect class="cls-2" x="500.14" y="160.05" width="41" height="9"/><rect x="420.14" y="192.05" width="25" height="9"/><rect x="468.14" y="192.05" width="73" height="9"/><rect x="420.14" y="224.05" width="41" height="9"/><rect class="cls-2" x="484.14" y="224.05" width="57" height="9"/><rect x="420.14" y="256.05" width="121" height="9"/><rect class="cls-2" x="420.14" y="288.05" width="121" height="9"/><path class="cls-3" d="M682.93,71.84a2,2,0,0,1-1.41-.58L665,54.75a2,2,0,0,1,0-2.82l16.5-16.5a2.06,2.06,0,0,1,2.83,0l16.5,16.5a2,2,0,0,1,0,2.82l-16.5,16.51A2,2,0,0,1,682.93,71.84Zm-13.67-18.5L682.93,67l13.68-13.67L682.93,39.67Z" transform="translate(-23.52 -19.45)"/><path class="cls-3" d="M113.91,525.09a2,2,0,0,1-1.41-.58L96,508a2,2,0,0,1-.59-1.42,2,2,0,0,1,.59-1.41l16.5-16.5a2,2,0,0,1,2.83,0l16.5,16.5a2,2,0,0,1,.58,1.41,2,2,0,0,1-.58,1.42l-16.5,16.5A2,2,0,0,1,113.91,525.09Zm-13.67-18.5,13.67,13.68,13.68-13.68-13.68-13.67Z" transform="translate(-23.52 -19.45)"/><path class="cls-3" d="M42,493a2,2,0,0,1-1.42-.59l-16.5-16.5a2,2,0,0,1,0-2.83l16.5-16.5a2.06,2.06,0,0,1,2.83,0L59.94,473a2,2,0,0,1,0,2.83l-16.5,16.5A2,2,0,0,1,42,493Zm-13.68-18.5L42,488.13,55.7,474.46,42,460.79Z" transform="translate(-23.52 -19.45)"/><path class="cls-3" d="M652.26,87.09a2,2,0,0,1-1.41-.58l-9-9a2,2,0,0,1,0-2.83l9-9a2,2,0,0,1,2.83,0l9,9a2,2,0,0,1,0,2.83l-9,9A2,2,0,0,1,652.26,87.09Zm-6.17-11,6.17,6.18,6.18-6.18-6.18-6.17Z" transform="translate(-23.52 -19.45)"/><path class="cls-3" d="M655.25,449.11a8.67,8.67,0,1,1,8.67-8.67A8.68,8.68,0,0,1,655.25,449.11Zm0-13.34a4.67,4.67,0,1,0,4.67,4.67A4.68,4.68,0,0,0,655.25,435.77Z" transform="translate(-23.52 -19.45)"/><path class="cls-3" d="M102.08,391.33a8.67,8.67,0,1,1,8.67-8.66A8.68,8.68,0,0,1,102.08,391.33Zm0-13.33a4.67,4.67,0,1,0,4.67,4.67A4.67,4.67,0,0,0,102.08,378Z" transform="translate(-23.52 -19.45)"/></svg>