<svg xmlns="http://www.w3.org/2000/svg" viewBox="0 0 800 381.41"><defs><style>.a{fill:none;}.b{fill:#fff;}</style></defs><rect class="a" y="66.35" width="800" height="200"/><polygon class="b" points="489.93 129.63 384.73 129.63 380.66 143.88 423.42 143.88 350.12 251.11 455.31 251.11 459.38 237.53 415.95 236.85 489.93 129.63"/><path class="b" d="M557.79,57.16c-46.15,0-82.12,37.33-82.12,82.8,0,34.61,24.44,50.9,57,50.9,30.55,0,63.12-19,72.63-49.54H556.43c-4.07,11.54-9.5,33.93-25.11,33.93-8.14,0-13.57-4.07-13.57-13.58,0-10.85,4.07-23.07,7.47-33.25h83.47A73.68,73.68,0,0,0,612.76,104C612.76,70.74,586.3,57.16,557.79,57.16ZM570,85h0c0,9.5-4.07,19-6.1,29.19H530c3.39-13.58,9.5-42.08,27.14-42.08A12.47,12.47,0,0,1,570,85Z" transform="translate(0 66.35)"/><path class="b" d="M166.88,3.55H78.65L75.26,17.8H95.62v.68L48.11,184.75H95.62l17.64-56.33h12.9c53.61,0,98.4-17,98.4-78.72h0C224.56,13.73,198.1,3.55,166.88,3.55Zm-40,110.62h-9.5l28.5-96.37H154c13.58,0,21,5.43,21,19C175,65.31,160.77,114.85,126.84,114.17Z" transform="translate(0 66.35)"/><path class="b" d="M690.13,84.32l6.1-21H631.76l-5.43,14.25,19,.68L614.12,184.76h47.51c6.78-22.4,18.33-86.87,42.08-104.51h1.35A23.94,23.94,0,0,0,703.71,87c0,12.21,10.85,23.07,23.07,23.07,14.25,0,25.11-12.22,25.11-26.47,0-12.89-10.86-23.07-23.76-23.07C711.85,60.56,698.27,71.42,690.13,84.32Z" transform="translate(0 66.35)"/><path class="b" d="M210.31,315.06c4.76-26.48,14.26-50.23,21.72-76L279.54,78.2h34.61L282.93,184.75h47.5L365.72,63.27H283.61c9.5-30.54,19.68-122.16,64.47-122.16,9.5,0,20.36,3.39,25.11,12.22C358.26-46,346-37.85,346-21.56,346-8,357.58,2.87,371.16,2.87,387.44,2.87,399-12.06,399-27.67c0-28.5-30.54-38.68-53.61-38.68-65.84,0-89.59,56.33-105.2,110.62l-74,254.5L165.09,302" transform="translate(0 66.35)"/></svg>