<svg id="Layer_1" data-name="Layer 1" xmlns="http://www.w3.org/2000/svg" viewBox="0 0 677.91 490.23"><defs><style>.cls-1{fill:none;}.cls-2{fill:#e21928;}.cls-3{fill:#263238;}</style></defs><rect class="cls-1" x="429.26" y="246.14" width="83.5" height="24.12"/><circle class="cls-2" cx="165.48" cy="139.45" r="5"/><circle cx="189.48" cy="139.45" r="5"/><circle cx="213.48" cy="139.45" r="5"/><path class="cls-2" d="M557,203.5a5,5,0,0,0-5,5v8a5,5,0,0,0,10,0v-8A5,5,0,0,0,557,203.5Z" transform="translate(-23.52 -34.86)"/><path d="M583.6,43.5H375.78a27,27,0,0,0-26.9,26.91v77H182.81a27,27,0,0,0-26.91,26.91v282a27,27,0,0,0,26.91,26.91h371.1a27,27,0,0,0,26.91-26.91V245.76h2.78a27,27,0,0,0,26.9-26.91V70.41A27,27,0,0,0,583.6,43.5ZM351.7,230.91l.8,1.39a27,27,0,0,0,23.28,13.45h2.78v39.89a4.65,4.65,0,0,0,7.66,3.52l22-18.88V384.92H350.73V367.29a27,27,0,0,0-26.91-26.91H313.77l5.56-4.87a26.8,26.8,0,0,0,9.13-20.17V300.49a26.91,26.91,0,0,0-53.81,0v14.84a26.85,26.85,0,0,0,9.14,20.18l5.56,4.87H279.29a27,27,0,0,0-26.9,26.91v17.63H194.87v-154ZM341.45,367.29v17.63H261.67V367.29a17.67,17.67,0,0,1,17.62-17.63h44.54A17.68,17.68,0,0,1,341.45,367.29ZM301.56,333a17.65,17.65,0,0,1-17.63-17.63V300.49a17.63,17.63,0,0,1,35.26,0v14.84A17.65,17.65,0,0,1,301.56,333ZM165.18,174.31a17.67,17.67,0,0,1,17.62-17.62H348.88v35.25H165.18ZM571.54,456.36A17.68,17.68,0,0,1,553.91,474H182.81a17.68,17.68,0,0,1-17.63-17.62V201.22h183.7v20.41H190.23a4.64,4.64,0,0,0-4.64,4.64V389.56a4.64,4.64,0,0,0,4.64,4.63H412.89a4.64,4.64,0,0,0,4.64-4.63V262.33l19.34-16.58H571.54Zm29.69-237.51a17.68,17.68,0,0,1-17.63,17.62H435.15a4.64,4.64,0,0,0-3,1.12l-44.3,38V241.11a4.65,4.65,0,0,0-4.64-4.64h-7.42a17.68,17.68,0,0,1-17.63-17.62V70.41a17.68,17.68,0,0,1,17.63-17.63H583.6A17.68,17.68,0,0,1,601.23,70.4Z" transform="translate(-23.52 -34.86)"/><path d="M562.92,103.16h0L481.27,73.47a4.6,4.6,0,0,0-3.16,0l-81.65,29.68a4.68,4.68,0,0,0-2.62,2.4,4.66,4.66,0,0,0,2.62,6.33l26.64,9.68v45.33A4.62,4.62,0,0,0,426,171.2c26.7,10.68,40.06,15.14,53.68,15.14s27-4.46,53.68-15.14a4.62,4.62,0,0,0,2.91-4.31V121.56l13-4.72v57.47a4.64,4.64,0,0,0,9.28,0V113.46l4.37-1.58a4.68,4.68,0,0,0,2.62-2.4,4.65,4.65,0,0,0-2.62-6.32ZM527,163.75l-1.76.7c-21.29,8.46-33.42,12.69-45.56,12.69s-24.27-4.23-45.56-12.69l-1.76-.7V124.94l45.74,16.63a4.64,4.64,0,0,0,3.16,0L527,124.94Zm-47.32-31.48-68.07-24.75,68.07-24.76,68.07,24.76Z" transform="translate(-23.52 -34.86)"/><path class="cls-3" d="M682.93,71.84a2,2,0,0,1-1.41-.58L665,54.75a2,2,0,0,1,0-2.82l16.5-16.5a2.06,2.06,0,0,1,2.83,0l16.5,16.5a2,2,0,0,1,0,2.82l-16.5,16.51A2,2,0,0,1,682.93,71.84Zm-13.67-18.5L682.93,67l13.68-13.67L682.93,39.67Z" transform="translate(-23.52 -34.86)"/><path class="cls-3" d="M113.91,525.09a2,2,0,0,1-1.41-.58L96,508a2,2,0,0,1-.59-1.42,2,2,0,0,1,.59-1.41l16.5-16.5a2,2,0,0,1,2.83,0l16.5,16.5a2,2,0,0,1,.58,1.41,2,2,0,0,1-.58,1.42l-16.5,16.5A2,2,0,0,1,113.91,525.09Zm-13.67-18.5,13.67,13.68,13.68-13.68-13.68-13.67Z" transform="translate(-23.52 -34.86)"/><path class="cls-3" d="M42,493a2,2,0,0,1-1.42-.59l-16.5-16.5a2,2,0,0,1,0-2.83l16.5-16.5a2.06,2.06,0,0,1,2.83,0L59.94,473a2,2,0,0,1,0,2.83l-16.5,16.5A2,2,0,0,1,42,493Zm-13.68-18.5L42,488.13,55.7,474.46,42,460.79Z" transform="translate(-23.52 -34.86)"/><path class="cls-3" d="M652.26,87.09a2,2,0,0,1-1.41-.58l-9-9a2,2,0,0,1,0-2.83l9-9a2,2,0,0,1,2.83,0l9,9a2,2,0,0,1,0,2.83l-9,9A2,2,0,0,1,652.26,87.09Zm-6.17-11,6.17,6.18,6.18-6.18-6.18-6.17Z" transform="translate(-23.52 -34.86)"/><path class="cls-3" d="M655.25,449.11a8.67,8.67,0,1,1,8.67-8.67A8.68,8.68,0,0,1,655.25,449.11Zm0-13.34a4.67,4.67,0,1,0,4.67,4.67A4.68,4.68,0,0,0,655.25,435.77Z" transform="translate(-23.52 -34.86)"/><path class="cls-3" d="M102.08,391.33a8.67,8.67,0,1,1,8.67-8.66A8.68,8.68,0,0,1,102.08,391.33Zm0-13.33a4.67,4.67,0,1,0,4.67,4.67A4.67,4.67,0,0,0,102.08,378Z" transform="translate(-23.52 -34.86)"/><path class="cls-2" d="M442.58,320H546.49a4.64,4.64,0,0,0,4.64-4.64V270.8a4.64,4.64,0,0,0-4.64-4.64H442.58a4.64,4.64,0,0,0-4.64,4.64v44.53A4.64,4.64,0,0,0,442.58,320Zm4.64-44.53h94.63V310.7H447.22Z" transform="translate(-23.52 -34.86)"/><path d="M442.58,394.19H546.49a4.64,4.64,0,0,0,4.64-4.63V345a4.65,4.65,0,0,0-4.64-4.64H442.58a4.65,4.65,0,0,0-4.64,4.64v44.54A4.64,4.64,0,0,0,442.58,394.19Zm4.64-44.53h94.63v35.26H447.22Z" transform="translate(-23.52 -34.86)"/><path class="cls-2" d="M442.58,423.88H546.49a4.64,4.64,0,1,0,0-9.27H442.58a4.64,4.64,0,1,0,0,9.27Z" transform="translate(-23.52 -34.86)"/><path d="M442.58,446.15h44.53a4.64,4.64,0,0,0,0-9.28H442.58a4.64,4.64,0,1,0,0,9.28Z" transform="translate(-23.52 -34.86)"/><path d="M516.8,436.87h-7.42a4.64,4.64,0,0,0,0,9.28h7.42a4.64,4.64,0,1,0,0-9.28Z" transform="translate(-23.52 -34.86)"/><path d="M412.89,414.61H232.24l-.31-2.44a4.63,4.63,0,0,0-9.19,0l-.3,2.44H190.23a4.64,4.64,0,1,0,0,9.27H222.7v2.79a4.64,4.64,0,1,0,9.28,0v-2.79H412.89a4.64,4.64,0,1,0,0-9.27Z" transform="translate(-23.52 -34.86)"/><circle class="cls-2" cx="205.26" cy="385.58" r="13.38"/></svg>