<svg xmlns="http://www.w3.org/2000/svg" viewBox="0 0 800 200"><defs><style>.a{fill:none;}.b{fill:#fff;fill-rule:evenodd;}</style></defs><rect class="a" width="800" height="200"/><path class="b" d="M326.76,35.33V15.48H262.83V35.33h18.74v47.4H308V35.33Zm33.08,7.72L346.61,82.74H320.15L345.5,15.49h28.67l25.35,67.25H373.06L359.84,43.05Zm97-7.72V15.48H392.91V35.33h18.75v47.4h26.45V35.33Zm33.07,7.72L476.69,82.74H450.24L475.6,15.49h28.64L529.6,82.74H503.14L489.93,43.05ZM37.86,167.3A36.1,36.1,0,0,1,27.76,169c-10.93,0-17.66-7.58-17.66-18.51C10.1,138.7,17.67,132,27.76,132a31.41,31.41,0,0,1,10.1,1.68l1.68-6.73c-1.68-.84-5.89-2.52-12.62-2.52C11.77,124.4,0,134.49,0,151.32c0,15.14,10.09,25.23,26.08,25.23,5.89,0,10.93-.84,12.61-2.52l-.83-6.73Zm27.76,9.25c13.46,0,23.55-9.25,23.55-26.92,0-14.3-8.41-25.23-22.71-25.23s-24.39,10.93-24.39,26.07,9.25,26.08,23.55,26.08Zm0-7.56c-8.41,0-13.46-8.41-13.46-18.51S56.37,132,65.62,132s14.3,8.41,14.3,18.51S74.87,169,65.62,169ZM106,175.71V158.05c0-8.41,0-15.14-.85-21.87H106c2.52,5.89,5.89,11.77,8.41,17.66l13.45,21.87H138V125.24H128.7v17.67c0,7.57.85,14.3.85,21-2.53-5.89-5.05-11.77-8.42-16.82l-13.45-21.88H97.59v50.48Zm40.38-2.52c2.52,1.68,7.57,3.36,13.45,3.36,12.62,0,18.51-6.73,18.51-15.14,0-7.57-4.2-11.78-12.62-15.15-6.72-2.52-10.09-4.2-10.09-8.41,0-2.52,3.37-5.89,8.41-5.89a21.3,21.3,0,0,1,10.1,2.53l2.52-7.57c-2.52-1.69-6.73-2.53-11.78-2.53-10.94,0-18.51,5.89-18.51,14.3,0,7.57,5.89,11.78,14.3,15.15,5.89,1.68,8.41,4.2,8.41,8.41s-3.36,6.72-9.25,6.72a24.33,24.33,0,0,1-11.78-3.36l-1.67,7.58Zm40.37-47.95v28.6c0,16,7.58,22.71,19.35,22.71,12.62,0,20.19-6.73,20.19-22.71v-28.6H217v29.45c0,10.09-4.2,14.3-10.93,14.3-5.89,0-10.1-4.21-10.1-14.3V125.24Zm50.48,50.47h29.44v-7.57H246.49v-42.9h-9.26v50.47Zm38.69,0h9.26v-42.9h15.14v-7.57h-38.7v7.57h14.3v42.9Zm50.48-14.3,5,14.3h9.26l-16-50.47H313l-16,50.47h9.26l4.21-14.3Zm-14.3-6.72,3.37-12.62a22,22,0,0,0,2.52-9.26h.85c.84,2.53.84,5.89,2.52,9.26l3.37,12.62Zm44.58,21V158.05c0-8.41,0-15.14-.85-21.87h.85c1.69,5.89,5.05,11.77,8.42,17.66l13.45,21.87h9.25V125.24h-8.4v17.67a168.94,168.94,0,0,0,.84,21c-2.54-5.89-5.06-11.77-8.42-16.82l-13.45-21.88H348.28v50.48Zm76.55-8.41a31.52,31.52,0,0,1-10.1,1.69c-10.92,0-17.65-7.58-17.65-18.51,0-11.78,7.57-18.51,17.65-18.51a31.41,31.41,0,0,1,10.1,1.68l1.68-6.73a27.07,27.07,0,0,0-11.78-2.52c-15.14,0-26.92,10.09-26.92,26.92,0,15.14,9.27,25.23,25.24,25.23,6.73,0,10.94-.84,13.46-2.52l-1.68-6.73Zm30.28,8.41v-21l16.83-29.45H469.4l-5.89,12.62c-1.68,4.21-2.53,6.73-4.21,10.09-1.68-3.36-2.52-5.89-4.21-10.09l-5.89-12.62H438.27l16,29.45v21Zm35.34-2.52a32.38,32.38,0,0,0,14.3,3.36c12.61,0,18.51-6.73,18.51-15.14,0-7.57-4.21-11.78-12.62-15.15-6.73-2.52-10.1-4.2-10.1-8.41,0-2.52,2.53-5.89,8.41-5.89a21.3,21.3,0,0,1,10.1,2.53l2.52-7.57q-3.78-2.53-12.62-2.53c-10.93,0-17.66,5.89-17.66,14.3,0,7.57,5.89,11.78,13.46,15.15,6.72,1.68,9.25,4.2,9.25,8.41S519,169,513.15,169a24.33,24.33,0,0,1-11.78-3.36Zm69.82-27.76H549.32V132.81h20.19v-7.57H540.07v50.47h30.28v-7.57h-21V153h19.35v-7.57Zm10.09,30.28H588v-21h4.21c5.89.84,8.41,2.52,9.26,9.25,1.68,5.89,2.52,10.09,3.36,11.77h9.26c-.85-1.68-1.69-7.57-3.37-14.3-1.68-5-3.36-8.41-7.57-9.25v-.84c5.05-1.69,9.25-5.89,9.25-12.62a13.9,13.9,0,0,0-4.2-10.1c-3.37-2.52-8.42-3.36-15.15-3.36-5.89,0-10.94,0-14.3.84v49.63ZM588,132h5.89c5.89,0,9.26,2.52,9.26,7.57S599.79,148,593.07,148H588V132Zm55.53,43.74,17.66-50.47H651.11L644.38,148a87.12,87.12,0,0,0-5,18.51h-.84c-.85-5.89-2.53-11.77-4.21-18.51l-7.57-22.71H616.62l16.82,50.47Zm32.8,0V125.24h-9.25v50.47Zm44.59-8.41A31.51,31.51,0,0,1,710.84,169c-10.94,0-17.67-7.58-17.67-18.51C694,138.7,700.74,132,710.84,132a31.35,31.35,0,0,1,10.09,1.68l2.53-6.73a36.31,36.31,0,0,0-12.62-2.52c-15.15,0-26.92,10.09-26.92,26.92,0,15.14,9.25,25.23,26.07,25.23,5.89,0,10.94-.84,12.62-2.52l-1.68-6.73Zm37.86-21.87H739.44V132.81h20.19v-7.57H730.18v50.47h31.13v-7.57H739.44V153h19.35v-7.57Zm8.41,27.76c2.52,1.68,8.41,3.36,13.45,3.36,12.62,0,19.35-6.73,19.35-15.14,0-7.57-4.21-11.78-13.46-15.15-6.73-2.52-9.25-4.2-9.25-8.41,0-2.52,2.52-5.89,8.41-5.89,4.21,0,7.57,1.68,10.09,2.53l1.68-7.57c-2.52-1.69-6.72-2.53-11.77-2.53-10.94,0-17.67,5.89-17.67,14.3,0,7.57,5.05,11.78,13.46,15.15,5.89,1.68,8.41,4.2,8.41,8.41s-2.52,6.72-8.41,6.72a27.92,27.92,0,0,1-12.62-3.36l-1.67,7.58Z"/></svg>