<?xml version="1.0" encoding="utf-8"?>
<!-- Generator: Adobe Illustrator 25.0.1, SVG Export Plug-In . SVG Version: 6.00 Build 0)  -->
<svg version="1.1" id="svg2" xmlns:svg="http://www.w3.org/2000/svg"
	 xmlns="http://www.w3.org/2000/svg" xmlns:xlink="http://www.w3.org/1999/xlink" x="0px" y="0px" viewBox="0 0 400 160"
	 style="enable-background:new 0 0 400 160;" xml:space="preserve">
<style type="text/css">
	.st0{fill-rule:evenodd;clip-rule:evenodd;fill:#FFFFFF;}
	.st1{fill:#FFFFFF;}
</style>
<g>
	<path class="st0" d="M187.2,88c0,6.7-2.7,9.7-7.1,9.7c-4.2,0-7-3.2-7-9.7V68.3h-6.2v19.3c0,10.7,5.1,15.2,13,15.2
		c8.2,0,13.6-4.6,13.6-15.2V68.3h-6.2V88H187.2z"/>
	<path class="st0" d="M152.5,82.4c-4.6-1.7-6.4-3-6.4-5.5c0-2,1.7-4,5.5-4c3.2,0,5.5,0.9,6.9,1.6l1.5-5c-1.7-0.9-4.4-1.7-8.2-1.7
		c-7.4,0-12,4.2-12,9.7c0,4.8,3.6,7.9,9.1,9.8c4.3,1.6,6,3.2,6,5.6c0,2.8-2.3,4.6-6.2,4.6c-3.2,0-6.2-1.1-8.2-2.1l-1.5,5.1
		c1.9,1.1,5.6,2.3,9.3,2.3c8.7,0,12.8-4.7,12.8-10.2C161.2,87.5,158.4,84.6,152.5,82.4z"/>
	<polygon class="st0" points="126.2,144.4 139,144.4 139,139.3 126.2,139.3 126.2,130.6 139.8,130.6 139.8,125.6 120.1,125.6 
		120.1,159.5 140.6,159.5 140.6,154.4 126.2,154.4 	"/>
	<polygon class="st0" points="206.7,96.9 206.7,68.3 200.5,68.3 200.5,102.2 220.5,102.2 220.5,96.9 	"/>
	<path class="st0" d="M127.9,80c0,5.2,0.1,9.5,0.5,14.1h-0.1c-1.6-3.8-3.5-7.5-5.8-11.3l-8.7-14.5h-7v33.9h5.6V89.9
		c0-5.5,0-9.9-0.3-14.4l0.3-0.1c1.7,3.9,3.9,8.1,6,11.7l8.7,15h6.4V68.3h-5.8V80z"/>
	<polygon class="st0" points="242.7,73.4 242.7,68.3 217.1,68.3 217.1,73.4 226.9,73.4 226.9,102.2 233,102.2 233,73.4 	"/>
	<path class="st0" d="M352.8,76.9c-1.1,2.4-2.1,4.6-3,6.7h-0.1c-0.9-2.3-1.7-4.2-3-6.7l-4-8.7h-7l10.6,19.8v14.2h6.2V87.8l11.3-19.5
		h-7L352.8,76.9z"/>
	<path class="st0" d="M296.3,80c0,5.2,0.1,9.5,0.5,14.1h-0.1c-1.6-3.8-3.6-7.5-5.8-11.3L282,68.3h-7.1v33.9h5.8V89.9
		c0-5.5-0.1-9.9-0.4-14.4l0.3-0.1c1.6,3.9,3.9,8.1,6,11.7l9,14.9h6.4V68.2h-5.8L296.3,80L296.3,80z"/>
	<path class="st0" d="M105.8,139.7c-4.6-1.7-6.4-3-6.4-5.5c0-2,1.6-4,5.5-4c3.2,0,5.5,0.9,6.7,1.6l1.5-5c-1.7-0.9-4.4-1.7-8.2-1.7
		c-7.4,0-12,4.2-12,9.7c0,4.8,3.6,7.9,9.1,9.8c4.3,1.6,6,3.2,6,5.6c0,2.8-2.1,4.6-6.2,4.6c-3.2,0-6.2-1.1-8.2-2.1l-1.3,5.1
		c1.9,1.1,5.6,2.3,9.1,2.3c8.9,0,12.9-4.7,12.9-10.2C114.5,144.8,111.7,141.9,105.8,139.7z"/>
	<path class="st0" d="M189.9,141.1c-1.3,4-2.6,8.2-3.4,12.2h-0.1c-0.9-4-2-8.1-3.4-12.2l-4.7-15.3h-6.9l11,33.9h7l11.8-33.9h-6.6
		L189.9,141.1z"/>
	<path class="st0" d="M235.1,130c2.8,0,5.1,0.7,6.7,1.3l1.3-5c-1.2-0.7-4.2-1.5-8.3-1.5c-10.3,0-18.3,6.7-18.3,17.9
		c0,10.3,6.6,17.2,17.5,17.2c4,0,7.3-0.9,8.7-1.6l-1.1-4.8c-1.6,0.7-4.2,1.2-6.7,1.2c-7.5,0-12-4.7-12-12.2
		C223.2,134.3,228.2,130,235.1,130z"/>
	<rect x="205.2" y="125.4" class="st0" width="6.3" height="34.6"/>
	<path class="st0" d="M325.7,72.7c2.7,0,5,0.7,6.6,1.3l1.3-5c-1.2-0.7-4-1.5-8.3-1.5c-10.3,0-18.1,6.7-18.1,17.9
		c0,10.3,6.6,17.2,17.3,17.2c4,0,7.4-0.9,8.9-1.6l-1.1-4.8c-1.7,0.7-4.3,1.2-6.7,1.2c-7.5,0-11.8-4.7-11.8-12.2
		C313.9,77,318.8,72.7,325.7,72.7z"/>
	<path class="st0" d="M285.9,139.7c-4.6-1.7-6.6-3-6.6-5.5c0-2,1.7-4,5.6-4c3.2,0,5.5,0.9,6.7,1.6l1.5-5c-1.7-0.9-4.6-1.7-8.2-1.7
		c-7.4,0-12,4.2-12,9.7c0,4.8,3.5,7.9,9.1,9.8c4.3,1.6,6,3.2,6,5.6c0,2.8-2.3,4.6-6,4.6c-3.2,0-6.2-1.1-8.2-2.1l-1.3,5.1
		c1.7,1.1,5.5,2.3,9.1,2.3c8.7,0,12.9-4.7,12.9-10.2C294.6,144.8,291.8,141.9,285.9,139.7z"/>
	<polygon class="st0" points="254.3,144.4 267,144.4 267,139.3 254.3,139.3 254.3,130.6 267.7,130.6 267.7,125.6 248.1,125.6 
		248.1,159.5 268.5,159.5 268.5,154.4 254.3,154.4 	"/>
	<path class="st0" d="M59.7,72.7c2.8,0,5.1,0.7,6.7,1.3l1.3-5c-1.3-0.7-4.2-1.5-8.2-1.5c-10.3,0-18.3,6.7-18.3,17.9
		c0,10.3,6.6,17.2,17.3,17.2c4.2,0,7.4-0.9,8.9-1.6l-1.1-4.8c-1.6,0.7-4.2,1.2-6.9,1.2c-7.5,0-11.8-4.7-11.8-12.2
		C47.8,77,52.8,72.7,59.7,72.7z"/>
	<path class="st1" d="M255.2,68.3h-3.8l-9.8,30.4l-1.1,3.5h6.4l3-9.5h10.7l3.1,9.5h6.7l-11-33.9H255.2z M255.2,87.9h-4.4l2.7-8.5
		c0.5-1.9,1.1-4.3,1.6-6.3h0.1v0.1c0.5,1.9,1.1,4.2,1.7,6.3l2.7,8.3C259.6,87.9,255.2,87.9,255.2,87.9z"/>
	<path class="st1" d="M167.5,149.9c-0.9-3.2-2.4-5.6-4.7-6.6l0,0c3.2-1.1,6-4.2,6-8.5c0-3-1.1-5.4-3-6.7c-1.9-1.7-4.7-2.6-8.5-2.7
		c-0.5-0.1-1.2-0.1-1.9-0.1c-3.6,0-7,0.3-9.4,0.8v33.3h6v-14h3.2c0.8,0.1,1.5,0.1,2,0.3c2.1,0.5,3.2,2.3,4,5.6
		c0.9,4.2,1.7,7,2.3,8.1h6.3C169.4,158.1,168.4,154.2,167.5,149.9z M157.4,140.8c-0.4,0.1-1.1,0.1-1.5,0.1h-3.8v-10.7
		c0.7-0.1,1.9-0.3,3.9-0.3c0.4,0,0.9,0,1.3,0c3.2,0.4,5.4,2.1,5.4,5.4C162.6,138.4,160.6,140.4,157.4,140.8z"/>
	<path class="st1" d="M85.6,67.6c0,0-0.1,0-0.3,0c-9.4,0.1-15.9,7.5-15.9,17.7c0,9.9,6,17.3,15.6,17.3c0.1,0,0.3,0,0.3,0
		c9.3-0.1,16.1-6.6,16.1-17.9C101.4,75.2,95.5,67.6,85.6,67.6z M85.3,97.7c-6,0-9.4-5.8-9.4-12.4c0-6.7,3.2-12.6,9.4-12.6
		c6.2,0,9.4,6,9.4,12.4C94.7,92.2,91.4,97.7,85.3,97.7z"/>
	<g>
		<path class="st0" d="M226.1,44.9V12.9h12.8V0c-0.8,0-1.4,0-2.2,0c-13.1,0-26.1,0-39.1,0c-0.8,0-1.4,0-2.1,0v12.9h12.5v31.8h18.1
			V44.9z"/>
		<path class="st0" d="M120.1,44.9H138V12.9h12.8V0c-0.8,0-1.4,0-2.2,0c-13.8,0-27.5,0-41.2,0v12.9h12.8V44.9z"/>
		<path class="st0" d="M270.4,44.9H288L270.8,0c-6.2,0-12.6,0-18.9,0l-15.1,39.3l-2.2,5.5h17.6l9.2-26.8L270.4,44.9z"/>
		<path class="st0" d="M182.7,0c-6.3,0-12.8,0-19,0l-15.1,39.3l-2.2,5.5H164l9.2-26.8l9.2,26.8h17.4l-2.1-5.5L182.7,0z"/>
	</g>
</g>
</svg>
