<?xml version="1.0" encoding="utf-8"?>
<!-- Generator: Adobe Illustrator 25.0.1, SVG Export Plug-In . SVG Version: 6.00 Build 0)  -->
<svg version="1.1" id="Layer_1" xmlns="http://www.w3.org/2000/svg" xmlns:xlink="http://www.w3.org/1999/xlink" x="0px" y="0px"
	 viewBox="0 0 260.9 70" style="enable-background:new 0 0 260.9 70;" xml:space="preserve">
<style type="text/css">
	.st0{fill:#000032;}
	.st1{fill:#00B57B;}
	.st2{fill:#005128;}
	.st3{fill:#00C07F;}
	.st4{fill:#F9EC31;}
	.st5{enable-background:new    ;}
	.st6{fill:#404041;}
	.st7{fill:#E6E7E8;}
</style>
<circle class="st0" cx="35" cy="35" r="35"/>
<path class="st1" d="M60.7,26.8l-13.1,9.6l-2,1.5c-0.2,0.4-0.5,0.8-0.9,1.1c-2.9,2.1-5.7,4.3-8.7,6.2c-0.3,0.2-0.7,0.3-1,0.3
	L18.9,57.3c-0.5-0.8,0-1.4,0.2-2c1.7-5.3,3.4-10.7,5.2-16c0.4-0.8,0.1-1.7-0.7-2.1c0,0,0,0,0,0c-4.4-3.1-8.7-6.3-13-9.4
	c-0.5-0.4-0.9-0.7-1.4-1.1c0.2-1.2,1.2-0.8,1.9-0.8c4.8,0,9.6,0,14.4,0c0.7,0,1.4,0,2.1,0c0.2,0,0.4-0.1,0.5-0.1
	c0.1-0.1,0.3-0.2,0.5-0.3l6.3-18.8c2.6,6.6,4.2,13,6.5,19.1c0.2,0.1,0.4,0.2,0.6,0.2c5.6-0.2,11.3-0.1,16.9-0.1
	C59.6,26,60.6,25.6,60.7,26.8z"/>
<path class="st1" d="M35,45.6l0.7-0.6c2.9-0.9,6-1.5,8.9-2.4c0.7-0.3,1.6-0.3,2.3,0.1L51.5,57l-0.4,0.3L35,45.6z"/>
<path class="st2" d="M46.9,42.8c-3.3,0.4-6.5,1.6-9.8,2.3c-0.5,0.1-1,0.6-1.4,0l9.9-7C45.7,39.7,46.5,41.2,46.9,42.8z"/>
<path class="st3" d="M8.4,26.4c0.5-0.5,1.1-0.3,1.7-0.3c6.2,0,12.3,0,18.5,0c-0.5,0.5-1.1,0.3-1.7,0.3c-5.3,0-10.6,0-15.9,0
	c-0.6,0-1.3-0.2-1.8,0.4L8.4,26.4z"/>
<path class="st3" d="M41.4,26.1h18.5c0.6,0,1.2-0.2,1.7,0.3l-0.8,0.5c-0.5-0.6-1.2-0.4-1.8-0.4c-5.3,0-10.6,0-15.9,0
	C42.5,26.4,41.9,26.6,41.4,26.1z"/>
<polygon class="st4" points="99.2,7.5 103.2,15.7 112.3,17 105.7,23.3 107.3,32.3 99.2,28.1 91.1,32.3 92.7,23.3 86.2,17 95.2,15.7 
	"/>
<polygon class="st4" points="136.4,7.5 140.4,15.7 149.4,17 142.9,23.3 144.4,32.3 136.4,28.1 128.3,32.3 129.8,23.3 123.3,17 
	132.3,15.7 "/>
<polygon class="st4" points="173.5,7.5 177.6,15.7 186.6,17 180.1,23.3 181.6,32.3 173.5,28.1 165.5,32.3 167,23.3 160.5,17 
	169.5,15.7 "/>
<polygon class="st4" points="210.7,7.5 214.7,15.7 223.7,17 217.2,23.3 218.8,32.3 210.7,28.1 202.6,32.3 204.2,23.3 197.6,17 
	206.7,15.7 "/>
<g class="st5">
	<path class="st6" d="M86.8,52.2v-1.5l4.6-6.6h2.3v6.4h1.2v1.7h-1.2v2h-2v-2H86.8z M91.8,46.2L89,50.5h2.9V46.2z"/>
	<path class="st6" d="M96.4,54c-0.2-0.2-0.3-0.5-0.3-0.8c0-0.3,0.1-0.6,0.3-0.8c0.2-0.2,0.5-0.3,0.9-0.3c0.3,0,0.6,0.1,0.9,0.3
		c0.2,0.2,0.3,0.5,0.3,0.8c0,0.3-0.1,0.6-0.3,0.8c-0.2,0.2-0.5,0.3-0.9,0.3C96.9,54.3,96.6,54.2,96.4,54z"/>
	<path class="st6" d="M104.6,45.7c-0.2-0.2-0.6-0.3-1-0.3c-0.6,0-1.1,0.3-1.4,0.8c-0.3,0.5-0.5,1.4-0.5,2.5c0.2-0.4,0.6-0.7,1-0.9
		s0.9-0.3,1.4-0.3c0.6,0,1.1,0.1,1.6,0.4c0.5,0.3,0.8,0.6,1.1,1.1c0.3,0.5,0.4,1.1,0.4,1.8c0,0.7-0.1,1.3-0.4,1.8
		c-0.3,0.5-0.7,0.9-1.2,1.2c-0.5,0.3-1.1,0.4-1.8,0.4c-1,0-1.7-0.2-2.3-0.6c-0.6-0.4-0.9-1-1.2-1.8c-0.2-0.8-0.3-1.7-0.3-2.8
		c0-1.7,0.3-3,0.9-3.9c0.6-0.9,1.5-1.3,2.8-1.3c1,0,1.7,0.3,2.3,0.8c0.5,0.5,0.9,1.2,0.9,2h-1.8C105,46.2,104.8,45.9,104.6,45.7z
		 M102.4,49.5c-0.3,0.3-0.5,0.7-0.5,1.3s0.2,1,0.5,1.3c0.3,0.3,0.8,0.5,1.3,0.5c0.5,0,0.9-0.2,1.2-0.5c0.3-0.3,0.4-0.7,0.4-1.2
		c0-0.5-0.1-1-0.4-1.3s-0.7-0.5-1.3-0.5C103.2,49.1,102.8,49.2,102.4,49.5z"/>
	<path class="st6" d="M119,44.4V46h-2.6v8.2h-2V46h-2.6v-1.6H119z"/>
	<path class="st6" d="M123.3,46.7c0.4-0.2,0.9-0.4,1.4-0.4v2.1h-0.5c-0.6,0-1.1,0.1-1.4,0.4c-0.3,0.3-0.5,0.8-0.5,1.5v3.9h-2v-7.8h2
		v1.2C122.6,47.2,122.9,46.9,123.3,46.7z"/>
	<path class="st6" d="M133.4,46.4v7.8h-2v-1c-0.3,0.3-0.6,0.6-1,0.8c-0.4,0.2-0.8,0.3-1.3,0.3c-0.6,0-1.1-0.1-1.6-0.4
		c-0.5-0.3-0.8-0.6-1.1-1.1S126,51.7,126,51v-4.5h2v4.3c0,0.6,0.2,1.1,0.5,1.4c0.3,0.3,0.7,0.5,1.3,0.5c0.5,0,1-0.2,1.3-0.5
		c0.3-0.3,0.5-0.8,0.5-1.4v-4.3H133.4z"/>
	<path class="st6" d="M136.6,54c-0.5-0.2-0.9-0.5-1.2-0.9c-0.3-0.4-0.5-0.8-0.5-1.3h2c0,0.3,0.2,0.5,0.4,0.7s0.6,0.3,1,0.3
		c0.4,0,0.7-0.1,0.9-0.2s0.3-0.3,0.3-0.6c0-0.3-0.1-0.4-0.4-0.6c-0.3-0.1-0.7-0.3-1.2-0.4c-0.6-0.1-1.1-0.3-1.4-0.4s-0.7-0.4-1-0.7
		c-0.3-0.3-0.4-0.7-0.4-1.2c0-0.4,0.1-0.8,0.4-1.2c0.2-0.4,0.6-0.6,1.1-0.8c0.5-0.2,1-0.3,1.6-0.3c0.9,0,1.7,0.2,2.2,0.7
		c0.6,0.5,0.9,1.1,0.9,1.9h-1.9c0-0.3-0.2-0.6-0.4-0.7c-0.2-0.2-0.5-0.3-0.9-0.3c-0.4,0-0.6,0.1-0.8,0.2s-0.3,0.3-0.3,0.5
		c0,0.3,0.1,0.5,0.4,0.6c0.3,0.1,0.7,0.3,1.2,0.4c0.6,0.1,1,0.3,1.4,0.4c0.4,0.1,0.7,0.4,0.9,0.7s0.4,0.7,0.4,1.2
		c0,0.4-0.1,0.8-0.4,1.2s-0.6,0.6-1.1,0.8c-0.5,0.2-1,0.3-1.6,0.3C137.6,54.3,137.1,54.2,136.6,54z"/>
	<path class="st6" d="M145.2,48.1v3.8c0,0.3,0.1,0.5,0.2,0.6c0.1,0.1,0.3,0.2,0.6,0.2h0.9v1.7h-1.2c-1.7,0-2.5-0.8-2.5-2.4v-3.7
		h-0.9v-1.6h0.9v-1.9h2v1.9h1.7v1.6H145.2z"/>
	<path class="st6" d="M151.4,46.7c0.4-0.2,0.9-0.4,1.5-0.4c0.7,0,1.3,0.2,1.8,0.5c0.5,0.3,1,0.8,1.3,1.4s0.5,1.3,0.5,2.1
		c0,0.8-0.2,1.5-0.5,2.1s-0.7,1.1-1.3,1.4c-0.5,0.3-1.1,0.5-1.8,0.5c-0.6,0-1.1-0.1-1.5-0.3c-0.4-0.2-0.8-0.5-1.1-0.9v4.8h-2V46.4h2
		v1.1C150.6,47.2,150.9,46.9,151.4,46.7z M154.1,49.1c-0.2-0.3-0.4-0.6-0.8-0.8c-0.3-0.2-0.7-0.3-1-0.3c-0.4,0-0.7,0.1-1,0.3
		c-0.3,0.2-0.6,0.4-0.8,0.8c-0.2,0.3-0.3,0.8-0.3,1.2s0.1,0.9,0.3,1.2c0.2,0.3,0.4,0.6,0.8,0.8c0.3,0.2,0.6,0.3,1,0.3
		c0.4,0,0.7-0.1,1-0.3s0.6-0.5,0.8-0.8c0.2-0.3,0.3-0.8,0.3-1.2C154.4,49.8,154.3,49.4,154.1,49.1z"/>
	<path class="st6" d="M158,45.2c-0.2-0.2-0.3-0.5-0.3-0.8c0-0.3,0.1-0.6,0.3-0.8c0.2-0.2,0.5-0.3,0.9-0.3c0.3,0,0.6,0.1,0.9,0.3
		c0.2,0.2,0.3,0.5,0.3,0.8c0,0.3-0.1,0.6-0.3,0.8c-0.2,0.2-0.5,0.3-0.9,0.3C158.5,45.5,158.2,45.4,158,45.2z M159.8,46.4v7.8h-2
		v-7.8H159.8z"/>
	<path class="st6" d="M163.7,43.8v10.4h-2V43.8H163.7z"/>
	<path class="st6" d="M167.1,53.8c-0.6-0.3-1.1-0.8-1.4-1.4c-0.3-0.6-0.5-1.3-0.5-2.1s0.2-1.5,0.5-2.1c0.4-0.6,0.8-1.1,1.4-1.4
		c0.6-0.3,1.3-0.5,2-0.5c0.7,0,1.4,0.2,2,0.5s1.1,0.8,1.4,1.4c0.3,0.6,0.5,1.3,0.5,2.1s-0.2,1.5-0.5,2.1c-0.4,0.6-0.8,1.1-1.5,1.4
		s-1.3,0.5-2.1,0.5C168.3,54.3,167.7,54.2,167.1,53.8z M170.1,52.4c0.3-0.2,0.6-0.4,0.7-0.8c0.2-0.3,0.3-0.8,0.3-1.3
		c0-0.7-0.2-1.3-0.6-1.7c-0.4-0.4-0.9-0.6-1.4-0.6c-0.6,0-1,0.2-1.4,0.6s-0.6,1-0.6,1.7s0.2,1.3,0.6,1.7c0.4,0.4,0.8,0.6,1.4,0.6
		C169.4,52.6,169.8,52.5,170.1,52.4z"/>
	<path class="st6" d="M176.9,48.1v3.8c0,0.3,0.1,0.5,0.2,0.6c0.1,0.1,0.3,0.2,0.6,0.2h0.9v1.7h-1.2c-1.7,0-2.5-0.8-2.5-2.4v-3.7H174
		v-1.6h0.9v-1.9h2v1.9h1.7v1.6H176.9z"/>
	<path class="st6" d="M188.4,54.2l-2.2-3.8h-0.9v3.8h-2v-9.8h3.7c0.8,0,1.4,0.1,1.9,0.4s0.9,0.6,1.2,1.1c0.3,0.5,0.4,1,0.4,1.5
		c0,0.6-0.2,1.2-0.6,1.7c-0.4,0.5-0.9,0.9-1.7,1.1l2.3,4H188.4z M185.3,48.9h1.6c0.5,0,0.9-0.1,1.2-0.4c0.3-0.3,0.4-0.6,0.4-1.1
		c0-0.4-0.1-0.8-0.4-1c-0.3-0.2-0.7-0.4-1.2-0.4h-1.6V48.9z"/>
	<path class="st6" d="M192.3,48.2c0.3-0.6,0.7-1.1,1.3-1.4c0.5-0.3,1.1-0.5,1.8-0.5c0.6,0,1.1,0.1,1.5,0.3c0.4,0.2,0.8,0.5,1,0.9
		v-1.1h2v7.8h-2v-1.1c-0.3,0.4-0.6,0.7-1,0.9c-0.4,0.2-1,0.4-1.5,0.4c-0.7,0-1.2-0.2-1.8-0.5c-0.5-0.3-1-0.8-1.3-1.4
		s-0.5-1.3-0.5-2.1C191.8,49.5,192,48.8,192.3,48.2z M197.6,49.1c-0.2-0.3-0.4-0.6-0.8-0.8c-0.3-0.2-0.7-0.3-1-0.3s-0.7,0.1-1,0.3
		c-0.3,0.2-0.6,0.4-0.7,0.8s-0.3,0.7-0.3,1.2s0.1,0.9,0.3,1.2c0.2,0.3,0.4,0.6,0.8,0.8s0.6,0.3,1,0.3c0.4,0,0.7-0.1,1-0.3
		c0.3-0.2,0.6-0.4,0.8-0.8c0.2-0.3,0.3-0.7,0.3-1.2S197.8,49.4,197.6,49.1z"/>
	<path class="st6" d="M204.1,48.1v3.8c0,0.3,0.1,0.5,0.2,0.6c0.1,0.1,0.3,0.2,0.6,0.2h0.9v1.7h-1.2c-1.7,0-2.5-0.8-2.5-2.4v-3.7
		h-0.9v-1.6h0.9v-1.9h2v1.9h1.7v1.6H204.1z"/>
	<path class="st6" d="M207.4,45.2c-0.2-0.2-0.3-0.5-0.3-0.8c0-0.3,0.1-0.6,0.3-0.8c0.2-0.2,0.5-0.3,0.9-0.3c0.3,0,0.6,0.1,0.9,0.3
		c0.2,0.2,0.3,0.5,0.3,0.8c0,0.3-0.1,0.6-0.3,0.8c-0.2,0.2-0.5,0.3-0.9,0.3C207.9,45.5,207.6,45.4,207.4,45.2z M209.2,46.4v7.8h-2
		v-7.8H209.2z"/>
	<path class="st6" d="M217.7,47.2c0.6,0.6,0.9,1.4,0.9,2.4v4.5h-2v-4.3c0-0.6-0.2-1.1-0.5-1.4c-0.3-0.3-0.7-0.5-1.3-0.5
		c-0.5,0-1,0.2-1.3,0.5s-0.5,0.8-0.5,1.4v4.3h-2v-7.8h2v1c0.3-0.3,0.6-0.6,1-0.8s0.9-0.3,1.3-0.3C216.3,46.3,217.1,46.6,217.7,47.2z
		"/>
	<path class="st6" d="M224.9,46.7c0.4,0.2,0.8,0.5,1,0.9v-1.1h2v7.8c0,0.7-0.1,1.4-0.4,1.9c-0.3,0.6-0.7,1-1.3,1.3
		c-0.6,0.3-1.3,0.5-2.1,0.5c-1.1,0-2-0.3-2.7-0.8c-0.7-0.5-1.1-1.2-1.2-2.1h1.9c0.1,0.4,0.3,0.6,0.7,0.8c0.3,0.2,0.8,0.3,1.2,0.3
		c0.6,0,1-0.2,1.4-0.5c0.4-0.3,0.5-0.9,0.5-1.5v-1.2c-0.3,0.4-0.6,0.7-1,0.9c-0.4,0.2-0.9,0.4-1.5,0.4c-0.7,0-1.3-0.2-1.8-0.5
		c-0.5-0.3-1-0.8-1.3-1.4s-0.5-1.3-0.5-2.1c0-0.8,0.2-1.5,0.5-2.1c0.3-0.6,0.7-1.1,1.3-1.4c0.5-0.3,1.1-0.5,1.8-0.5
		C224,46.3,224.5,46.4,224.9,46.7z M225.7,49.1c-0.2-0.3-0.4-0.6-0.8-0.8c-0.3-0.2-0.7-0.3-1-0.3s-0.7,0.1-1,0.3
		c-0.3,0.2-0.6,0.4-0.7,0.8s-0.3,0.7-0.3,1.2s0.1,0.9,0.3,1.2c0.2,0.3,0.4,0.6,0.8,0.8s0.6,0.3,1,0.3c0.4,0,0.7-0.1,1-0.3
		c0.3-0.2,0.6-0.4,0.8-0.8c0.2-0.3,0.3-0.7,0.3-1.2S225.9,49.4,225.7,49.1z"/>
	<path class="st6" d="M231.1,54c-0.5-0.2-0.9-0.5-1.2-0.9c-0.3-0.4-0.5-0.8-0.5-1.3h2c0,0.3,0.2,0.5,0.4,0.7s0.6,0.3,1,0.3
		c0.4,0,0.7-0.1,0.9-0.2s0.3-0.3,0.3-0.6c0-0.3-0.1-0.4-0.4-0.6s-0.7-0.3-1.2-0.4c-0.6-0.1-1.1-0.3-1.4-0.4c-0.4-0.1-0.7-0.4-1-0.7
		c-0.3-0.3-0.4-0.7-0.4-1.2c0-0.4,0.1-0.8,0.4-1.2c0.2-0.4,0.6-0.6,1.1-0.8c0.5-0.2,1-0.3,1.6-0.3c0.9,0,1.7,0.2,2.2,0.7
		c0.6,0.5,0.9,1.1,0.9,1.9h-1.9c0-0.3-0.2-0.6-0.4-0.7c-0.2-0.2-0.5-0.3-0.9-0.3c-0.4,0-0.6,0.1-0.8,0.2s-0.3,0.3-0.3,0.5
		c0,0.3,0.1,0.5,0.4,0.6c0.3,0.1,0.7,0.3,1.2,0.4c0.6,0.1,1,0.3,1.4,0.4s0.7,0.4,0.9,0.7c0.3,0.3,0.4,0.7,0.4,1.2
		c0,0.4-0.1,0.8-0.4,1.2c-0.2,0.4-0.6,0.6-1.1,0.8c-0.5,0.2-1,0.3-1.6,0.3C232.2,54.3,231.6,54.2,231.1,54z"/>
</g>
<polygon class="st4" points="247.9,7.5 243.8,15.7 234.8,17 241.3,23.3 239.8,32.3 247.9,28.1 248.8,28.6 248.8,9.4 "/>
<polygon class="st7" points="254.4,23.3 260.9,17 251.9,15.7 248.8,9.4 248.8,28.6 255.9,32.3 "/>
</svg>
