<svg xmlns="http://www.w3.org/2000/svg" viewBox="0 0 160 80"><defs><style>.a{fill:none;}.b{fill:#86bc24;}.c{fill:#0f0b0b;}</style></defs><rect class="a" width="160" height="80"/><path class="b" d="M142.55,49.38a3.71,3.71,0,1,1,3.71,3.71,3.71,3.71,0,0,1-3.71-3.71"/><path class="c" d="M24.17,39.55a8.3,8.3,0,0,0-1.36-5.23,5,5,0,0,0-4.14-1.7h-2V47h1.51a5.4,5.4,0,0,0,4.52-1.83q1.44-1.83,1.44-5.61m7-.24q0,6.42-3.45,9.9c-2.31,2.31-5.54,3.47-9.72,3.47H9.93V27H18.6q6,0,9.32,3.16t3.28,9.13M53.66,52.68h6.45V26.91H53.66Zm15.51-9.61a8.67,8.67,0,0,0,.65,3.76A2.23,2.23,0,0,0,72,48.12a2.17,2.17,0,0,0,2.12-1.29,9,9,0,0,0,.62-3.76,8.46,8.46,0,0,0-.63-3.7,2.45,2.45,0,0,0-4.27,0,8.3,8.3,0,0,0-.65,3.71m12.11,0a10.29,10.29,0,0,1-2.46,7.32A9,9,0,0,1,71.91,53a8.81,8.81,0,0,1-6.77-2.69,10.18,10.18,0,0,1-2.52-7.26q0-4.68,2.47-7.28A9.09,9.09,0,0,1,72,33.2a9.69,9.69,0,0,1,4.87,1.2,8.15,8.15,0,0,1,3.26,3.44,11.36,11.36,0,0,1,1.14,5.23m2.57,9.61H90.3V33.54H83.85Zm0-21.46H90.3V26.91H83.85ZM103.37,47.8a9.39,9.39,0,0,0,3.12-.66V52a12.53,12.53,0,0,1-2.48.81,13.29,13.29,0,0,1-2.77.25Q98,53,96.56,51.39a7.42,7.42,0,0,1-1.44-5V38.49H92.86v-5h2.26V28.65l6.5-1.13v6h4.12v5h-4.12v7.45c0,1.24.59,1.86,1.75,1.86m14.94,0a9.34,9.34,0,0,0,3.11-.66V52a12.12,12.12,0,0,1-2.48.81,13.19,13.19,0,0,1-2.76.25q-3.25,0-4.69-1.63a7.47,7.47,0,0,1-1.43-5V38.49H107.8v-5h2.26v-5l6.5-1.06v6h4.12v5h-4.12v7.45c0,1.24.58,1.86,1.75,1.86m11.26-7.06a3.42,3.42,0,0,1,.9-2.31,2.63,2.63,0,0,1,1.9-.73,2.48,2.48,0,0,1,2,.82,3.35,3.35,0,0,1,.77,2.22Zm9.1-5.28a10.43,10.43,0,0,0-13.36.33c-1.6,1.73-2.39,4.21-2.39,7.45s.86,5.54,2.58,7.24A9.91,9.91,0,0,0,132.75,53a21.45,21.45,0,0,0,3.86-.3,11.71,11.71,0,0,0,3.12-1.09l-1-4.32a13.31,13.31,0,0,1-2.09.68,13.83,13.83,0,0,1-3.12.33,4.41,4.41,0,0,1-2.95-.91,3.34,3.34,0,0,1-1.15-2.52H141V42a8.7,8.7,0,0,0-2.3-6.49M39.76,40.74a3.52,3.52,0,0,1,.9-2.31,2.65,2.65,0,0,1,1.91-.73,2.51,2.51,0,0,1,2,.82,3.35,3.35,0,0,1,.77,2.22Zm9.1-5.28a8.9,8.9,0,0,0-6.52-2.26,8.85,8.85,0,0,0-6.83,2.59q-2.4,2.6-2.4,7.45,0,4.69,2.59,7.24A9.91,9.91,0,0,0,43,53a21.53,21.53,0,0,0,3.86-.3,11.71,11.71,0,0,0,3.12-1.09l-1-4.32a13.21,13.21,0,0,1-2.08.68,13.86,13.86,0,0,1-3.13.33,4.4,4.4,0,0,1-2.94-.91,3.34,3.34,0,0,1-1.15-2.52H51.16V42c0-2.82-.76-5-2.3-6.49"/></svg>