<svg xmlns="http://www.w3.org/2000/svg" viewBox="0 0 160 80"><defs><style>.a{fill:none;}.b{fill:#0071c5;}</style></defs><rect class="a" width="160" height="80"/><path class="b" d="M60.83,35.33V50.41H56V31.46h9.9c4.21,0,5.65,3,5.65,5.66V50.41H66.79V37.16c0-1.13-.59-1.83-2-1.83Zm32.63-.23a3.69,3.69,0,0,0-3.44,2,5.06,5.06,0,0,0-.46,2.06h7.38c-.09-2.06-1-4-3.48-4m-3.9,7.31a4,4,0,0,0,4.25,4.27,5.4,5.4,0,0,0,4.4-1.81l3,2.83a9.47,9.47,0,0,1-7.39,3c-4.6,0-9-2.5-9-9.8,0-6.24,3.83-9.77,8.88-9.77s8.06,4.13,8.06,9.55v1.72H89.56m-8.83,8A5.16,5.16,0,0,1,75.17,45V26.29H80v5.17h3.61v3.87H80v9.34a1.5,1.5,0,0,0,1.66,1.72h1.95v4H80.73m-29-21.54H46.92V24.25h4.84Zm0,21.77c-3.62-.35-4.85-2.55-4.85-5.08V31.46h4.84Zm57.59-.41c-3.61-.35-4.84-2.54-4.84-5.07V23.6h4.84Zm16.91-23.49C121.88,5.34,80.41,4,53.67,20.26v1.8c26.71-13.73,64.59-13.64,68,6,1.15,6.5-2.51,13.29-9.06,17.19v5.1c7.88-2.88,16-12.23,13.62-23.68M77.67,64.09C59.22,65.8,40,63.12,37.3,48.7,36,41.59,39.22,34.06,43.52,29.38v-2.5C35.78,33.66,31.59,42.24,34,52.39c3.09,13,19.59,20.37,44.78,17.93,10-1,23-4.18,32.07-9.16V54.09C102.63,59,89,63,77.67,64.09M33.32,9.22"/></svg>