<svg xmlns="http://www.w3.org/2000/svg" xmlns:xlink="http://www.w3.org/1999/xlink" viewBox="0 0 160 80"><defs><style>.a{fill:none;}.b{fill:url(#a);}.c{fill:#0460a9;}</style><linearGradient id="a" x1="68.46" y1="-7.02" x2="92.42" y2="-7.02" gradientTransform="matrix(0.85, 0, 0, -0.85, -48.01, 35.19)" gradientUnits="userSpaceOnUse"><stop offset="0.3" stop-color="#e74a21"/><stop offset="0.7" stop-color="#ec9a1e"/></linearGradient></defs><rect class="a" width="160" height="80"/><path class="b" d="M23.93,38.81l-.06.14A5.83,5.83,0,0,1,27,44.36a6.53,6.53,0,0,1-6.8,6.3c-5.18,0-7-3-7-5.8,0-3.56,2.49-5.93,2.49-9.18a5.06,5.06,0,0,0-4-4.89l-.09.15a4.16,4.16,0,0,1,1.28,3c0,3.5-3,6-3,10,0,3.7,2.58,7.47,10.08,7.47,6.68,0,10.2-3.27,10.2-6.75C30.2,41.73,28.06,39.2,23.93,38.81Z"/><path class="c" d="M53.27,50.87,44.39,39.42V49.74l1.81.43v.47H42.07v-.47l1.48-.43V38.5a3.11,3.11,0,0,0-1.27-.73l-.42-.08v-.47h3.5L53,47.08V38.13l-1.81-.43v-.48h4.13v.48l-1.48.43V48.37c0,1,.06,2.32.08,2.5Zm18.56-7.29c0,4.74-3.32,7.48-7,7.48a7.13,7.13,0,0,1,0-14.26,6.75,6.75,0,0,1,7,6.53c0,.08,0,.17,0,.25Zm-2.31.71c0-3.49-2.09-6.87-4.92-6.87-3,0-4.38,2.92-4.38,6s1.72,7,5,7C68.22,50.44,69.52,47.36,69.52,44.29Zm5.17-6.16-1.42-.44v-.47h5.45v.47L77,38.13l3.76,10.24,3.76-10.24-1.71-.44v-.47h4v.47l-1.42.44L80.72,50.9h-1.2Zm32.18,5.66H106V37.92c2.85,0,4.54.66,4.54,3C110.53,42.62,109.05,43.79,106.87,43.79Zm24.37,6.38,1.9-.43V38.13l-1.9-.44v-.47h5.91v.47l-1.89.44V49.74l1.89.43v.47h-5.91ZM140.77,47h.38l1.25,2.89a5.6,5.6,0,0,0,2.41.59c1.63,0,3.11-.94,3.11-2.64,0-1.29-.83-2.06-2.18-2.76l-1.34-.7c-1.59-.83-3.19-2-3.19-3.89,0-2.06,1.42-3.65,4.46-3.65a10.55,10.55,0,0,1,3.15.52l.32,3.11h-.41l-1.16-2.49a4,4,0,0,0-2-.52A2.34,2.34,0,0,0,143,39.68c0,1.19.79,1.94,2.15,2.64l1.58.83c2.16,1.12,3.18,2.16,3.18,4.08,0,2.37-2.22,3.84-5,3.84a11.92,11.92,0,0,1-3.84-.57ZM86,50.17l1.52-.43,4.7-12.53,1.57-.4,4.85,12.92,1.52.44v.47H94.39v-.47l1.94-.44L95,46H89.79l-1.36,3.71,1.95.43v.48H86ZM90.15,45h4.47L92.4,39Zm19.44-1c.47-.12,3.13-.8,3.13-3.32,0-2-1.55-3.59-5.37-3.59-2.37,0-4.74,0-5,.06v.47l1.56.44V49.73l-1.56.44v.47h5.52v-.47L106,49.73V44.49h1.56l4,6.16h3.53v-.47l-1.78-.48Zm11.65-6.16V49.74l-1.9.43v.47h5.91v-.47l-1.9-.43V37.92h3.19l1.06,2.27h.4l-.3-3H116.89l-.3,3h.4L118,38ZM20.1,46.45,22,28.54H18.06L20,46.45Z"/></svg>