<svg xmlns="http://www.w3.org/2000/svg" viewBox="0 0 160 80"><defs><style>.a{fill:none;}.b{fill:#e669a2;}.c{fill:#f3be26;}.d{fill:#ee9c34;}.e{fill:#f3bc87;}.f{fill:#e3721c;}.g{fill:#ad1b02;}.h{fill:#e88d14;}.i{fill:#d85604;}.j{fill:#c14303;}.k{fill:#db4e18;}.l{fill:#d1390d;}.m{fill:#c22303;}</style></defs><rect class="a" width="160" height="80"/><path class="b" d="M125.71,29.13H96.34V21.61h29.37Z"/><path class="c" d="M121.9,29.13H96.34V10.33H121.9Z"/><path class="d" d="M111.34,29.13h-15V2.81h15Z"/><path class="e" d="M114.29,29.13h-18V5.75h18V29.13Z"/><path class="f" d="M96.33,5.75V29.13h15V5.75Z"/><path class="g" d="M81.3,29.13h15v3.76h-15Z"/><path class="h" d="M96.33,10.32V29.13h18V10.32Z"/><path class="i" d="M96.33,10.32V29.13h15V10.32Z"/><path class="j" d="M105.72,29.13H96.34V17.85h9.38V29.13Z"/><path class="k" d="M96.33,21.62v7.51H121.9V21.62Z"/><path class="l" d="M96.33,21.62v7.51h18V21.62Z"/><path class="m" d="M96.33,21.62v7.51h15V21.62Z"/><path class="g" d="M96.33,21.62v7.51h9.4V21.62Z"/><path d="M99.61,43.29c-2.56.46-3.93,2.39-3.93,5.75s1.82,5.68,4.5,5.68c1.3,0,2.44-.45,4.83-1.65v2.79a14.31,14.31,0,0,1-6.88,1.71c-2.56,0-4.38-.63-5.8-2.16a7.78,7.78,0,0,1-2.28-5.63c0-4.84,3.64-8.19,8.93-8.19,3.47,0,5.92,1.65,5.92,4a2.59,2.59,0,0,1-2.79,2.61,5.11,5.11,0,0,1-2.5-.79m-12.8,2.39c2.33-2.9,3.19-4.1,3.19-5.52a2.68,2.68,0,0,0-2.73-2.67,3.13,3.13,0,0,0-2.17,1v6l-3.81,5.12V42H77.65l-6,10V42h-2l-5.52,1.25v1.42l3,.29V57.34h3.81l5.8-9.55v9.55H81M52.52,55.41h.85c3.07,0,4.78-1.88,4.78-5.63,0-3.13-1.37-4.84-3.93-4.84a9.3,9.3,0,0,0-1.7.23V55.41Zm0,6.71,2.5.57v1.42H45.18V62.69l2.28-.57V44.94H45V43.52l6-1.82h1.59v2c2.78-1.71,3.75-2,5.23-2,3.3,0,5.8,3.07,5.8,7.33,0,4.89-3.35,8.25-8.47,8.25-.57,0-1.54-.06-2.56-.11"/></svg>