<svg xmlns="http://www.w3.org/2000/svg" viewBox="0 0 160 80"><defs><style>.a{fill:none;}.b{fill:#2d509f;fill-rule:evenodd;}</style></defs><rect class="a" width="160" height="80"/><path class="b" d="M95.63,28.8H77.17v6h6.17V47.7h6V34.82h6.27v-6Zm18,18.85L107.85,28.8h-7.33L94.71,47.65h6l3.46-13.41,3.46,13.41ZM132.1,28.8H113.64v6h6.17V47.7h6V34.82h6.27Zm17.83,18.85L144.11,28.8h-7.32L131,47.65h6l3.46-13.41,3.46,13.41ZM32.29,49c1.31-5.57,2.28-11,2.28-11a3.75,3.75,0,0,0-.49-3c-1-1.23-4-.82-4-.82s-4.69.06-9.46.63c-4.26.51-8.59,1.36-10.19,1.68A12.39,12.39,0,0,0,9.93,40c0,8.39,8.38,15.51,20,18.06.61-2.22,1.53-5.66,2.33-9.05Z"/><path class="b" d="M40.94,45.5c0-6.75.13-13,.13-13a1.52,1.52,0,0,1,.39-1.41,4.29,4.29,0,0,1,2.06-.47s5.58.16,11.84,1c4.56.59,9.5,1.53,11.73,2-4.1-7.34-15-12.58-27.71-12.58S15.69,26.22,11.63,33.6c2-.39,7.27-1.43,12.17-2.06,6.25-.8,11.83-1,11.83-1a4.29,4.29,0,0,1,2.06.47,1.52,1.52,0,0,1,.39,1.41s.19,6.29.13,13c-.05,5.18-.21,10.6-.3,13.54l1.47,0c.63,0,1.25,0,1.86,0-.1-2.94-.25-8.35-.3-13.52Z"/><path class="b" d="M58.52,34.8c-4.77-.57-9.46-.63-9.46-.63s-3-.41-4,.82a3.75,3.75,0,0,0-.49,3s1,5.44,2.28,11c.79,3.35,1.7,6.74,2.31,9,11.46-2.61,19.67-9.68,19.67-18a12.85,12.85,0,0,0-.53-3.6c-1.85-.37-5.85-1.12-9.79-1.6Z"/></svg>