<svg xmlns="http://www.w3.org/2000/svg" viewBox="0 0 160 80"><defs><style>.a{fill:none;}.b{fill:#34549c;}.b,.c{fill-rule:evenodd;}.c{fill:#fff;}</style></defs><rect class="a" width="160" height="80"/><path class="b" d="M150,57.64V22.36H10V57.64Z"/><path class="c" d="M18.94,32.29H15.45V28.41H28.57v3.88h-4.1v9.19l-5.53,3.11V32.29Z"/><path class="c" d="M18.94,45.8V53s14-10.3,14.89-11,1.72-2.16,1.72-4.65v-7c0-.94-.44-1.94-1.55-1.94H29.73v3.88h.61c.67,0,.83.22.83,1.33v3.66a1.86,1.86,0,0,1-.66,1.66c-.5.38-11.57,6.86-11.57,6.86ZM56.48,28c-.22,1-.39,1.94-.61,2.71a1.53,1.53,0,0,1-1.6,1.05H51.39L48.23,43.92c-.33,1.38-.33,2,.11,2.32s.11.45-.33.45H44.13c-.55,0-.88-.34-.61-1.28S46.9,31.79,46.9,31.79H44.24a1.72,1.72,0,0,0-1.49.66c-.39.56-.56.22-.39-.33s.55-1.77.66-2.32a1.5,1.5,0,0,1,1.55-1.06h10a1.46,1.46,0,0,0,1.17-.38c.39-.39.88-.89.77-.39Z"/><path class="c" d="M56.81,43.81c2.89,0,3.44-.89,3.72-1.22s.72-.67.55.22C60.46,46.13,59.36,47,55.65,47c-6,0-6.31-3.43-5.7-5.92A28.18,28.18,0,0,1,52.16,35c1.11-2.39,3.44-2.72,5.1-2.72h2.16c3.32,0,3.76,2,3.54,3.82-.09.78-.28,1.72-.55,2.94a1.56,1.56,0,0,1-1.66,1.44h-7c-.83,2.77.22,3.38,3.1,3.38Zm-2.15-6.26h4.7c.56-1.28.17-2.6-1.44-2.6a3.5,3.5,0,0,0-3.26,2.6Zm19.71-5.32H69.61c-2.72,0-4.93.83-6,4.1a24.55,24.55,0,0,0-1.39,5.37c-.33,4.16,1.66,5.37,6.2,5.37,2.77,0,4.1-.6,4.66-3.93.11-.66.11-1.1-.5-.61a5.63,5.63,0,0,1-3.93,1.22c-2.27,0-3-.77-2.11-4.48s2-4.05,4-4.05,3.2.22,3.6-1.16a4.6,4.6,0,0,0,.22-1.83ZM73,46.69h4.38c.27,0,.11-.17-.06-.34s-.22-.44-.11-.94,1.66-7.7,1.77-8.19a2.1,2.1,0,0,1,2.38-1.89c1.11,0,1.72.33,1.44,1.61s-1.88,8.19-2,8.86.06.89.22.89H85c.33,0,.16-.17,0-.34s-.11-.38-.06-.66,2-8.76,2.27-10.19c.45-2-.22-3-3-3H82.4a2.37,2.37,0,0,0-2.49,1.28s.72-3,.88-3.6S81,29,80.13,29h-3.6c-.39,0-.44.34-.17.5a.88.88,0,0,1,.28,1C76.53,30.9,73,46.69,73,46.69ZM94.8,28.41h8.7c2.38,0,4.82,2.27,4,6.09a45.77,45.77,0,0,1-2.21,8.25c-.89,2.22-2.33,3.94-5.6,3.94H92.37c-1.17,0-1.89-.28-1.39-2.22S94.69,30.18,94.8,29.8a.92.92,0,0,0-.22-.95c-.22-.16-.27-.44.22-.44Zm.78,15.12h3.54c1.55,0,2.11-.55,2.66-2.27.48-1.47,1.66-6.59,1.94-7.86a1.66,1.66,0,0,0-1.83-2H98.68l-3.1,12.18Zm24-8c-.44,1.94-2,9.14-2.16,9.69s-.06.83.11,1,.39.5,0,.5H113l.45-1.89c-1.06,1.55-1,1.89-3.66,1.89-2.88,0-4.76-1.5-3.49-5.43s2.88-4.21,4.93-4.21h2.66c1,0,1.33-.22,1.55-1s-.33-1.16-.94-1.16H109.7V32.07h7.37C119.39,32.07,120,33.56,119.56,35.5Zm-7.26,4.1c-1,0-1.82.33-2.26,1.93s.38,2,1.49,2h2.16l.94-4Zm28.75-4.1c-.45,1.94-2.05,9.14-2.16,9.69s-.06.83.11,1,.39.5.05.5h-4.54L135,44.8c-1.06,1.55-1,1.89-3.66,1.89-2.88,0-4.76-1.5-3.49-5.43s2.88-4.21,4.93-4.21h2.66c1,0,1.33-.22,1.55-1s-.33-1.16-.94-1.16h-4.82V32.07h7.36C140.88,32.07,141.49,33.56,141.05,35.5Zm-7.26,4.1c-1,0-1.83.33-2.27,1.93s.39,2,1.5,2h2.16l.94-4Zm-8.69-9.92h1.27l-.72,2.77h3.55c-.28,1.44-.72,2.77-1.78,2.77H125.1s-1.77,7-1.89,7.42,0,.83.45.83h2c.27,0,.66-.38.83-.66s.55-.61.44,0-.5,2.32-.67,2.88-.38,1-1.43,1h-4.32c-.83,0-1.66-.72-1.33-2.16s1.94-9.25,1.94-9.25h-1.28l.61-2.83C122.72,32.29,123.49,32,125.1,29.68Zm16.68,2.84a1.79,1.79,0,1,1,1.79,1.77A1.76,1.76,0,0,1,141.78,32.52ZM143.57,34a1.47,1.47,0,1,0-1.43-1.47A1.42,1.42,0,0,0,143.57,34Zm-.37-.45h-.31v-2h.78c.48,0,.71.18.71.58a.53.53,0,0,1-.52.56l.58.89h-.35l-.53-.88h-.36v.88Zm.37-1.14c.26,0,.49,0,.49-.33s-.23-.3-.44-.3h-.42v.63Z"/></svg>