<svg xmlns="http://www.w3.org/2000/svg" viewBox="0 0 160 80"><defs><style>.a{fill:none;}.b{fill:#2566af;}.c{fill:#e6a540;}</style></defs><rect class="a" width="160" height="80"/><path class="b" d="M70.68,62H59.24l7.15-43.93H77.83ZM49.62,18.05,38.71,48.26l-1.29-6.5h0L33.57,22s-.46-3.95-5.42-3.95h-18l-.21.74a42.91,42.91,0,0,1,12,5L31.81,62H43.73l18.2-43.93Zm90,43.93h10.5L140.93,18h-9.19a5.25,5.25,0,0,0-5.28,3.28L109.4,62h11.92l2.39-6.53h14.54L139.59,62ZM127,46.44,133,30l3.38,16.44ZM110.29,28.61l1.64-9.43a33,33,0,0,0-10.29-1.92c-5.68,0-19.16,2.48-19.16,14.55,0,11.35,15.82,11.49,15.82,17.45s-14.19,4.89-18.87,1.13l-1.7,9.87a32,32,0,0,0,12.91,2.48c7.8,0,19.58-4,19.58-15,0-11.43-16-12.49-16-17.46s11.14-4.33,16-1.63Z"/><path class="c" d="M37.42,41.76,33.57,22s-.46-4-5.42-4h-18l-.21.75a44.3,44.3,0,0,1,17,8.52A34.26,34.26,0,0,1,37.42,41.76Z"/></svg>